<svg width="101" height="30" viewBox="0 0 101 30" fill="none" xmlns="http://www.w3.org/2000/svg">
<g id="Amazon_logo 1" clip-path="url(#clip0_12595_5533)">
<path id="path8" d="M62.452 23.4376C56.6829 27.6899 48.3209 29.9587 41.1213 29.9587C31.0264 29.9587 21.9384 26.225 15.0629 20.015C14.5228 19.5267 15.0068 18.8612 15.655 19.2415C23.0749 23.5586 32.2494 26.1558 41.7263 26.1558C48.1178 26.1558 55.1488 24.8334 61.6137 22.0893C62.5903 21.6745 63.4071 22.7289 62.452 23.4376Z" fill="#FF9900"/>
<path id="path10" d="M64.8509 20.6921C64.1162 19.75 59.9763 20.247 58.118 20.4674C57.5519 20.5365 57.4655 20.0439 57.9754 19.6895C61.2727 17.3689 66.6832 18.0387 67.3141 18.8166C67.945 19.5988 67.1499 25.0222 64.0514 27.6107C63.576 28.0083 63.1223 27.7966 63.334 27.2693C64.0298 25.5321 65.5898 21.6385 64.8509 20.6921Z" fill="#FF9900"/>
<path id="path12" d="M58.2466 3.3067V1.0509C58.2466 0.709506 58.5059 0.480469 58.8171 0.480469H68.9163C69.2404 0.480469 69.4997 0.713828 69.4997 1.0509V2.98259C69.4954 3.3067 69.2231 3.7302 68.7391 4.40003L63.5058 11.8718C65.4505 11.8243 67.5032 12.1138 69.2663 13.1078C69.6639 13.3325 69.772 13.6609 69.8022 13.985V16.3921C69.8022 16.7205 69.4392 17.1051 69.0589 16.9063C65.9518 15.2771 61.8248 15.1 58.3892 16.9236C58.0392 17.1138 57.6719 16.7335 57.6719 16.405V14.119C57.6719 13.7517 57.6762 13.1251 58.0435 12.5676L64.1065 3.87281H58.83C58.5059 3.87281 58.2466 3.64378 58.2466 3.3067Z" fill="#221F1F"/>
<path id="path14" d="M21.4065 17.3822H18.334C18.0401 17.3606 17.8068 17.1402 17.7852 16.8593V1.09027C17.7852 0.774806 18.0488 0.524159 18.3772 0.524159H21.2423C21.5405 0.537115 21.7782 0.76616 21.7998 1.05138V3.11271H21.856C22.6036 1.12052 24.0081 0.191406 25.9009 0.191406C27.8239 0.191406 29.0253 1.12052 29.8896 3.11271C30.6328 1.12052 32.3225 0.191406 34.1332 0.191406C35.421 0.191406 36.8298 0.722945 37.6898 1.91567C38.6621 3.24236 38.4633 5.16973 38.4633 6.85942L38.459 16.8117C38.459 17.1272 38.1954 17.3822 37.867 17.3822H34.7987C34.4919 17.3606 34.2456 17.1142 34.2456 16.8117V8.45403C34.2456 7.78853 34.3061 6.12909 34.1592 5.49816C33.9301 4.4394 33.243 4.14122 32.3528 4.14122C31.6095 4.14122 30.8316 4.63819 30.5162 5.43334C30.2007 6.22848 30.231 7.55949 30.231 8.45403V16.8117C30.231 17.1272 29.9673 17.3822 29.6389 17.3822H26.5707C26.2595 17.3606 26.0175 17.1142 26.0175 16.8117L26.0132 8.45403C26.0132 6.6952 26.3027 4.10665 24.1204 4.10665C21.9121 4.10665 21.9986 6.63038 21.9986 8.45403V16.8117C21.9986 17.1272 21.735 17.3822 21.4065 17.3822Z" fill="#221F1F"/>
<path id="path16" d="M78.1956 0.191406C82.7547 0.191406 85.2223 4.10665 85.2223 9.08497C85.2223 13.8947 82.4954 17.7106 78.1956 17.7106C73.7186 17.7106 71.2812 13.7954 71.2812 8.91643C71.2812 4.00725 73.7488 0.191406 78.1956 0.191406ZM78.2215 3.41089C75.9571 3.41089 75.8145 6.49641 75.8145 8.41946C75.8145 10.3468 75.7842 14.4609 78.1956 14.4609C80.5767 14.4609 80.6891 11.142 80.6891 9.11954C80.6891 7.78853 80.6329 6.19823 80.231 4.93637C79.8853 3.83872 79.1982 3.41089 78.2215 3.41089Z" fill="#221F1F"/>
<path id="path18" d="M91.1327 17.3822H88.0731C87.7663 17.3606 87.5199 17.1142 87.5199 16.8117L87.5156 1.03841C87.5416 0.748874 87.7965 0.524159 88.1077 0.524159H90.9555C91.2234 0.537115 91.4438 0.718625 91.5043 0.964948V3.37632H91.5605C92.4205 1.21991 93.6262 0.191406 95.748 0.191406C97.1265 0.191406 98.4705 0.688374 99.3348 2.04963C100.139 3.3115 100.139 5.43334 100.139 6.95881V16.8852C100.104 17.1618 99.8491 17.3822 99.5466 17.3822H96.4654C96.1845 17.3606 95.9511 17.1531 95.9209 16.8852V8.32007C95.9209 6.59581 96.1196 4.07207 93.9978 4.07207C93.2502 4.07207 92.5631 4.57337 92.2217 5.33394C91.7895 6.29763 91.7334 7.25699 91.7334 8.32007V16.8117C91.7291 17.1272 91.4611 17.3822 91.1327 17.3822Z" fill="#221F1F"/>
<path id="use28" d="M50.196 9.85073V9.18522C47.9748 9.18522 45.6283 9.66058 45.6283 12.2794C45.6283 13.6061 46.3154 14.5049 47.4951 14.5049C48.3594 14.5049 49.133 13.9734 49.6213 13.1091C50.2263 12.046 50.196 11.0478 50.196 9.85073ZM53.2945 17.3398C53.0914 17.5213 52.7975 17.5343 52.5685 17.4133C51.5486 16.5663 51.3671 16.173 50.8054 15.3649C49.12 17.0848 47.9273 17.5991 45.7406 17.5991C43.1564 17.5991 41.1426 16.0045 41.1426 12.8109C41.1426 10.3174 42.4952 8.61911 44.4182 7.78939C46.0863 7.05474 48.4156 6.9251 50.196 6.72199V6.32442C50.196 5.59409 50.2522 4.7298 49.8244 4.09887C49.4484 3.53275 48.7311 3.29939 48.1001 3.29939C46.929 3.29939 45.8832 3.90008 45.6283 5.14466C45.5764 5.42123 45.3733 5.69348 45.0967 5.70645L42.1149 5.38666C41.8643 5.33048 41.5877 5.12737 41.6568 4.74276C42.3439 1.13003 45.6066 0.0410156 48.528 0.0410156C50.0232 0.0410156 51.9765 0.43859 53.1562 1.57081C54.6515 2.96664 54.5088 4.82919 54.5088 6.85596V11.6441C54.5088 13.0832 55.1052 13.7141 55.667 14.492C55.8658 14.7685 55.909 15.1013 55.6584 15.3087C55.0317 15.8316 53.9168 16.804 53.3032 17.3485L53.2945 17.3398Z" fill="#221F1F"/>
<path id="path30" d="M9.91478 9.85073V9.18522C7.69355 9.18522 5.347 9.66058 5.347 12.2794C5.347 13.6061 6.03411 14.5049 7.21387 14.5049C8.07816 14.5049 8.8517 13.9734 9.34003 13.1091C9.94503 12.046 9.91478 11.0478 9.91478 9.85073ZM13.0133 17.3398C12.8102 17.5213 12.5163 17.5343 12.2873 17.4133C11.2674 16.5663 11.0859 16.173 10.5241 15.3649C8.83874 17.0848 7.64602 17.5991 5.45936 17.5991C2.87512 17.5991 0.861328 16.0045 0.861328 12.8109C0.861328 10.3174 2.21394 8.61911 4.13699 7.78939C5.80507 7.05474 8.13434 6.9251 9.91478 6.72199V6.32442C9.91478 5.59409 9.97096 4.7298 9.54314 4.09887C9.16717 3.53275 8.44981 3.29939 7.81887 3.29939C6.64776 3.29939 5.60197 3.90008 5.347 5.14466C5.29514 5.42123 5.09203 5.69348 4.81546 5.70645L1.83366 5.38666C1.58301 5.33048 1.30644 5.12737 1.37558 4.74276C2.06269 1.13003 5.32539 0.0410156 8.2467 0.0410156C9.74192 0.0410156 11.6952 0.43859 12.875 1.57081C14.3702 2.96664 14.2276 4.82919 14.2276 6.85596V11.6441C14.2276 13.0832 14.824 13.7141 15.3857 14.492C15.5845 14.7685 15.6277 15.1013 15.3771 15.3087C14.7505 15.8316 13.6356 16.804 13.0219 17.3485L13.0133 17.3398Z" fill="#221F1F"/>
</g>
<defs>
<clipPath id="clip0_12595_5533">
<rect width="101" height="30" fill="white"/>
</clipPath>
</defs>
</svg>
