<?xml version="1.0" encoding="UTF-8"?>
<svg xmlns="http://www.w3.org/2000/svg" width="20" height="20" viewBox="0 0 20 20" fill="none">
  <circle opacity="0.15" cx="10" cy="10" r="10" fill="#71D4B3"></circle>
  <circle cx="10" cy="10" r="10" fill="#71D4B3" fill-opacity="0.2"></circle>
  <g clip-path="url(#clip0_6484_70616)">
    <path d="M4.17571 17.0008C3.81614 16.8348 3.7404 16.6694 3.8413 16.2713C4.00536 15.62 4.16942 14.9681 4.33704 14.3176C4.51149 13.64 4.92712 13.1691 5.57954 12.9189C6.1688 12.6925 6.76325 12.4798 7.35552 12.2627C7.38551 12.2536 7.41613 12.2468 7.44712 12.2422C7.48706 12.2709 7.5254 12.3017 7.56196 12.3346C7.93931 12.7098 8.31592 13.0855 8.69181 13.4617C8.8638 13.6332 8.99067 13.6326 9.17306 13.4669C9.29064 13.3603 9.41587 13.2621 9.53235 13.1546C9.69095 13.0084 9.84489 12.8569 10.0005 12.7076L10.0292 12.7117C10.3117 12.9725 10.5903 13.2378 10.8782 13.4923C11.0409 13.6364 11.1448 13.6214 11.3026 13.4696C11.5867 13.1962 11.873 12.925 12.1582 12.6529C12.4002 12.7442 12.6433 12.8328 12.8839 12.9263C13.4854 13.1634 13.8929 13.5946 14.0687 14.2115C14.2762 14.9388 14.4438 15.6774 14.6281 16.411C14.6517 16.506 14.6453 16.6059 14.6097 16.697C14.5742 16.7881 14.5113 16.866 14.4296 16.9199C14.3996 16.9444 14.3721 16.9718 14.3476 17.0019L4.17571 17.0008ZM9.80689 14.9651C9.80689 15.3479 9.80689 15.7291 9.80689 16.1111C9.80689 16.2751 9.88892 16.3684 10.0234 16.3692C10.1361 16.3692 10.2438 16.2538 10.2441 16.1193C10.2459 15.3505 10.2459 14.582 10.2441 13.8136C10.2441 13.663 10.1585 13.5793 10.0213 13.5804C9.88399 13.5815 9.80743 13.6638 9.80689 13.8191C9.80634 14.2011 9.80689 14.5831 9.80689 14.9651V14.9651Z" fill="#71D4B3"></path>
    <path d="M9.34018 11.1529C9.21874 11.0528 9.12154 10.9265 9.05586 10.7835C8.99018 10.6404 8.95772 10.4844 8.96093 10.3271C8.96093 9.88957 8.95956 9.45344 8.96093 9.01676C8.96378 8.67736 9.08476 8.34956 9.30308 8.08968C9.52139 7.8298 9.8234 7.65407 10.1572 7.59269C10.8233 7.47101 11.2616 6.97172 11.257 6.33488C11.2521 5.63379 10.6497 5.08008 10.0241 5.10059C9.96936 5.10223 9.91468 5.10059 9.85999 5.09922C9.59202 4.88293 9.28933 4.81156 8.94808 4.85668C8.34241 4.93734 7.868 5.46891 7.86636 6.08141C7.86636 6.52055 7.64405 6.82625 7.27519 7.03844C7.2019 7.08027 7.11878 7.10488 7.0403 7.13715C6.71026 6.86207 6.63015 6.49566 6.66651 6.09125C6.7212 5.46234 6.923 4.88402 7.30198 4.37516C7.86417 3.61992 8.61448 3.17422 9.54417 3.0293C9.56906 3.02283 9.59318 3.01366 9.61608 3.00195H10.2997L10.5458 3.04926C10.7941 3.22098 11.0508 3.38176 11.2887 3.56688C11.7489 3.9248 12.0603 4.39895 12.258 4.93953C12.4671 5.4982 12.5185 6.10359 12.4068 6.68953C12.2184 7.68402 11.6857 8.44199 10.8291 8.96535C10.3916 9.23332 10.1575 9.59426 10.1602 10.1113C10.1624 10.5376 9.95241 10.8425 9.58272 11.041C9.50589 11.0829 9.42194 11.1157 9.34018 11.1529Z" fill="#F0B986"></path>
    <path d="M14.3476 17.0004C14.372 16.9703 14.3995 16.9428 14.4296 16.9183C14.5114 16.8645 14.5745 16.7865 14.6102 16.6953C14.6459 16.604 14.6523 16.504 14.6287 16.4089C14.4444 15.6753 14.2767 14.9367 14.0692 14.2094C13.8934 13.5936 13.4854 13.1624 12.8844 12.9242C12.6438 12.8293 12.4007 12.7407 12.1587 12.6508C12.218 12.5882 12.2796 12.5275 12.3362 12.4627C12.4097 12.3784 12.4789 12.2909 12.5503 12.2051C13.2095 12.4479 13.8742 12.6773 14.5267 12.9376C15.1504 13.1864 15.5403 13.6606 15.7109 14.3081C15.8889 14.9829 16.0563 15.6605 16.2274 16.3373C16.3037 16.638 16.2116 16.8357 15.934 16.9733C15.9237 16.9811 15.9145 16.9903 15.9067 17.0006L14.3476 17.0004Z" fill="#34CCA9"></path>
    <path d="M9.34009 11.1527C9.42212 11.1155 9.50579 11.0827 9.58454 11.0403C9.95423 10.8407 10.1642 10.5358 10.162 10.1106C10.1593 9.59297 10.3923 9.23258 10.8309 8.96461C11.6875 8.44125 12.2202 7.68328 12.4086 6.68879C12.5204 6.10285 12.4689 5.49746 12.2599 4.93879C12.0622 4.39711 11.7499 3.92242 11.2905 3.56449C11.0526 3.37938 10.7959 3.21859 10.5476 3.04688C11.1642 3.13273 11.7037 3.39441 12.1713 3.79609C12.7589 4.30086 13.1447 4.93223 13.2893 5.69922C13.4788 6.70273 13.2557 7.61164 12.6317 8.41746C12.275 8.8826 11.7968 9.24026 11.2498 9.45105C11.1087 9.50574 11.0614 9.59352 11.0584 9.74117C11.0529 10.0447 11.0712 10.3578 11.0037 10.649C10.8311 11.3821 9.86509 11.6626 9.34009 11.1527Z" fill="#F0CFA4"></path>
    <path d="M7.04077 7.13508C7.11925 7.10281 7.20237 7.0782 7.27565 7.03637C7.64452 6.82555 7.86573 6.51984 7.86683 6.07934C7.86847 5.46684 8.34288 4.93527 8.94854 4.85461C9.28979 4.80949 9.59249 4.88195 9.86046 5.09715C9.28788 5.19941 8.91847 5.5259 8.78339 6.09492C8.74155 6.27019 8.75605 6.45941 8.71065 6.63305C8.5198 7.36312 7.5737 7.64285 7.04077 7.13508Z" fill="#F0CFA4"></path>
    <path d="M9.99989 12.7066C9.84431 12.8559 9.69036 13.0074 9.53177 13.1536C9.41528 13.2611 9.29005 13.3593 9.17247 13.4659C8.99009 13.6316 8.86321 13.6322 8.69122 13.4607C8.31479 13.085 7.93817 12.7093 7.56138 12.3336C7.52481 12.3007 7.48647 12.2699 7.44653 12.2412C7.65134 12.1591 7.85478 12.0725 8.06122 11.9951C8.58075 11.7999 8.45333 11.7944 8.93431 12.0747C9.29169 12.2825 9.64442 12.4958 9.99989 12.7066Z" fill="#20B895"></path>
    <path d="M12.5498 12.206C12.4785 12.2919 12.4093 12.3794 12.3357 12.4636C12.2791 12.5284 12.2176 12.5891 12.1583 12.6517C11.8731 12.9238 11.5868 13.1953 11.3027 13.4685C11.1449 13.6202 11.041 13.6353 10.8783 13.4912C10.5904 13.2366 10.3118 12.9717 10.0293 12.7105C10.4736 12.4447 10.9152 12.174 11.365 11.9176C11.4549 11.8685 11.5598 11.8547 11.6593 11.8787C11.9606 11.9742 12.2534 12.095 12.5498 12.206Z" fill="#20B895"></path>
    <path d="M9.80688 14.9648C9.80688 14.582 9.80688 14.2008 9.80688 13.8188C9.80688 13.6635 9.8829 13.5812 10.0213 13.5801C10.1596 13.579 10.2438 13.6621 10.2441 13.8133C10.2459 14.5817 10.2459 15.3502 10.2441 16.119C10.2441 16.2535 10.1361 16.3697 10.0234 16.3689C9.88809 16.3689 9.80743 16.274 9.80688 16.1108C9.80634 15.7288 9.80688 15.3468 9.80688 14.9648Z" fill="#20B895"></path>
  </g>
  <defs>
    <clipPath id="clip0_6484_70616">
      <rect width="14" height="14" fill="white" transform="translate(3 3)"></rect>
    </clipPath>
  </defs>
</svg>
