<svg width="20" height="14" viewBox="0 0 20 14" fill="none" xmlns="http://www.w3.org/2000/svg">
<g id="Group">
<path id="Vector" fill-rule="evenodd" clip-rule="evenodd" d="M20 0V4.47174H0V0H20ZM20 13.3332H0V9.14161H19.952C19.9569 9.12238 19.9807 9.13683 20 9.13205V13.3332Z" fill="#ADC7E9"/>
<path id="Vector_2" fill-rule="evenodd" clip-rule="evenodd" d="M10.065 4.74227C10.0458 4.71359 10.084 4.646 10.0268 4.646C9.97899 4.80509 10.0268 5.00298 9.98388 5.16253C9.98388 5.29272 9.9601 5.41346 9.96488 5.5441C9.95043 5.61158 9.96966 5.6983 9.9362 5.75645C9.88841 5.76123 9.92664 5.70342 9.89797 5.68897C9.88841 5.5779 9.89797 5.44282 9.86929 5.34609C9.83606 5.15889 9.70838 5.02392 9.69745 4.82785L9.6929 4.82568L9.7003 4.78529L9.70951 4.74307L9.72055 4.72099L9.72419 4.69345L9.7259 4.69129V4.67479H9.69244C9.64954 4.71359 9.63987 4.78586 9.61131 4.84401C9.61131 4.93584 9.61131 5.032 9.63987 5.10472C9.64476 5.12885 9.65432 5.15775 9.66377 5.1722C9.66866 5.22046 9.69722 5.26381 9.69244 5.31696C9.71156 5.36999 9.7069 5.44259 9.69722 5.49585C9.683 5.54399 9.71156 5.61147 9.67822 5.6406C9.63042 5.59246 9.62098 5.52464 9.58263 5.47639C9.47748 5.25403 9.36288 5.01254 9.23861 4.78574C9.22917 4.78574 9.21961 4.78096 9.20993 4.79052C9.22439 4.83877 9.22917 4.9017 9.25306 4.93994C9.26729 4.97875 9.27696 5.01254 9.29119 5.05135C9.30075 5.09971 9.31509 5.13829 9.3391 5.17687C9.34615 5.23047 9.3688 5.27053 9.3861 5.31696L9.3845 5.31764L9.49159 5.68316C9.489 5.68569 9.48584 5.68757 9.48237 5.68862C9.46815 5.67394 9.44402 5.65005 9.42502 5.65005C9.40123 5.60669 9.3391 5.58746 9.31509 5.54854C9.31509 5.51485 9.27218 5.51485 9.26729 5.48094C9.2484 5.44236 9.20994 5.40868 9.20038 5.36487C9.15292 5.28748 9.11946 5.20077 9.05244 5.13806C9.02865 5.11883 9.00475 5.09949 8.97596 5.0897C8.97596 5.0897 8.9664 5.08492 8.9713 5.08014H8.95218C8.95218 5.07536 8.94751 5.07536 8.94751 5.07058H8.93318C8.9284 5.0658 8.9235 5.06091 8.9235 5.05613C8.89016 5.05123 8.85192 5.03667 8.81858 5.05124C8.81369 5.08503 8.83758 5.07058 8.85682 5.08981C8.87593 5.10449 8.89494 5.11895 8.90928 5.13818H8.91884C8.92828 5.17198 8.96652 5.18666 8.97608 5.22023C9.04299 5.29738 9.05255 5.44248 9.10513 5.5342C9.10991 5.57278 9.13847 5.59235 9.14313 5.63093C9.16715 5.66461 9.19104 5.67907 9.20049 5.71776L9.34866 5.86262C9.34866 5.90132 9.40601 5.9061 9.38223 5.94957C9.34866 5.94479 9.34399 5.91099 9.31053 5.91099C9.2962 5.89176 9.28186 5.86752 9.26274 5.86752C9.1816 5.79491 9.09557 5.72265 9.01909 5.65027C8.95696 5.59246 8.90928 5.54399 8.8377 5.49585C8.81869 5.4765 8.80424 5.44271 8.77078 5.43781C8.7231 5.37488 8.65607 5.33141 8.59883 5.27826C8.5656 5.27826 8.5656 5.22045 8.52247 5.24458V5.27371C8.61784 5.38945 8.70865 5.48128 8.80913 5.59736L8.81175 5.60043L9.17978 6.01671L9.19116 6.02706L9.19104 6.02934L9.23417 6.07816L9.23782 6.09648L9.22951 6.10422C9.21028 6.10422 9.19605 6.08465 9.17682 6.08465C9.16737 6.06086 9.1387 6.06086 9.12447 6.03184C9.07747 5.98462 9.02626 5.94183 8.97483 5.8946L8.97539 5.89449C8.97539 5.89449 8.98086 5.8872 8.96618 5.88163C8.95367 5.87573 8.94194 5.86832 8.93124 5.85955C8.93124 5.85955 8.92202 5.85409 8.91838 5.84851C8.91474 5.84294 8.89084 5.84294 8.88527 5.83565C8.87969 5.82837 8.88344 5.83201 8.87241 5.82461C8.86137 5.81733 8.84669 5.81915 8.84487 5.81358C8.84305 5.80811 8.82472 5.81164 8.81733 5.80629C8.81004 5.80072 8.75679 5.78422 8.75679 5.78422L8.70831 5.77682L8.70876 5.77568H8.7008L8.68521 5.77329L8.69181 5.77568H8.68873L8.57687 5.72368L8.57698 5.72607C8.52054 5.69705 8.45988 5.65915 8.42222 5.60703L8.42279 5.60544L8.40435 5.57733C8.4021 5.5762 8.40003 5.57474 8.3982 5.573C8.38876 5.54888 8.36941 5.53443 8.37431 5.49596H8.34586C8.35052 5.5779 8.35052 5.66973 8.40799 5.72276C8.44714 5.78012 8.50996 5.83713 8.57493 5.86501V5.86524L8.69522 5.93932L8.69454 5.94024L8.69624 5.94001L8.74074 5.96743C8.74329 5.96979 8.74626 5.97164 8.7495 5.9729L8.79719 6.00658L8.83212 6.03776L8.85704 6.06587L8.93818 6.14314C8.94296 6.16681 8.96675 6.17648 8.9763 6.20584V6.22007L8.96128 6.21506C8.95988 6.21508 8.95847 6.21516 8.95707 6.21529L8.90279 6.19708C8.90281 6.19653 8.90292 6.19599 8.90313 6.19549L8.89767 6.19367C8.89668 6.19388 8.89569 6.19411 8.89471 6.19435L8.85886 6.1824C8.85322 6.17879 8.84677 6.17664 8.84009 6.17614L8.79013 6.15941V6.15771L8.78876 6.15714H8.78364L8.71832 6.13517L8.71809 6.13335L8.71696 6.13301H8.71184L8.68452 6.12391V6.12357C8.68043 6.12188 8.67621 6.12055 8.67189 6.11958L8.61932 6.10194L8.61784 6.09967L8.61636 6.09921H8.61124L8.5219 6.06917L8.5128 6.06564L8.51155 6.06576L8.45795 6.04766L8.45112 6.04357L8.4303 6.03662C8.4281 6.03641 8.4259 6.03626 8.4237 6.03617L8.42108 6.03526C8.41669 6.03176 8.41121 6.02995 8.4056 6.03014L8.37499 6.01978L8.37442 6.01785L8.37158 6.01694H8.36634L8.34085 6.0084V6.00749H8.33846L8.27337 5.98575C8.27349 5.9852 8.27368 5.98467 8.27394 5.98416L8.26745 5.982L8.26722 5.98189L8.25425 5.97938L8.07194 5.91827L8.06773 5.9309L8.06398 5.93045V5.94968C8.06544 5.95114 8.0667 5.95278 8.06773 5.95457L8.06614 5.95856L8.87992 6.37176L8.87696 6.3729L8.88014 6.37449C8.88492 6.38235 8.89084 6.39054 8.88094 6.39384L8.78068 6.40351C8.72822 6.42252 8.6612 6.40829 8.59917 6.41296C8.59838 6.41205 8.59758 6.41102 8.59678 6.41034H8.58973L8.56777 6.40488L8.54205 6.40306L8.53897 6.40226C8.53709 6.40193 8.53523 6.40147 8.5334 6.40089L8.51997 6.39748L8.49425 6.39384L8.47411 6.38644L8.45021 6.3754L8.42267 6.36619L8.39684 6.36072L8.35655 6.34786L8.33823 6.34411L8.32116 6.33694L8.30648 6.3333H8.27906L8.27564 6.33125H8.11132C8.07711 6.3446 8.0421 6.35581 8.00651 6.36482C7.98261 6.38917 7.93481 6.38917 7.94927 6.43708H7.96827C8.00821 6.41478 8.07649 6.40909 8.13191 6.41603L8.12486 6.4158L8.145 6.42252V6.42263L8.14568 6.42274L8.28645 6.46917L8.35257 6.49114L8.40219 6.5205L8.43894 6.53893L8.49038 6.55919L8.54637 6.5774L8.6274 6.59663C8.73243 6.61142 8.8427 6.60664 8.94763 6.61632V6.6211C8.96663 6.62565 8.99531 6.61142 9.00487 6.64033C9.01431 6.65933 8.99042 6.65455 8.98097 6.66423C8.6274 6.7077 8.26449 6.72215 7.90625 6.75595V6.78019C8.02563 6.79953 8.15456 6.80921 8.28372 6.81399C8.34074 6.82844 8.40788 6.80921 8.46034 6.82844C8.59883 6.81888 8.71332 6.85734 8.85204 6.84289C8.90939 6.86702 8.99053 6.83811 9.04788 6.87214V6.88181C8.92362 6.92517 8.78512 6.92517 8.65129 6.92972C8.56082 6.94451 8.48913 6.96853 8.42222 7.012C8.38409 7.02167 8.35052 7.06059 8.31229 7.06059C8.24549 7.11362 8.13567 7.11362 8.04964 7.10884C8.03052 7.09416 8.00196 7.08949 7.98762 7.07504H7.94949C7.93026 7.10884 7.98284 7.12329 7.98762 7.14264C8.0015 7.15311 8.01777 7.16085 8.03109 7.16813L8.02961 7.16893L8.04031 7.17336L8.04497 7.17644H8.04782L8.0782 7.18884L8.07831 7.19089L8.08765 7.19282L8.0922 7.19476L8.09254 7.19385C8.23638 7.22184 8.38273 7.17996 8.48924 7.13786C8.50825 7.12341 8.53704 7.14275 8.55126 7.11851C8.62296 7.13319 8.67531 7.09427 8.74723 7.10895C8.79229 7.13388 8.85522 7.11214 8.89926 7.12716L8.33641 7.43158L8.29419 7.45365L8.30352 7.45035L8.28873 7.45661C8.26005 7.4615 8.23604 7.4953 8.20736 7.50475C8.15479 7.5291 8.07831 7.54355 8.0592 7.60171C8.06712 7.60645 8.07619 7.60895 8.08543 7.60895C8.09467 7.60895 8.10373 7.60645 8.11166 7.60171C8.13749 7.59761 8.16014 7.58759 8.1821 7.57747L8.26802 7.5489C8.27166 7.54856 8.2753 7.54845 8.27894 7.54845C8.29726 7.54219 8.31468 7.53502 8.33175 7.52751L8.45488 7.48665C8.46334 7.48676 8.47159 7.48404 8.47832 7.47892L8.95707 7.31982L8.96322 7.31755C8.96606 7.31846 8.96879 7.31982 8.97175 7.32142C8.89528 7.40825 8.83804 7.50008 8.74723 7.5629C8.72959 7.57712 8.70433 7.586 8.68452 7.60136L8.67246 7.60432C8.67246 7.60432 8.65596 7.619 8.6357 7.62264C8.61545 7.62629 8.60452 7.63926 8.60452 7.63926C8.60452 7.63926 8.58802 7.64836 8.58256 7.6503C8.57593 7.65385 8.56974 7.65816 8.56412 7.66316L8.54216 7.6759L8.51098 7.69798L8.49812 7.70344C8.49812 7.70344 8.49266 7.70526 8.48344 7.70902C8.47422 7.71266 8.47058 7.71812 8.46318 7.7237C8.4559 7.72916 8.44486 7.73838 8.44486 7.73838L8.42096 7.75863L8.399 7.78253L8.38057 7.80825L8.36589 7.82851L8.35269 7.87357C8.35212 7.87323 8.35132 7.87278 8.35075 7.87209V7.88029L8.34563 7.89804C8.34395 7.898 8.34236 7.89731 8.34119 7.8961C8.33641 7.93969 8.32219 7.97815 8.33175 8.02652C8.36975 8.04097 8.35553 7.99761 8.37465 7.98316C8.40333 7.91534 8.47502 7.85753 8.54193 7.81383C8.59439 7.79448 8.64208 7.77036 8.69477 7.75112C8.73767 7.727 8.79024 7.73667 8.82859 7.69798L8.8336 7.69684L8.83053 7.69422L8.93704 7.64097L8.97198 7.61343C8.97198 7.61343 9.01238 7.58407 9.01613 7.5786C9.01978 7.57303 9.03992 7.55459 9.03992 7.55459C9.03992 7.55459 9.04367 7.55095 9.05835 7.53809C9.07303 7.52523 9.07303 7.52705 9.08225 7.51784C9.09147 7.50862 9.10057 7.50133 9.10797 7.49394C9.11525 7.48665 9.12083 7.47926 9.12641 7.47562C9.13187 7.47197 9.13744 7.4664 9.14837 7.459C9.15929 7.4516 9.15759 7.4499 9.17227 7.44432L9.17477 7.4433C9.19799 7.42839 9.22393 7.41724 9.25033 7.40995L8.73129 8.02481C8.71724 8.03835 8.70462 8.0533 8.69363 8.06942L8.57539 8.20939L8.57346 8.21372L8.57448 8.21349C8.5672 8.23955 8.53328 8.25002 8.54671 8.287C8.59439 8.27255 8.62774 8.24353 8.66119 8.21463C8.70899 8.17082 8.73277 8.14214 8.77112 8.10333C8.80947 8.08888 8.83326 8.04552 8.86672 8.02618C8.90962 7.99727 8.93352 7.94891 8.97642 7.92956C9.06712 7.82782 9.18661 7.75556 9.28698 7.65428C9.32988 7.6396 9.36334 7.56244 9.41125 7.56722C9.38974 7.6322 9.3177 7.68899 9.26456 7.74578C9.26359 7.74611 9.26268 7.74657 9.26183 7.74714C9.25416 7.75287 9.24735 7.75965 9.24157 7.76728C9.23611 7.77468 9.22871 7.78014 9.22325 7.7839C9.21779 7.78765 9.21221 7.79676 9.20857 7.80415C9.20493 7.81155 9.17363 7.85002 9.17363 7.85002C9.17363 7.85002 9.16259 7.86834 9.15156 7.8812C9.14052 7.89406 9.1148 7.9381 9.1148 7.9381L9.09466 7.99317L9.06234 8.10322C9.04322 8.21929 8.97631 8.33036 8.90484 8.40285C8.86171 8.42675 8.79957 8.43631 8.78057 8.48001C8.92373 8.50413 9.03844 8.41241 9.10535 8.31591C9.13403 8.29668 9.1387 8.25787 9.16737 8.2334L9.18877 8.18527L9.18945 8.18515L9.19139 8.18106V8.17946L9.19947 8.16126L9.20049 8.16114L9.20083 8.16035V8.15807L9.20868 8.14043L9.20959 8.14123L9.22575 8.10584C9.2277 8.1007 9.23002 8.09572 9.23269 8.09093L9.23622 8.08308C9.23622 8.08308 9.25454 8.05189 9.26012 8.04825C9.26558 8.0445 9.29494 8.01332 9.29494 8.01332L9.32066 7.9711L9.37768 7.91977C9.37768 7.91977 9.38678 7.91044 9.39406 7.9068C9.40146 7.90316 9.40692 7.89576 9.4125 7.89212C9.41773 7.88871 9.43469 7.87334 9.43628 7.87198V7.87187C9.45494 7.85206 9.47418 7.83488 9.5065 7.83727L9.31042 8.46556L9.30996 8.46669L9.22211 8.75984L9.22917 8.76781L9.22871 8.76974L9.23178 8.77076L9.23417 8.77338L9.2352 8.77168L9.24703 8.7752L9.26627 8.7323L9.26763 8.73071V8.72923L9.27719 8.70783C9.27868 8.7071 9.28031 8.70668 9.28197 8.70658C9.28675 8.68724 9.30575 8.65833 9.31531 8.63887L9.39645 8.48945L9.48874 8.29622L9.48749 8.29588L9.66752 7.91943L9.66422 7.92865L9.66832 7.92023C9.67503 7.91545 9.68152 7.90953 9.68801 7.91955C9.68323 8.00171 9.72135 8.06908 9.69745 8.15113H9.697L9.69449 8.1748C9.69665 8.21679 9.69096 8.25594 9.6822 8.29292L9.68197 8.29577L9.6583 8.39807L9.65819 8.39876L9.64966 8.43585L9.63099 8.50038C9.60493 8.61361 9.60732 8.74914 9.68311 8.81754C9.67833 8.84166 9.71168 8.85134 9.73557 8.84644C9.71168 8.77873 9.69734 8.70647 9.71168 8.62465C9.71839 8.62021 9.71782 8.61031 9.71725 8.60109C9.71894 8.59489 9.72016 8.58858 9.72089 8.5822C9.72215 8.58129 9.72374 8.58095 9.7259 8.58095C9.7243 8.57599 9.7236 8.57079 9.72385 8.56559C9.72624 8.55637 9.72795 8.5583 9.72795 8.5583L9.74821 8.51608L9.76209 8.48832L9.76414 8.48934V8.48433L9.7737 8.4651L9.82149 8.37315C9.87885 8.24752 9.89319 8.09798 9.89319 7.94367C9.89797 7.88074 9.90274 7.81804 9.9362 7.75511C9.9601 7.94845 9.97899 8.11255 9.97899 8.28644C10.0029 8.32513 9.97899 8.39284 10.0029 8.43585C10.0122 8.59051 10.0077 8.7595 10.0409 8.90915C10.0981 8.90437 10.0554 8.82721 10.0792 8.7884C10.0981 8.51802 10.0981 8.23807 10.1221 7.96757C10.1415 7.90942 10.1077 7.83215 10.1508 7.77912C10.2131 7.89997 10.1795 8.05941 10.2035 8.17503C10.2177 8.21873 10.2177 8.26698 10.2418 8.30555C10.2418 8.34425 10.2704 8.35858 10.28 8.3876C10.3229 8.46977 10.3754 8.54226 10.3849 8.66288C10.404 8.7257 10.3562 8.77873 10.3658 8.84633C10.404 8.84633 10.4136 8.81264 10.4376 8.78829V8.78283L10.4494 8.76428L10.4521 8.76416V8.76018L10.4532 8.75825L10.4641 8.72331L10.4734 8.67187L10.4723 8.66266C10.4886 8.42948 10.338 8.28097 10.3849 8.03505C10.3994 7.99647 10.38 7.93844 10.404 7.89975L10.4423 7.953C10.5283 8.10709 10.5712 8.26686 10.6717 8.41662C10.6859 8.46487 10.7193 8.49856 10.729 8.53258C10.7577 8.58561 10.7815 8.63375 10.8055 8.67722C10.8246 8.70146 10.8246 8.74971 10.8722 8.74004L10.7635 8.4115L10.7612 8.40866L10.7457 8.3645L10.7463 8.35995L10.7248 8.2944C10.7088 8.25662 10.6922 8.21964 10.6859 8.18447C10.6864 8.18265 10.6866 8.18094 10.6868 8.17924L10.67 8.12814C10.6611 8.11586 10.6562 8.10117 10.656 8.08603L10.6259 7.995V7.99488C10.6041 7.93933 10.589 7.88138 10.5809 7.82225H10.5855C10.7243 7.92888 10.8771 8.0833 10.9391 8.24262C10.9489 8.28143 10.9776 8.31989 11.0014 8.35381C11.0547 8.39614 11.0776 8.42925 11.1287 8.45327L11.1289 8.45338L11.1767 8.47534L11.2163 8.489L11.2205 8.4882L11.2217 8.48797H11.2219C11.2439 8.48536 11.2657 8.49241 11.2832 8.47921C11.2903 8.45782 11.2686 8.4626 11.2588 8.45509L11.2539 8.45327L11.1914 8.41469L11.1923 8.41275C11.1336 8.37691 11.1049 8.31352 11.0729 8.25696C11.0489 8.19881 11.0394 8.13144 11.0109 8.07352C11.0109 8.05178 11.0049 8.03198 10.9965 8.0132L10.9949 8.01263C10.9878 8.00831 10.9827 7.99067 10.9809 7.98293C10.9774 7.97664 10.9738 7.97038 10.9702 7.96416L10.9599 7.94822L10.9434 7.92069L10.9085 7.86936L10.8551 7.80131L10.7576 7.69172C10.7336 7.6437 10.6716 7.61001 10.6811 7.54708C10.6858 7.54796 10.6903 7.54982 10.6942 7.55254L11.0881 7.9002C11.0909 7.90316 11.0939 7.90612 11.0965 7.90908H11.0981L11.1165 7.92535C11.1217 7.93404 11.1295 7.94089 11.1387 7.94492L11.197 7.99636C11.2494 8.02527 11.3021 8.10242 11.3497 8.13155C11.412 8.18925 11.4693 8.2523 11.5456 8.27631V8.26185C11.4644 8.16023 11.3786 8.05417 11.2877 7.95767C11.2872 7.9563 11.2863 7.95505 11.2856 7.9538L11.3199 7.99044L11.2795 7.94299C11.2728 7.9321 11.2644 7.92228 11.2548 7.91386L10.988 7.59954C10.9832 7.58855 10.9752 7.57919 10.9652 7.57257L10.8316 7.41519C10.8286 7.40593 10.822 7.39824 10.8134 7.39379L10.8115 7.39152C10.8993 7.38936 10.942 7.47118 11.0154 7.50816C11.0916 7.6099 11.1825 7.67727 11.2975 7.71084C11.3737 7.73519 11.4502 7.77354 11.5264 7.8078C11.56 7.83158 11.5933 7.84125 11.6127 7.8705C11.6365 7.88472 11.6603 7.92364 11.684 7.9431C11.6936 7.97667 11.7032 8.02049 11.7414 8.03483C11.7559 7.97189 11.7321 7.90908 11.7127 7.85616C11.6817 7.82452 11.6605 7.78424 11.6225 7.75215L11.6229 7.75169L11.5127 7.66532L11.5115 7.66771C11.4901 7.6528 11.4642 7.64688 11.4458 7.63243L11.3564 7.57838C11.3408 7.56381 11.3254 7.54321 11.3077 7.5299L11.1668 7.38526C11.1542 7.36432 11.1286 7.35374 11.116 7.3345C11.0984 7.31709 11.1202 7.30753 11.1351 7.30583L11.1344 7.30731L11.1346 7.30742L11.1375 7.30173L11.5011 7.4384L11.5591 7.45923L11.56 7.46025H11.5618L11.6136 7.4788L11.6234 7.48461L11.6238 7.48472L11.6355 7.48916C11.6386 7.48925 11.6417 7.48952 11.6448 7.48995L11.7157 7.51533C11.7313 7.52273 11.747 7.53024 11.7637 7.53582L11.7477 7.52785L11.9682 7.58839H11.992L12.016 7.57564L12.0198 7.57303L11.9008 7.5134H11.8992C11.8986 7.51273 11.8979 7.51212 11.8972 7.51158L11.7887 7.45707C11.7873 7.45666 11.7859 7.45617 11.7845 7.45559L11.7829 7.45422L11.7776 7.4516L11.7771 7.45274L11.6878 7.40722H11.684C11.6805 7.40722 11.6768 7.40426 11.6754 7.40074L11.6689 7.39755C11.6547 7.39607 11.6469 7.38913 11.6382 7.38185L11.6184 7.37172L11.5353 7.33007H11.5313C11.5313 7.32927 11.5311 7.32847 11.5309 7.32768L11.5273 7.32586L11.5278 7.32529L11.4898 7.30583H11.4882C11.4878 7.30522 11.4872 7.30472 11.4866 7.30435L11.4423 7.2817H11.4405L11.4403 7.28056L11.2145 7.1654V7.16529L11.2138 7.16494L11.2129 7.1646L11.2122 7.16415L11.1964 7.15607H11.1873C11.1873 7.15425 11.1864 7.15243 11.1855 7.15049L11.1726 7.144L11.1804 7.14298C11.1766 7.13763 11.1746 7.1324 11.1824 7.12705C11.2857 7.11726 11.3897 7.11726 11.493 7.12705V7.13194H11.5121C11.5361 7.13661 11.5694 7.1415 11.5839 7.15595L11.6779 7.18429L11.739 7.20489L11.8246 7.20819L11.8871 7.21012L11.9533 7.19533C11.9533 7.19533 11.9606 7.19351 11.9771 7.18804C11.9937 7.18258 12.0175 7.17154 12.0175 7.17154L12.0671 7.14947L12.0891 7.14036C12.1059 7.13137 12.1238 7.12477 12.1091 7.09803C12.0517 7.10281 11.9993 7.12716 11.9326 7.11738C11.9279 7.10281 11.9088 7.1126 11.8943 7.10782C11.8846 7.10151 11.874 7.09665 11.8628 7.09336L11.8644 7.08893L11.6344 6.99584L11.6335 6.99846C11.6216 6.9933 11.6099 6.9878 11.5984 6.98195C11.5646 6.9675 11.5312 6.95794 11.4976 6.94349L11.4519 6.93097L11.4097 6.92551H11.3821L11.3161 6.91993V6.92096C11.2723 6.9188 11.225 6.92346 11.185 6.91481L11.1826 6.91424C11.1778 6.91231 11.1729 6.91629 11.1582 6.91629H11.1453L11.1069 6.90707L11.0537 6.87601L11.0679 6.85643C11.1261 6.84344 11.1856 6.83816 11.2451 6.84073L11.2447 6.83732L11.845 6.78406L12.0212 6.7712L12.0856 6.76209L12.1206 6.75481L12.1425 6.74923L12.1498 6.71805L11.8436 6.70372C11.843 6.70318 11.8423 6.70261 11.8418 6.70201H11.8087L11.603 6.69245C11.4452 6.69245 11.302 6.66343 11.1443 6.66832C11.1203 6.64408 11.0727 6.66832 11.0536 6.64408L11.0678 6.62474C11.2161 6.58127 11.4165 6.64898 11.5408 6.56659C11.6317 6.55714 11.6935 6.47987 11.7749 6.46053C11.7989 6.4265 11.8467 6.42172 11.8802 6.41717C11.8991 6.40272 11.9327 6.42172 11.9469 6.40272C12.0136 6.38826 12.0663 6.42172 12.1285 6.41717C12.1237 6.40272 12.1237 6.38826 12.1092 6.37859L12.1003 6.382L12.069 6.36186L12.0086 6.35447L11.9664 6.34718L11.9039 6.33796L11.8157 6.33614L11.7273 6.34502C11.6937 6.34969 11.6557 6.35447 11.627 6.36402C11.5986 6.39316 11.5552 6.40283 11.5123 6.41227L11.3405 6.42183C11.2878 6.39805 11.2162 6.42661 11.1684 6.40283C11.1875 6.38838 11.1922 6.35913 11.2258 6.36402C11.2687 6.33523 11.3116 6.33523 11.3498 6.29654C11.4645 6.2434 11.6175 6.18559 11.7225 6.11799L11.729 6.11446L12.0086 5.96345L12.0066 5.95241L12.0039 5.94092C12.0004 5.93865 11.9963 5.93743 11.9921 5.93739L11.9901 5.93864L11.9691 5.94445C11.9602 5.94903 11.9504 5.95175 11.9404 5.95241L11.9031 5.96277C11.8488 5.99167 11.7686 5.9886 11.7224 6.02706C11.6317 6.0463 11.5361 6.09933 11.4405 6.11378C11.3976 6.14746 11.3258 6.15236 11.2829 6.1816C11.2255 6.18638 11.1729 6.21995 11.1202 6.21506C11.1488 6.1667 11.1873 6.14303 11.2111 6.08954C11.2302 6.08453 11.2591 6.05608 11.2638 6.03628C11.3736 5.95913 11.4739 5.88208 11.5886 5.83372C11.6315 5.78649 11.677 5.75565 11.7133 5.70877L11.7164 5.70331L11.7646 5.58757L11.7606 5.49573H11.7495C11.7474 5.50131 11.7457 5.50131 11.7422 5.50859C11.7384 5.51588 11.7349 5.51963 11.731 5.5251C11.7275 5.53056 11.7224 5.54387 11.7224 5.54387L11.7035 5.58211C11.7035 5.58211 11.6926 5.60225 11.687 5.61147C11.6814 5.62069 11.6521 5.64641 11.6521 5.64641L11.5838 5.68874C11.5166 5.72732 11.4451 5.75622 11.3784 5.78069C11.3401 5.79002 11.3161 5.81403 11.2828 5.82382C11.2397 5.8286 11.2017 5.85773 11.1727 5.8674C11.1363 5.9045 11.0879 5.94137 11.0454 5.97836L11.0405 5.9787L11.0185 6.00078L10.9467 6.06496L10.8449 6.12561L10.8384 6.12823L10.8364 6.13062L10.8126 6.14485L11.1498 5.74177H11.1535C11.1544 5.73892 11.1555 5.73614 11.1568 5.73346L11.2375 5.63707C11.3037 5.56718 11.3666 5.49411 11.4257 5.41812C11.4591 5.34586 11.5309 5.31684 11.5547 5.23479H11.5213C11.4817 5.26734 11.4422 5.31092 11.4008 5.347C11.3837 5.35599 11.3646 5.36373 11.351 5.37818L11.3472 5.38205C11.34 5.38601 11.334 5.39198 11.3301 5.39923C11.3187 5.41073 11.305 5.42416 11.2905 5.43838L11.2872 5.43781C11.277 5.4484 11.2683 5.45886 11.2599 5.46876C11.2557 5.47309 11.2513 5.4773 11.2468 5.48162L11.2459 5.47946L10.9632 5.72732L10.9655 5.73096C10.9149 5.78706 10.8535 5.82883 10.8002 5.89176C10.7477 5.90143 10.7428 5.97369 10.6855 5.95924C10.6759 5.91588 10.7237 5.92078 10.7237 5.88698L10.8669 5.74621L10.8659 5.74575L10.9175 5.66825L10.9199 5.66461L10.9612 5.60259L10.977 5.56561V5.56345L10.9791 5.56083L10.9863 5.54319V5.53921C10.9874 5.53828 10.9883 5.53729 10.9892 5.53625L10.9961 5.51975L11.0201 5.45363L11.0228 5.44418C11.0214 5.43269 11.0212 5.4212 11.0298 5.41869L11.034 5.40424V5.39935C11.0296 5.39036 11.0329 5.38159 11.041 5.38L11.0438 5.3693L11.0805 5.29772L11.0818 5.29511V5.28316C11.0818 5.27872 11.0856 5.27451 11.0898 5.27713L11.1026 5.24811L11.1064 5.24834C11.1367 5.19166 11.1742 5.13841 11.2393 5.1095C11.2587 5.08037 11.3253 5.09983 11.3016 5.05146C11.267 5.04756 11.232 5.05431 11.2013 5.07081C11.1997 5.07069 11.1985 5.07035 11.1971 5.07035L11.0644 5.13681C11.0344 5.16333 11.0059 5.18973 10.9814 5.23001C10.9623 5.24959 10.9481 5.27826 10.9288 5.30262C10.9232 5.31686 10.9172 5.33094 10.9108 5.34484L10.9061 5.34541L10.8634 5.42677C10.8628 5.42711 10.8623 5.42768 10.8618 5.42814L10.8603 5.43269L10.8472 5.4575L10.8502 5.45579C10.8222 5.51269 10.7733 5.56458 10.7282 5.60225C10.6638 5.63935 10.6394 5.70296 10.5825 5.72072L10.6223 5.59224L10.6232 5.59269L10.623 5.5903L10.7123 5.30205C10.7129 5.30214 10.7134 5.30237 10.7139 5.30273V5.29704L10.7346 5.23058C10.7356 5.23035 10.7367 5.23024 10.7377 5.23024C10.7377 5.23024 10.7484 5.18711 10.7597 5.15536C10.759 5.15991 10.7619 5.1524 10.7672 5.13681C10.7683 5.13415 10.7697 5.13157 10.7711 5.12907L10.7705 5.12657C10.7758 5.11052 10.7824 5.08902 10.79 5.06501C10.7921 5.06216 10.7936 5.05943 10.7952 5.05658L10.7936 5.05351C10.8049 5.01721 10.8174 4.97658 10.8283 4.94039L10.8287 4.94028V4.93903L10.8465 4.87826C10.848 4.87499 10.849 4.87149 10.8493 4.8679C10.8547 4.84844 10.8575 4.83684 10.8563 4.83832L10.8618 4.81965C10.8572 4.8052 10.8667 4.79075 10.8572 4.78108C10.8476 4.77869 10.8406 4.7796 10.8354 4.78244L10.827 4.78176L10.8068 4.8233L10.8047 4.82466C10.8038 4.82705 10.8031 4.82955 10.8023 4.83206L10.5817 5.28282L10.5793 5.28122L10.4217 5.60259L10.4177 5.59895L10.4159 5.60555C10.4132 5.60476 10.4106 5.60365 10.4081 5.60225C10.3957 5.51666 10.3905 5.43017 10.3925 5.3437H10.3901L10.3941 5.30762L10.3993 5.25937C10.3993 5.25937 10.4006 5.25619 10.4023 5.25107C10.4062 5.2322 10.4124 5.21388 10.4208 5.19656C10.4218 5.19308 10.4226 5.18954 10.4231 5.18597C10.425 5.16936 10.4414 5.11428 10.4414 5.11428L10.4689 4.9784L10.4707 4.86085L10.4505 4.78551L10.434 4.73408L10.4211 4.70802L10.4164 4.70426L10.4064 4.70278L10.4093 4.69948C10.3993 4.69391 10.3883 4.69231 10.3792 4.69903C10.3986 4.77152 10.3939 4.84412 10.3841 4.91638H10.3792C10.389 4.95007 10.365 4.96941 10.3554 4.98865C10.3554 5.00799 10.3468 5.02438 10.337 5.04054L10.3386 5.04623L10.3128 5.08481L10.3116 5.08708C10.3097 5.09285 10.3084 5.0988 10.3076 5.10483H10.3039L10.299 5.11735V5.11917C10.299 5.12202 10.2972 5.12486 10.295 5.12668L10.2894 5.13897V5.14341C10.2872 5.14569 10.2861 5.14796 10.285 5.1491L10.2843 5.1507L10.2801 5.159V5.16742C10.2777 5.16981 10.2754 5.1722 10.273 5.17334L10.266 5.18768V5.19144C10.2651 5.19144 10.2642 5.19166 10.2637 5.19212L10.2604 5.19849L10.2402 5.26461L10.2237 5.32344L10.2146 5.3528L10.2108 5.43724V5.47036L10.2017 5.51064L10.1991 5.61079C10.1991 5.61966 10.1989 5.62854 10.1984 5.63719L10.1979 5.64652L10.1966 5.65403C10.1959 5.65926 10.1952 5.6645 10.1942 5.66962H10.1937L10.1723 5.78422V5.74632L10.1567 5.7783C10.1549 5.77921 10.1532 5.78012 10.1509 5.7808L10.1365 5.75156C10.1365 5.64549 10.1127 5.5441 10.1127 5.43781C10.0887 5.21101 10.0887 4.97408 10.065 4.74227Z" fill="black"/>
<path id="Vector_3" fill-rule="evenodd" clip-rule="evenodd" d="M9.06436 5.24968C9.08826 5.26391 9.1026 5.26891 9.11216 5.28803C9.13605 5.37987 9.19341 5.4428 9.23631 5.50562C9.25543 5.54419 9.29845 5.59267 9.3319 5.62158C9.37014 5.67438 9.44661 5.68428 9.46584 5.75176C9.50875 5.79034 9.55654 5.84861 9.57065 5.90164C9.58485 5.91638 9.59476 5.93472 9.59933 5.95467C9.59933 5.96935 9.61856 5.99347 9.60411 6.01248C9.56576 6.02215 9.55153 6.05629 9.51318 6.06096C9.47996 5.97902 9.43705 5.92588 9.39882 5.85817C9.31745 5.7859 9.25065 5.69395 9.17896 5.61168C9.14049 5.52974 9.10726 5.44769 9.08814 5.36063C9.07847 5.32206 9.05958 5.28803 9.0548 5.24968H9.06436ZM10.4401 5.00308C10.4305 5.0272 10.4163 5.05645 10.421 5.08535C10.3972 5.09013 10.4163 5.11915 10.4018 5.13383C10.4065 5.17708 10.3685 5.2111 10.3732 5.25423C10.3445 5.31716 10.3494 5.38943 10.3494 5.46214L10.3636 5.4766V5.66493H10.354L10.3398 5.78101C10.3207 5.79523 10.3254 5.82892 10.3158 5.85327C10.3016 5.8725 10.2967 5.88229 10.292 5.9112C10.2871 5.90642 10.2825 5.9112 10.2825 5.91598V5.92576C10.2396 5.92098 10.2013 5.92098 10.1678 5.90152V5.87239C10.1773 5.85805 10.1964 5.83393 10.1964 5.80457C10.2013 5.7809 10.2062 5.75643 10.2109 5.73708H10.2204C10.2491 5.59244 10.2251 5.45236 10.2585 5.31204C10.2825 5.25412 10.2967 5.18208 10.3398 5.13383V5.11927C10.3445 5.12405 10.3445 5.11927 10.3494 5.11449V5.10003C10.354 5.10003 10.3589 5.09503 10.3636 5.09025V5.07591C10.3732 5.05167 10.3876 5.02254 10.3972 4.99363C10.4114 4.97918 10.4065 4.92649 10.4401 4.93093V5.00308ZM11.7774 6.7417V6.76594C11.4718 6.76594 11.2091 6.81419 10.9133 6.81419C10.9226 6.77061 10.889 6.69823 10.9417 6.68378C11.2187 6.7079 11.5005 6.71746 11.7774 6.7417ZM8.85907 6.22005C8.87818 6.22961 8.9022 6.24918 8.93076 6.24918C8.969 6.27831 9.02146 6.26363 9.06436 6.28787C9.07858 6.30722 9.11705 6.312 9.1455 6.32167C9.18374 6.32167 9.19796 6.35535 9.2362 6.35046C9.2362 6.35524 9.2412 6.36002 9.24598 6.36002H9.26021C9.26021 6.37083 9.26021 6.38141 9.25975 6.392C9.24655 6.41931 9.23483 6.44742 9.22448 6.47621H9.17406C9.11842 6.44583 9.05992 6.41294 9.00063 6.3838L9.00018 6.38483L8.93952 6.36093L8.76325 6.27103L8.53554 6.15347L8.53656 6.15359C8.52972 6.15034 8.52377 6.14548 8.51922 6.13944C8.51466 6.1334 8.51163 6.12635 8.51039 6.11888C8.63443 6.1331 8.73946 6.19615 8.85907 6.22005ZM11.0611 5.79512C11.0546 5.79888 11.048 5.80309 11.042 5.80787L10.9939 5.86351C10.9904 5.86977 10.9872 5.87603 10.9846 5.8824C10.9772 5.88768 10.9701 5.89326 10.9632 5.89913L10.8623 6.016C10.8606 6.02 10.8578 6.02338 10.8541 6.02568L10.7361 6.16224L10.7319 6.16838L10.7312 6.16668C10.6694 6.22016 10.6727 6.12855 10.6216 6.11922C10.6216 6.06619 10.6883 6.05652 10.7076 6.01748C10.8032 5.96445 10.8988 5.83427 10.9942 5.77111C10.9991 5.7422 11.0324 5.7422 11.0324 5.70841C11.0657 5.71808 11.0562 5.68917 11.0657 5.6795V5.66994C11.0993 5.66994 11.0849 5.64582 11.1089 5.63592L11.1182 5.62636C11.1518 5.63592 11.1564 5.60735 11.1709 5.5929H11.2091L11.2045 5.6218L11.1991 5.62613L11.1005 5.74038C11.0862 5.75962 11.073 5.77851 11.0611 5.79512ZM11.5578 6.12855C11.5434 6.17168 11.486 6.18648 11.4527 6.21527C11.3666 6.2345 11.2953 6.28309 11.2139 6.32656C11.0992 6.36013 10.9941 6.4473 10.8652 6.4712C10.851 6.42762 10.8223 6.40861 10.8272 6.36013C10.8844 6.36491 10.9273 6.312 10.9846 6.31689C11.0275 6.28787 11.0755 6.28298 11.1231 6.26875C11.1949 6.22972 11.2856 6.22483 11.3572 6.1817C11.424 6.16201 11.4813 6.11888 11.5578 6.12855ZM8.30964 6.37459C8.32398 6.39405 8.36688 6.37459 8.3909 6.39405C8.3909 6.41817 8.41957 6.40372 8.43391 6.4085C8.43391 6.41817 8.44359 6.42272 8.45303 6.41817H8.47215V6.42272C8.65832 6.48088 8.87818 6.4085 9.06436 6.46654C9.1026 6.48554 9.1455 6.49521 9.17418 6.52446C9.19341 6.51456 9.19341 6.53891 9.20285 6.53891L9.20342 6.54403C9.19546 6.57419 9.18897 6.60492 9.18419 6.63621C9.1562 6.63689 9.13787 6.62073 9.11204 6.61641C9.09782 6.59672 9.06425 6.60674 9.04524 6.58716C8.8734 6.53413 8.66777 6.57271 8.50549 6.50978C8.49115 6.505 8.47693 6.48088 8.45292 6.49055C8.42476 6.46799 8.3922 6.45155 8.35733 6.4423C8.34321 6.42762 8.30953 6.42762 8.28586 6.41829C8.27152 6.40383 8.21417 6.40861 8.22372 6.36503L8.30964 6.37459ZM11.5963 5.74687C11.5818 5.79512 11.5242 5.79979 11.5005 5.83859C11.4671 5.83859 11.4384 5.88229 11.4002 5.88718C11.3142 5.95945 11.1899 6.01737 11.1421 6.12377C11.0705 6.17658 11.0132 6.24929 10.9271 6.27843C10.8938 6.312 10.8318 6.312 10.7935 6.32656C10.7744 6.29276 10.7409 6.26875 10.7409 6.22005C10.8031 6.21026 10.8318 6.18648 10.8889 6.15723C11.0514 6.0415 11.1374 5.90152 11.3285 5.83848C11.3714 5.80457 11.4383 5.81925 11.4812 5.7809C11.5196 5.7809 11.5483 5.74198 11.5963 5.74687ZM10.3158 7.68817C10.3254 7.72698 10.3445 7.76556 10.3445 7.80914C10.3732 8.00704 10.3016 8.24829 10.4065 8.41763C10.4114 8.4562 10.421 8.50445 10.421 8.53837H10.4065C10.3827 8.53837 10.3876 8.51891 10.3732 8.50445C10.354 8.43663 10.3158 8.37404 10.2825 8.32101C10.2682 8.26309 10.2396 8.2096 10.2347 8.14701C10.2109 7.99281 10.2396 7.82826 10.1678 7.68829C10.1727 7.66439 10.1535 7.64971 10.1629 7.62558C10.2062 7.64003 10.2251 7.5969 10.2682 7.60646L10.3158 7.68817ZM10.1055 7.63526C10.0817 7.90564 10.0771 8.17592 10.0579 8.4463C10.0558 8.45078 10.0523 8.45454 10.0481 8.45715C10.0438 8.45975 10.0389 8.46108 10.0339 8.46098C10.01 8.3836 10.0387 8.30656 10.01 8.22929C10.0054 8.03617 9.98158 7.82826 9.98158 7.63526C10.0245 7.64493 10.0627 7.6208 10.1055 7.63526ZM11.4993 6.98353L11.5629 7.01084C11.5687 7.01107 11.5741 7.01243 11.5769 7.01687C11.6487 7.04577 11.7105 7.09915 11.7872 7.12828C11.8159 7.11371 11.8206 7.1524 11.8446 7.13784V7.16208C11.8015 7.16686 11.7586 7.15718 11.7203 7.14762C11.6581 7.12339 11.5912 7.11371 11.5242 7.08959L11.5147 7.07992C11.3764 7.04578 11.2473 7.09915 11.1089 7.07992C11.0849 7.06068 11.0466 7.07024 11.0228 7.05545C10.9991 7.03622 10.9704 7.04577 10.9466 7.03132C10.9321 7.01687 10.8988 7.01209 10.8844 6.99764C10.889 6.95906 10.8844 6.91536 10.9133 6.88646C10.9368 6.90114 10.9753 6.88646 10.9942 6.90592C11.0133 6.91536 11.0515 6.92981 11.0802 6.93971C11.2138 6.97556 11.3718 6.9404 11.5007 6.98592L11.4993 6.98353ZM9.64474 5.99006L9.67239 5.97879C9.68377 5.97822 9.69492 5.97208 9.70676 5.96468L9.77515 5.9368L9.76605 5.91848C9.76616 5.9145 9.76559 5.91154 9.76241 5.9112L9.76115 5.90858C9.75512 5.88127 9.74135 5.86329 9.72918 5.84428L9.71142 5.80855L9.70915 5.79979C9.70232 5.78715 9.69538 5.77464 9.68832 5.76212L9.54721 5.47785L9.54676 5.47648C9.54166 5.46517 9.53608 5.45408 9.53003 5.44325L9.45697 5.29622L9.45606 5.29281C9.45508 5.29161 9.45417 5.29035 9.45333 5.28906L9.37105 5.12325H9.36559L9.36012 5.13053L9.35284 5.136L9.57338 5.78101C9.57725 5.79512 9.58215 5.80889 9.58761 5.82232L9.64474 5.99006ZM10.8256 7.1433L10.8181 7.13955L10.815 7.13647C10.8295 7.10613 10.8422 7.07497 10.8531 7.04316L10.8624 7.0221L10.8694 7.02575L10.8706 7.02836L10.8624 7.02199L10.8771 7.03303L10.9787 7.08401C10.9856 7.08583 10.9925 7.08754 10.9992 7.08947C11.011 7.09846 11.0223 7.10563 11.0337 7.11166L11.0551 7.12236C11.0726 7.13067 11.0904 7.13795 11.1091 7.14751C11.1093 7.14842 11.1096 7.14933 11.11 7.15002L11.1409 7.16561C11.1465 7.16656 11.1518 7.16857 11.1567 7.17152C11.2716 7.22945 11.391 7.29215 11.5102 7.35007V7.35144L11.7752 7.48117L11.7787 7.51235L11.0486 7.23229C11.0433 7.23112 11.0379 7.23017 11.0325 7.22945C10.9992 7.21955 10.9656 7.20532 10.9274 7.19565C10.894 7.18598 10.8605 7.16674 10.8273 7.14751C10.8265 7.14615 10.8261 7.14467 10.8256 7.1433ZM10.8748 7.0386L10.8722 7.04566C10.8738 7.04507 10.8756 7.04462 10.8773 7.0443L10.8748 7.0386ZM9.176 6.81886C8.92848 6.8093 8.6573 6.79473 8.41491 6.76594C8.58185 6.74671 8.72535 6.72236 8.87819 6.72236C8.93076 6.69823 8.98322 6.71746 9.04536 6.70301C9.08291 6.69357 9.13446 6.69812 9.17725 6.69823C9.17542 6.72087 9.17451 6.74357 9.17452 6.76628V6.76708C9.1744 6.78438 9.17497 6.80167 9.176 6.81886ZM8.85326 7.95856L8.85872 7.95184V7.94559L8.88774 7.91657L8.91062 7.8888C8.90868 7.85762 8.95409 7.85955 8.94965 7.82314C8.99267 7.79901 9.00689 7.75088 9.04991 7.71207C9.05924 7.69887 9.07164 7.68851 9.08416 7.67827L9.13093 7.6216C9.13106 7.62127 9.13114 7.62093 9.13116 7.62058C9.13217 7.61968 9.13311 7.61873 9.13401 7.61773L9.22709 7.50484L9.23142 7.49505L9.23449 7.49585L9.2511 7.47582C9.25213 7.47173 9.25418 7.4682 9.25873 7.46649L9.37094 7.3305L9.39449 7.34575L9.39711 7.34529C9.42009 7.37081 9.44464 7.39487 9.47062 7.41733C9.47836 7.45477 9.43114 7.44988 9.4226 7.48049C9.27728 7.59998 9.15779 7.70604 9.02339 7.81563L9.00735 7.83349L8.97776 7.85728C8.9649 7.87287 8.95181 7.88903 8.93167 7.89426L8.85861 7.95287V7.9523L8.85326 7.95856ZM10.0532 5.09992C10.0435 5.24456 10.0913 5.38453 10.0771 5.51995C10.1008 5.65037 10.0913 5.74676 10.1104 5.88707C10.0817 5.9063 10.0293 5.89663 9.99114 5.89663C9.98717 5.62723 9.99986 5.35785 10.0292 5.09002L10.0532 5.09992ZM9.39461 7.66234L9.38015 7.68055C9.37851 7.68161 9.3768 7.68256 9.37503 7.68339L9.37492 7.68715L9.36946 7.69409L9.33475 7.72743C9.32921 7.73131 9.3244 7.73612 9.32052 7.74166L9.30322 7.76169C9.2857 7.77876 9.26362 7.79731 9.25099 7.82211L9.23392 7.84192C9.21093 7.86274 9.20376 7.89449 9.1793 7.91532C9.17593 7.92284 9.173 7.93055 9.17053 7.93842L9.14573 7.98314L9.14527 7.98439C9.13651 8.00635 9.12422 8.03207 9.11864 8.05813L9.11614 8.06599C9.11238 8.06917 9.11147 8.07441 9.11147 8.08032L9.10692 8.09455L9.1117 8.08749C9.11238 8.09887 9.11341 8.11048 9.10282 8.11333C9.09805 8.17114 9.06459 8.21495 9.04547 8.26787C9.04547 8.27754 9.03591 8.30178 9.05025 8.30178C9.08359 8.297 9.07881 8.24841 9.11227 8.23896C9.19352 7.97324 9.4086 7.88607 9.55176 7.68351C9.57942 7.63708 9.61162 7.58143 9.61811 7.521C9.58667 7.50352 9.55638 7.48406 9.52741 7.46274C9.5228 7.46181 9.51811 7.46135 9.51341 7.46137C9.51341 7.4806 9.49441 7.47104 9.50397 7.49016C9.48974 7.50951 9.48018 7.53864 9.46596 7.55309L9.45401 7.58063C9.44183 7.58939 9.43557 7.60783 9.43557 7.60783L9.40064 7.65005L9.39461 7.66234ZM11.1709 7.42734L11.2283 7.48561C11.2283 7.50962 11.2427 7.5243 11.2665 7.5243L11.2905 7.54843C11.3001 7.59178 11.3334 7.58211 11.3572 7.60646C11.3716 7.64504 11.4194 7.62558 11.4386 7.65471C11.4672 7.67406 11.5101 7.69807 11.5435 7.71241C11.553 7.74154 11.5675 7.74632 11.577 7.77045C11.4957 7.75122 11.4099 7.71742 11.3238 7.68829C11.2091 7.65961 11.128 7.55799 11.0275 7.4954C10.9417 7.413 10.851 7.32629 10.741 7.29238L10.7454 7.25721C10.7541 7.24481 10.7622 7.23206 10.7703 7.21921L10.7937 7.19588C10.8988 7.1911 10.9893 7.27781 11.0657 7.34552C11.0944 7.36441 11.1231 7.42734 11.1709 7.42734ZM9.56098 7.80493L9.34544 8.4636L9.35762 8.47088L9.37481 8.46599L9.65964 7.8393C9.67489 7.80994 9.6898 7.78069 9.70459 7.75099C9.70551 7.74416 9.70687 7.7379 9.70846 7.7321L9.71757 7.71196L9.71643 7.7115C9.72326 7.69762 9.73236 7.68476 9.74272 7.66894C9.75205 7.64948 9.77618 7.62535 9.7665 7.59156C9.76554 7.58895 9.76403 7.58658 9.76206 7.58461C9.75555 7.58237 9.74907 7.58006 9.7426 7.57767C9.73236 7.57699 9.72223 7.57745 9.71916 7.5688L9.71563 7.56732H9.70448C9.70209 7.56493 9.69959 7.56242 9.69777 7.56003L9.68172 7.55298H9.65179C9.63678 7.57596 9.62854 7.60269 9.62801 7.63013L9.6106 7.67782L9.60969 7.67759L9.56098 7.80493ZM9.20411 6.99183C9.14163 7.06091 9.03864 7.07024 8.94021 7.07502C8.72046 7.05533 8.51039 7.07013 8.31431 7.14751H8.24762C8.24762 7.12817 8.25718 7.12817 8.27619 7.11838C8.33673 7.10199 8.38361 7.06831 8.4429 7.03781L8.44188 7.03667L8.48592 7.01641L8.51346 7.00173L8.5245 6.99718C8.52843 6.99382 8.53333 6.99179 8.53849 6.99138L8.54464 6.98888C8.54464 6.98888 8.55568 6.97613 8.57582 6.97613L8.58936 6.97579C8.75938 6.91934 8.99107 6.99343 9.14539 6.88646C9.162 6.87963 9.17384 6.8794 9.18214 6.88361C9.18738 6.92037 9.19466 6.95667 9.20411 6.99183ZM8.75972 5.49241L8.99551 5.76041C8.99597 5.76326 8.99813 5.76519 9.00097 5.76667L9.3657 6.18113L9.36809 6.17897C9.36877 6.17988 9.36946 6.1809 9.37025 6.1817C9.41805 6.19126 9.41805 6.14756 9.45617 6.12855V6.10352L9.46846 6.09293L9.47392 6.08554L9.47757 6.07825L8.77804 5.48877L8.75972 5.49241ZM10.6112 7.40925C10.6119 7.42108 10.6124 7.43372 10.6232 7.43668L10.6258 7.43702L10.6327 7.44339C10.6337 7.44954 10.6388 7.4517 10.6444 7.45375L11.006 7.77955V7.77989L11.0065 7.78001L11.1965 7.95128L11.2094 7.95674L11.2147 7.91566L11.2259 7.89062L11.0878 7.74439C11.066 7.71706 11.0435 7.69035 11.0202 7.66427L10.9869 7.62547H10.9773C10.9766 7.62533 10.9758 7.62514 10.9751 7.6249L10.9347 7.582C10.9334 7.57726 10.9334 7.57231 10.9344 7.56754L10.9009 7.53386C10.8722 7.52419 10.8531 7.50461 10.8531 7.47582L10.8197 7.44658L10.791 7.39355H10.7864C10.7325 7.39798 10.7323 7.32561 10.6931 7.32527C10.6678 7.35512 10.6404 7.38318 10.6112 7.40925ZM9.29526 7.20726C9.29025 7.20612 9.28627 7.2043 9.28627 7.19565C9.12388 7.22467 9.01884 7.32606 8.90891 7.45136C8.87079 7.4806 8.84689 7.53386 8.79921 7.55309C8.7513 7.61124 8.67961 7.63525 8.61747 7.66905C8.6078 7.70262 8.56034 7.68351 8.56979 7.72698C8.74185 7.7123 8.90891 7.63526 9.01395 7.5243C9.02829 7.50962 9.06152 7.48072 9.08075 7.46148C9.13799 7.42291 9.18578 7.34063 9.27671 7.33585C9.29424 7.30933 9.35637 7.32754 9.34761 7.28555C9.32883 7.26036 9.31136 7.23423 9.29526 7.20726ZM9.21526 7.03929L9.21685 7.03849L9.20581 7.02575L9.20217 7.01653L8.4437 7.40026L8.46384 7.42234L8.46578 7.42052L8.46293 7.41778L8.47124 7.43144L9.26453 7.16515L9.26089 7.14501L9.25702 7.1408L9.2585 7.13852C9.24525 7.11079 9.23348 7.08237 9.22322 7.0534C9.22219 7.05249 9.22113 7.05162 9.22004 7.05078L9.22186 7.04964L9.2214 7.04828L9.21526 7.03929ZM10.6505 5.35927C10.6503 5.36132 10.6503 5.36325 10.6503 5.3653C10.6493 5.36596 10.6485 5.36668 10.6477 5.36746L10.6318 5.41366C10.6305 5.42072 10.6292 5.42755 10.6263 5.43313C10.6259 5.43312 10.6255 5.4332 10.6251 5.43335L10.6125 5.47C10.6121 5.47272 10.6112 5.47535 10.6099 5.47773L10.5607 5.62215C10.5534 5.64934 10.5465 5.67654 10.5385 5.70328L10.539 5.70363L10.4565 5.95728C10.4566 5.95854 10.4564 5.9598 10.4561 5.96099C10.4557 5.96219 10.455 5.96329 10.4542 5.96423L10.4453 5.99199L10.4049 5.98653L10.3934 5.97629C10.3727 5.96354 10.3341 5.95819 10.3207 5.94021L10.3209 5.93748L10.3132 5.93498L10.3237 5.91313L10.3255 5.89674C10.335 5.87728 10.3542 5.84849 10.3637 5.82892H10.3639L10.3733 5.80946V5.80468H10.3756L10.4383 5.67347C10.4392 5.66903 10.4401 5.66459 10.4403 5.66015C10.4427 5.65567 10.446 5.65178 10.4501 5.64877L10.4837 5.57867C10.4846 5.57502 10.4861 5.57152 10.4881 5.56832L10.4941 5.55682L10.6255 5.28189C10.6278 5.27387 10.6314 5.26627 10.6362 5.25935L10.6679 5.19312L10.699 5.13804L10.7118 5.13998L10.7209 5.1748L10.688 5.25014L10.6505 5.35927ZM8.85144 5.86875C8.85873 5.86989 8.86601 5.87091 8.87352 5.87239C8.88774 5.89663 8.93076 5.9063 8.94021 5.92576L8.94567 5.92975L8.96342 5.93862L8.95341 5.93532L9.00701 5.97379V5.98357C9.08826 6.08463 9.20752 6.17157 9.34613 6.21993L9.34283 6.25441C9.32689 6.27592 9.3121 6.29811 9.29822 6.32099C9.29289 6.32511 9.28659 6.32777 9.27992 6.32871C9.27326 6.32964 9.26646 6.32883 9.26021 6.32634C9.2362 6.30699 9.18852 6.31177 9.1694 6.2782H9.15995C9.13127 6.25385 9.09304 6.24417 9.07858 6.21504C9.07381 6.20559 9.06436 6.21504 9.05491 6.21015C8.97856 6.143 8.9022 6.01714 8.81616 5.95922C8.75881 5.89652 8.67744 5.87706 8.60586 5.83836C8.61064 5.83381 8.60586 5.83381 8.60108 5.82869H8.58663C8.55829 5.80445 8.52973 5.79489 8.50572 5.77077L8.50094 5.74186C8.50587 5.74041 8.51108 5.74024 8.5161 5.74135C8.52112 5.74247 8.52577 5.74484 8.52962 5.74824L8.77622 5.84292L8.84598 5.86499L8.85144 5.86875ZM11.7632 6.37959C11.7823 6.41316 11.7392 6.42272 11.7152 6.42272C11.663 6.44708 11.6247 6.49533 11.5674 6.50489C11.5242 6.53891 11.4527 6.55336 11.3858 6.55814L11.3764 6.56759C11.257 6.57749 11.1468 6.54859 11.042 6.59194C10.9942 6.60196 10.9466 6.62574 10.8988 6.61641C10.9035 6.58227 10.8844 6.55826 10.8844 6.52446C10.9179 6.51456 10.9466 6.49533 10.9753 6.47621C11.1469 6.4085 11.3764 6.49043 11.5483 6.4324C11.5865 6.4324 11.6247 6.41817 11.6534 6.39405C11.6868 6.38927 11.7299 6.38437 11.7632 6.37959ZM11.0268 8.25421L11.0294 8.25933L11.0274 8.25808C11.0273 8.25678 11.0271 8.25549 11.0268 8.25421ZM11.0569 8.31122L11.0524 8.29859C11.0507 8.29049 11.048 8.28265 11.0442 8.27526L11.0147 8.1923C10.9942 8.11025 10.9596 8.03344 10.9368 7.96846C10.9081 7.92988 10.8988 7.90075 10.8652 7.87184C10.7888 7.76055 10.6789 7.66905 10.6216 7.55309C10.5976 7.52419 10.5927 7.49517 10.5785 7.45648C10.5711 7.45427 10.5634 7.45372 10.5558 7.45488C10.5442 7.46353 10.5325 7.47195 10.5207 7.48015C10.5088 7.49346 10.4975 7.50734 10.4782 7.50951C10.4782 7.63992 10.5976 7.76055 10.6836 7.8426C10.8032 7.95401 10.9226 8.07463 10.9704 8.23373C10.9942 8.26309 11.0086 8.31623 11.042 8.3259L11.0562 8.31623C11.0555 8.31282 11.0548 8.30917 11.0539 8.30587L11.0569 8.31122ZM9.67046 8.62702L9.67967 8.59208L9.69435 8.55362L9.70926 8.51879L9.72747 8.47635L9.74761 8.43048L9.76662 8.3935V8.39339C9.76719 8.3927 9.78448 8.36778 9.78801 8.35333C9.79165 8.33865 9.81191 8.29836 9.81191 8.29836L9.82659 8.25979L9.83353 8.21472L9.84127 8.18434L9.84047 8.1824C9.86346 8.05916 9.84582 7.91918 9.87655 7.79901C9.88121 7.79446 9.88178 7.78729 9.88133 7.77967L9.89805 7.71639V7.71617V7.71605C9.90761 7.68692 9.91933 7.65927 9.91933 7.62524C9.91333 7.62233 9.90703 7.62004 9.90056 7.61841C9.89292 7.61718 9.8853 7.61589 9.87768 7.61454C9.86198 7.61261 9.84593 7.61181 9.83171 7.60828L9.83194 7.60578L9.80258 7.60214L9.79518 7.61318L9.76639 7.7074C9.75194 7.77011 9.7426 7.83281 9.73293 7.89574C9.73782 8.06951 9.75194 8.23873 9.69469 8.39327C9.66613 8.45108 9.66124 8.51379 9.65646 8.5815V8.6252L9.67046 8.62702ZM11.0802 5.19153C11.0802 5.22556 11.0562 5.23978 11.0515 5.27381C11.0324 5.27836 11.0371 5.30749 11.0275 5.32194C11.0086 5.34607 11.0086 5.37975 10.9942 5.40422C10.9893 5.46203 10.9562 5.50561 10.9466 5.55375C10.9179 5.57298 10.9133 5.60701 10.8988 5.63114C10.889 5.64069 10.8795 5.66971 10.8652 5.67927C10.8079 5.73708 10.765 5.79501 10.7076 5.84348C10.7123 5.85794 10.6883 5.86761 10.6883 5.87239C10.6694 5.90152 10.6596 5.94021 10.6311 5.95455C10.5976 5.99336 10.6022 6.07507 10.5402 6.06084C10.5118 6.05618 10.4878 6.01726 10.4782 6.00781C10.4735 5.96423 10.4973 5.93054 10.5118 5.89674C10.5356 5.8725 10.5547 5.83859 10.5738 5.80468C10.612 5.76622 10.6407 5.74209 10.6596 5.70829C10.7027 5.67438 10.765 5.60712 10.8032 5.583C10.8319 5.53941 10.8795 5.49606 10.8988 5.43802C10.9081 5.42835 10.9321 5.41844 10.9226 5.39955C10.9368 5.38476 10.9466 5.35586 10.9562 5.33662C10.9655 5.32217 10.9846 5.29782 10.9846 5.27392C11.0275 5.25924 11.0228 5.17708 11.0802 5.19153ZM10.4594 7.60157C10.5357 7.8426 10.6217 8.08431 10.6837 8.32579C10.6504 8.32579 10.6504 8.2921 10.6362 8.26775C10.5977 8.20949 10.5739 8.1469 10.5452 8.08431C10.5214 8.04573 10.4974 7.97791 10.4783 7.94445C10.469 7.90564 10.4354 7.87184 10.4259 7.83304C10.4018 7.80925 10.4065 7.77033 10.3732 7.74621C10.3685 7.68351 10.3111 7.65949 10.3158 7.59178C10.354 7.57244 10.4641 7.49995 10.4594 7.60157ZM9.70448 5.04188C9.71393 5.07579 9.74272 5.10481 9.75205 5.14817C9.83342 5.24968 9.8382 5.36052 9.8572 5.49116C9.86221 5.55865 9.84775 5.6358 9.86687 5.69384C9.86687 5.771 9.90978 5.82892 9.91933 5.89674C9.88121 5.9063 9.85242 5.93054 9.8094 5.92098C9.79017 5.86294 9.75194 5.82892 9.74727 5.75654C9.69469 5.5731 9.78073 5.35574 9.69469 5.18709C9.68047 5.1146 9.65646 5.03221 9.65179 4.95483C9.69003 4.95471 9.68536 5.01275 9.70448 5.04188ZM9.55336 7.43815C9.56246 7.44293 9.57213 7.44737 9.58237 7.45136C9.59375 7.46228 9.60559 7.47173 9.61765 7.48026C9.64929 7.49881 9.68218 7.51554 9.71643 7.52988C9.75842 7.54513 9.80326 7.55662 9.84992 7.57244C9.92844 7.58787 10.0084 7.59459 10.0884 7.59247C10.145 7.58898 10.201 7.57964 10.2556 7.56459L10.261 7.56276C10.3416 7.53215 10.4105 7.50621 10.4776 7.46638C10.6153 7.37922 10.7242 7.25353 10.791 7.10495V7.10381C10.7921 7.10099 10.7934 7.09828 10.795 7.09573C10.8386 6.99491 10.8631 6.88407 10.8631 6.76719V6.76651C10.8632 6.65786 10.8419 6.55026 10.8003 6.44988C10.7587 6.3495 10.6977 6.25832 10.6208 6.18158C10.5442 6.10474 10.4532 6.04378 10.353 6.00222C10.2528 5.96066 10.1454 5.93932 10.0369 5.93942H10.0361C9.92751 5.93928 9.81997 5.96062 9.71967 6.0022C9.61936 6.04378 9.52826 6.10478 9.45162 6.1817C9.41715 6.21614 9.38581 6.25357 9.35796 6.29356V6.29732C9.35603 6.29857 9.35432 6.29993 9.35261 6.3013C9.25929 6.43836 9.20944 6.60036 9.20957 6.76617V6.76697C9.2094 6.89811 9.2405 7.02741 9.30029 7.14414C9.36008 7.26086 9.44683 7.36165 9.55336 7.43815ZM10.2491 7.01209L10.2204 7.02654V7.05067C10.1918 7.06535 10.1535 7.05067 10.12 7.041C10.1153 7.02176 10.1342 7.02654 10.144 7.01687L10.2204 7.02654C10.2204 7.01687 10.2347 7.01209 10.2491 7.01209ZM9.86232 6.6452C9.8712 6.6633 9.86164 6.6625 9.84958 6.66182L9.83581 6.65487L9.80827 6.63098L9.79177 6.61265L9.76969 6.59797L9.75137 6.58876L9.72758 6.58318L9.70915 6.57408H9.68525L9.67603 6.57043L9.62824 6.56782L9.60627 6.57043L9.58237 6.57408L9.54937 6.57954L9.53276 6.58318L9.5108 6.5924L9.48508 6.60901L9.45572 6.62551L9.42636 6.64748L9.41168 6.66591L9.39518 6.68981L9.37674 6.70449L9.36752 6.71735L9.38948 6.71917L9.44832 6.65123L9.47404 6.63655L9.49782 6.62733L9.52354 6.62187L9.56212 6.61083L9.5859 6.60719L9.62448 6.60537L9.6428 6.60344L9.65384 6.5998H9.67034L9.70892 6.61265L9.73464 6.62187L9.74568 6.63109L9.77868 6.64213L9.83558 6.67729C9.85549 6.7087 9.88394 6.71439 9.86687 6.76617L9.82864 6.77084C9.74272 6.82887 9.61367 6.8629 9.50863 6.81442C9.48735 6.79746 9.45503 6.7953 9.44798 6.76822L9.44456 6.77072L9.39381 6.73214C9.35421 6.73283 9.30994 6.7582 9.27466 6.74193C9.27944 6.71303 9.32712 6.71769 9.33668 6.67911C9.40348 6.61664 9.48462 6.53925 9.58021 6.52958C9.63326 6.52221 9.68731 6.52902 9.73687 6.54933C9.78642 6.56964 9.82971 6.60272 9.86232 6.6452ZM9.4721 6.75024L9.44365 6.72452C9.44422 6.71496 9.4465 6.7054 9.4465 6.69823C9.46573 6.68867 9.48462 6.66443 9.51318 6.67422C9.51318 6.7128 9.55142 6.7417 9.57054 6.76094L9.57532 6.79018C9.52092 6.80691 9.50693 6.76105 9.46903 6.7524L9.4721 6.75024ZM9.83342 6.7128L9.82864 6.75126C9.77618 6.76094 9.74272 6.80941 9.68058 6.79018C9.68058 6.78039 9.68058 6.75616 9.69481 6.76094C9.73304 6.73681 9.71393 6.66443 9.77618 6.67889L9.83342 6.7128ZM9.6007 6.6732C9.6007 6.68947 9.61504 6.70267 9.6329 6.70267C9.65054 6.70267 9.66499 6.68947 9.66499 6.6732C9.66499 6.65692 9.65054 6.64384 9.6329 6.64384C9.61504 6.64384 9.6007 6.65692 9.6007 6.6732ZM10.5977 6.55826C10.6408 6.5677 10.6695 6.59194 10.6982 6.61641C10.7171 6.64509 10.7506 6.64998 10.7746 6.67422C10.7842 6.68378 10.7746 6.70301 10.7938 6.7079H10.8273V6.73203C10.7889 6.75616 10.7362 6.73681 10.6933 6.72725C10.6217 6.80941 10.4737 6.86256 10.3495 6.81419C10.3495 6.79018 10.3159 6.80941 10.3064 6.79485C10.2733 6.78039 10.2492 6.75126 10.211 6.75616C10.2206 6.73203 10.1919 6.72236 10.2014 6.69823C10.2103 6.68469 10.2364 6.69231 10.2395 6.67331L10.2817 6.64918L10.3286 6.63405L10.3503 6.62392L10.3654 6.62073H10.4657L10.4941 6.62392H10.5377L10.5629 6.63086L10.5964 6.64577L10.6282 6.66091L10.6433 6.66762L10.6566 6.65761L10.6384 6.64088L10.6131 6.62904L10.5964 6.61914L10.5798 6.61072L10.563 6.60731L10.543 6.60253L10.5278 6.59741L10.5061 6.5924H10.4795L10.4561 6.59399L10.4174 6.599L10.3974 6.60059L10.379 6.60253L10.3472 6.61072L10.3221 6.61231L10.2952 6.62403L10.2752 6.63246L10.2491 6.64554L10.2323 6.6518C10.2256 6.61755 10.2672 6.59274 10.2874 6.5677L10.3482 6.53721L10.4105 6.52446L10.4601 6.51888L10.5226 6.52992L10.5779 6.54802C10.5833 6.54814 10.5885 6.5502 10.5926 6.55382L10.5977 6.55826ZM10.6407 6.69823C10.6596 6.75616 10.5927 6.75616 10.5642 6.78039H10.526C10.5402 6.7417 10.5689 6.71746 10.5738 6.67422C10.6024 6.66443 10.6167 6.69345 10.6407 6.69823ZM10.4178 6.6749C10.4178 6.68913 10.4302 6.70074 10.4453 6.70074C10.4605 6.70074 10.4729 6.68913 10.4729 6.6749C10.4729 6.66068 10.4605 6.64918 10.4453 6.64918C10.4302 6.64918 10.4178 6.66068 10.4178 6.6749ZM10.3494 6.70301C10.354 6.73203 10.3778 6.73681 10.3778 6.76594L10.3254 6.77061C10.3254 6.75126 10.292 6.74671 10.2825 6.73203H10.2585C10.2442 6.70301 10.2825 6.70301 10.292 6.68378C10.3207 6.69345 10.3158 6.66443 10.3445 6.67422L10.3494 6.70301ZM10.6932 6.39405C10.7076 6.4324 10.7696 6.43718 10.7696 6.49055H10.741C10.7361 6.4712 10.7076 6.47632 10.7076 6.46164C10.5689 6.37459 10.3876 6.39405 10.2491 6.46164C10.1918 6.48565 10.1773 6.55348 10.1104 6.55348V6.52457C10.1153 6.505 10.1486 6.49544 10.144 6.46665C10.2204 6.36981 10.3732 6.30722 10.526 6.32656C10.5881 6.35057 10.6407 6.36503 10.6932 6.39405ZM10.2013 7.22945C10.2156 7.2439 10.2347 7.24868 10.2538 7.25357C10.2636 7.28726 10.2156 7.30182 10.1822 7.33096C10.2109 7.29215 10.1678 7.28271 10.144 7.27303C10.0674 7.28726 9.96258 7.23423 9.90522 7.29215L9.90989 7.33574C9.89566 7.32128 9.84787 7.32606 9.86232 7.28726C9.83831 7.28271 9.83353 7.27758 9.82875 7.25357C9.88611 7.27758 9.91467 7.1812 9.97669 7.17152C10.0579 7.19565 10.144 7.14762 10.2013 7.22945ZM10.1393 7.34541C10.1295 7.38877 10.0627 7.35986 10.0245 7.36441C10.0483 7.33574 10.0913 7.35497 10.1393 7.34541ZM10.0197 7.21477C10.0245 7.22945 10.0054 7.23423 9.99592 7.22945H9.9768V7.20532C9.99114 7.21044 10.0054 7.20066 10.0197 7.21477ZM10.0245 7.36441C9.99592 7.37921 9.93879 7.37921 9.93879 7.34541L10.0245 7.36441ZM9.84787 6.36013C9.85731 6.37459 9.8861 6.38426 9.89088 6.40383C10.0483 6.52935 9.95313 6.77061 9.95313 6.95906C9.97214 6.99274 9.9768 7.02654 10.0054 7.04577C10.0245 7.03132 10.0339 7.06535 10.0483 7.06068V7.07992C10.015 7.07992 9.98636 7.08469 9.96258 7.07024V7.06068C9.91945 7.05545 9.83831 7.08469 9.82875 7.01687C9.83353 6.99764 9.81919 6.97351 9.83831 6.96384C9.86232 6.98307 9.85731 7.03622 9.90989 7.03132C9.94346 7.01687 9.92912 6.98307 9.95313 6.95906C9.91956 6.79018 10.0245 6.57749 9.88144 6.49055C9.85265 6.46164 9.82408 6.45197 9.79529 6.43251C9.71415 6.38938 9.63302 6.41328 9.54209 6.40861C9.52787 6.43251 9.49452 6.40861 9.48018 6.42284C9.42772 6.4423 9.38471 6.49055 9.33202 6.49544C9.30334 6.44241 9.38937 6.43251 9.40371 6.39416C9.46106 6.3747 9.50397 6.34602 9.56599 6.32656C9.66135 6.312 9.76172 6.32167 9.84787 6.36013Z" fill="#ECC637"/>
</g>
</svg>
