<svg width="20" height="10" viewBox="0 0 20 10" fill="none" xmlns="http://www.w3.org/2000/svg">
<g id="Canada" clip-path="url(#clip0_12545_2901)">
<rect width="20" height="9.55224" fill="white"/>
<g id="Group">
<path id="Vector" d="M4.53506 9.55224V0H0.00195312V9.55224H4.53506ZM19.9975 9.55224V0H15.4796V9.55224H19.9975ZM9.95646 9.13266H9.57467V7.29848L7.52574 7.49028L7.90753 6.75608L5.68297 5.11636L6.27347 4.78376L5.70079 3.21563L6.91742 3.51238L7.36793 2.88307L8.91545 4.43588L8.09842 1.45049L9.07071 2.00817L9.95646 0.401599L10.8422 2.00817L11.8323 1.45049L10.9974 4.43588L12.5602 2.88307L13.0133 3.51238L14.2121 3.21563L13.6395 4.78376L14.2477 5.11636L12.0054 6.75608L12.405 7.49028L10.3535 7.29848V9.13266H9.95646Z" fill="#CF4044"/>
</g>
</g>
<defs>
<clipPath id="clip0_12545_2901">
<rect width="20" height="9.55224" fill="white"/>
</clipPath>
</defs>
</svg>
