<svg width="132" height="20" viewBox="0 0 132 20" fill="none" xmlns="http://www.w3.org/2000/svg">
<g id="CrunchBase 2" clip-path="url(#clip0_12595_5211)">
<g id="Group">
<path id="Vector" d="M14.4285 4.55836C14.0814 4.00813 13.6582 3.54678 13.1587 3.17431C12.6593 2.80185 12.1091 2.51827 11.508 2.32357C10.907 2.12948 10.2764 2.03152 9.61608 2.03152C8.41404 2.03152 7.38129 2.26008 6.51785 2.7172C5.65441 3.17431 4.94697 3.77957 4.39734 4.53297C3.84711 5.28636 3.44078 6.13711 3.17776 7.0852C2.91534 8.0339 2.78473 9.00678 2.78473 10.0057C2.78473 10.9882 2.91594 11.9575 3.17776 12.9134C3.44078 13.8706 3.8465 14.7256 4.39734 15.4784C4.94697 16.2318 5.65441 16.837 6.51785 17.2941C7.38129 17.7512 8.41404 17.9798 9.61608 17.9798C10.462 17.9798 11.2245 17.8274 11.9017 17.5227C12.5783 17.2179 13.1624 16.8032 13.6533 16.2783C14.1443 15.7535 14.5428 15.1398 14.8475 14.4372C15.1523 13.7345 15.3464 12.9769 15.4316 12.1643H17.1579C17.0394 13.2817 16.777 14.289 16.3706 15.1863C15.9643 16.0836 15.4395 16.8455 14.7961 17.4719C14.1528 18.0983 13.3952 18.5808 12.5226 18.9194C11.6507 19.258 10.6815 19.4273 9.61487 19.4273C8.19273 19.4273 6.94413 19.1692 5.86906 18.6528C4.79399 18.1364 3.90092 17.4465 3.18985 16.5831C2.47878 15.7196 1.94548 14.7207 1.58994 13.5864C1.23441 12.4521 1.05664 11.2585 1.05664 10.0057C1.05664 8.75283 1.23441 7.55985 1.58994 6.42492C1.94608 5.2912 2.47938 4.28748 3.18985 3.41557C3.90092 2.54366 4.79338 1.85013 5.86906 1.33315C6.94413 0.81678 8.19334 0.558594 9.61487 0.558594C10.4783 0.558594 11.32 0.685571 12.1417 0.939524C12.9628 1.19348 13.7078 1.57018 14.3765 2.06962C15.0446 2.56906 15.6033 3.18339 16.0526 3.91078C16.5006 4.63939 16.7842 5.47683 16.9027 6.42492H15.1765C15.0253 5.73078 14.775 5.10859 14.4285 4.55836Z" fill="black"/>
<path id="Vector_2" d="M19.9665 5.9691V9.04194H20.0173C20.4236 7.97533 21.0542 7.15422 21.9092 6.57859C22.7642 6.00296 23.7842 5.74054 24.97 5.79133V7.39124C24.2414 7.35738 23.5811 7.45473 22.9891 7.68329C22.3966 7.91184 21.8844 8.23775 21.4527 8.66101C21.021 9.08426 20.686 9.58794 20.4496 10.172C20.212 10.7561 20.094 11.3952 20.094 12.0894V19.0731H18.4941V5.9691H19.9665Z" fill="black"/>
<path id="Vector_3" d="M34.8343 19.0708V16.709H34.7835C34.3603 17.5894 33.7466 18.2624 32.9424 18.728C32.1382 19.1935 31.2445 19.4263 30.2632 19.4263C29.4336 19.4263 28.7268 19.3121 28.1427 19.0835C27.5586 18.8549 27.0845 18.529 26.7199 18.1058C26.3553 17.6831 26.0893 17.1661 25.9206 16.5567C25.7513 15.9472 25.666 15.253 25.666 14.4742V5.9668H27.2659V14.4996C27.2998 15.6847 27.5749 16.5821 28.0913 17.1915C28.6076 17.801 29.5007 18.1058 30.7705 18.1058C31.464 18.1058 32.0572 17.9576 32.5482 17.6614C33.0391 17.3651 33.4449 16.9714 33.7671 16.4805C34.0882 15.9895 34.3258 15.4266 34.4782 14.7917C34.6306 14.1568 34.7068 13.5092 34.7068 12.8489V5.9668H36.3067V19.0708H34.8343Z" fill="black"/>
<path id="Vector_4" d="M39.9495 5.96882V8.22901H40.0003C40.305 7.43329 40.8462 6.79417 41.6256 6.31166C42.4038 5.82915 43.2588 5.58789 44.1899 5.58789C45.1048 5.58789 45.8703 5.7064 46.4888 5.94343C47.1062 6.18045 47.6014 6.51482 47.9744 6.94654C48.3463 7.37826 48.6093 7.90794 48.7617 8.53375C48.9141 9.16077 48.9903 9.86338 48.9903 10.6416V19.0728H47.3904V10.8955C47.3904 10.3368 47.3396 9.81622 47.238 9.3337C47.1364 8.85119 46.9586 8.43217 46.7047 8.07663C46.4507 7.7211 46.1079 7.44175 45.6762 7.23859C45.2444 7.03543 44.7069 6.93384 44.0636 6.93384C43.4202 6.93384 42.8488 7.04812 42.3494 7.27668C41.8499 7.50524 41.4267 7.81845 41.0796 8.21631C40.7325 8.61417 40.4617 9.08822 40.267 9.63845C40.0723 10.1887 39.9658 10.7855 39.9495 11.4288V19.0728H38.3496V5.96882H39.9495Z" fill="black"/>
<path id="Vector_5" d="M59.0778 7.77189C58.4852 7.21319 57.6556 6.93384 56.589 6.93384C55.8272 6.93384 55.1584 7.09529 54.5834 7.41636C54.0078 7.73803 53.5295 8.16129 53.1486 8.68612C52.7676 9.21157 52.4798 9.80775 52.2845 10.4765C52.0898 11.1452 51.9931 11.8267 51.9931 12.5208C51.9931 13.215 52.0898 13.8964 52.2845 14.5651C52.4792 15.2339 52.7676 15.8313 53.1486 16.3555C53.5295 16.8804 54.0078 17.3036 54.5834 17.6253C55.1584 17.947 55.8278 18.1078 56.589 18.1078C57.08 18.1078 57.5456 18.0153 57.9864 17.8284C58.4266 17.6422 58.8154 17.384 59.1546 17.0539C59.4932 16.7238 59.7719 16.3301 59.9926 15.873C60.2133 15.4159 60.3482 14.9164 60.3989 14.3747H61.9989C61.7788 15.9661 61.1947 17.2063 60.2466 18.0951C59.2985 18.9839 58.0795 19.4284 56.5896 19.4284C55.5908 19.4284 54.7062 19.2464 53.9358 18.8824C53.1655 18.5184 52.5173 18.0231 51.9931 17.3967C51.4682 16.7703 51.0704 16.0381 50.7989 15.2C50.528 14.362 50.3926 13.4689 50.3926 12.5208C50.3926 11.5727 50.528 10.6797 50.7989 9.84161C51.0698 9.00356 51.4676 8.27133 51.9931 7.64491C52.5173 7.0185 53.1649 6.51905 53.9358 6.14659C54.7056 5.77412 55.5902 5.58789 56.5896 5.58789C57.9949 5.58789 59.1842 5.96036 60.1577 6.70529C61.1306 7.45022 61.7104 8.57608 61.8973 10.0829H60.2974C60.0761 9.10091 59.6697 8.33059 59.0778 7.77189Z" fill="black"/>
<path id="Vector_6" d="M64.8929 0.939453V8.22792H64.9437C65.2484 7.4322 65.7896 6.79308 66.569 6.31057C67.3472 5.82806 68.2021 5.5868 69.1333 5.5868C70.0481 5.5868 70.8136 5.70531 71.4322 5.94234C72.0495 6.17936 72.5447 6.51373 72.9178 6.94545C73.2897 7.37717 73.5527 7.90685 73.7051 8.53266C73.8574 9.15969 73.9336 9.86229 73.9336 10.6405V19.0717H72.3337V10.8944C72.3337 10.3357 72.2829 9.81513 72.1813 9.33262C72.0798 8.8501 71.902 8.43108 71.648 8.07555C71.3941 7.72001 71.0513 7.44066 70.6195 7.2375C70.1878 7.03434 69.6503 6.93275 69.0069 6.93275C68.3636 6.93275 67.7922 7.04703 67.2927 7.27559C66.7933 7.50415 66.37 7.81736 66.023 8.21522C65.6759 8.61308 65.405 9.08713 65.2103 9.63736C65.0156 10.1876 64.9092 10.7844 64.8929 11.4277V19.0717H63.293V0.939453H64.8929Z" fill="black"/>
<path id="Vector_7" d="M76.3164 0.939453H85.128C86.7533 0.939453 88.0569 1.31192 89.0395 2.05685C90.0208 2.80178 90.5124 3.92764 90.5124 5.43443C90.5124 6.34866 90.2881 7.13229 89.8394 7.7835C89.3908 8.43531 88.7517 8.93899 87.9221 9.29452V9.34531C89.0401 9.58294 89.886 10.1114 90.4616 10.9325C91.0366 11.7536 91.3251 12.7828 91.3251 14.0181C91.3251 14.7291 91.1981 15.3936 90.9441 16.0116C90.6902 16.6295 90.2923 17.1628 89.7505 17.6115C89.2088 18.0602 88.5146 18.4157 87.6681 18.6781C86.8216 18.9405 85.8149 19.0717 84.6461 19.0717H76.317L76.3164 0.939453ZM79.4908 8.53266H84.6709C85.4327 8.53266 86.0682 8.3168 86.5755 7.88508C87.0828 7.45336 87.3374 6.83117 87.3374 6.01852C87.3374 5.10429 87.1088 4.46094 86.6517 4.08848C86.1946 3.71601 85.5343 3.52978 84.6709 3.52978H79.4908V8.53266ZM79.4908 16.4814H85.1026C86.0682 16.4814 86.8168 16.2317 87.3507 15.7322C87.884 15.2328 88.15 14.526 88.15 13.6117C88.15 12.7144 87.884 12.0245 87.3507 11.542C86.8168 11.0595 86.0682 10.8182 85.1026 10.8182H79.4908V16.4814Z" fill="#529699"/>
<path id="Vector_8" d="M103.954 16.1524C103.954 16.5079 104.001 16.7618 104.093 16.9142C104.186 17.0666 104.368 17.1428 104.639 17.1428C104.724 17.1428 104.825 17.1428 104.944 17.1428C105.062 17.1428 105.198 17.1258 105.35 17.092V19.0982C105.249 19.1321 105.117 19.1702 104.957 19.2125C104.796 19.2548 104.631 19.2929 104.462 19.3268C104.293 19.3606 104.123 19.386 103.954 19.403C103.785 19.4199 103.64 19.4284 103.522 19.4284C102.93 19.4284 102.439 19.3098 102.049 19.0728C101.659 18.8358 101.405 18.421 101.287 17.8284C100.711 18.3871 100.004 18.7935 99.1663 19.0474C98.3283 19.3014 97.5193 19.4284 96.7411 19.4284C96.1485 19.4284 95.5807 19.3479 95.0396 19.1871C94.4978 19.0263 94.0189 18.7892 93.6047 18.476C93.1893 18.1628 92.8598 17.765 92.6143 17.2824C92.3688 16.7999 92.2461 16.237 92.2461 15.5937C92.2461 14.781 92.3942 14.1207 92.6905 13.6128C92.9862 13.1049 93.3762 12.7071 93.8587 12.4192C94.3412 12.1314 94.883 11.924 95.484 11.7971C96.0844 11.6701 96.6903 11.5727 97.2998 11.505C97.824 11.4034 98.3234 11.3315 98.7981 11.2891C99.2721 11.2474 99.6912 11.1749 100.055 11.0733C100.419 10.9717 100.707 10.8151 100.919 10.6035C101.131 10.3918 101.236 10.0744 101.236 9.65115C101.236 9.27868 101.148 8.97394 100.97 8.73691C100.792 8.49989 100.572 8.31789 100.309 8.19091C100.046 8.06394 99.7546 7.97929 99.4336 7.93696C99.1119 7.89524 98.8066 7.87347 98.5187 7.87347C97.7061 7.87347 97.0373 8.04277 96.5131 8.38138C95.9883 8.72059 95.692 9.24482 95.6237 9.95589H92.7286C92.7794 9.10998 92.9826 8.40677 93.3387 7.84808C93.6942 7.28938 94.1465 6.84073 94.6974 6.50212C95.247 6.16352 95.8692 5.9265 96.5639 5.79105C97.2574 5.65561 97.9685 5.58789 98.6965 5.58789C99.3399 5.58789 99.9747 5.65561 100.601 5.79105C101.227 5.9265 101.791 6.14659 102.29 6.45133C102.789 6.75608 103.191 7.1497 103.496 7.63222C103.801 8.11473 103.953 8.70305 103.953 9.39719L103.954 16.1524ZM101.058 12.4954C100.617 12.7838 100.076 12.9568 99.433 13.016C98.7896 13.0759 98.1457 13.1648 97.5029 13.2827C97.1982 13.3335 96.9019 13.406 96.6141 13.4985C96.3257 13.5917 96.0723 13.7186 95.8516 13.8795C95.6309 14.0403 95.4586 14.2519 95.3316 14.5144C95.2046 14.7774 95.1412 15.0942 95.1412 15.4667C95.1412 15.7884 95.2337 16.0592 95.4205 16.2793C95.6067 16.4994 95.8311 16.673 96.0935 16.7999C96.3559 16.9269 96.6431 17.0158 96.9569 17.0666C97.2701 17.1174 97.5537 17.1428 97.8077 17.1428C98.1287 17.1428 98.4758 17.1004 98.8489 17.0158C99.222 16.9311 99.5726 16.7872 99.9028 16.5841C100.233 16.3809 100.508 16.1233 100.728 15.8095C100.948 15.4963 101.058 15.1111 101.058 14.654V12.4954Z" fill="#529699"/>
<path id="Vector_9" d="M108.538 14.8572C108.622 15.7037 108.944 16.2963 109.503 16.6349C110.062 16.9741 110.73 17.1428 111.509 17.1428C111.779 17.1428 112.089 17.1216 112.436 17.0793C112.782 17.037 113.109 16.9565 113.413 16.838C113.718 16.7195 113.967 16.546 114.162 16.3174C114.357 16.0889 114.446 15.7884 114.429 15.4159C114.412 15.0434 114.276 14.7387 114.022 14.5017C113.768 14.2646 113.442 14.0742 113.045 13.9303C112.647 13.7864 112.194 13.6636 111.686 13.562C111.178 13.4604 110.662 13.3504 110.137 13.2319C109.595 13.114 109.074 12.9695 108.575 12.8002C108.076 12.6315 107.627 12.4023 107.228 12.1145C106.83 11.8267 106.513 11.4584 106.276 11.0098C106.039 10.5611 105.921 10.0067 105.921 9.3464C105.921 8.63533 106.094 8.03854 106.441 7.55603C106.788 7.07352 107.228 6.68412 107.762 6.38784C108.296 6.09157 108.888 5.88417 109.539 5.76566C110.191 5.64715 110.813 5.58789 111.406 5.58789C112.083 5.58789 112.73 5.65984 113.349 5.80375C113.966 5.94766 114.525 6.18045 115.025 6.50212C115.524 6.8238 115.939 7.24282 116.269 7.75919C116.599 8.27556 116.807 8.89775 116.891 9.62575H113.869C113.733 8.93161 113.416 8.46663 112.917 8.22901C112.418 7.99198 111.846 7.87347 111.203 7.87347C111 7.87347 110.758 7.8904 110.479 7.92426C110.2 7.95873 109.937 8.02222 109.692 8.11473C109.446 8.20784 109.239 8.34329 109.07 8.52105C108.9 8.69882 108.816 8.93161 108.816 9.21943C108.816 9.57496 108.939 9.86277 109.185 10.0829C109.431 10.303 109.753 10.4856 110.153 10.6289C110.552 10.7728 111.006 10.8955 111.516 10.9971C112.025 11.0987 112.551 11.2093 113.095 11.3272C113.621 11.4458 114.139 11.5903 114.648 11.759C115.158 11.9283 115.612 12.1568 116.011 12.4446C116.41 12.7331 116.732 13.0964 116.979 13.5366C117.226 13.9768 117.348 14.5186 117.348 15.1619C117.348 15.9407 117.17 16.601 116.814 17.1428C116.457 17.6845 115.995 18.1247 115.426 18.4633C114.859 18.8019 114.227 19.0474 113.531 19.1998C112.835 19.3522 112.148 19.4284 111.469 19.4284C110.637 19.4284 109.87 19.3352 109.166 19.149C108.461 18.9628 107.851 18.6792 107.333 18.2983C106.816 17.9173 106.409 17.4433 106.111 16.8761C105.815 16.309 105.657 15.636 105.641 14.8572H108.538Z" fill="#529699"/>
<path id="Vector_10" d="M120.923 13.2573C120.923 13.7652 120.995 14.2568 121.139 14.7302C121.282 15.2043 121.499 15.6191 121.786 15.9746C122.074 16.3301 122.438 16.6137 122.878 16.8253C123.319 17.037 123.843 17.1428 124.453 17.1428C125.299 17.1428 125.981 16.9608 126.497 16.5968C127.014 16.2328 127.399 15.6874 127.653 14.9588H130.395C130.243 15.6698 129.98 16.3047 129.608 16.8634C129.236 17.4221 128.787 17.8919 128.262 18.2729C127.737 18.6538 127.148 18.9416 126.497 19.1363C125.845 19.331 125.164 19.4284 124.452 19.4284C123.42 19.4284 122.505 19.2591 121.71 18.9204C120.914 18.5818 120.241 18.1078 119.691 17.4983C119.141 16.8888 118.726 16.1614 118.446 15.3143C118.167 14.4678 118.027 13.5366 118.027 12.5208C118.027 11.5897 118.175 10.7051 118.472 9.86701C118.767 9.02896 119.191 8.2925 119.742 7.65761C120.292 7.02273 120.956 6.51905 121.735 6.14659C122.514 5.77412 123.394 5.58789 124.376 5.58789C125.409 5.58789 126.336 5.80375 127.158 6.23547C127.978 6.66719 128.66 7.23859 129.202 7.94966C129.744 8.66073 130.137 9.47761 130.383 10.4003C130.628 11.323 130.691 12.2753 130.573 13.2573H120.923ZM127.678 11.3526C127.644 10.8955 127.547 10.4553 127.387 10.0321C127.225 9.60943 127.006 9.24059 126.726 8.92738C126.447 8.61417 126.109 8.36022 125.71 8.16552C125.312 7.97143 124.868 7.87347 124.377 7.87347C123.869 7.87347 123.408 7.96236 122.993 8.14012C122.578 8.31789 122.222 8.56338 121.926 8.87659C121.63 9.1898 121.393 9.55803 121.215 9.98129C121.037 10.4045 120.939 10.8623 120.923 11.3526H127.678Z" fill="#529699"/>
</g>
</g>
<defs>
<clipPath id="clip0_12595_5211">
<rect width="131" height="19" fill="white" transform="translate(0.5 0.5)"/>
</clipPath>
</defs>
</svg>
