<?xml version="1.0" encoding="UTF-8"?>
<svg xmlns="http://www.w3.org/2000/svg" width="48" height="48" viewBox="0 0 48 48" fill="none">
  <circle opacity="0.06" cx="24" cy="24" r="24" fill="#434396"></circle>
  <path d="M13.1427 17.1429L23.9999 22.2857L34.857 17.1429M23.9999 36.0218V22.5818M25.0171 11.6674L34.1599 16.2388C34.5407 16.428 34.8612 16.7197 35.0853 17.0811C35.3094 17.4425 35.4283 17.8593 35.4285 18.2845V29.1759C35.4283 29.6012 35.3094 30.0179 35.0853 30.3793C34.8612 30.7407 34.5407 31.0324 34.1599 31.2217L25.0171 35.7931C24.6995 35.952 24.3493 36.0347 23.9942 36.0347C23.6391 36.0347 23.2889 35.952 22.9713 35.7931L13.8285 31.2217C13.4481 31.03 13.1288 30.7358 12.9066 30.3723C12.6845 30.0088 12.5684 29.5905 12.5713 29.1645V18.2845C12.5716 17.8593 12.6904 17.4425 12.9145 17.0811C13.1386 16.7197 13.4591 16.428 13.8399 16.2388L22.9828 11.6674C23.2988 11.5103 23.647 11.4286 23.9999 11.4286C24.3529 11.4286 24.701 11.5103 25.0171 11.6674Z" stroke="#434396" stroke-linecap="round" stroke-linejoin="round"></path>
</svg>
