<?xml version="1.0" encoding="UTF-8"?>
<svg xmlns="http://www.w3.org/2000/svg" width="20" height="20" viewBox="0 0 20 20" fill="none">
  <circle opacity="0.2" cx="10" cy="10" r="10" fill="#8D21EF"></circle>
  <circle cx="10" cy="10" r="10" fill="#B5D3FF"></circle>
  <path fill-rule="evenodd" clip-rule="evenodd" d="M9.9998 12.4004C10.105 12.4004 10.1903 12.4766 10.1903 12.5706V13.8132C10.1903 13.9073 10.105 13.9835 9.9998 13.9835C9.8946 13.9835 9.80933 13.9073 9.80933 13.8132V12.5706C9.80933 12.4766 9.8946 12.4004 9.9998 12.4004Z" fill="#218AEF"></path>
  <path fill-rule="evenodd" clip-rule="evenodd" d="M6.47632 13.8284C6.47632 13.7344 6.5616 13.6582 6.66679 13.6582H13.3334C13.4386 13.6582 13.5239 13.7344 13.5239 13.8284C13.5239 13.9224 13.4386 13.9987 13.3334 13.9987H6.66679C6.5616 13.9987 6.47632 13.9224 6.47632 13.8284Z" fill="#218AEF"></path>
  <path fill-rule="evenodd" clip-rule="evenodd" d="M6 7.4469C6 6.64774 6.7248 6 7.61904 6H12.3809C13.2751 6 13.9999 6.64774 13.9999 7.4469C13.9999 8.24606 13.2751 8.8938 12.3809 8.8938H7.61904C6.7248 8.8938 6 8.24606 6 7.4469ZM7.61904 6.34045C6.93519 6.34045 6.38095 6.83576 6.38095 7.4469C6.38095 8.05804 6.93519 8.55335 7.61904 8.55335H12.3809C13.0647 8.55335 13.619 8.05804 13.619 7.4469C13.619 6.83576 13.0647 6.34045 12.3809 6.34045H7.61904Z" fill="#218AEF"></path>
  <path fill-rule="evenodd" clip-rule="evenodd" d="M6 11.277C6 10.4778 6.7248 9.83008 7.61904 9.83008H12.3809C13.2751 9.83008 13.9999 10.4778 13.9999 11.277C13.9999 12.0761 13.2751 12.7239 12.3809 12.7239H7.61904C6.7248 12.7239 6 12.0761 6 11.277ZM7.61904 10.1705C6.93519 10.1705 6.38095 10.6658 6.38095 11.277C6.38095 11.8881 6.93519 12.3834 7.61904 12.3834H12.3809C13.0647 12.3834 13.619 11.8881 13.619 11.277C13.619 10.6658 13.0647 10.1705 12.3809 10.1705H7.61904Z" fill="#218AEF"></path>
  <path fill-rule="evenodd" clip-rule="evenodd" d="M9.80933 7.44757C9.80933 7.35356 9.8946 7.27734 9.9998 7.27734H12.3807C12.4859 7.27734 12.5712 7.35356 12.5712 7.44757C12.5712 7.54158 12.4859 7.61779 12.3807 7.61779H9.9998C9.8946 7.61779 9.80933 7.54158 9.80933 7.44757Z" fill="#218AEF"></path>
  <path d="M7.84909 7.3272C7.92347 7.39368 7.92347 7.50146 7.84909 7.56793C7.7747 7.63441 7.6541 7.63441 7.57971 7.56793C7.50533 7.50146 7.50533 7.39368 7.57971 7.3272C7.6541 7.26072 7.7747 7.26072 7.84909 7.3272Z" fill="#218AEF"></path>
  <path fill-rule="evenodd" clip-rule="evenodd" d="M9.80933 11.2776C9.80933 11.1836 9.8946 11.1074 9.9998 11.1074H12.3807C12.4859 11.1074 12.5712 11.1836 12.5712 11.2776C12.5712 11.3717 12.4859 11.4479 12.3807 11.4479H9.9998C9.8946 11.4479 9.80933 11.3717 9.80933 11.2776Z" fill="#218AEF"></path>
  <path d="M7.84909 11.1573C7.92347 11.2238 7.92347 11.3315 7.84909 11.398C7.7747 11.4645 7.6541 11.4645 7.57971 11.398C7.50533 11.3315 7.50533 11.2238 7.57971 11.1573C7.6541 11.0908 7.7747 11.0908 7.84909 11.1573Z" fill="#218AEF"></path>
</svg>
