<?xml version="1.0" encoding="UTF-8"?>
<svg xmlns="http://www.w3.org/2000/svg" width="20" height="20" viewBox="0 0 20 20" fill="none">
  <circle opacity="0.2" cx="10" cy="10" r="10" fill="#218AEF"></circle>
  <circle cx="10" cy="10" r="10" fill="#218AEF"></circle>
  <g clip-path="url(#clip0_9911_9087)">
    <path d="M6.3269 15.7305L6.37085 15.77L6.3269 15.7305Z" fill="#E57501"></path>
    <path d="M9.98581 16.0908C9.10998 16.0908 8.23415 16.0952 7.35876 16.0873C7.00016 16.0842 6.68068 15.9352 6.36999 15.7695V15.7726L6.32604 15.7331C5.89802 15.4083 5.5904 15.0009 5.47658 14.4674C5.44171 14.3086 5.42345 14.1466 5.42209 13.984C5.41769 12.3595 5.41682 10.7349 5.41945 9.11006C5.41945 9.06348 5.42385 9.01733 5.4278 8.93164H6.36999H7.89577L9.98625 8.94351C9.98449 9.4644 9.98288 9.98545 9.98141 10.5066C9.96999 10.5088 9.95856 10.5115 9.94714 10.5128C9.41628 10.5748 9.02956 10.8301 8.89245 11.3636C8.76061 11.8725 8.92453 12.2913 9.3508 12.6081C9.39474 12.6415 9.42199 12.7259 9.42419 12.7874C9.4321 13.044 9.42682 13.3007 9.4277 13.5573C9.4277 13.9647 9.57844 14.1321 9.9779 14.1726L9.98581 16.0908Z" fill="#707788"></path>
    <path d="M12.9971 4.64114C13.0105 4.68654 13.0278 4.73066 13.049 4.77297C13.4094 5.33378 13.6009 5.98634 13.6009 6.65296C13.6009 7.41101 13.6009 8.16907 13.604 8.92713H12.0563C12.0563 8.15545 12.0624 7.38421 12.0514 6.61296C12.049 6.42121 12.0156 6.23111 11.9525 6.05003C11.6247 5.12717 10.9418 4.67805 9.98247 4.60818C9.98247 4.1573 9.98511 3.70598 9.98247 3.25466C9.9764 3.19857 9.96477 3.14322 9.94775 3.08943C10.3604 3.05603 10.7572 3.13909 11.1439 3.27048C11.7845 3.48005 12.3497 3.87249 12.7699 4.39944C12.8402 4.48425 12.9211 4.56028 12.9971 4.64114Z" fill="#E5E4E3"></path>
    <path d="M9.94849 3.08789C9.9655 3.14168 9.97713 3.19703 9.9832 3.25312C9.9832 3.70444 9.9832 4.15576 9.9832 4.60664C9.96563 4.60884 9.94849 4.61147 9.93091 4.61235C8.81162 4.66157 7.95601 5.48511 7.90942 6.60308C7.87822 7.37739 7.89932 8.15391 7.89668 8.9291H6.3709C6.3709 8.1873 6.36255 7.44507 6.3709 6.70283C6.39023 4.96216 7.55303 3.53481 9.25371 3.16567C9.48135 3.1147 9.71646 3.1147 9.94849 3.08789Z" fill="#FEFDFC"></path>
    <path d="M12.0562 8.92578H14.5392C14.5449 8.97764 14.5515 9.0106 14.5515 9.04399C14.5515 10.739 14.555 12.4339 14.5444 14.1289C14.5383 15.1124 13.6286 16.0568 12.6495 16.0832C11.7618 16.1064 10.8737 16.0889 9.98599 16.0893C9.98335 15.45 9.98086 14.8106 9.97852 14.1711C9.9807 14.1649 9.98334 14.1589 9.98643 14.1531C10.3143 14.168 10.5349 13.972 10.5428 13.6468C10.5498 13.3669 10.5388 13.0865 10.5489 12.807C10.5516 12.735 10.5814 12.6378 10.6337 12.597C10.98 12.3293 11.1369 11.9892 11.1123 11.5489C11.0815 10.9947 10.5507 10.4964 9.98994 10.5188L9.98247 10.5039C9.98247 9.98267 9.98408 9.46162 9.98731 8.94072C10.0572 8.93765 10.1271 8.93237 10.1969 8.93237C10.8166 8.92974 11.4363 8.92754 12.0562 8.92578Z" fill="#353A3F"></path>
    <path d="M9.97836 14.1718C9.57889 14.1278 9.42904 13.9626 9.42816 13.5565C9.42816 13.2999 9.43256 13.0433 9.42465 12.7866C9.42465 12.7251 9.39652 12.6407 9.35126 12.6073C8.92499 12.2905 8.76151 11.8717 8.89291 11.3628C9.03046 10.8293 9.41717 10.574 9.94759 10.512C9.95902 10.512 9.97045 10.5081 9.98187 10.5059L9.9889 10.5208C9.9889 11.7325 9.98788 12.9439 9.98583 14.1551C9.98295 14.1605 9.98046 14.166 9.97836 14.1718Z" fill="#FEFEFE"></path>
    <path d="M9.98633 14.1545C9.98633 12.9428 9.98735 11.7314 9.9894 10.5203C10.5506 10.4978 11.0814 10.9962 11.1122 11.5503C11.1368 11.9898 10.9804 12.3308 10.6336 12.5984C10.5813 12.6393 10.5515 12.7364 10.5488 12.8085C10.5387 13.088 10.5488 13.3684 10.5427 13.6483C10.5361 13.9735 10.3164 14.1695 9.98633 14.1545Z" fill="#E8ECF3"></path>
  </g>
  <defs>
    <clipPath id="clip0_9911_9087">
      <rect width="16" height="16" fill="white" transform="translate(2 2)"></rect>
    </clipPath>
  </defs>
</svg>
