<svg width="18" height="18" viewBox="0 0 18 18" fill="none" xmlns="http://www.w3.org/2000/svg">
<g clip-path="url(#clip0_5826_60542)">
<path d="M0.277832 8.9985C0.277832 4.18378 4.18232 0.279297 8.99703 0.279297C13.8117 0.279297 17.7162 4.18378 17.7162 8.9985C17.7162 13.8132 13.8117 17.7177 8.99703 17.7177C4.18232 17.7177 0.277832 13.8132 0.277832 8.9985Z" fill="white" fill-opacity="0.7"/>
<path d="M4.10267 7.49805C2.40111 7.49805 2.33783 8.81992 2.34486 9.16445C2.34486 9.16445 2.26048 10.7113 4.06048 10.7113C5.60736 10.7113 5.68119 9.74102 5.68119 9.74102H4.97103C4.97103 9.74102 4.83392 10.2754 4.064 10.2613C3.07611 10.2437 3.03744 9.28398 3.03744 9.28398H5.77611C5.77611 9.2875 5.98353 7.49805 4.10267 7.49805ZM3.05853 8.81641C3.05853 8.81641 3.10775 7.95156 4.08509 7.94805C5.05892 7.94805 5.05892 8.81641 5.05892 8.81641H3.05853Z" fill="#EE3B3F"/>
<path d="M7.67803 7.49922C6.82373 7.4957 6.45459 8.00547 6.45459 8.00547V6.29688H5.76904L5.77959 9.91094C5.77959 9.91094 5.77607 10.3328 5.75146 10.6105H6.41592L6.44404 10.2062C6.44404 10.2062 6.75342 10.716 7.66045 10.716C8.56748 10.716 9.28467 10.157 9.30225 9.11992C9.32686 8.08281 8.53584 7.50273 7.67803 7.49922V7.49922ZM7.52334 10.252C6.44404 10.266 6.46162 9.10586 6.46162 9.10586C6.46162 9.10586 6.42295 7.99141 7.52334 7.96328C8.62373 7.93516 8.58857 9.13047 8.58857 9.13047C8.58857 9.13047 8.60264 10.2379 7.52334 10.252V10.252Z" fill="#0468B2"/>
<path d="M12.4735 9.8922C12.4735 9.42462 12.4875 9.00626 12.4735 8.71447C12.4559 8.37345 12.4875 7.5508 11.011 7.48751C11.011 7.48751 9.5977 7.35744 9.45004 8.41212H10.1743C10.1743 8.41212 10.2305 7.93048 10.9653 7.94455C11.6614 7.95861 11.7879 8.29962 11.7844 8.71798C11.7844 8.71798 11.1903 8.7215 10.9899 8.7215C10.6313 8.7215 9.37973 8.76369 9.2602 9.52658C9.11957 10.4336 9.93168 10.7184 10.5645 10.7149C11.1973 10.7113 11.5594 10.5215 11.8301 10.1805L11.8582 10.6024L12.4875 10.5988C12.4875 10.5988 12.4735 10.3598 12.4735 9.8922V9.8922ZM10.684 10.2754C10.684 10.2754 9.99848 10.2754 9.95629 9.72697C9.9141 9.13986 11.0145 9.17501 11.0145 9.17501H11.7914C11.7914 9.17501 11.9145 10.2895 10.684 10.2754V10.2754Z" fill="#F7AB1B"/>
<path d="M12.1008 7.61523H12.8954L14.059 9.93203L15.2227 7.61523H15.9434L13.8375 11.7461H13.0676L13.6793 10.6L12.1008 7.61523Z" fill="#6BB745"/>
<path d="M16.2105 7.78086V7.69648H16.1824V7.66484H16.2105V7.61914H16.2597V7.66484H16.316V7.69648H16.2597V7.77734C16.2597 7.79141 16.2703 7.79844 16.2843 7.79844C16.2949 7.79844 16.3054 7.79492 16.3125 7.79141V7.82305C16.3019 7.82656 16.2878 7.83008 16.2703 7.83008C16.2351 7.82656 16.2105 7.81602 16.2105 7.78086ZM16.3652 7.66133H16.4144V7.68594C16.4285 7.67188 16.446 7.65781 16.4777 7.65781C16.5058 7.65781 16.5304 7.66836 16.541 7.68594C16.5585 7.66836 16.5796 7.65781 16.6113 7.65781C16.657 7.65781 16.6851 7.67891 16.6851 7.72109V7.82656H16.6359V7.73516C16.6359 7.71055 16.6218 7.69648 16.5937 7.69648C16.5691 7.69648 16.548 7.71055 16.548 7.73516V7.82656H16.4988V7.73516C16.4988 7.71055 16.4812 7.69648 16.4566 7.69648C16.4285 7.69648 16.4109 7.71055 16.4109 7.73516V7.82656H16.3617V7.66133H16.3652Z" fill="#231F20"/>
</g>
<defs>
<clipPath id="clip0_5826_60542">
<rect width="18" height="18" fill="white"/>
</clipPath>
</defs>
</svg>
