<?xml version="1.0" encoding="UTF-8"?>
<svg xmlns="http://www.w3.org/2000/svg" width="20" height="20" viewBox="0 0 20 20" fill="none">
  <circle opacity="0.15" cx="10" cy="10" r="10" fill="#71D4B3"></circle>
  <circle cx="10" cy="10" r="10" fill="#71D4B3" fill-opacity="0.2"></circle>
  <g clip-path="url(#clip0_6484_70662)">
    <path d="M3.4676 15.0516L2.28718 15.0637C2.15343 15.0637 2.06927 14.9849 2.0001 14.8824V14.7266C2.16677 14.2429 2.30885 13.7495 2.50302 13.2774C2.6626 12.8904 2.66177 12.5379 2.50302 12.1524C2.3101 11.6799 2.1651 11.1879 1.99927 10.7045V10.5458C2.07968 10.4062 2.19802 10.3562 2.36052 10.3574C3.06552 10.3641 3.77093 10.3574 4.47593 10.3612C4.80343 10.3612 5.0176 10.5745 5.02135 10.8891C4.82927 10.8891 4.63677 10.8891 4.44468 10.8891C3.94802 10.8891 3.46885 11.3562 3.46677 11.8549C3.46302 12.9208 3.46718 13.9862 3.4676 15.0516Z" fill="#34CCA9"></path>
    <path d="M10.25 11.4174H10.9366C11.042 11.4203 11.0095 11.3437 11.0116 11.2866C11.3983 10.6474 11.9541 10.2295 12.667 10.0149L12.7312 9.99115C13.0229 9.94032 13.3104 9.87865 13.6025 9.8424C13.7816 9.82032 13.892 9.94324 13.89 10.1299C13.8839 10.5714 13.7975 11.0081 13.635 11.4187H14.935C15.1063 11.4187 15.2777 11.4196 15.4491 11.4216C15.7704 11.4216 15.9745 11.6245 15.975 11.9437C15.975 12.9878 15.975 14.032 15.975 15.0762C15.975 15.2428 15.975 15.4057 15.9729 15.5707H15.7858C12.3725 15.5707 8.95913 15.5707 5.54579 15.5707C5.38473 15.5744 5.22519 15.5389 5.08085 15.4673C4.93651 15.3958 4.81167 15.2903 4.71705 15.1599C4.55038 14.942 4.49913 14.6928 4.49788 14.4324C4.49288 13.4299 4.49579 12.427 4.49788 11.4245L5.03538 11.4199H6.32996L8.95496 11.4224L8.98704 11.3924H9.02329L9.71913 11.4216L10.25 11.4174ZM10.2004 12.9407L10.272 12.9549C10.2675 12.9312 10.2633 12.907 10.2587 12.8832C10.3591 12.6132 10.2529 12.4574 9.96704 12.4557C9.71704 12.4557 9.46704 12.4524 9.21704 12.4557C9.02163 12.4587 8.92288 12.5532 8.92204 12.7399C8.9201 13.4155 8.9201 14.0909 8.92204 14.7662C8.92204 14.9416 9.0183 15.0345 9.1933 15.0382C9.3958 15.0424 9.59871 15.0445 9.80121 15.0382C9.93413 15.0337 10.067 15.0124 10.1995 14.9966L10.2716 15.0116L10.2583 14.9395C10.3587 14.6695 10.2525 14.5137 9.96663 14.512C9.79746 14.512 9.62829 14.512 9.44621 14.512V14.0112H9.72413C9.81246 14.0112 9.90079 14.0145 9.98913 14.0112C10.1762 14.0007 10.2954 13.8249 10.2225 13.6595C10.1695 13.5387 10.0679 13.4841 9.93454 13.4857C9.77579 13.4878 9.61705 13.4857 9.4458 13.4857V12.982C9.5358 12.982 9.62288 12.9862 9.70913 12.982C9.87038 12.9703 10.0341 12.9545 10.1983 12.9407H10.2004ZM11.8304 14.1241C11.8516 14.1932 11.872 14.262 11.8937 14.3324C11.8943 14.3364 11.894 14.3404 11.8928 14.3443C11.8916 14.3481 11.8894 14.3516 11.8866 14.3545C11.8562 14.3862 11.8262 14.4182 11.7962 14.4499C11.7371 14.4785 11.6751 14.5006 11.6112 14.5157C11.3729 14.5453 11.1775 14.4528 11.0045 14.2928C10.9568 14.2478 10.8933 14.2231 10.8277 14.224C10.762 14.225 10.6993 14.2514 10.6529 14.2978C10.6081 14.3419 10.5808 14.4008 10.5762 14.4635C10.5715 14.5261 10.5897 14.5884 10.6275 14.6387C10.9125 15.0178 11.5991 15.1674 12.0166 14.9412C12.3916 14.7378 12.5487 14.3103 12.3716 13.9645C12.2645 13.7562 12.0841 13.627 11.8716 13.5399C11.6891 13.4653 11.5033 13.3991 11.3241 13.3174C11.2758 13.2953 11.2191 13.232 11.217 13.1853C11.2205 13.1554 11.2302 13.1266 11.2455 13.1007C11.2607 13.0748 11.2813 13.0524 11.3058 13.0349C11.3551 12.9965 11.4174 12.9788 11.4795 12.9853C11.6395 13.0168 11.7956 13.0657 11.945 13.1312C12.1116 13.2107 12.2341 13.2066 12.3275 13.0732C12.4208 12.9399 12.3987 12.7941 12.2383 12.7012C12.0716 12.6032 11.8883 12.5066 11.7008 12.4703C11.105 12.3549 10.515 12.7891 10.7462 13.4753L10.7179 13.5224L10.7887 13.5437C10.9004 13.7049 11.0658 13.7845 11.2412 13.8562C11.4391 13.9366 11.6325 14.0337 11.8283 14.1241H11.8304ZM8.33038 13.8462L8.42496 13.8399L8.41871 13.7566C8.43163 13.7341 8.44288 13.7107 8.45704 13.6891C8.62829 13.4324 8.64496 13.1595 8.50204 12.8924C8.43671 12.761 8.33615 12.6504 8.21159 12.5728C8.08702 12.4953 7.94336 12.4539 7.79663 12.4532C7.60954 12.447 7.42163 12.4495 7.23538 12.4532C7.05788 12.4562 6.95913 12.5466 6.95829 12.7191C6.95496 13.4099 6.95496 14.1007 6.95829 14.7916C6.95587 14.8255 6.96077 14.8595 6.97267 14.8914C6.98458 14.9232 7.0032 14.9521 7.02728 14.9761C7.05136 15.0001 7.08033 15.0186 7.11221 15.0304C7.14409 15.0422 7.17814 15.047 7.21204 15.0445C7.36246 15.0445 7.45829 14.9499 7.46538 14.7903C7.47163 14.6557 7.47371 14.5207 7.47746 14.3862L7.56704 14.3312L7.74163 14.5341L7.83746 14.6345C7.88163 14.685 7.92566 14.7356 7.96954 14.7862C7.90079 14.9057 8.00163 14.8741 8.05663 14.8832C8.09038 14.9149 8.12371 14.947 8.15788 14.9778C8.19879 15.0181 8.2523 15.043 8.30943 15.0485C8.36656 15.054 8.42383 15.0396 8.47163 15.0078C8.58538 14.9412 8.61038 14.8295 8.57829 14.7107C8.56288 14.6537 8.51788 14.6049 8.48621 14.5524C8.49871 14.4787 8.47246 14.4399 8.39329 14.4491L8.26829 14.3041C8.28163 14.2295 8.25538 14.1903 8.17454 14.2003L7.96621 14.0662L8.33038 13.8462ZM12.7587 14.8207C12.82 14.892 12.8679 14.9945 12.9458 15.0291C13.1179 15.1037 13.2841 14.9687 13.2879 14.767C13.2929 14.5095 13.2879 14.252 13.2879 13.9903H14.197C14.197 14.1407 14.192 14.282 14.197 14.4191C14.205 14.5937 14.222 14.7678 14.2354 14.942L14.2116 14.9895L14.295 15.0062C14.5704 15.1012 14.7208 14.9987 14.7212 14.7145C14.7212 14.0717 14.7212 13.4287 14.7212 12.7853C14.7212 12.5791 14.6166 12.452 14.4537 12.4541C14.2908 12.4562 14.195 12.577 14.1945 12.7903C14.1941 13.0037 14.1945 13.2228 14.1945 13.4416H13.2862C13.2862 13.2182 13.2862 13.0066 13.2862 12.7945C13.2862 12.6053 13.212 12.4907 13.0729 12.4591C12.9408 12.4291 12.8379 12.4978 12.7566 12.6716C12.7266 12.7249 12.6712 12.7778 12.6704 12.8316C12.6645 13.4499 12.6645 14.0681 12.6704 14.6862C12.6708 14.7299 12.7262 14.7753 12.7558 14.8207H12.7587ZM5.81038 12.9812C5.99746 12.9812 6.16788 12.9812 6.33829 12.9812C6.50871 12.9812 6.64288 12.8674 6.64246 12.7182C6.64204 12.5691 6.51413 12.4574 6.33538 12.4553C6.09704 12.4528 5.85788 12.4553 5.61954 12.4553C5.38121 12.4553 5.27871 12.5524 5.27829 12.7945C5.27829 13.3806 5.27829 13.9671 5.27829 14.5541C5.27484 14.6374 5.27623 14.7209 5.28246 14.8041C5.28972 14.8718 5.32267 14.9342 5.37452 14.9784C5.42637 15.0225 5.49319 15.0452 5.56121 15.0416C5.69746 15.0332 5.79454 14.9332 5.80413 14.7862C5.80829 14.7241 5.80413 14.6612 5.80413 14.5995V14.0012C5.97871 14.0012 6.12913 14.0057 6.27871 14.0012C6.45746 13.9941 6.58163 13.8741 6.57621 13.7245C6.57079 13.5749 6.45121 13.4795 6.27496 13.4774C6.12163 13.4774 5.96788 13.4774 5.80954 13.4774L5.81038 12.9812Z" fill="#34CCA9"></path>
    <path d="M4.49578 11.4219C4.49578 12.4244 4.49245 13.4273 4.49578 14.4298C4.49578 14.6902 4.54745 14.9394 4.71495 15.1573C4.80957 15.2877 4.93441 15.3932 5.07875 15.4647C5.22309 15.5363 5.38263 15.5718 5.5437 15.5681C8.95703 15.5703 12.3704 15.5703 15.7837 15.5681H15.9708C15.9729 15.8752 15.7687 16.0927 15.4641 16.0985C15.2141 16.1031 14.9641 16.0985 14.7141 16.0985C11.3422 16.0985 7.97009 16.0985 4.59786 16.0985C4.43786 16.0985 4.2712 16.096 4.16703 15.9656C4.08057 15.8598 4.02147 15.7343 3.99495 15.6002C3.96661 15.4285 3.98995 15.2481 3.99078 15.0715C3.99078 14.0198 3.99078 12.968 3.99078 11.916C3.9962 11.634 4.20828 11.426 4.49578 11.4219Z" fill="#20B895"></path>
    <path d="M14.9468 10.8921C14.9468 10.5959 15.1518 10.3688 15.4468 10.3659C16.1947 10.3592 16.9426 10.3605 17.6905 10.3659C17.903 10.3659 18.0097 10.5355 17.9405 10.745C17.7376 11.3605 17.5293 11.9742 17.3297 12.5909C17.3064 12.668 17.3064 12.7504 17.3297 12.8275C17.5247 13.4292 17.7284 14.028 17.9284 14.628C18.0247 14.9167 17.9151 15.0671 17.6068 15.0659C17.2384 15.0659 16.8701 15.0584 16.5018 15.0542C16.5018 14.0048 16.5018 12.955 16.5018 11.905C16.5018 11.4846 16.228 11.0634 15.8222 10.9621C15.5418 10.8917 15.2397 10.9121 14.9468 10.8921Z" fill="#34CCA9"></path>
    <path d="M8.95404 11.4211L6.32904 11.4186C6.18821 11.0053 6.08154 10.5853 6.08154 10.1445C6.08154 9.93405 6.19071 9.8253 6.40113 9.83905C7.27238 9.89614 8.04071 10.1903 8.63821 10.8478C8.78613 11.0107 8.89613 11.2078 9.02363 11.3895H8.98738L8.95404 11.4211Z" fill="#20B895"></path>
    <path d="M4.49574 11.4217C4.20408 11.4255 3.99574 11.6334 3.99574 11.9217C3.99574 12.9734 3.99574 14.0252 3.99574 15.0772L3.46908 15.0538C3.46908 13.9884 3.46449 12.9234 3.46908 11.8584C3.47116 11.3584 3.95033 10.8942 4.44699 10.8926C4.63908 10.8926 4.83158 10.8926 5.02366 10.8926L5.03491 11.4184L4.49574 11.4217Z" fill="#20B895"></path>
    <path d="M14.9466 10.8906C15.2382 10.9106 15.5428 10.8906 15.8216 10.9602C16.2274 11.0615 16.5012 11.4827 16.5012 11.9031C16.5012 12.9528 16.5012 14.0026 16.5012 15.0523L15.9741 15.0744C15.9741 14.0302 15.9741 12.986 15.9741 11.9419C15.9741 11.6227 15.7695 11.421 15.4482 11.4198C15.2766 11.4198 15.1052 11.4188 14.9341 11.4169L14.9466 10.8906Z" fill="#20B895"></path>
    <path d="M11.0096 11.2852C11.0075 11.3422 11.04 11.4189 10.9346 11.416L11.0096 11.2852Z" fill="#34CCA9"></path>
    <path d="M12.7292 9.99023L12.665 10.014L12.7292 9.99023Z" fill="#98DA7C"></path>
    <path d="M12.7566 12.6685C12.8378 12.4948 12.9408 12.426 13.0728 12.456C13.212 12.4877 13.2853 12.6023 13.2862 12.7914C13.2862 13.0035 13.2862 13.2152 13.2862 13.4385H14.1953C14.1953 13.2198 14.1953 13.0035 14.1953 12.7873C14.1953 12.571 14.2891 12.4539 14.4545 12.451C14.6199 12.4481 14.7216 12.576 14.722 12.7823C14.722 13.4253 14.722 14.0684 14.722 14.7114C14.722 14.9973 14.5712 15.0998 14.2958 15.0031L14.2349 14.9389C14.2216 14.7648 14.2045 14.5906 14.1966 14.416C14.1903 14.2773 14.1966 14.1377 14.1966 13.9873H13.2862C13.2862 14.2489 13.2899 14.5064 13.2862 14.7639C13.2824 14.9656 13.1162 15.1006 12.9441 15.026C12.8662 14.9923 12.8191 14.8898 12.757 14.8177C12.7567 14.1024 12.7566 13.386 12.7566 12.6685Z" fill="#FCFDFC"></path>
    <path d="M8.26448 14.3032L8.38948 14.4482L8.48239 14.5516C8.51406 14.6041 8.55906 14.6528 8.57448 14.7099C8.60656 14.8287 8.58156 14.9403 8.46781 15.007C8.42001 15.0388 8.36274 15.0531 8.30561 15.0477C8.24848 15.0422 8.19497 15.0172 8.15406 14.977C8.11989 14.9462 8.08656 14.9141 8.05281 14.8824L7.96573 14.7853C7.92211 14.7345 7.87809 14.6839 7.83364 14.6337L7.73781 14.5332L7.56323 14.3307L7.46281 14.2257L7.47364 14.3853C7.46989 14.5199 7.46781 14.6549 7.46156 14.7895C7.45448 14.9491 7.35864 15.0437 7.20823 15.0437C7.17432 15.0462 7.14027 15.0414 7.10839 15.0296C7.07651 15.0178 7.04754 14.9993 7.02346 14.9753C6.99939 14.9513 6.98076 14.9224 6.96886 14.8905C6.95695 14.8587 6.95205 14.8247 6.95448 14.7907C6.9517 14.0999 6.9517 13.4091 6.95448 12.7182C6.95448 12.5457 7.05406 12.4553 7.23156 12.4524C7.41864 12.4495 7.60656 12.447 7.79281 12.4524C7.93991 12.4528 8.08399 12.4942 8.20888 12.5719C8.33378 12.6496 8.43455 12.7606 8.49989 12.8924C8.64281 13.1595 8.62489 13.4341 8.45489 13.6891C8.44073 13.7107 8.42948 13.7341 8.41656 13.7566L8.32823 13.8466L7.96198 14.0653L8.17031 14.1995L8.26448 14.3032ZM7.47031 13.5328C7.68239 13.5328 7.90281 13.5941 8.02698 13.377C8.04566 13.3341 8.05435 13.2876 8.0524 13.2409C8.05046 13.1942 8.03791 13.1486 8.01573 13.1074C7.88114 12.9032 7.66698 12.9932 7.47031 12.9824V13.5328Z" fill="#FDFEFD"></path>
    <path d="M10.7443 13.4747C10.513 12.7885 11.103 12.3543 11.6988 12.4697C11.8863 12.506 12.0684 12.6026 12.2363 12.7005C12.3968 12.7935 12.4172 12.9414 12.3255 13.0726C12.2338 13.2039 12.1109 13.2101 11.943 13.1305C11.7936 13.0651 11.6376 13.0162 11.4776 12.9847C11.4154 12.9782 11.3532 12.9959 11.3038 13.0343C11.2793 13.0518 11.2588 13.0742 11.2435 13.1001C11.2282 13.126 11.2185 13.1548 11.2151 13.1847C11.2151 13.2314 11.2738 13.2947 11.3222 13.3168C11.5013 13.4001 11.6872 13.4647 11.8697 13.5393C12.0822 13.6264 12.2626 13.7547 12.3697 13.9639C12.5468 14.3097 12.3897 14.7372 12.0147 14.9405C11.598 15.1668 10.9105 15.0172 10.6255 14.638C10.5878 14.5878 10.5695 14.5255 10.5742 14.4629C10.5789 14.4002 10.6061 14.3413 10.6509 14.2972C10.6974 14.2508 10.7601 14.2243 10.8257 14.2234C10.8914 14.2225 10.9548 14.2472 11.0026 14.2922C11.1755 14.4522 11.3709 14.5447 11.6093 14.5151C11.6731 14.5 11.7352 14.4779 11.7943 14.4493C11.8243 14.4176 11.8543 14.3855 11.8847 14.3539C11.8875 14.351 11.8896 14.3475 11.8908 14.3437C11.8921 14.3398 11.8924 14.3358 11.8918 14.3318C11.9526 14.2376 11.8976 14.1793 11.8284 14.1235C11.6326 14.033 11.4393 13.936 11.2393 13.8543C11.0638 13.7826 10.8984 13.703 10.7868 13.5418L10.7443 13.4747Z" fill="#FDFDFC"></path>
    <path d="M10.198 14.9984C10.0655 15.0126 9.93262 15.0339 9.79971 15.0401C9.59721 15.0468 9.39429 15.0447 9.19179 15.0401C9.01679 15.0364 8.92137 14.9434 8.92054 14.768C8.91776 14.0925 8.91776 13.4171 8.92054 12.7418C8.92054 12.5551 9.02012 12.4605 9.21554 12.4576C9.46554 12.4534 9.71554 12.4551 9.96554 12.4576C10.253 12.4576 10.3593 12.6151 10.2593 12.8851L10.2005 12.9426C10.0364 12.9564 9.87262 12.9722 9.70846 12.9843C9.62221 12.9897 9.53512 12.9843 9.44512 12.9843V13.4868C9.61637 13.4868 9.77512 13.4868 9.93387 13.4868C10.0672 13.4868 10.1689 13.5397 10.2218 13.6605C10.2947 13.8272 10.1755 14.0018 9.98846 14.0122C9.90012 14.0172 9.81179 14.0122 9.72346 14.0122H9.44554V14.5147C9.62762 14.5147 9.79679 14.5147 9.96596 14.5147C10.253 14.5147 10.3593 14.6722 10.2576 14.9422L10.198 14.9984Z" fill="#FDFEFC"></path>
    <path d="M5.81044 12.9799V13.4745C5.96878 13.4745 6.12253 13.4745 6.27586 13.4745C6.45378 13.4766 6.57169 13.5745 6.57711 13.7216C6.58253 13.8687 6.45836 13.9912 6.27961 13.9983C6.13003 14.0041 5.97961 13.9983 5.80503 13.9983V14.5945C5.80503 14.6566 5.80794 14.7195 5.80503 14.7812C5.79544 14.9283 5.69836 15.0283 5.56211 15.0366C5.49408 15.0402 5.42727 15.0176 5.37542 14.9734C5.32357 14.9292 5.29062 14.8668 5.28336 14.7991C5.27713 14.7159 5.27574 14.6325 5.27919 14.5491C5.27919 13.9624 5.27919 13.3759 5.27919 12.7895C5.27919 12.5474 5.37669 12.4512 5.62044 12.4504C5.86419 12.4495 6.09794 12.4483 6.33628 12.4504C6.51503 12.4524 6.64336 12.5654 6.64336 12.7133C6.64336 12.8612 6.51544 12.9745 6.33919 12.9762C6.16294 12.9779 5.99753 12.9799 5.81044 12.9799Z" fill="#FCFDFC"></path>
    <path d="M12.7566 12.668C12.7566 13.3852 12.7566 14.1024 12.7566 14.8196C12.727 14.7742 12.6733 14.7288 12.6712 14.6826C12.6659 14.0645 12.6659 13.4463 12.6712 12.828C12.6712 12.7742 12.7266 12.7213 12.7566 12.668Z" fill="#34CCA9"></path>
    <path d="M11.8284 14.123C11.8975 14.1776 11.9534 14.236 11.8917 14.3314C11.8709 14.261 11.8496 14.1922 11.8284 14.123Z" fill="#34CCA9"></path>
    <path d="M7.4747 14.3842C7.4722 14.3463 7.4697 14.3088 7.46387 14.2246L7.56428 14.3296L7.4747 14.3842Z" fill="#34CCA9"></path>
    <path d="M8.32739 13.8452L8.41656 13.7539L8.42281 13.8372L8.32739 13.8452Z" fill="#34CCA9"></path>
    <path d="M7.96662 14.7852L8.0537 14.8822C7.99995 14.8731 7.89787 14.9047 7.96662 14.7852Z" fill="#34CCA9"></path>
    <path d="M10.1982 12.9403L10.257 12.8828C10.2612 12.9066 10.2653 12.9307 10.2699 12.9545L10.1982 12.9403Z" fill="#34CCA9"></path>
    <path d="M10.198 14.9985L10.2567 14.9414C10.2613 14.9652 10.2655 14.9893 10.2701 15.0135L10.198 14.9985Z" fill="#98DA7C"></path>
    <path d="M8.26465 14.3026L8.1709 14.1988C8.25007 14.1888 8.27798 14.228 8.26465 14.3026Z" fill="#34CCA9"></path>
    <path d="M11.8846 14.3535C11.8542 14.3852 11.8242 14.4173 11.7942 14.4489C11.8242 14.4173 11.8542 14.3852 11.8846 14.3535Z" fill="#98DA7C"></path>
    <path d="M8.4833 14.55L8.39038 14.4466C8.46955 14.4375 8.4958 14.4762 8.4833 14.55Z" fill="#34CCA9"></path>
    <path d="M7.73877 14.5332L7.8346 14.6336L7.73877 14.5332Z" fill="#98DA7C"></path>
    <path d="M10.7443 13.4746L10.7859 13.5429L10.7151 13.5217L10.7443 13.4746Z" fill="#34CCA9"></path>
    <path d="M14.2349 14.9414L14.2957 15.0052L14.2124 14.9885L14.2349 14.9414Z" fill="#98DA7C"></path>
    <path d="M8.9541 11.4206L8.98619 11.3906L8.9541 11.4206Z" fill="#98DA7C"></path>
    <path d="M7.47046 13.5322V12.9801C7.66713 12.9926 7.88129 12.9026 8.01588 13.1051C8.03806 13.1462 8.05061 13.1919 8.05255 13.2386C8.0545 13.2853 8.04581 13.3318 8.02713 13.3747C7.90296 13.5934 7.68254 13.5339 7.47046 13.5322Z" fill="#34CCA9"></path>
    <path d="M9.76098 3.46956V2.79999H9.60264C8.79026 2.79999 7.97789 2.79999 7.16551 2.79999C6.55784 2.79999 6.14911 2.38965 6.14629 1.78118C6.14629 1.58545 6.14388 1.38973 6.14629 1.1944C6.14849 0.942671 6.24939 0.701855 6.42728 0.523735C6.60518 0.345615 6.84586 0.244416 7.09759 0.241898C9.03314 0.237076 10.9687 0.237076 12.9042 0.241898C13.4267 0.241898 13.8415 0.67153 13.8511 1.19681C13.8551 1.41116 13.8551 1.62671 13.8511 1.84347C13.8494 2.09728 13.7474 2.34011 13.5673 2.51895C13.3871 2.69778 13.1436 2.7981 12.8898 2.79798C12.0627 2.80241 11.2352 2.79798 10.4076 2.79798H10.2384V3.46755H10.4097C11.2135 3.46755 12.0144 3.46474 12.8166 3.46755C13.3475 3.46956 13.7543 3.76295 13.8234 4.25166C13.8683 4.58894 13.8669 4.93078 13.819 5.26766C13.7615 5.68483 13.4102 5.98063 12.9919 6.01841C12.7527 6.04011 12.5096 6.03288 12.2704 6.03368C11.5989 6.03368 10.9277 6.03368 10.2433 6.03368V6.70325H10.3972C11.2047 6.70325 12.012 6.70325 12.819 6.70325C13.4484 6.70325 13.8507 7.10515 13.8527 7.73774C13.8527 7.92824 13.8555 8.11914 13.8527 8.30964C13.8502 8.56106 13.7492 8.80147 13.5714 8.97925C13.3937 9.15704 13.1532 9.25803 12.9018 9.26054C10.9663 9.26536 9.03073 9.26536 7.09518 9.26054C6.57271 9.26054 6.15755 8.8293 6.14871 8.30563C6.14509 8.08981 6.14469 7.87439 6.14871 7.65857C6.15051 7.40486 6.25262 7.16217 6.43273 6.98349C6.61285 6.80481 6.85634 6.70464 7.11005 6.70486C7.93756 6.70044 8.76508 6.70486 9.59219 6.70486H9.76179V6.0369H9.59058C8.78678 6.0369 7.98619 6.03971 7.184 6.0369C6.65309 6.03449 6.24516 5.7407 6.17644 5.25279C6.13149 4.91538 6.13297 4.5734 6.18086 4.23639C6.23793 3.82042 6.58999 3.52382 7.00797 3.48523C7.24187 3.46393 7.47859 3.47117 7.71411 3.47076C8.3893 3.46835 9.0661 3.46956 9.76098 3.46956ZM11.6845 4.52133C11.3786 4.52133 11.0728 4.52133 10.7669 4.52133C10.5756 4.52133 10.4772 4.60171 10.4764 4.75082C10.4756 4.89992 10.5752 4.98432 10.7633 4.98432C11.375 4.98593 11.9868 4.98593 12.5988 4.98432C12.7881 4.98432 12.889 4.90113 12.8902 4.75484C12.8914 4.60854 12.7905 4.52334 12.602 4.52214C12.2962 4.51972 11.9903 4.52133 11.6845 4.52133ZM11.6809 1.74822C11.9911 1.74822 12.3014 1.74822 12.6121 1.74822C12.7993 1.74822 12.8982 1.66463 12.8934 1.51552C12.8902 1.37405 12.7917 1.29447 12.6121 1.29407C11.9913 1.29407 11.3705 1.29407 10.7497 1.29407C10.5736 1.29407 10.4748 1.37767 10.474 1.52034C10.4732 1.66302 10.57 1.74702 10.7468 1.74822C11.0599 1.74943 11.3702 1.74822 11.6809 1.74822V1.74822ZM11.6809 8.21319C11.9911 8.21319 12.3014 8.21319 12.6121 8.21319C12.7985 8.21319 12.899 8.12959 12.8966 7.98129C12.8942 7.83299 12.7977 7.75743 12.6165 7.75743C11.9954 7.75743 11.3746 7.75743 10.7541 7.75743C10.5744 7.75743 10.4784 7.83781 10.4768 7.98089C10.4752 8.12397 10.5764 8.21118 10.7629 8.21158C11.0684 8.21359 11.3738 8.21319 11.6793 8.21319H11.6809ZM8.23095 7.98732C8.23095 7.84545 8.13329 7.74176 8.00267 7.74337C7.94027 7.74817 7.88202 7.77646 7.83967 7.82254C7.79731 7.86861 7.77402 7.92904 7.77447 7.99162C7.77493 8.0542 7.79912 8.11428 7.84214 8.15973C7.88516 8.20518 7.94383 8.23261 8.00629 8.2365C8.13409 8.23529 8.22974 8.12919 8.22934 7.98732H8.23095ZM7.29251 8.23529C7.35534 8.23299 7.4147 8.20591 7.45763 8.15997C7.50055 8.11403 7.52355 8.05297 7.5216 7.99013C7.52289 7.95916 7.51791 7.92825 7.50695 7.89925C7.49599 7.87026 7.47928 7.84378 7.45783 7.8214C7.43637 7.79903 7.41061 7.78123 7.3821 7.76907C7.35359 7.75691 7.32291 7.75064 7.29191 7.75064C7.26091 7.75064 7.23023 7.75691 7.20172 7.76907C7.17321 7.78123 7.14745 7.79903 7.12599 7.8214C7.10454 7.84378 7.08783 7.87026 7.07687 7.89925C7.06591 7.92825 7.06093 7.95916 7.06222 7.99013C7.06037 8.05288 7.08335 8.11382 7.12617 8.15972C7.16899 8.20562 7.22818 8.23278 7.29091 8.23529H7.29251ZM9.6593 7.99415C9.66143 7.96285 9.65714 7.93145 9.6467 7.90186C9.63626 7.87228 9.61988 7.84515 9.59857 7.82212C9.57727 7.79909 9.55148 7.78066 9.52279 7.76796C9.49411 7.75526 9.46313 7.74855 9.43176 7.74825C9.40039 7.74794 9.36929 7.75406 9.34036 7.76621C9.31144 7.77835 9.2853 7.79628 9.26356 7.8189C9.24181 7.84151 9.22492 7.86833 9.21391 7.8977C9.2029 7.92708 9.198 7.9584 9.19953 7.98973C9.1974 8.02103 9.20169 8.05244 9.21213 8.08202C9.22258 8.1116 9.23895 8.13874 9.26026 8.16177C9.28157 8.18479 9.30735 8.20322 9.33604 8.21593C9.36472 8.22863 9.3957 8.23534 9.42707 8.23564C9.45844 8.23594 9.48955 8.22983 9.51847 8.21768C9.54739 8.20553 9.57353 8.1876 9.59528 8.16499C9.61702 8.14237 9.63392 8.11556 9.64493 8.08618C9.65594 8.0568 9.66083 8.02549 9.6593 7.99415V7.99415ZM8.71966 7.74497C8.58864 7.74296 8.49098 7.84746 8.49138 7.98853C8.49178 8.12959 8.57859 8.22203 8.7068 8.22967C8.73826 8.23104 8.76966 8.22597 8.79908 8.21477C8.82851 8.20357 8.85534 8.18647 8.87792 8.16453C8.9005 8.14259 8.91836 8.11627 8.9304 8.08718C8.94244 8.05808 8.94841 8.02684 8.94794 7.99536C8.95006 7.96359 8.94574 7.93171 8.93521 7.90166C8.92469 7.8716 8.90819 7.84399 8.88671 7.82048C8.86523 7.79698 8.83921 7.77806 8.81023 7.76488C8.78124 7.75169 8.74989 7.74451 8.71805 7.74377L8.71966 7.74497ZM7.29774 4.98834C7.32883 4.9863 7.35921 4.97815 7.38715 4.96435C7.41509 4.95056 7.44004 4.9314 7.46057 4.90796C7.4811 4.88452 7.49681 4.85726 7.50679 4.82774C7.51678 4.79823 7.52086 4.76704 7.51878 4.73595C7.51597 4.67564 7.48984 4.61879 7.44589 4.57739C7.40195 4.536 7.34364 4.5133 7.28327 4.5141C7.22251 4.51897 7.16594 4.54702 7.12529 4.59244C7.08463 4.63786 7.06299 4.69717 7.06485 4.7581C7.06671 4.81903 7.09192 4.87692 7.13527 4.91977C7.17862 4.96263 7.23679 4.98718 7.29774 4.98834V4.98834ZM8.22894 4.75644C8.2312 4.72528 8.22702 4.69399 8.21666 4.66451C8.2063 4.63504 8.18997 4.60801 8.16871 4.58513C8.14744 4.56224 8.12169 4.54398 8.09305 4.53148C8.06442 4.51898 8.03351 4.51252 8.00227 4.51249C7.9415 4.51313 7.88345 4.53771 7.8407 4.58091C7.79796 4.6241 7.77399 4.68241 7.77399 4.74318C7.77265 4.77441 7.77753 4.80559 7.78836 4.83492C7.79919 4.86424 7.81575 4.89111 7.83707 4.91397C7.8584 4.93682 7.88406 4.9552 7.91256 4.96804C7.94106 4.98088 7.97183 4.98792 8.00307 4.98874C8.06376 4.98768 8.12157 4.96267 8.16389 4.91915C8.2062 4.87563 8.22959 4.81714 8.22894 4.75644V4.75644ZM8.72127 4.99236C8.75242 4.99082 8.78297 4.98311 8.81112 4.96968C8.83927 4.95624 8.86447 4.93735 8.88526 4.91409C8.90605 4.89083 8.92201 4.86368 8.93222 4.8342C8.94243 4.80472 8.94668 4.77351 8.94472 4.74238C8.94448 4.71132 8.93799 4.68062 8.92564 4.65213C8.91329 4.62363 8.89533 4.5979 8.87283 4.57649C8.85033 4.55508 8.82375 4.53841 8.79467 4.52749C8.7656 4.51656 8.73462 4.5116 8.70358 4.51289C8.57337 4.52013 8.48415 4.62784 8.49138 4.7689C8.49254 4.82892 8.51734 4.88605 8.56038 4.92789C8.60343 4.96973 8.66124 4.9929 8.72127 4.99236ZM9.42098 4.98754C9.48252 4.9874 9.54159 4.9633 9.58567 4.92035C9.62975 4.8774 9.65536 4.81897 9.65709 4.75745C9.65881 4.69593 9.63651 4.63616 9.59491 4.59081C9.55331 4.54545 9.49568 4.51808 9.43424 4.5145C9.37392 4.51361 9.31564 4.5363 9.27181 4.57773C9.22797 4.61917 9.20204 4.67608 9.19953 4.73635C9.19757 4.76738 9.20174 4.7985 9.21181 4.82793C9.22188 4.85735 9.23765 4.8845 9.25821 4.90782C9.27877 4.93115 9.30373 4.9502 9.33166 4.96387C9.35959 4.97755 9.38994 4.98559 9.42098 4.98754V4.98754ZM9.65689 1.52798C9.65785 1.48247 9.64525 1.4377 9.62069 1.39937C9.59613 1.36104 9.56073 1.33088 9.51899 1.31272C9.47724 1.29456 9.43104 1.28923 9.38626 1.29741C9.34147 1.30558 9.30013 1.32689 9.26749 1.35862C9.23485 1.39035 9.21239 1.43107 9.20295 1.47561C9.19352 1.52014 9.19754 1.56648 9.21452 1.60872C9.23149 1.65096 9.26064 1.6872 9.29826 1.71282C9.33588 1.73845 9.38028 1.75231 9.4258 1.75264C9.48621 1.75339 9.54445 1.73017 9.58777 1.68806C9.63108 1.64595 9.65594 1.58838 9.65689 1.52798V1.52798ZM7.52079 1.52798C7.52175 1.48255 7.50917 1.43786 7.48466 1.39959C7.46014 1.36133 7.42481 1.33122 7.38313 1.31309C7.34146 1.29497 7.29534 1.28964 7.25064 1.2978C7.20593 1.30596 7.16466 1.32723 7.13208 1.3589C7.0995 1.39058 7.07707 1.43123 7.06765 1.47569C7.05823 1.52014 7.06225 1.56639 7.07919 1.60856C7.09613 1.65073 7.12523 1.6869 7.16279 1.71249C7.20034 1.73807 7.24466 1.75191 7.2901 1.75224C7.32006 1.75299 7.34987 1.74775 7.37777 1.73682C7.40568 1.7259 7.43112 1.70951 7.45261 1.68862C7.4741 1.66774 7.4912 1.64276 7.5029 1.61518C7.51461 1.58759 7.5207 1.55795 7.52079 1.52798ZM8.71002 1.28443C8.57578 1.28845 8.48535 1.39133 8.49178 1.5332C8.49184 1.56309 8.498 1.59264 8.50986 1.62006C8.52173 1.64749 8.53906 1.6722 8.56081 1.6927C8.58255 1.7132 8.60824 1.72905 8.63631 1.73929C8.66438 1.74953 8.69425 1.75393 8.72408 1.75224C8.78612 1.75037 8.84487 1.72394 8.88742 1.67876C8.92997 1.63357 8.95282 1.57334 8.95095 1.5113C8.94909 1.44926 8.92266 1.39051 8.87747 1.34796C8.83229 1.30542 8.77205 1.28256 8.71002 1.28443V1.28443ZM8.00147 1.75264C8.06058 1.7513 8.11691 1.72731 8.15885 1.68562C8.20078 1.64394 8.22511 1.58775 8.22681 1.52865C8.22851 1.46955 8.20746 1.41205 8.16799 1.36803C8.12853 1.324 8.07366 1.29681 8.01473 1.29206C7.95365 1.29031 7.89438 1.31288 7.84995 1.35483C7.80552 1.39677 7.77957 1.45465 7.77781 1.51572C7.77605 1.5768 7.79862 1.63607 7.84057 1.6805C7.88251 1.72493 7.94039 1.75088 8.00147 1.75264Z" fill="#34CCA9"></path>
    <path d="M11.6844 4.52202C11.9903 4.52202 12.2961 4.52202 12.602 4.52202C12.7905 4.52202 12.8913 4.60762 12.8901 4.75472C12.8889 4.90182 12.7881 4.9838 12.5988 4.98421C11.9865 4.98581 11.3747 4.98581 10.7633 4.98421C10.5732 4.98421 10.4751 4.90021 10.4763 4.7515C10.4775 4.6028 10.5756 4.52323 10.7669 4.52202C11.0727 4.52081 11.379 4.52202 11.6844 4.52202Z" fill="white"></path>
    <path d="M11.6793 8.21357C11.3739 8.21357 11.0684 8.21357 10.763 8.21357C10.5765 8.21357 10.4752 8.13037 10.4768 7.98288C10.4784 7.83538 10.5753 7.75781 10.7541 7.75781C11.3752 7.75781 11.996 7.75781 12.6165 7.75781C12.7978 7.75781 12.8922 7.83819 12.8951 7.98006C12.8979 8.12193 12.797 8.21156 12.6105 8.21196C12.2998 8.21397 11.9896 8.21357 11.6793 8.21357Z" fill="white"></path>
    <path d="M8.22943 7.98811C8.22943 8.12998 8.13418 8.23609 8.00477 8.23729C7.94231 8.23341 7.88364 8.20597 7.84062 8.16052C7.7976 8.11507 7.77341 8.05499 7.77296 7.99241C7.7725 7.92983 7.79579 7.8694 7.83815 7.82333C7.8805 7.77725 7.93875 7.74896 8.00115 7.74416C8.13177 7.74255 8.22863 7.84624 8.22943 7.98811Z" fill="white"></path>
    <path d="M7.29079 8.23581C7.22793 8.23371 7.16845 8.20684 7.12531 8.16107C7.08217 8.11529 7.05888 8.05433 7.0605 7.99145C7.05921 7.96048 7.06419 7.92956 7.07515 7.90057C7.08611 7.87157 7.10282 7.84509 7.12427 7.82272C7.14573 7.80035 7.17149 7.78255 7.2 7.77038C7.22851 7.75822 7.25919 7.75195 7.29019 7.75195C7.32119 7.75195 7.35187 7.75822 7.38038 7.77038C7.40889 7.78255 7.43465 7.80035 7.45611 7.82272C7.47756 7.84509 7.49427 7.87157 7.50523 7.90057C7.51619 7.92956 7.52117 7.96048 7.51988 7.99145C7.52161 8.05415 7.49852 8.11501 7.45562 8.16077C7.41272 8.20653 7.35348 8.2335 7.29079 8.23581V8.23581Z" fill="white"></path>
    <path d="M9.65781 7.99201C9.65934 8.02335 9.65445 8.05466 9.64344 8.08404C9.63243 8.11342 9.61553 8.14023 9.59379 8.16285C9.57204 8.18546 9.5459 8.20339 9.51698 8.21554C9.48806 8.22769 9.45695 8.2338 9.42558 8.2335C9.39421 8.2332 9.36324 8.22649 9.33455 8.21378C9.30587 8.20108 9.28008 8.18265 9.25877 8.15962C9.23746 8.1366 9.22109 8.10946 9.21064 8.07988C9.2002 8.05029 9.19591 8.01889 9.19804 7.98759C9.19651 7.95626 9.20141 7.92494 9.21242 7.89556C9.22343 7.86619 9.24032 7.83937 9.26207 7.81676C9.28381 7.79414 9.30995 7.77621 9.33887 7.76406C9.3678 7.75191 9.3989 7.7458 9.43027 7.7461C9.46164 7.74641 9.49262 7.75311 9.52131 7.76582C9.54999 7.77852 9.57578 7.79695 9.59708 7.81998C9.61839 7.843 9.63477 7.87014 9.64521 7.89972C9.65565 7.92931 9.65994 7.96071 9.65781 7.99201V7.99201Z" fill="white"></path>
    <path d="M8.71817 7.74417C8.74948 7.74535 8.78023 7.75275 8.80865 7.76595C8.83707 7.77914 8.86257 7.79787 8.88367 7.82103C8.90477 7.84418 8.92105 7.87132 8.93155 7.90083C8.94205 7.93035 8.94657 7.96166 8.94484 7.99295C8.94531 8.02443 8.93934 8.05567 8.9273 8.08476C8.91526 8.11385 8.8974 8.14018 8.87481 8.16212C8.85223 8.18406 8.82541 8.20115 8.79598 8.21236C8.76656 8.22356 8.73515 8.22862 8.7037 8.22725C8.57549 8.22122 8.48828 8.12437 8.48828 7.98611C8.48828 7.84786 8.58715 7.74216 8.71817 7.74417Z" fill="white"></path>
    <path d="M7.29769 4.98794C7.23675 4.98677 7.17858 4.96222 7.13523 4.91937C7.09188 4.87651 7.06667 4.81863 7.06481 4.7577C7.06295 4.69677 7.08459 4.63746 7.12524 4.59204C7.1659 4.54662 7.22246 4.51857 7.28323 4.51369C7.34359 4.5129 7.4019 4.53559 7.44585 4.57699C7.48979 4.61838 7.51593 4.67524 7.51874 4.73554C7.52081 4.76663 7.51674 4.79783 7.50675 4.82734C7.49676 4.85685 7.48105 4.88411 7.46053 4.90755C7.44 4.93099 7.41505 4.95015 7.38711 4.96395C7.35917 4.97774 7.32879 4.98589 7.29769 4.98794V4.98794Z" fill="white"></path>
    <path d="M8.22885 4.75567C8.22928 4.81623 8.2058 4.87451 8.16351 4.91786C8.12122 4.9612 8.06353 4.98611 8.00298 4.98717C7.97174 4.98634 7.94097 4.97931 7.91247 4.96647C7.88397 4.95363 7.85831 4.93525 7.83698 4.91239C7.81566 4.88953 7.7991 4.86266 7.78827 4.83334C7.77744 4.80402 7.77256 4.77283 7.7739 4.74161C7.77411 4.68098 7.79817 4.62287 7.84089 4.57985C7.88361 4.53683 7.94155 4.51235 8.00218 4.51172C8.03342 4.51175 8.06432 4.51821 8.09296 4.53071C8.1216 4.5432 8.14735 4.56147 8.16862 4.58435C8.18988 4.60724 8.20621 4.63427 8.21657 4.66374C8.22693 4.69322 8.23111 4.72451 8.22885 4.75567V4.75567Z" fill="white"></path>
    <path d="M8.72126 4.99139C8.66102 4.99225 8.6029 4.96923 8.55959 4.92735C8.51629 4.88548 8.49133 4.82816 8.49016 4.76793C8.48293 4.62686 8.57054 4.51915 8.70237 4.51192C8.7334 4.51062 8.76438 4.51559 8.79345 4.52652C8.82253 4.53744 8.84911 4.55411 8.87161 4.57552C8.89411 4.59693 8.91207 4.62265 8.92442 4.65115C8.93677 4.67965 8.94326 4.71035 8.94351 4.74141C8.94546 4.77244 8.94125 4.80356 8.93112 4.83296C8.92099 4.86236 8.90513 4.88947 8.88447 4.91271C8.86381 4.93595 8.83874 4.95487 8.81073 4.96837C8.78272 4.98187 8.75231 4.9897 8.72126 4.99139V4.99139Z" fill="white"></path>
    <path d="M9.42089 4.98673C9.38986 4.98479 9.35951 4.97675 9.33158 4.96307C9.30365 4.94939 9.27869 4.93035 9.25813 4.90702C9.23756 4.88369 9.22179 4.85654 9.21173 4.82712C9.20166 4.7977 9.19748 4.76658 9.19945 4.73555C9.20195 4.67528 9.22789 4.61837 9.27172 4.57693C9.31556 4.53549 9.37384 4.51281 9.43416 4.5137C9.4956 4.51728 9.55323 4.54465 9.59483 4.59C9.63643 4.63536 9.65873 4.69513 9.657 4.75665C9.65528 4.81817 9.62966 4.8766 9.58559 4.91955C9.54151 4.9625 9.48244 4.9866 9.42089 4.98673V4.98673Z" fill="white"></path>
  </g>
  <defs>
    <clipPath id="clip0_6484_70662">
      <rect width="16" height="16" fill="white" transform="translate(2 3)"></rect>
    </clipPath>
  </defs>
</svg>
