<svg width="20" height="20" viewBox="0 0 20 20" fill="none" xmlns="http://www.w3.org/2000/svg">
<circle opacity="0.06" cx="10" cy="10" r="10" fill="#0051FF"/>
<path fill-rule="evenodd" clip-rule="evenodd" d="M10.227 4.00141C9.74617 4.01428 9.26222 4.11563 8.80215 4.28282C7.02042 5.0329 5.78136 6.66952 5.22082 8.63317C5.12618 9.00177 5.04941 9.37074 5.0082 9.75148C5.0082 9.7638 4.97866 10.1387 5.03172 10.0375C5.08479 9.94847 5.10831 9.81732 5.13785 9.71598C5.40918 8.79374 5.73996 7.95446 6.24726 7.15712C7.4628 5.35367 9.41557 4.19343 11.4803 4.83627C11.864 4.96686 12.2061 5.1576 12.5481 5.38365C12.6129 5.43129 13.0908 5.81221 12.9847 5.46697C12.8962 5.19365 12.6721 4.96098 12.4772 4.77649C11.8211 4.20373 11.0286 3.97989 10.227 4.00141ZM9.76203 6.30147C9.51264 6.29489 9.26563 6.35176 9.04376 6.46683C8.30634 6.84149 8.01112 7.75196 8.38877 8.49578C8.76039 9.23978 9.66265 9.53756 10.4003 9.15683C11.1377 8.78179 11.4327 7.87133 11.0553 7.12788C10.934 6.88499 10.7497 6.67984 10.5219 6.5343C10.2942 6.38877 10.0316 6.3083 9.76203 6.30147ZM10.7722 9.97201C10.3 10.2571 9.74562 10.418 9.15572 10.418C9.03209 10.418 8.91393 10.4123 8.78993 10.4002V14.78C8.78993 15.1846 8.88439 15.4881 9.06747 15.6906C9.2562 15.8988 9.48651 16 9.77553 16C10.0702 16 10.3125 15.8988 10.4949 15.6965C10.6782 15.4942 10.7722 15.1907 10.7722 14.78V9.97201Z" fill="#0081FF"/>
</svg>
