<svg width="112" height="30" viewBox="0 0 112 30" fill="none" xmlns="http://www.w3.org/2000/svg">
<g id="Indeed_logo 1" clip-path="url(#clip0_12595_5262)">
<g id="Group">
<g id="Group_2">
<path id="Vector" fill-rule="evenodd" clip-rule="evenodd" d="M110.525 5.24815C110.133 4.80362 109.606 4.58512 108.905 4.58512C108.205 4.58512 107.655 4.81869 107.27 5.30842C106.894 5.78309 106.698 6.49132 106.698 7.40298V14.0935C105.824 13.1517 104.92 12.4812 103.993 12.0291C103.42 11.7503 102.742 11.5469 101.981 11.4489C101.537 11.3962 101.092 11.3661 100.595 11.3661C98.2894 11.3661 96.4209 12.1572 94.9894 13.7545C93.5729 15.3367 92.8647 17.5443 92.8647 20.3697C92.8647 21.7033 93.0455 22.954 93.4071 24.0992C93.7688 25.2369 94.2811 26.239 94.9743 27.0979C95.6675 27.9417 96.5038 28.5972 97.4456 29.0719C98.3874 29.5315 99.4196 29.7651 100.542 29.7651C101.055 29.7651 101.544 29.7198 101.989 29.637C102.298 29.5918 102.569 29.5089 102.863 29.426C103.571 29.1924 104.234 28.8534 104.837 28.4239C105.462 27.9794 106.072 27.4143 106.698 26.7136V27.1582C106.698 27.9945 106.909 28.6274 107.323 29.087C107.753 29.5315 108.28 29.7651 108.905 29.7651C109.561 29.7651 110.088 29.5466 110.488 29.1246C110.887 28.6801 111.113 28.0397 111.113 27.1657V7.16188C111.09 6.3331 110.902 5.67761 110.525 5.24815ZM105.831 23.7149C105.432 24.5588 104.874 25.1992 104.219 25.6136C103.541 26.028 102.803 26.2239 101.981 26.2239H101.966C101.145 26.2239 100.414 26.0054 99.7285 25.5835C99.0504 25.1389 98.5079 24.4985 98.1161 23.6396C97.7243 22.7807 97.536 21.7259 97.536 20.5053C97.536 19.3375 97.7168 18.3128 98.0935 17.4539C98.4552 16.5799 98.9826 15.9018 99.6456 15.4271C100.324 14.9449 101.077 14.7189 101.936 14.7189H101.981C102.787 14.7189 103.518 14.9524 104.204 15.412C104.882 15.8716 105.424 16.5347 105.824 17.3936C106.223 18.2525 106.419 19.3073 106.419 20.5053C106.434 21.7861 106.238 22.856 105.831 23.7149ZM91.1845 23.9108C90.8907 23.6622 90.5064 23.5341 90.0167 23.5341C89.5721 23.5341 89.2557 23.6471 89.0071 23.828C88.4269 24.3554 87.9522 24.7848 87.5906 25.0937C87.2289 25.3876 86.8296 25.6739 86.3851 25.9527C85.9707 26.2164 85.5111 26.4273 85.0515 26.5328C84.5768 26.6609 84.0796 26.7287 83.522 26.7287C83.3939 26.7287 83.2885 26.7287 83.1754 26.7136C82.4823 26.6684 81.8268 26.4801 81.2466 26.1335C80.5535 25.7342 80.011 25.1465 79.5815 24.3855C79.1822 23.5944 78.9562 22.6752 78.9411 21.6505H88.0577C89.2783 21.6505 90.2201 21.4697 90.8906 21.1532C91.5687 20.8067 91.9003 20.0683 91.9003 18.9306C91.9003 17.695 91.5687 16.4895 90.9133 15.3066C90.2578 14.1237 89.3009 13.1593 87.9824 12.4209C86.6789 11.675 85.1268 11.3133 83.3035 11.3133H83.1679C81.8192 11.3284 80.5836 11.5469 79.4911 11.9688C78.3384 12.4134 77.3815 13.0387 76.5753 13.8449C75.8143 14.6661 75.204 15.6456 74.7972 16.7984C74.3903 17.9511 74.1718 19.2018 74.1718 20.5279C74.1718 23.3759 75.0082 25.6061 76.6582 27.2712C78.2253 28.8383 80.3877 29.6746 83.1528 29.7575C83.3035 29.7726 83.4693 29.7726 83.635 29.7726C84.9234 29.7726 86.0912 29.6068 87.1009 29.2753C88.1105 28.9438 88.9468 28.5294 89.6098 28.0246C90.2728 27.5123 90.7776 26.9849 91.0941 26.4424C91.4256 25.8999 91.5914 25.4177 91.5914 25.0109C91.6366 24.5211 91.4859 24.1519 91.1845 23.9108ZM80.3274 15.6155C81.0658 14.8394 82.0227 14.4476 83.183 14.4476H83.198C84.4035 14.4476 85.3905 14.8244 86.1289 15.5853C86.8673 16.3463 87.3118 17.5141 87.4022 19.0662H78.9637C79.1219 17.5443 79.5665 16.3915 80.3274 15.6155ZM71.3841 23.5266C70.9245 23.5266 70.6081 23.6396 70.3594 23.8204C69.7868 24.3478 69.3046 24.7773 68.943 25.0862C68.5813 25.38 68.1971 25.6663 67.7525 25.9451C67.3231 26.2088 66.8785 26.4198 66.4039 26.5253C65.9443 26.6533 65.4319 26.7212 64.8744 26.7212C64.7463 26.7212 64.6408 26.7212 64.5278 26.7061C63.8347 26.6609 63.1792 26.4725 62.599 26.1259C61.9209 25.7266 61.3634 25.1389 60.9641 24.378C60.5346 23.5869 60.3236 22.6677 60.3086 21.643H69.4101C70.6156 21.643 71.5574 21.4622 72.243 21.1457C72.9061 20.7991 73.2451 20.0608 73.2451 18.9231C73.2451 17.6874 72.9287 16.4819 72.2732 15.299C71.6177 14.1161 70.6533 13.1517 69.3423 12.4134C68.0388 11.6674 66.4717 11.3058 64.6634 11.3058H64.5127C63.1641 11.3209 61.9435 11.5394 60.836 11.9613C59.6832 12.4058 58.7263 13.0312 57.9352 13.8374C57.1592 14.6586 56.5489 15.6381 56.142 16.7908C55.7276 17.9436 55.5167 19.1943 55.5167 20.5204C55.5167 23.3684 56.3605 25.5985 58.0181 27.2636C59.5853 28.8308 61.7401 29.6671 64.4977 29.75C64.6634 29.7651 64.8141 29.7651 64.9799 29.7651C66.2833 29.7651 67.4361 29.5993 68.4457 29.2678C69.4553 28.9363 70.2916 28.5219 70.9471 28.0171C71.6252 27.5047 72.1149 26.9773 72.4465 26.4349C72.778 25.8924 72.9437 25.4102 72.9437 25.0033C72.9437 24.5437 72.793 24.1821 72.4992 23.9334C72.243 23.6471 71.8362 23.5266 71.3841 23.5266ZM61.6647 15.6155C62.4031 14.8394 63.36 14.4476 64.5203 14.4476H64.5353C65.7409 14.4476 66.7279 14.8244 67.4662 15.5853C68.2121 16.3463 68.6491 17.5141 68.7546 19.0662H60.3086C60.4743 17.5443 60.9339 16.3915 61.6647 15.6155ZM9.76787 26.7287V15.9168C10.0843 15.947 10.3932 15.9621 10.6946 15.9621C12.209 15.9621 13.6255 15.5627 14.831 14.8696V26.7362C14.831 27.7458 14.5974 28.4993 14.1227 28.9965C13.6481 29.4938 13.0378 29.7425 12.2768 29.7425C11.5384 29.7425 10.9432 29.4938 10.4761 28.9815C10.024 28.4616 9.76787 27.7308 9.76787 26.7287ZM53.5954 5.24815C53.2036 4.80362 52.6687 4.58512 51.9831 4.58512C51.2748 4.58512 50.7323 4.81869 50.3481 5.30842C49.9563 5.78309 49.7755 6.49132 49.7755 7.40298V14.0935C48.9015 13.1517 47.9974 12.4812 47.0706 12.0291C46.4905 11.7503 45.8199 11.5469 45.074 11.4489C44.6446 11.3962 44.185 11.3661 43.6877 11.3661C41.3822 11.3661 39.4986 12.1572 38.0821 13.7545C36.6656 15.3367 35.9574 17.5443 35.9574 20.3697C35.9574 21.7033 36.1382 22.954 36.4848 24.0992C36.8465 25.2369 37.3739 26.239 38.067 27.0979C38.7602 27.9417 39.5965 28.5972 40.5383 29.0719C41.4952 29.5315 42.5123 29.7651 43.635 29.7651C44.1322 29.7651 44.622 29.7198 45.0816 29.637C45.3905 29.5918 45.6617 29.5089 45.9555 29.426C46.6638 29.1924 47.3268 28.8534 47.9296 28.4239C48.5549 27.9794 49.1501 27.4143 49.7905 26.7136V27.1582C49.7905 27.9945 50.0015 28.6274 50.4159 29.087C50.8152 29.5315 51.3728 29.7651 51.9981 29.7651C52.6235 29.7651 53.166 29.5466 53.5653 29.1246C53.9646 28.6801 54.1605 28.0397 54.1605 27.1657V7.16188C54.1454 6.3331 53.9646 5.67761 53.5954 5.24815ZM48.9166 23.7149C48.5172 24.5588 47.9597 25.1992 47.2967 25.6136C46.6336 26.028 45.8802 26.2239 45.074 26.2239H45.0589C44.2377 26.2239 43.5069 26.0054 42.8212 25.5835C42.1281 25.1389 41.6007 24.4985 41.2089 23.6396C40.8171 22.7807 40.6287 21.7259 40.6287 20.5053C40.6287 19.3375 40.8096 18.3128 41.1712 17.4539C41.5479 16.5799 42.0603 15.9018 42.7384 15.4271C43.4014 14.9449 44.1699 14.7189 45.0137 14.7189H45.0665C45.8727 14.7189 46.6035 14.9524 47.2741 15.412C47.9672 15.8716 48.5097 16.5347 48.909 17.3936C49.3008 18.2525 49.5042 19.3073 49.5042 20.5053C49.5118 21.7861 49.3008 22.856 48.9166 23.7149ZM22.275 13.8223V14.3798C23.1113 13.325 23.9928 12.564 24.9497 12.0592C25.9367 11.577 27.0442 11.3209 28.31 11.3209C29.5306 11.3209 30.6306 11.5846 31.595 12.0969C32.5669 12.6092 33.2752 13.3476 33.7423 14.3045C34.0587 14.862 34.2546 15.4723 34.3375 16.1052C34.4204 16.7306 34.4731 17.5593 34.4731 18.5614V26.9698C34.4731 27.889 34.2546 28.5671 33.8176 29.0267C33.4033 29.5014 32.8306 29.7349 32.1525 29.7349C31.4594 29.7349 30.9018 29.5013 30.4573 29.0116C30.0128 28.5369 29.8018 27.8589 29.8018 26.9698V19.4354C29.8018 17.9361 29.5908 16.7984 29.1614 16.0073C28.747 15.2161 27.8881 14.8168 26.6072 14.8168C25.7709 14.8168 25.025 15.0655 24.3469 15.5401C23.6688 16.0223 23.1565 16.6778 22.8325 17.5367C22.614 18.2148 22.501 19.4655 22.501 21.3265V26.9773C22.501 27.9041 22.2825 28.5746 21.838 29.0418C21.3934 29.5014 20.8359 29.7349 20.1427 29.7349C19.4646 29.7349 18.9221 29.5013 18.4776 29.0116C18.0331 28.5369 17.8221 27.8589 17.8221 26.9698V13.8976C17.8221 13.0387 18.018 12.3832 18.4023 11.9688C18.779 11.5394 19.3064 11.3133 19.9845 11.3133C20.3838 11.3133 20.7455 11.3962 21.077 11.5921C21.4085 11.788 21.6722 12.0668 21.8832 12.436C22.1921 12.8428 22.275 13.2949 22.275 13.8223ZM9.798 0.82546C12.9323 -0.274561 16.5187 -0.214286 19.1934 2.04603C19.6907 2.50563 20.2633 3.07071 20.4818 3.75634C20.7605 4.60019 19.54 3.67346 19.3591 3.54537C18.4852 2.98783 17.6112 2.5207 16.6242 2.19672C11.3501 0.614497 6.35479 3.47003 3.25062 7.93039C1.97731 9.88933 1.12592 11.9538 0.432756 14.2291C0.364946 14.4778 0.297137 14.8018 0.153983 15.0203C0.0183643 15.2689 0.101243 14.3572 0.101243 14.312C0.214258 13.3702 0.410153 12.4661 0.643719 11.5544C2.08279 6.71735 5.24723 2.67892 9.798 0.82546ZM15.8783 9.53522C15.8783 11.5921 14.2132 13.2647 12.1563 13.2647C10.0994 13.2647 8.43428 11.5996 8.43428 9.53522C8.43428 7.47079 10.0994 5.80569 12.1563 5.80569C14.2132 5.80569 15.8783 7.47079 15.8783 9.53522Z" fill="#003A9B"/>
</g>
</g>
</g>
<defs>
<clipPath id="clip0_12595_5262">
<rect width="112" height="30" fill="white"/>
</clipPath>
</defs>
</svg>
