<svg width="111" height="30" viewBox="0 0 111 30" fill="none" xmlns="http://www.w3.org/2000/svg">
<g id="LinkedIn_Logo 1" clip-path="url(#clip0_12595_5160)">
<g id="layer1">
<g id="g3019">
<path id="path14" d="M81.5625 2.94766C81.5625 1.79514 82.5205 0.860277 83.7023 0.860277H108.379C109.56 0.860277 110.519 1.79514 110.519 2.94766V27.9126C110.519 29.0655 109.56 30 108.379 30H83.7023C82.5205 30 81.5625 29.0655 81.5625 27.9126V2.94766Z" fill="#006699"/>
<path id="path16" fill-rule="evenodd" clip-rule="evenodd" d="M0.505859 25.2793H12.59V21.3121H4.87898V6.17586H0.505859V25.2793Z" fill="black"/>
<path id="path18" fill-rule="evenodd" clip-rule="evenodd" d="M18.7102 25.2793V12.1215H14.3367V25.2793H18.7102ZM16.5235 10.3249C18.0486 10.3249 18.9979 9.31454 18.9979 8.05104C18.9694 6.7603 18.0486 5.77832 16.5525 5.77832C15.0563 5.77832 14.0781 6.7603 14.0781 8.05104C14.0781 9.31454 15.0272 10.3249 16.4949 10.3249H16.5235Z" fill="black"/>
<path id="path20" fill-rule="evenodd" clip-rule="evenodd" d="M20.7383 25.2793H25.1118V17.9312C25.1118 17.5379 25.1403 17.1451 25.2559 16.8639C25.5719 16.0786 26.2915 15.2648 27.4997 15.2648C29.0825 15.2648 29.7156 16.4719 29.7156 18.2396V25.2793H34.0887V17.7346C34.0887 13.693 31.9308 11.8123 29.0534 11.8123C26.6942 11.8123 25.6582 13.1311 25.0827 14.0294H25.1119V12.1215H20.7384C20.7958 13.3561 20.7383 25.2793 20.7383 25.2793Z" fill="black"/>
<path id="path22" fill-rule="evenodd" clip-rule="evenodd" d="M40.2565 6.17586H35.8828V25.2793H40.2565V21.0134L41.3495 19.6374L44.7736 25.2793H50.1538L44.3996 17.1116L49.4348 11.5546H44.1696C44.1696 11.5546 40.5731 16.5264 40.2565 17.1159V6.17586Z" fill="black"/>
<path id="path24" fill-rule="evenodd" clip-rule="evenodd" d="M61.8506 19.7898C61.908 19.4518 61.9945 18.8035 61.9945 18.0707C61.9945 14.6692 60.2679 11.2163 55.7221 11.2163C50.8594 11.2163 48.6152 15.0621 48.6152 18.55C48.6152 22.8642 51.3486 25.5586 56.1248 25.5586C58.0239 25.5586 59.7787 25.2783 61.2175 24.6888L60.6418 21.8004C59.4623 22.1918 58.2539 22.3872 56.7579 22.3872C54.715 22.3872 52.9313 21.5489 52.7872 19.7617L61.8506 19.789V19.7898ZM52.7587 16.831C52.8737 15.708 53.6219 14.0517 55.4921 14.0517C57.4769 14.0517 57.9375 15.8206 57.9375 16.831H52.7587Z" fill="black"/>
<path id="path26" fill-rule="evenodd" clip-rule="evenodd" d="M72.7914 6.17959V12.7926H72.7339C72.1008 11.8671 70.777 11.2495 69.0224 11.2495C65.6558 11.2495 62.6924 13.9439 62.7209 18.5466C62.7209 22.8133 65.3969 25.5918 68.7344 25.5918C70.547 25.5918 72.2733 24.8057 73.1364 23.2899H73.2229L73.3956 25.283H77.2801C77.2225 24.3567 77.1645 22.7568 77.1645 21.1853V6.17959H72.7914ZM72.7914 19.1926C72.7914 19.529 72.7626 19.8662 72.7049 20.1465C72.4463 21.3536 71.4101 22.1954 70.1445 22.1954C68.3317 22.1954 67.152 20.736 67.152 18.4345C67.152 16.2735 68.1593 14.5334 70.1731 14.5334C71.5252 14.5334 72.4748 15.4593 72.7339 16.6099C72.7914 16.863 72.7914 17.1437 72.7914 17.396V19.1926Z" fill="black"/>
<path id="path28" fill-rule="evenodd" clip-rule="evenodd" d="M90.3411 25.2656V12.1074H85.9675V25.2656H90.3411ZM88.1543 10.3109C89.6794 10.3109 90.6287 9.30047 90.6287 8.03776C90.6003 6.74663 89.6794 5.76426 88.1832 5.76426C86.6872 5.76426 85.709 6.74663 85.709 8.03776C85.709 9.30047 86.6581 10.3109 88.1258 10.3109H88.1543Z" fill="white"/>
<path id="path30" fill-rule="evenodd" clip-rule="evenodd" d="M92.7598 25.2656H97.1333V17.9175C97.1333 17.5243 97.1617 17.1314 97.2772 16.8503C97.5933 16.0645 98.313 15.2508 99.5212 15.2508C101.104 15.2508 101.737 16.4574 101.737 18.2263V25.2656H106.11V17.7209C106.11 13.6793 103.952 11.7986 101.075 11.7986C98.7155 11.7986 97.6797 13.1174 97.1042 14.0157H97.1334V12.1074H92.7599C92.8173 13.3421 92.7598 25.2656 92.7598 25.2656Z" fill="white"/>
</g>
</g>
</g>
<defs>
<clipPath id="clip0_12595_5160">
<rect width="111" height="30" fill="white"/>
</clipPath>
</defs>
</svg>
