<svg width="104" height="30" viewBox="0 0 104 30" fill="none" xmlns="http://www.w3.org/2000/svg">
<g id="Instagram_logo 1" clip-path="url(#clip0_12595_5347)">
<path id="Vector" d="M5.40312 0.118423C3.28935 1.00387 0.96561 3.50538 0.231696 6.64532C-0.697747 10.6237 3.1701 12.3061 3.48734 11.7545C3.86074 11.1063 2.79427 10.8871 2.57475 8.82293C2.29103 6.15686 3.52957 3.17782 5.08831 1.8707C5.37805 1.62786 5.36427 1.96586 5.36427 2.59107C5.36427 3.70908 5.30254 13.7456 5.30254 15.8402C5.30254 18.6745 5.18556 19.5695 4.97546 20.4539C4.76259 21.3502 4.42036 21.9558 4.67968 22.189C4.96941 22.45 6.20645 21.8293 6.92259 20.829C7.78134 19.6294 8.08195 18.1887 8.13592 16.6241C8.2011 14.7381 8.19833 11.7453 8.2011 10.0383C8.20371 8.47263 8.22746 3.88815 8.17368 1.13212C8.1605 0.456127 6.28711 -0.253092 5.40302 0.117601M80.4631 13.3827C80.3949 14.8562 80.069 16.0079 79.6645 16.8203C78.8814 18.393 77.2565 18.8813 76.5665 16.6205C76.1905 15.3881 76.173 13.3299 76.4433 11.6102C76.7185 9.85825 77.4868 8.53514 78.759 8.65446C80.0139 8.77242 80.6013 10.3906 80.4631 13.3827ZM59.3081 22.5246C59.291 24.9728 58.906 27.1195 58.0803 27.7429C56.9092 28.627 55.3352 27.9639 55.6611 26.1773C55.9495 24.5964 57.3134 22.9819 59.3114 21.0092C59.3114 21.0092 59.3155 21.4591 59.3081 22.5246ZM58.9882 13.3685C58.9166 14.7105 58.569 16.0587 58.1897 16.8205C57.4067 18.3932 55.77 18.8848 55.0917 16.6207C54.6279 15.0738 54.739 13.0716 54.9684 11.8101C55.2662 10.1733 55.9879 8.65482 57.2842 8.65482C58.5444 8.65482 59.1659 10.0384 58.9882 13.3685ZM46.7331 13.3479C46.6563 14.7693 46.3792 15.9575 45.9345 16.8205C45.13 18.3824 43.5385 18.8777 42.8365 16.6207C42.3305 14.9932 42.5028 12.7741 42.7133 11.5754C43.0257 9.7965 43.8079 8.53531 45.029 8.65482C46.2834 8.77745 46.8932 10.3906 46.7331 13.3479ZM102.896 15.0081C102.589 15.0081 102.449 15.3244 102.333 15.8569C101.932 17.7081 101.51 18.1261 100.965 18.1261C100.357 18.1261 99.811 17.2095 99.6705 15.3745C99.5601 13.9316 99.5779 11.2752 99.719 8.63274C99.7479 8.08982 99.5982 7.55264 98.1431 7.02363C97.5169 6.79609 96.6068 6.46105 96.1536 7.55577C94.8732 10.6486 94.3722 13.104 94.2543 14.1015C94.2482 14.1531 94.185 14.1636 94.1739 14.043C94.0988 13.2441 93.9309 11.7923 93.91 8.74217C93.9059 8.14705 93.78 7.64049 93.1236 7.22577C92.6977 6.95666 91.4044 6.48071 90.9387 7.04694C90.5353 7.51002 90.068 8.75625 89.5825 10.2335C89.1879 11.4342 88.9131 12.2464 88.9131 12.2464C88.9131 12.2464 88.9183 9.00676 88.923 7.77791C88.9251 7.31432 88.6073 7.15984 88.5116 7.13184C88.0803 7.00658 87.2306 6.79732 86.8699 6.79732C86.4249 6.79732 86.3159 7.04625 86.3159 7.40895C86.3159 7.45644 86.2457 11.6742 86.2457 14.6235C86.2457 14.7516 86.2457 14.8914 86.247 15.0399C86.0008 16.3954 85.2026 18.2355 84.3345 18.2355C83.4654 18.2355 83.0553 17.4662 83.0553 13.9502C83.0553 11.899 83.1168 11.0072 83.1471 9.52365C83.1646 8.66917 83.1986 8.013 83.1966 7.86409C83.1903 7.40745 82.4012 7.1773 82.0341 7.09225C81.6652 7.00647 81.3447 6.97325 81.0944 6.98751C80.7401 7.00752 80.4894 7.24011 80.4894 7.56001C80.4894 7.73153 80.4914 8.0577 80.4914 8.0577C80.0351 7.34013 79.3012 6.84069 78.8129 6.69596C77.4977 6.30508 76.1253 6.65143 75.0902 8.10103C74.2674 9.2528 73.7715 10.5573 73.5763 12.4315C73.4336 13.8017 73.4802 15.1912 73.7338 16.3663C73.4273 17.6922 72.8584 18.2355 72.2354 18.2355C71.3309 18.2355 70.6753 16.7581 70.7514 14.2031C70.8016 12.5226 71.1376 11.3432 71.505 9.63707C71.6616 8.90975 71.5343 8.52895 71.2152 8.16399C70.9224 7.8293 70.2988 7.6583 69.4021 7.86862C68.7635 8.01857 67.8504 8.17982 67.0149 8.30368C67.0149 8.30368 67.0653 8.10241 67.1067 7.74755C67.324 5.88654 65.3032 6.03753 64.6585 6.63194C64.2737 6.98682 64.0117 7.40536 63.9123 8.15791C63.7546 9.35213 64.7279 9.91541 64.7279 9.91541C64.4085 11.3782 63.6258 13.2891 62.8176 14.6707C62.3848 15.4109 62.0537 15.9594 61.6262 16.5425C61.6247 16.3254 61.6235 16.1083 61.6227 15.8922C61.6129 12.8168 61.6538 10.3963 61.6719 9.52394C61.6895 8.66947 61.7237 8.03069 61.7218 7.88178C61.717 7.54779 61.5221 7.42166 61.1167 7.26197C60.7583 7.12072 60.3344 7.02295 59.8948 6.98886C59.34 6.94554 59.0057 7.24006 59.0144 7.58832C59.0161 7.65407 59.0161 8.05783 59.0161 8.05783C58.5598 7.34025 57.8259 6.84082 57.3376 6.69608C56.0224 6.30537 54.65 6.65173 53.6149 8.10114C52.7923 9.25292 52.2536 10.8692 52.101 12.4174C51.9588 13.8603 51.985 15.0866 52.1789 16.1196C51.9697 17.1539 51.3685 18.2356 50.6886 18.2356C49.8195 18.2356 49.3249 17.4663 49.3249 13.9503C49.3249 11.8992 49.3865 11.0073 49.4167 9.52394C49.4343 8.66947 49.4682 8.01313 49.4663 7.86439C49.4599 7.40775 48.6708 7.1776 48.3037 7.09236C47.9195 7.00347 47.5879 6.97077 47.3332 6.98955C46.9972 7.0146 46.7609 7.31573 46.7609 7.54031V8.05783C46.3046 7.34025 45.5707 6.84082 45.0825 6.69608C43.7673 6.30537 42.4025 6.6573 41.3597 8.10114C40.6797 9.0426 40.1292 10.0864 39.8458 12.3969C39.764 13.0646 39.7278 13.6898 39.7325 14.2742C39.4613 15.9338 38.2636 17.8466 37.284 17.8466C36.7107 17.8466 36.1647 16.7338 36.1647 14.3622C36.1647 11.2032 36.3601 6.70531 36.3931 6.27181C36.3931 6.27181 37.6309 6.25076 37.8706 6.24797C38.4881 6.24118 39.0473 6.2558 39.8697 6.2137C40.2822 6.19265 40.6795 4.71122 40.2538 4.52788C40.0609 4.4449 38.6972 4.37219 38.1566 4.3607C37.702 4.35039 36.4365 4.25667 36.4365 4.25667C36.4365 4.25667 36.5501 1.2712 36.5765 0.955826C36.5989 0.692973 36.2591 0.557638 36.0642 0.475519C35.5903 0.27495 35.1664 0.17892 34.6638 0.0752425C33.9695 -0.0680916 33.6546 0.072111 33.593 0.658523C33.5004 1.5485 33.4524 4.15525 33.4524 4.15525C32.9429 4.15525 31.2025 4.05558 30.6929 4.05558C30.2194 4.05558 29.7083 6.0935 30.3629 6.11854C31.1161 6.14777 32.4287 6.173 33.2989 6.19927C33.2989 6.19927 33.2602 10.7712 33.2602 12.1827C33.2602 12.3329 33.2615 12.4775 33.2617 12.6178C32.7828 15.1159 31.096 16.4652 31.096 16.4652C31.4582 14.8127 30.7183 13.5716 29.3853 12.5211C28.8943 12.134 27.9248 11.4011 26.8401 10.598C26.8401 10.598 27.4683 9.97836 28.0255 8.73178C28.4202 7.84877 28.4373 6.83824 27.4683 6.61541C25.8674 6.24696 24.5473 7.42361 24.1536 8.67977C23.8485 9.65288 24.0112 10.375 24.6089 11.1251C24.6525 11.1799 24.6998 11.2359 24.7486 11.2923C24.3872 11.9893 23.8908 12.9279 23.4703 13.6557C22.3032 15.6763 21.4215 17.2747 20.7552 17.2747C20.2226 17.2747 20.2297 15.652 20.2297 14.1327C20.2297 12.8229 20.3264 10.8537 20.4036 8.81493C20.4291 8.14067 20.0922 7.75656 19.5275 7.40865C19.1843 7.19729 18.452 6.78171 18.0278 6.78171C17.393 6.78171 15.5614 6.86816 13.8307 11.878C13.6126 12.5094 13.1842 13.66 13.1842 13.66L13.2211 7.63549C13.2211 7.49424 13.1459 7.35768 12.9738 7.26426C12.6821 7.10579 11.9032 6.78171 11.2106 6.78171C10.8806 6.78171 10.7159 6.93531 10.7159 7.24148L10.6555 16.6669C10.6555 17.383 10.6742 18.2185 10.7449 18.5839C10.8154 18.9498 10.9296 19.2474 11.0711 19.4245C11.2123 19.6012 11.3757 19.736 11.645 19.7917C11.8957 19.8433 13.2685 20.0197 13.3399 19.4947C13.4254 18.8656 13.4286 18.185 14.1495 15.6469C15.2717 11.6955 16.7348 9.76752 17.4227 9.08282C17.5429 8.96315 17.6803 8.95601 17.6737 9.15188C17.6443 10.0182 17.541 12.1829 17.4715 14.022C17.2852 18.9436 18.1799 19.8559 19.4584 19.8559C20.4365 19.8559 21.8153 18.8833 23.2934 16.4212C24.2149 14.887 25.1096 13.3825 25.7524 12.2983C26.2003 12.7133 26.7031 13.1599 27.2054 13.6371C28.3729 14.7459 28.7562 15.7995 28.5018 16.7991C28.3073 17.5632 27.5748 18.3507 26.2711 17.5853C25.8911 17.362 25.7289 17.1895 25.3468 16.9377C25.1416 16.8025 24.8281 16.7621 24.6402 16.9037C24.1521 17.272 23.8729 17.7405 23.7135 18.3205C23.5585 18.8848 24.1233 19.1831 24.7087 19.4441C25.2128 19.6687 26.2963 19.8722 26.9873 19.8953C29.6795 19.9854 31.8362 18.5945 33.3376 15.0064C33.6063 18.1051 34.7501 19.8586 36.7374 19.8586C38.0659 19.8586 39.398 18.1401 39.9805 16.4494C40.1477 17.1386 40.3952 17.7379 40.7149 18.2446C42.2462 20.6726 45.2167 20.15 46.7089 18.0883C47.1702 17.4512 47.2405 17.2223 47.2405 17.2223C47.4581 19.1691 49.0246 19.8493 49.9216 19.8493C50.9262 19.8493 51.9634 19.374 52.6903 17.7362C52.7755 17.9139 52.8685 18.0837 52.97 18.2446C54.5013 20.6725 57.4719 20.15 58.964 18.0882C59.0344 17.9915 59.0954 17.9038 59.1488 17.8251L59.1926 19.1038C59.1926 19.1038 58.3414 19.8852 57.8188 20.3646C55.5191 22.4761 53.7704 24.0781 53.6417 25.9436C53.4766 28.3223 55.4043 29.2064 56.8628 29.3223C58.4116 29.4453 59.7379 28.5891 60.5532 27.3908C61.2702 26.3361 61.7396 24.0661 61.7051 21.8241C61.6914 20.9264 61.6688 19.7848 61.6511 18.5612C62.4594 17.6219 63.3701 16.4346 64.2086 15.0448C65.1224 13.5303 66.1018 11.4964 66.6033 9.9136C66.6033 9.9136 67.4542 9.9209 68.3623 9.86141C68.6527 9.84245 68.7362 9.90176 68.6825 10.1149C68.6176 10.3723 67.5352 14.5505 68.5231 17.3338C69.1993 19.2391 70.7236 19.8522 71.6273 19.8522C72.6852 19.8522 73.6973 19.0526 74.2396 17.8654C74.305 17.9978 74.3733 18.1258 74.4479 18.2441C75.9791 20.672 78.9393 20.1463 80.4418 18.0877C80.781 17.6233 80.9734 17.2217 80.9734 17.2217C81.2959 19.2365 82.8615 19.8589 83.7583 19.8589C84.6925 19.8589 85.579 19.4757 86.2983 17.7725C86.3284 18.5224 86.3757 19.1356 86.4504 19.3289C86.496 19.4472 86.7614 19.5956 86.9545 19.6673C87.8091 19.9844 88.6806 19.8344 89.0031 19.7692C89.2265 19.724 89.4006 19.5446 89.4245 19.0815C89.487 17.8656 89.4486 15.8226 89.817 14.3043C90.4353 11.7562 91.012 10.7677 91.2856 10.2784C91.4388 10.0042 91.6116 9.95899 91.6178 10.2492C91.6307 10.8363 91.6599 12.5604 91.8994 14.8768C92.0753 16.5804 92.3104 17.5874 92.491 17.9061C93.0064 18.8175 93.6429 18.8606 94.1613 18.8606C94.4911 18.8606 95.1806 18.7694 95.1189 18.1895C95.0889 17.9068 95.1415 16.1597 95.7511 13.6493C96.1492 12.01 96.8129 10.5287 97.0523 9.98717C97.1406 9.78746 97.1816 9.94489 97.1802 9.97555C97.1298 11.1045 97.0166 14.7973 97.4762 16.817C98.0992 19.553 99.9015 19.8591 100.53 19.8591C101.87 19.8591 102.967 18.8385 103.336 16.153C103.425 15.5067 103.293 15.0077 102.899 15.0077" fill="#262626"/>
</g>
<defs>
<clipPath id="clip0_12595_5347">
<rect width="104" height="30" fill="white"/>
</clipPath>
</defs>
</svg>
