<?xml version="1.0" encoding="UTF-8"?>
<svg xmlns="http://www.w3.org/2000/svg" width="20" height="20" viewBox="0 0 20 20" fill="none">
  <circle opacity="0.2" cx="10" cy="10" r="10" fill="#34CCA9"></circle>
  <circle cx="10" cy="10" r="10" fill="#34CCA9"></circle>
  <path fill-rule="evenodd" clip-rule="evenodd" d="M10.0002 13.5723C10.1402 13.5723 10.2536 13.6857 10.2536 13.8257V15.6754C10.2536 15.8153 10.1402 15.9288 10.0002 15.9288C9.86027 15.9288 9.74683 15.8153 9.74683 15.6754V13.8257C9.74683 13.6857 9.86027 13.5723 10.0002 13.5723Z" fill="white"></path>
  <path fill-rule="evenodd" clip-rule="evenodd" d="M5.3125 15.7007C5.3125 15.5607 5.42594 15.4473 5.56589 15.4473H14.4344C14.5743 15.4473 14.6878 15.5607 14.6878 15.7007C14.6878 15.8406 14.5743 15.954 14.4344 15.954H5.56589C5.42594 15.954 5.3125 15.8406 5.3125 15.7007Z" fill="white"></path>
  <path fill-rule="evenodd" clip-rule="evenodd" d="M4.67896 6.1987C4.67896 5.00911 5.64314 4.04492 6.83274 4.04492H13.1674C14.357 4.04492 15.3212 5.00911 15.3212 6.1987C15.3212 7.3883 14.357 8.35249 13.1674 8.35249H6.83274C5.64314 8.35249 4.67896 7.3883 4.67896 6.1987ZM6.83274 4.55169C5.92303 4.55169 5.18573 5.28899 5.18573 6.1987C5.18573 7.10842 5.92303 7.84572 6.83274 7.84572H13.1674C14.0771 7.84572 14.8144 7.10842 14.8144 6.1987C14.8144 5.28899 14.0771 4.55169 13.1674 4.55169H6.83274Z" fill="white"></path>
  <path fill-rule="evenodd" clip-rule="evenodd" d="M4.67896 11.8999C4.67896 10.7103 5.64314 9.74609 6.83274 9.74609H13.1674C14.357 9.74609 15.3212 10.7103 15.3212 11.8999C15.3212 13.0895 14.357 14.0537 13.1674 14.0537H6.83274C5.64314 14.0537 4.67896 13.0895 4.67896 11.8999ZM6.83274 10.2529C5.92303 10.2529 5.18573 10.9902 5.18573 11.8999C5.18573 12.8096 5.92303 13.5469 6.83274 13.5469H13.1674C14.0771 13.5469 14.8144 12.8096 14.8144 11.8999C14.8144 10.9902 14.0771 10.2529 13.1674 10.2529H6.83274Z" fill="white"></path>
  <path fill-rule="evenodd" clip-rule="evenodd" d="M9.74683 6.1987C9.74683 6.05876 9.86027 5.94531 10.0002 5.94531H13.1675C13.3075 5.94531 13.4209 6.05876 13.4209 6.1987C13.4209 6.33864 13.3075 6.45208 13.1675 6.45208H10.0002C9.86027 6.45208 9.74683 6.33864 9.74683 6.1987Z" fill="white"></path>
  <path d="M7.13861 6.01953C7.23757 6.11848 7.23757 6.27892 7.13861 6.37787C7.03966 6.47682 6.87922 6.47682 6.78027 6.37787C6.68132 6.27892 6.68132 6.11848 6.78027 6.01953C6.87922 5.92057 7.03966 5.92057 7.13861 6.01953Z" fill="white"></path>
  <path fill-rule="evenodd" clip-rule="evenodd" d="M9.74683 11.8999C9.74683 11.7599 9.86027 11.6465 10.0002 11.6465H13.1675C13.3075 11.6465 13.4209 11.7599 13.4209 11.8999C13.4209 12.0398 13.3075 12.1533 13.1675 12.1533H10.0002C9.86027 12.1533 9.74683 12.0398 9.74683 11.8999Z" fill="white"></path>
  <path d="M7.13861 11.7207C7.23757 11.8197 7.23757 11.9801 7.13861 12.079C7.03966 12.178 6.87922 12.178 6.78027 12.079C6.68132 11.9801 6.68132 11.8197 6.78027 11.7207C6.87922 11.6217 7.03966 11.6217 7.13861 11.7207Z" fill="white"></path>
</svg>
