<svg width="269" height="52" viewBox="0 0 269 52" fill="none" xmlns="http://www.w3.org/2000/svg">
<path opacity="0.396508" fill-rule="evenodd" clip-rule="evenodd" d="M11.8724 25.2361L7.72115 27.6248L5.73955 26.7971L1.11914 22.8787L11.8724 16.6906C12.0088 16.6151 12.1636 16.5771 12.3187 16.5771C12.4738 16.5771 12.6286 16.6151 12.765 16.6906L23.4579 22.8483L18.4063 27.2383L16.9533 27.648L12.765 25.2361C12.6286 25.1603 12.4738 25.1225 12.3187 25.1225C12.1636 25.1225 12.0088 25.1603 11.8724 25.2361ZM13.932 12.9283L10.0878 12.2351L1.11914 6.54641L11.8724 0.358666C12.0088 0.282859 12.1636 0.245117 12.3187 0.245117C12.4738 0.245117 12.6286 0.282859 12.765 0.358666L23.4579 6.51641L19.9816 10.0916L13.932 12.9283ZM10.151 46.5283L1.11914 39.9696L1.22491 39.909L11.8724 33.7816C12.0088 33.7061 12.1636 33.668 12.3187 33.668C12.4738 33.668 12.6286 33.7061 12.765 33.7816L23.4579 39.9393L21.0529 42.5567L16.3267 45.709L10.151 46.5283Z" fill="url(#paint0_linear_12390_16574)"/>
<path fill-rule="evenodd" clip-rule="evenodd" d="M0.0195312 25.1898V24.5852C0.0571645 24.2911 0.150455 23.9993 0.303308 23.726C0.514851 23.3628 0.787019 23.0905 1.11981 22.8789L1.22558 22.8183C1.92148 22.455 2.78346 22.4399 3.50967 22.8634L9.72568 26.4344L11.3645 27.3776C11.9604 27.7209 12.6934 27.7209 13.2893 27.3776L21.1293 22.8634C21.8855 22.4247 22.7627 22.455 23.4586 22.8486C23.8062 23.045 24.1087 23.3476 24.3357 23.726C24.85 24.6186 24.7136 25.708 24.0787 26.4344C23.9123 26.6157 23.7004 26.7821 23.4737 26.9183L13.7485 32.5312C13.31 32.7734 12.8108 32.9096 12.3271 32.9096C11.8279 32.9096 11.3439 32.7734 10.9053 32.5312L1.16496 26.9183C0.93826 26.7821 0.726717 26.6157 0.575476 26.4344C0.268405 26.0833 0.0779675 25.6473 0.0195312 25.1898ZM0.0195312 8.85767V8.25311C0.0571645 7.95896 0.150455 7.66717 0.303308 7.39375C0.514851 7.03085 0.787019 6.75827 1.11981 6.54666L1.22558 6.48601C1.92148 6.12311 2.78346 6.10795 3.50967 6.5315L9.72568 10.1021L11.3645 11.0457C11.9604 11.3886 12.6934 11.3886 13.2893 11.0457L21.1293 6.5315C21.8855 6.09279 22.7627 6.12311 23.4586 6.51634C23.8062 6.71311 24.1087 7.01569 24.3357 7.39375C24.85 8.28666 24.7136 9.37569 24.0787 10.1021C23.9123 10.2838 23.7004 10.4499 23.4737 10.586L13.7485 16.1992C13.31 16.4415 12.8108 16.5773 12.3271 16.5773C11.8279 16.5773 11.3439 16.4415 10.9053 16.1992L1.16496 10.586C0.93826 10.4499 0.726717 10.2838 0.575476 10.1021C0.268405 9.751 0.0779675 9.31514 0.0195312 8.85767V8.85767ZM0.0195312 33.7352V33.1306C0.0571645 32.8364 0.150455 32.5446 0.303308 32.2712C0.514851 31.9083 0.787019 31.636 1.11981 31.4241L1.22558 31.3638C1.92148 31.0005 2.78346 30.9854 3.50967 31.4089L9.72568 34.9796L11.3645 35.9234C11.9604 36.2663 12.6934 36.2663 13.2893 35.9234L21.1293 31.4089C21.8855 30.9702 22.7627 31.0005 23.4586 31.3941C23.8062 31.5905 24.1087 31.8931 24.3357 32.2712C24.85 33.1641 24.7136 34.2534 24.0787 34.9796C23.9123 35.1612 23.7004 35.3276 23.4737 35.4638L13.7485 41.0767C13.31 41.3186 12.8108 41.4547 12.3271 41.4547C11.8279 41.4547 11.3439 41.3186 10.9053 41.0767L1.16496 35.4638C0.93826 35.3276 0.726717 35.1612 0.575476 34.9796C0.268405 34.6286 0.0779675 34.1927 0.0195312 33.7352ZM12.647 49.9809H12.0009C11.6176 49.9354 11.2476 49.8109 10.9053 49.6218L1.16496 44.0089C0.93826 43.8728 0.726717 43.7067 0.575476 43.5251C0.268405 43.1739 0.0779675 42.7381 0.0195312 42.2806V41.6761C0.0571645 41.382 0.150455 41.0903 0.303308 40.817C0.514851 40.4538 0.787019 40.1815 1.11981 39.9696L1.22558 39.9089C1.92148 39.546 2.78346 39.5309 3.50967 39.9544L9.72568 43.5251L11.3645 44.4686C11.9604 44.8115 12.6934 44.8115 13.2893 44.4686L21.1293 39.9544C21.8855 39.5157 22.7627 39.546 23.4586 39.9396C23.8062 40.136 24.1087 40.4386 24.3357 40.817C24.85 41.7096 24.7136 42.7986 24.0787 43.5251C23.9123 43.7067 23.7004 43.8728 23.4737 44.0089L13.7485 49.6218C13.4062 49.8109 13.027 49.9354 12.647 49.9809Z" fill="url(#paint1_linear_12390_16574)"/>
<path fill-rule="evenodd" clip-rule="evenodd" d="M39.2734 5.05224C39.2734 4.88607 39.3215 4.74707 39.4175 4.63499C39.5133 4.5234 39.6537 4.46761 39.8394 4.46761H41.4308C41.5008 4.46761 41.5729 4.48192 41.6461 4.51055C41.7198 4.53917 41.785 4.5809 41.8428 4.63499C41.9002 4.68957 41.9483 4.75192 41.9866 4.82203C42.0249 4.89286 42.044 4.96952 42.044 5.05224V16.0702C42.044 16.4534 41.8428 16.6453 41.4402 16.6453H39.8489C39.4653 16.6453 39.2734 16.4534 39.2734 16.0702V5.05224ZM39.2734 0.806288C39.2734 0.421307 39.4619 0.228938 39.8394 0.228938H41.4494C41.6286 0.228938 41.7724 0.277455 41.8811 0.373276C41.9897 0.469824 42.044 0.614162 42.044 0.806288V2.2402C42.044 2.38818 41.9926 2.52766 41.8905 2.65915C41.7882 2.79063 41.6444 2.85661 41.4591 2.85661H39.8489C39.4653 2.85661 39.2734 2.65114 39.2734 2.2402V0.806288ZM45.0348 4.74537C45.1115 4.64324 45.1847 4.5792 45.2553 4.55348C45.3064 4.5023 45.3831 4.47537 45.4857 4.47222C45.5878 4.46882 45.6835 4.46761 45.773 4.46761H46.7411C46.9266 4.46761 47.0636 4.52826 47.1531 4.64931C47.2431 4.77108 47.3035 4.90523 47.3355 5.05224L47.441 6.06891C47.5879 5.85131 47.7683 5.63711 47.9825 5.42606C48.1964 5.2155 48.4505 5.02652 48.7444 4.86035C49.0383 4.69418 49.374 4.56003 49.7511 4.45791C50.1281 4.35554 50.5533 4.30435 51.0259 4.30435C51.7801 4.30435 52.4509 4.43996 53.0392 4.71165C53.6268 4.98359 54.1219 5.35595 54.525 5.82899C54.9273 6.30227 55.2324 6.85828 55.4404 7.49773C55.6478 8.13694 55.7516 8.82442 55.7516 9.55921V15.9549C55.7516 16.1852 55.6975 16.3574 55.5891 16.4726C55.48 16.5878 55.3235 16.6453 55.1191 16.6453H53.6622C53.4066 16.6453 53.2358 16.5975 53.1495 16.5015C53.0632 16.4057 53.0198 16.2363 53.0198 15.9933V9.607C53.0198 9.26835 52.9623 8.93746 52.8473 8.61434C52.7322 8.29171 52.5643 8.00254 52.3441 7.74662C52.1235 7.49118 51.8502 7.28668 51.5245 7.13312C51.1986 6.97957 50.8215 6.90291 50.3932 6.90291C50.0993 6.90291 49.7942 6.9621 49.4778 7.08024C49.1615 7.19886 48.8722 7.36625 48.6106 7.58385C48.3482 7.8012 48.1309 8.06513 47.9582 8.37491C47.786 8.68493 47.6963 9.03498 47.6903 9.42482V15.6386C47.6903 15.7599 47.6837 15.8817 47.6711 16.003C47.658 16.124 47.6308 16.2334 47.5896 16.3288C47.5477 16.4248 47.4887 16.5015 47.4121 16.559C47.3355 16.6167 47.2363 16.6453 47.1148 16.6453H45.5332C45.3225 16.6453 45.1675 16.5961 45.0683 16.4969C44.9694 16.3977 44.9197 16.2555 44.9197 16.0702V5.03307C44.9197 4.9438 44.958 4.84774 45.0348 4.74537ZM58.5217 4.50594C58.5217 3.93684 58.608 3.3886 58.7807 2.86146C58.9533 2.3336 59.2058 1.86881 59.538 1.46587C59.8703 1.06318 60.2774 0.741761 60.76 0.50233C61.2426 0.262657 61.7906 0.142578 62.4039 0.142578H62.5C62.6852 0.142578 62.829 0.198858 62.9316 0.310446C63.0335 0.42252 63.0844 0.574378 63.0844 0.765777V2.08932C63.0844 2.27489 63.0352 2.43136 62.9365 2.55896C62.8368 2.6868 62.7012 2.75084 62.5286 2.75084C62.4328 2.75084 62.3115 2.7751 62.1646 2.82289C62.0174 2.87092 61.877 2.94588 61.7426 3.04801C61.6083 3.15038 61.4933 3.28162 61.3978 3.44148C61.3018 3.60086 61.254 3.78983 61.254 4.00694V5.56045H62.6438C62.829 5.56045 62.9728 5.60848 63.0749 5.7043C63.1775 5.80037 63.2284 5.95999 63.2284 6.18365V7.36334C63.2284 7.587 63.1775 7.75487 63.0749 7.86646C62.9728 7.97853 62.829 8.03457 62.6438 8.03457H61.254V16.0224C61.254 16.2266 61.1868 16.3816 61.0525 16.4872C60.9181 16.5927 60.7714 16.6453 60.6118 16.6453H59.1255C58.9342 16.6453 58.7855 16.5866 58.68 16.4678C58.5746 16.3496 58.5217 16.2009 58.5217 16.0224V8.03457H57.5725C57.3875 8.03457 57.2374 7.97853 57.1222 7.86646C57.0073 7.75487 56.9498 7.587 56.9498 7.36334V6.18365C56.9498 5.95999 57.0073 5.80037 57.1222 5.7043C57.2374 5.60848 57.3875 5.56045 57.5725 5.56045H58.5217V4.50594ZM66.9572 10.5468C66.9572 11.0586 67.0469 11.5426 67.2259 11.9996C67.4044 12.4564 67.6539 12.8579 67.9735 13.2026C68.2929 13.548 68.6683 13.8214 69.0999 14.0225C69.5311 14.2241 70.0023 14.3248 70.5137 14.3248C71.0312 14.3248 71.5155 14.2241 71.9661 14.0225C72.4162 13.8214 72.8078 13.548 73.1405 13.2026C73.4728 12.8579 73.7347 12.4564 73.926 11.9996C74.1178 11.5426 74.2136 11.0586 74.2136 10.5468C74.2136 10.0417 74.1178 9.56091 73.926 9.10388C73.7347 8.64661 73.4728 8.24561 73.1405 7.90017C72.8078 7.55522 72.4162 7.28037 71.9661 7.07563C71.5155 6.87089 71.0312 6.76876 70.5137 6.76876C70.0023 6.76876 69.5311 6.87089 69.0999 7.07563C68.6683 7.28037 68.2929 7.55522 67.9735 7.90017C67.6539 8.24561 67.4044 8.64661 67.2259 9.10388C67.0469 9.56091 66.9572 10.0417 66.9572 10.5468ZM76.9268 16.0799C76.9268 16.1949 76.9027 16.289 76.8547 16.3625C76.807 16.4362 76.7446 16.4937 76.668 16.5352C76.5911 16.5769 76.5031 16.6058 76.4042 16.6213C76.305 16.6376 76.2014 16.6453 76.0928 16.6453H74.8943C74.6899 16.6453 74.5476 16.5912 74.4678 16.4823C74.3877 16.3736 74.3288 16.2363 74.2905 16.0702L74.233 15.2551C74.0094 15.4787 73.7616 15.6883 73.49 15.8829C73.2184 16.0779 72.9259 16.2475 72.6129 16.3911C72.3 16.5352 71.9673 16.6468 71.6159 16.7271C71.2645 16.8067 70.9037 16.8469 70.5329 16.8469C69.9579 16.8469 69.4033 16.7712 68.8698 16.6213C68.3361 16.4714 67.836 16.2603 67.3697 15.9887C66.9031 15.717 66.4795 15.3895 66.0997 15.0057C65.7192 14.6222 65.3933 14.1972 65.1217 13.7304C64.8503 13.2637 64.6393 12.7618 64.4892 12.225C64.3389 11.6876 64.2639 11.1287 64.2639 10.5468C64.2639 9.96505 64.3389 9.40565 64.4892 8.86857C64.6393 8.33173 64.8503 7.82982 65.1217 7.36334C65.3933 6.8966 65.7192 6.47305 66.0997 6.09292C66.4795 5.71255 66.9031 5.38652 67.3697 5.11482C67.836 4.84313 68.3361 4.63184 68.8698 4.48192C69.4033 4.33152 69.9579 4.25656 70.5329 4.25656C70.942 4.25656 71.3317 4.2995 71.7023 4.38586C72.0728 4.47222 72.4198 4.59351 72.7424 4.75022C73.0649 4.90717 73.3637 5.09566 73.6386 5.31617C73.9134 5.53644 74.1627 5.77805 74.3863 6.04004L74.5206 5.01391C74.5526 4.89868 74.583 4.80456 74.6118 4.73106C74.6404 4.65755 74.6756 4.59836 74.7171 4.55348C74.7588 4.50909 74.8114 4.47853 74.8752 4.46276C74.9394 4.44651 75.019 4.43874 75.1148 4.43874H76.0736C76.1755 4.43874 76.2781 4.44845 76.3802 4.46761C76.4825 4.48677 76.5751 4.51685 76.6583 4.55834C76.741 4.60006 76.807 4.65755 76.8547 4.73106C76.9027 4.80456 76.9268 4.89577 76.9268 5.00445V16.0799ZM83.56 16.6453C83.0551 16.6393 82.5802 16.5621 82.1365 16.4151C81.6922 16.2681 81.3056 16.0554 80.9763 15.7766C80.6473 15.4984 80.387 15.1561 80.195 14.7495C80.0032 14.3437 79.9074 13.8808 79.9074 13.3629V6.88375H78.8054C78.6194 6.88375 78.481 6.84275 78.3881 6.75979C78.2957 6.67682 78.2491 6.54001 78.2491 6.34909V4.9734C78.2491 4.78879 78.2957 4.65852 78.3881 4.58187C78.481 4.50545 78.6194 4.46761 78.8054 4.46761H79.9074C79.9074 4.12872 79.9093 3.79104 79.9122 3.45579C79.9156 3.11981 79.9171 2.78286 79.9171 2.44397C79.9171 2.31613 79.9571 2.21546 80.0369 2.1422C80.1167 2.06845 80.2396 2.00296 80.4062 1.94546C80.5148 1.90713 80.6456 1.86104 80.7991 1.80646C80.9526 1.75237 81.1107 1.69948 81.2739 1.64805C81.4364 1.59711 81.5947 1.55393 81.7482 1.51851C81.9017 1.48358 82.0293 1.46587 82.1319 1.46587C82.3295 1.46587 82.459 1.52021 82.5196 1.62889C82.5802 1.73805 82.6108 1.88142 82.6108 2.06069C82.6108 2.46314 82.6091 2.86437 82.6062 3.26391C82.6026 3.66344 82.6011 4.06468 82.6011 4.46761H83.9817C84.1475 4.46761 84.2753 4.5103 84.3653 4.59618C84.4546 4.68254 84.4992 4.81766 84.4992 5.00226V6.31052C84.4992 6.51453 84.4546 6.6613 84.3653 6.75008C84.2753 6.83911 84.1475 6.88375 83.9817 6.88375H82.6011C82.6011 7.30002 82.6011 7.65201 82.6011 7.93972C82.6011 8.22815 82.6011 8.48213 82.6011 8.70361C82.6011 8.92412 82.6026 9.13032 82.6062 9.32269C82.6091 9.51457 82.6108 9.72271 82.6108 9.94686C82.6108 10.1703 82.6108 10.4269 82.6108 10.7149C82.6108 11.0031 82.6108 11.3548 82.6108 11.7711L82.6062 11.8094L82.6011 11.848V13.1055C82.6011 13.5281 82.684 13.8321 82.8506 14.0179C83.0168 14.2032 83.285 14.2959 83.656 14.2959C83.7899 14.2959 83.8951 14.3442 83.972 14.44C84.0486 14.5361 84.0869 14.651 84.0869 14.785V16.1182C84.0869 16.2844 84.0408 16.4139 83.948 16.5063C83.8556 16.599 83.7261 16.6453 83.56 16.6453ZM86.1669 5.05224C86.1669 4.88607 86.2151 4.74707 86.3109 4.63499C86.407 4.5234 86.5471 4.46761 86.7329 4.46761H88.3242C88.3943 4.46761 88.4663 4.48192 88.5395 4.51055C88.613 4.53917 88.6787 4.5809 88.7362 4.63499C88.7937 4.68957 88.8417 4.75192 88.88 4.82203C88.9183 4.89286 88.9375 4.96952 88.9375 5.05224V16.0702C88.9375 16.4534 88.7362 16.6453 88.3336 16.6453H86.7426C86.3587 16.6453 86.1669 16.4534 86.1669 16.0702V5.05224ZM86.1669 0.806288C86.1669 0.421307 86.3553 0.228938 86.7329 0.228938H88.3429C88.5221 0.228938 88.6659 0.277455 88.7745 0.373276C88.8832 0.469824 88.9375 0.614162 88.9375 0.806288V2.2402C88.9375 2.38818 88.8861 2.52766 88.784 2.65915C88.6816 2.79063 88.5378 2.85661 88.3526 2.85661H86.7426C86.3587 2.85661 86.1669 2.65114 86.1669 2.2402V0.806288ZM99.9896 13.4522C100.098 13.3821 100.189 13.3389 100.262 13.3227C100.336 13.3069 100.399 13.2986 100.45 13.2986C100.558 13.3052 100.651 13.3629 100.728 13.4714L100.958 13.7882L101.638 14.7563C101.67 14.801 101.696 14.8473 101.715 14.8953C101.734 14.9431 101.744 14.9865 101.744 15.0249C101.744 15.1272 101.708 15.2185 101.638 15.2983C101.568 15.3781 101.475 15.4596 101.36 15.5425C100.817 15.9389 100.231 16.2584 99.6013 16.5015C98.9716 16.7443 98.2799 16.8661 97.526 16.8661C96.9571 16.8661 96.4061 16.7906 95.8724 16.6405C95.3389 16.4906 94.8405 16.2795 94.3771 16.0078C93.9137 15.7361 93.4905 15.4099 93.1071 15.0297C92.7235 14.6493 92.3929 14.2258 92.115 13.7591C91.8366 13.2926 91.6227 12.7907 91.4726 12.2536C91.3223 11.7165 91.2473 11.1574 91.2473 10.5756C91.2473 9.99392 91.3223 9.43428 91.4726 8.89744C91.6227 8.3606 91.8366 7.85869 92.115 7.39196C92.3929 6.92523 92.7235 6.50192 93.1071 6.12131C93.4905 5.74142 93.9137 5.41514 94.3771 5.14345C94.8405 4.87175 95.3389 4.66071 95.8724 4.51055C96.4061 4.36015 96.9571 4.28519 97.526 4.28519C98.2353 4.28519 98.9063 4.39386 99.5388 4.61098C100.172 4.82858 100.734 5.12259 101.226 5.49326L101.216 5.48379C101.306 5.57355 101.394 5.65166 101.48 5.71886C101.566 5.78581 101.61 5.88964 101.61 6.03058C101.61 6.06891 101.608 6.11354 101.605 6.16449C101.602 6.21591 101.584 6.26394 101.552 6.30834L100.766 7.50719C100.638 7.69859 100.497 7.79441 100.344 7.79441C100.235 7.79441 100.114 7.74055 99.9799 7.63212C99.654 7.35679 99.2737 7.13312 98.8392 6.9604C98.4043 6.78793 97.9572 6.70181 97.4971 6.70181C96.9988 6.70181 96.5308 6.80539 96.093 7.01304C95.6551 7.22094 95.27 7.50234 94.9375 7.85675C94.6055 8.2119 94.3434 8.62405 94.1516 9.09417C93.9602 9.56382 93.8644 10.0577 93.8644 10.5756C93.8644 11.1064 93.9602 11.6049 94.1516 12.0714C94.3434 12.5381 94.6038 12.9442 94.9329 13.2892C95.262 13.6346 95.6471 13.908 96.0884 14.1091C96.5291 14.3105 96.9988 14.4111 97.4971 14.4111C98.0403 14.4111 98.5101 14.317 98.9063 14.1283C99.3023 13.9398 99.6637 13.7144 99.9896 13.4522ZM105.75 10.5468C105.75 11.0586 105.84 11.5426 106.019 11.9996C106.198 12.4564 106.447 12.8579 106.767 13.2026C107.086 13.548 107.462 13.8214 107.893 14.0225C108.324 14.2241 108.796 14.3248 109.307 14.3248C109.825 14.3248 110.309 14.2241 110.759 14.0225C111.21 13.8214 111.601 13.548 111.934 13.2026C112.266 12.8579 112.528 12.4564 112.719 11.9996C112.911 11.5426 113.007 11.0586 113.007 10.5468C113.007 10.0417 112.911 9.56091 112.719 9.10388C112.528 8.64661 112.266 8.24561 111.934 7.90017C111.601 7.55522 111.21 7.28037 110.759 7.07563C110.309 6.87089 109.825 6.76876 109.307 6.76876C108.796 6.76876 108.324 6.87089 107.893 7.07563C107.462 7.28037 107.086 7.55522 106.767 7.90017C106.447 8.24561 106.198 8.64661 106.019 9.10388C105.84 9.56091 105.75 10.0417 105.75 10.5468ZM115.72 16.0799C115.72 16.1949 115.696 16.289 115.648 16.3625C115.6 16.4362 115.538 16.4937 115.461 16.5352C115.384 16.5769 115.296 16.6058 115.197 16.6213C115.098 16.6376 114.995 16.6453 114.886 16.6453H113.688C113.483 16.6453 113.341 16.5912 113.261 16.4823C113.181 16.3736 113.122 16.2363 113.084 16.0702L113.026 15.2551C112.803 15.4787 112.555 15.6883 112.283 15.8829C112.012 16.0779 111.719 16.2475 111.406 16.3911C111.093 16.5352 110.761 16.6468 110.409 16.7271C110.058 16.8067 109.697 16.8469 109.326 16.8469C108.751 16.8469 108.197 16.7712 107.663 16.6213C107.129 16.4714 106.629 16.2603 106.163 15.9887C105.696 15.717 105.273 15.3895 104.893 15.0057C104.512 14.6222 104.187 14.1972 103.915 13.7304C103.643 13.2637 103.432 12.7618 103.283 12.225C103.132 11.6876 103.057 11.1287 103.057 10.5468C103.057 9.96505 103.132 9.40565 103.283 8.86857C103.432 8.33173 103.643 7.82982 103.915 7.36334C104.187 6.8966 104.512 6.47305 104.893 6.09292C105.273 5.71255 105.696 5.38652 106.163 5.11482C106.629 4.84313 107.129 4.63184 107.663 4.48192C108.197 4.33152 108.751 4.25656 109.326 4.25656C109.735 4.25656 110.125 4.2995 110.496 4.38586C110.866 4.47222 111.213 4.59351 111.536 4.75022C111.858 4.90717 112.157 5.09566 112.432 5.31617C112.707 5.53644 112.956 5.77805 113.18 6.04004L113.314 5.01391C113.346 4.89868 113.376 4.80456 113.405 4.73106C113.434 4.65755 113.469 4.59836 113.51 4.55348C113.552 4.50909 113.605 4.47853 113.669 4.46276C113.733 4.44651 113.812 4.43874 113.908 4.43874H114.867C114.969 4.43874 115.071 4.44845 115.173 4.46761C115.276 4.48677 115.368 4.51685 115.451 4.55834C115.534 4.60006 115.6 4.65755 115.648 4.73106C115.696 4.80456 115.72 4.89577 115.72 5.00445V16.0799ZM117.175 14.7947C117.175 14.6159 117.199 14.4623 117.247 14.3345C117.295 14.2066 117.412 14.1426 117.597 14.1426H119.102C119.179 14.1426 119.257 14.146 119.337 14.1523C119.417 14.1588 119.49 14.1761 119.557 14.2049C119.624 14.2336 119.68 14.2755 119.725 14.3296C119.77 14.3842 119.792 14.4623 119.792 14.5647V15.9838C119.792 16.0731 119.789 16.1565 119.783 16.2334C119.776 16.3096 119.759 16.3802 119.73 16.444C119.701 16.5078 119.658 16.5578 119.601 16.5927C119.543 16.6281 119.463 16.6453 119.361 16.6453H117.856C117.632 16.6453 117.463 16.6213 117.348 16.5735C117.233 16.5255 117.175 16.4057 117.175 16.2143V14.7947ZM121.156 10.7064C121.156 10.6215 121.18 10.5499 121.229 10.4929C121.279 10.4357 121.35 10.4068 121.445 10.4068H122.26C122.297 10.4068 122.333 10.4143 122.371 10.4286C122.409 10.4434 122.442 10.4648 122.472 10.4929C122.501 10.5208 122.526 10.5526 122.545 10.5882C122.565 10.6246 122.574 10.6639 122.574 10.7064V16.3506C122.574 16.5473 122.472 16.6453 122.266 16.6453H121.45C121.254 16.6453 121.156 16.5473 121.156 16.3506V10.7064ZM121.156 8.53138C121.156 8.33391 121.252 8.23543 121.445 8.23543H122.27C122.362 8.23543 122.436 8.26017 122.491 8.30966C122.547 8.3589 122.574 8.4324 122.574 8.53138V9.26592C122.574 9.34137 122.549 9.41293 122.496 9.48061C122.444 9.54781 122.37 9.58128 122.275 9.58128H121.45C121.254 9.58128 121.156 9.47624 121.156 9.26592V8.53138ZM125.202 13.5361C125.202 13.7981 125.248 14.0463 125.339 14.2799C125.432 14.5142 125.559 14.7182 125.723 14.8917C125.886 15.0654 126.08 15.2029 126.305 15.3046C126.529 15.406 126.773 15.4567 127.039 15.4567C127.297 15.4567 127.537 15.406 127.758 15.3046C127.979 15.2029 128.17 15.0654 128.33 14.8917C128.491 14.7182 128.615 14.5142 128.706 14.2799C128.796 14.0463 128.841 13.7981 128.841 13.5361C128.841 13.2773 128.796 13.0301 128.706 12.7941C128.615 12.558 128.491 12.3516 128.33 12.1726C128.17 11.9943 127.979 11.8516 127.758 11.7454C127.537 11.6389 127.297 11.5855 127.039 11.5855C126.773 11.5855 126.529 11.6389 126.305 11.7454C126.08 11.8516 125.886 11.9943 125.723 12.1726C125.559 12.3516 125.432 12.558 125.339 12.7941C125.248 13.0301 125.202 13.2773 125.202 13.5361ZM123.817 13.5361C123.817 13.238 123.856 12.9505 123.932 12.6737C124.009 12.3972 124.118 12.1391 124.259 11.8999C124.4 11.6612 124.568 11.4438 124.765 11.249C124.96 11.0545 125.178 10.8874 125.417 10.7484C125.656 10.6089 125.912 10.5012 126.185 10.4238C126.458 10.3471 126.743 10.3083 127.041 10.3083C127.336 10.3083 127.62 10.3471 127.895 10.4238C128.17 10.5012 128.426 10.6089 128.663 10.7484C128.9 10.8874 129.117 11.0545 129.313 11.249C129.509 11.4438 129.678 11.6612 129.819 11.8999C129.959 12.1391 130.068 12.3972 130.145 12.6737C130.222 12.9505 130.26 13.238 130.26 13.5361C130.26 13.8338 130.222 14.1205 130.145 14.3954C130.068 14.6707 129.959 14.9271 129.819 15.1644C129.678 15.4016 129.509 15.6187 129.313 15.815C129.117 16.0119 128.9 16.1796 128.663 16.3186C128.426 16.4578 128.17 16.566 127.895 16.6427C127.62 16.72 127.336 16.7584 127.041 16.7584C126.743 16.7584 126.458 16.72 126.185 16.6427C125.912 16.566 125.656 16.4578 125.417 16.3186C125.178 16.1796 124.96 16.0119 124.765 15.815C124.568 15.6187 124.4 15.4016 124.259 15.1644C124.118 14.9271 124.009 14.6707 123.932 14.3954C123.856 14.1205 123.817 13.8338 123.817 13.5361Z" fill="#1C1C20"/>
<path fill-rule="evenodd" clip-rule="evenodd" d="M41.4137 26.0913C41.0812 26.0913 40.7835 26.0349 40.5208 25.9227C40.2586 25.8109 40.034 25.6561 39.8476 25.4594C39.661 25.2635 39.5187 25.0327 39.4207 24.7679C39.3224 24.5034 39.2734 24.2205 39.2734 23.9198C39.2734 23.6312 39.3245 23.3547 39.4267 23.0898C39.5286 22.825 39.672 22.5925 39.8565 22.3922C40.0407 22.1913 40.2625 22.0323 40.5208 21.9137C40.7796 21.7955 41.067 21.7366 41.3839 21.7366C41.5603 21.7366 41.7214 21.7483 41.868 21.7728C42.0142 21.7966 42.1505 21.8324 42.2768 21.8807C42.4031 21.929 42.5213 21.9883 42.6317 22.0582C42.7417 22.1281 42.8489 22.2076 42.9532 22.2957L42.6466 22.6567C42.5664 22.5847 42.4823 22.5193 42.3939 22.4611C42.3059 22.4032 42.2108 22.3528 42.1082 22.3106C42.006 22.2687 41.8939 22.2357 41.7718 22.2116C41.6494 22.1878 41.5142 22.1753 41.3658 22.1753C41.1334 22.1753 40.9187 22.2215 40.7224 22.3141C40.5258 22.4064 40.3576 22.5311 40.2174 22.688C40.0769 22.8445 39.9669 23.0284 39.8867 23.2389C39.8065 23.4498 39.7664 23.6738 39.7664 23.9109C39.7664 24.1641 39.8054 24.398 39.8835 24.6131C39.9619 24.8279 40.073 25.0132 40.2174 25.1701C40.3619 25.3267 40.5361 25.4495 40.7405 25.5375C40.9449 25.6259 41.1753 25.6703 41.4318 25.6703C41.6724 25.6703 41.8989 25.6291 42.1114 25.5464C42.3237 25.4641 42.5022 25.3643 42.6466 25.2475V24.1967H41.3658V23.7753H43.1037V25.4495C42.9071 25.6252 42.6654 25.7765 42.379 25.9021C42.0923 26.0282 41.7707 26.0913 41.4137 26.0913ZM44.5587 26.0193V21.6279H45.0218V26.0193H44.5587ZM47.9379 26.0913C47.7054 26.0913 47.4907 26.048 47.2945 25.9618C47.0982 25.8759 46.9279 25.7594 46.7835 25.6132C46.639 25.4669 46.5269 25.2951 46.4467 25.0988C46.3665 24.9025 46.3264 24.6937 46.3264 24.4733C46.3264 24.2528 46.3665 24.043 46.4467 23.8446C46.5269 23.6461 46.639 23.4729 46.7835 23.3245C46.9279 23.1761 47.0993 23.0589 47.2977 22.9723C47.4961 22.8861 47.7133 22.8431 47.95 22.8431C48.1824 22.8431 48.3978 22.8861 48.5962 22.9723C48.7949 23.0589 48.9663 23.175 49.1104 23.3213C49.2549 23.4679 49.367 23.639 49.4472 23.8357C49.5274 24.0323 49.5675 24.2407 49.5675 24.4612C49.5675 24.682 49.5264 24.8914 49.444 25.0895C49.362 25.2883 49.2488 25.4616 49.1044 25.61C48.9603 25.7584 48.7878 25.8759 48.5873 25.9618C48.3868 26.048 48.1703 26.0913 47.9379 26.0913ZM47.9379 23.2521C47.7697 23.2521 47.6153 23.2829 47.4751 23.3451C47.3346 23.4072 47.2154 23.4931 47.1171 23.6032C47.0188 23.7132 46.9417 23.8414 46.8857 23.9873C46.8296 24.1332 46.8016 24.2901 46.8016 24.4583C46.8016 24.6263 46.8307 24.7842 46.8885 24.9323C46.9467 25.0803 47.0269 25.2081 47.1291 25.3164C47.2313 25.4243 47.3527 25.5102 47.4929 25.5745C47.6331 25.6384 47.7857 25.6703 47.95 25.6703C48.1185 25.6703 48.2726 25.6391 48.4131 25.5773C48.5533 25.5155 48.6736 25.4303 48.7736 25.3224C48.8737 25.2141 48.9522 25.0871 49.0082 24.9411C49.0643 24.7952 49.0923 24.6383 49.0923 24.4701C49.0923 24.3025 49.0632 24.1442 49.0054 23.9961C48.9472 23.8481 48.8659 23.7192 48.7619 23.6092C48.6576 23.4995 48.5352 23.4122 48.395 23.3483C48.2545 23.284 48.1022 23.2521 47.9379 23.2521ZM52.4779 26.0853C52.3335 26.0853 52.2011 26.0672 52.0812 26.0314C51.9608 25.9951 51.8523 25.9469 51.7564 25.8865C51.6603 25.8265 51.573 25.7566 51.4945 25.6764C51.4165 25.5961 51.3473 25.512 51.2873 25.4236V26.0193H50.8242V21.6279H51.2873V23.5346C51.3512 23.4427 51.4225 23.3546 51.5006 23.2702C51.579 23.186 51.6659 23.1129 51.7625 23.0508C51.8586 22.9883 51.9655 22.9386 52.084 22.9002C52.2022 22.8623 52.3335 22.8431 52.4779 22.8431C52.6621 22.8431 52.8434 22.8793 53.0219 22.9514C53.2005 23.0234 53.3598 23.1289 53.5 23.2673C53.6405 23.4054 53.7526 23.5751 53.8368 23.7753C53.9209 23.9763 53.9631 24.2045 53.9631 24.4612C53.9631 24.7179 53.9209 24.9465 53.8368 25.1467C53.7526 25.3476 53.6416 25.5166 53.5028 25.6551C53.3648 25.7935 53.2065 25.9 53.028 25.9742C52.8495 26.048 52.666 26.0853 52.4779 26.0853ZM52.3934 23.2645C52.2494 23.2645 52.1099 23.2932 51.9758 23.3511C51.8413 23.409 51.7209 23.4896 51.6148 23.5932C51.5087 23.6969 51.4243 23.8229 51.3625 23.9706C51.3001 24.1183 51.2692 24.2816 51.2692 24.4612C51.2692 24.6408 51.3001 24.8052 51.3625 24.955C51.4243 25.1044 51.5087 25.2315 51.6148 25.3352C51.7209 25.4389 51.8413 25.5194 51.9758 25.5773C52.1099 25.6352 52.2494 25.6639 52.3934 25.6639C52.5418 25.6639 52.683 25.6373 52.8175 25.5833C52.9517 25.5297 53.0681 25.452 53.1664 25.3501C53.2647 25.2486 53.3428 25.1226 53.401 24.9727C53.4588 24.8233 53.4879 24.655 53.4879 24.4672C53.4879 24.2837 53.4588 24.1183 53.401 23.9706C53.3428 23.8229 53.2636 23.6962 53.1632 23.5907C53.0631 23.4849 52.9471 23.4036 52.8143 23.3479C52.6823 23.2922 52.5418 23.2645 52.3934 23.2645ZM56.1637 26.0853C56.0193 26.0853 55.878 26.0651 55.74 26.025C55.6016 25.9852 55.477 25.9238 55.367 25.8414C55.2566 25.7594 55.1686 25.6582 55.1026 25.5379C55.0363 25.4176 55.0033 25.2756 55.0033 25.1108C55.0033 24.9465 55.0352 24.8013 55.0994 24.6745C55.1637 24.5485 55.2545 24.4431 55.373 24.3589C55.4912 24.2745 55.6314 24.2106 55.7939 24.1665C55.9561 24.1225 56.1357 24.1001 56.3323 24.1001C56.5324 24.1001 56.707 24.1122 56.8554 24.1364C57.0034 24.1605 57.1478 24.1925 57.288 24.2326V24.1246C57.288 23.8438 57.2071 23.6323 57.0445 23.4896C56.8824 23.3476 56.6549 23.2762 56.3621 23.2762C56.1779 23.2762 56.0104 23.2971 55.8599 23.3394C55.7098 23.3816 55.5625 23.4367 55.4181 23.5048L55.2797 23.1257C55.4522 23.0458 55.6264 22.9826 55.8028 22.9365C55.9792 22.8903 56.1818 22.8672 56.4104 22.8672C56.8352 22.8672 57.162 22.9723 57.3906 23.1828C57.6191 23.3937 57.733 23.7054 57.733 24.1183V26.0193H57.288V25.55C57.1801 25.6906 57.0346 25.8144 56.8522 25.9227C56.6698 26.0314 56.4402 26.0853 56.1637 26.0853ZM56.3834 24.4431C56.0917 24.4431 55.8677 24.5013 55.712 24.6174C55.5562 24.7338 55.4781 24.8925 55.4781 25.0927C55.4781 25.1928 55.499 25.2812 55.5413 25.3572C55.5831 25.4335 55.6399 25.4989 55.712 25.5528C55.784 25.6068 55.8667 25.6483 55.9607 25.6764C56.0544 25.7044 56.1534 25.7182 56.2574 25.7182C56.4011 25.7182 56.536 25.6973 56.662 25.6551C56.7876 25.6132 56.8976 25.5549 56.9917 25.4807C57.0854 25.4066 57.1595 25.3185 57.2131 25.2163C57.2671 25.114 57.294 25.0004 57.294 24.8762V24.5755C57.1783 24.5432 57.0452 24.5134 56.8955 24.4853C56.7457 24.4573 56.575 24.4431 56.3834 24.4431ZM59.182 26.0193V21.6279H59.6451V26.0193H59.182ZM63.9204 26.0193H63.4452V21.8086H65.0209C65.2572 21.8086 65.4726 21.8395 65.6671 21.902C65.8616 21.9641 66.0277 22.0522 66.1661 22.1665C66.3045 22.2808 66.4106 22.4214 66.4851 22.5875C66.5589 22.754 66.5962 22.9414 66.5962 23.1498C66.5962 23.3784 66.5518 23.579 66.4638 23.7515C66.3755 23.9237 66.2562 24.0682 66.1061 24.1843C65.9556 24.3011 65.7803 24.3881 65.5798 24.4463C65.3793 24.5045 65.1671 24.5333 64.9425 24.5333H63.9204V26.0193ZM63.9204 22.2474V24.1001H64.9634C65.1362 24.1001 65.2941 24.0785 65.4368 24.0341C65.5795 23.9901 65.7019 23.9269 65.8045 23.8446C65.907 23.7625 65.9855 23.6642 66.0398 23.5499C66.094 23.4356 66.121 23.3085 66.121 23.1679C66.121 22.8633 66.0177 22.6336 65.8105 22.4792C65.6036 22.3248 65.3293 22.2474 64.9875 22.2474H63.9204ZM69.1396 26.0913C68.9271 26.0913 68.7266 26.0519 68.5385 25.9742C68.35 25.8957 68.185 25.7853 68.0441 25.6433C67.9025 25.501 67.7904 25.3295 67.707 25.1289C67.6239 24.9284 67.5824 24.7079 67.5824 24.4672C67.5824 24.2429 67.6193 24.0313 67.6935 23.8325C67.7677 23.6344 67.8709 23.4615 68.0033 23.3152C68.1353 23.169 68.2929 23.0536 68.4753 22.9695C68.6577 22.885 68.8572 22.8431 69.0736 22.8431C69.3018 22.8431 69.5066 22.8861 69.6869 22.9723C69.8672 23.0589 70.0194 23.1761 70.1436 23.3245C70.2682 23.4729 70.3622 23.6472 70.4265 23.8477C70.4907 24.0483 70.5226 24.2627 70.5226 24.4914V24.5574L70.5166 24.6355H68.0573C68.0732 24.8041 68.1133 24.9536 68.1776 25.0839C68.2418 25.2141 68.3238 25.3242 68.4242 25.4144C68.5243 25.5049 68.6364 25.573 68.7606 25.6188C68.8852 25.665 69.0154 25.6884 69.1517 25.6884C69.3682 25.6884 69.5534 25.6483 69.7078 25.5681C69.8622 25.4875 70.0034 25.3817 70.1319 25.2493L70.4204 25.5077C70.2639 25.6842 70.0858 25.8258 69.8853 25.9316C69.6847 26.0381 69.4363 26.0913 69.1396 26.0913ZM69.0616 23.2343C68.926 23.2343 68.8004 23.2613 68.685 23.3152C68.5694 23.3696 68.4679 23.4438 68.3802 23.5378C68.2925 23.6323 68.2209 23.7434 68.1648 23.8719C68.1091 24 68.0732 24.1403 68.0573 24.2926H70.0474C70.0357 24.1527 70.0066 24.0181 69.9608 23.8896C69.9151 23.7615 69.8515 23.6493 69.7696 23.5527C69.6879 23.4569 69.5886 23.3795 69.4711 23.3213C69.3533 23.2634 69.217 23.2343 69.0616 23.2343ZM73.1204 26.0913C72.9078 26.0913 72.7073 26.0519 72.5188 25.9742C72.3308 25.8957 72.1657 25.7853 72.0245 25.6433C71.8832 25.501 71.7711 25.3295 71.6877 25.1289C71.6047 24.9284 71.5628 24.7079 71.5628 24.4672C71.5628 24.2429 71.6001 24.0313 71.6742 23.8325C71.7484 23.6344 71.8517 23.4615 71.984 23.3152C72.1161 23.169 72.2736 23.0536 72.456 22.9695C72.6381 22.885 72.8375 22.8431 73.0544 22.8431C73.2825 22.8431 73.487 22.8861 73.6676 22.9723C73.8479 23.0589 74.0001 23.1761 74.1243 23.3245C74.2485 23.4729 74.3429 23.6472 74.4072 23.8477C74.4711 24.0483 74.5033 24.2627 74.5033 24.4914V24.5574L74.4973 24.6355H72.038C72.0539 24.8041 72.094 24.9536 72.1583 25.0839C72.2222 25.2141 72.3045 25.3242 72.4049 25.4144C72.505 25.5049 72.6171 25.573 72.7414 25.6188C72.8656 25.665 72.9962 25.6884 73.1324 25.6884C73.3489 25.6884 73.5342 25.6483 73.6885 25.5681C73.8429 25.4875 73.9842 25.3817 74.1126 25.2493L74.4011 25.5077C74.2446 25.6842 74.0665 25.8258 73.866 25.9316C73.6655 26.0381 73.417 26.0913 73.1204 26.0913ZM73.0423 23.2343C72.9067 23.2343 72.7811 23.2613 72.6654 23.3152C72.5501 23.3696 72.4486 23.4438 72.3609 23.5378C72.2733 23.6323 72.2012 23.7434 72.1455 23.8719C72.0898 24 72.0539 24.1403 72.038 24.2926H74.0282C74.0164 24.1527 73.9873 24.0181 73.9416 23.8896C73.8958 23.7615 73.8323 23.6493 73.7503 23.5527C73.6687 23.4569 73.5689 23.3795 73.4515 23.3213C73.334 23.2634 73.1974 23.2343 73.0423 23.2343ZM76.199 26.0193H75.7359V22.9095H76.199V23.7214C76.255 23.5929 76.3253 23.475 76.4094 23.3664C76.4939 23.2581 76.5901 23.1647 76.6979 23.087C76.8062 23.0085 76.9244 22.9496 77.0528 22.9095C77.1692 22.8729 77.2934 22.8548 77.4262 22.8548C77.44 22.8548 77.4538 22.8548 77.4677 22.8552V23.3547H77.4318C77.2633 23.3547 77.1039 23.3848 76.9535 23.4448C76.8033 23.5048 76.672 23.595 76.5599 23.7153C76.4474 23.8357 76.3594 23.9851 76.2951 24.1633C76.2309 24.3419 76.199 24.5475 76.199 24.78V26.0193ZM78.466 24.4552V23.9681H80.1375V24.4552H78.466ZM82.5067 26.0732C82.3821 26.0732 82.266 26.0573 82.1578 26.025C82.0496 25.993 81.9562 25.9419 81.8782 25.8716C81.8001 25.8017 81.7387 25.7101 81.6947 25.5979C81.6507 25.4857 81.6287 25.3515 81.6287 25.195V23.3184H81.1957V22.9095H81.6287V21.9709H82.0918V22.9095H83.0777V23.3184H82.0918V25.1346C82.0918 25.3274 82.1397 25.4616 82.2359 25.5379C82.3321 25.6142 82.4584 25.6522 82.6149 25.6522C82.6951 25.6522 82.77 25.6444 82.8403 25.6281C82.9105 25.6121 82.9854 25.5841 83.066 25.5439V25.9408C82.9854 25.9852 82.9002 26.0182 82.8101 26.0402C82.7199 26.0622 82.6188 26.0732 82.5067 26.0732ZM85.6456 26.0913C85.4128 26.0913 85.1981 26.048 85.0018 25.9618C84.8056 25.8759 84.6352 25.7594 84.4908 25.6132C84.3464 25.4669 84.2342 25.2951 84.154 25.0988C84.0738 24.9025 84.0337 24.6937 84.0337 24.4733C84.0337 24.2528 84.0738 24.043 84.154 23.8446C84.2342 23.6461 84.3464 23.4729 84.4908 23.3245C84.6352 23.1761 84.8063 23.0589 85.0047 22.9723C85.2034 22.8861 85.4206 22.8431 85.6573 22.8431C85.8894 22.8431 86.1052 22.8861 86.3039 22.9723C86.5023 23.0589 86.6733 23.175 86.8174 23.3213C86.9626 23.4679 87.074 23.639 87.1546 23.8357C87.2348 24.0323 87.2749 24.2407 87.2749 24.4612C87.2749 24.682 87.2333 24.8914 87.1517 25.0895C87.069 25.2883 86.9562 25.4616 86.8121 25.61C86.6673 25.7584 86.4952 25.8759 86.295 25.9618C86.0938 26.048 85.8777 26.0913 85.6456 26.0913ZM85.6456 23.2521C85.477 23.2521 85.3227 23.2829 85.1821 23.3451C85.0419 23.4072 84.9227 23.4931 84.8244 23.6032C84.7261 23.7132 84.6491 23.8414 84.593 23.9873C84.5369 24.1332 84.5089 24.2901 84.5089 24.4583C84.5089 24.6263 84.538 24.7842 84.5959 24.9323C84.6541 25.0803 84.7343 25.2081 84.8365 25.3164C84.9387 25.4243 85.06 25.5102 85.2002 25.5745C85.3404 25.6384 85.493 25.6703 85.6573 25.6703C85.8255 25.6703 85.9795 25.6391 86.1204 25.5773C86.2603 25.5155 86.3809 25.4303 86.4813 25.3224C86.5811 25.2141 86.6595 25.0871 86.7156 24.9411C86.7716 24.7952 86.7997 24.6383 86.7997 24.4701C86.7997 24.3025 86.7706 24.1442 86.7131 23.9961C86.6545 23.8481 86.5729 23.7192 86.4689 23.6092C86.3649 23.4995 86.2422 23.4122 86.1023 23.3483C85.9614 23.284 85.8099 23.2521 85.6456 23.2521ZM88.4055 24.4552V23.9681H90.077V24.4552H88.4055ZM93.3508 26.0193H91.4841V21.8086H93.2724C93.4807 21.8086 93.6684 21.8335 93.8366 21.8839C94.0045 21.9339 94.1486 22.0042 94.2685 22.0944C94.3885 22.1846 94.4808 22.2946 94.545 22.4249C94.6085 22.5555 94.6408 22.7011 94.6408 22.8612C94.6408 23.0018 94.622 23.1239 94.5837 23.2279C94.5461 23.3323 94.4946 23.4246 94.4311 23.5048C94.3668 23.585 94.2959 23.6525 94.2178 23.7065C94.1397 23.7604 94.0592 23.8055 93.9747 23.8417C94.0989 23.8776 94.216 23.9248 94.326 23.983C94.436 24.0412 94.5311 24.1101 94.611 24.1903C94.6912 24.2709 94.7554 24.3671 94.803 24.4793C94.8512 24.5915 94.875 24.7196 94.875 24.8645C94.875 25.0445 94.8392 25.207 94.7675 25.3515C94.6955 25.496 94.5922 25.6174 94.4584 25.7154C94.3242 25.8134 94.1631 25.8886 93.9747 25.9408C93.787 25.993 93.5786 26.0193 93.3508 26.0193ZM91.959 24.1065V25.5979H93.3685C93.6887 25.5979 93.9406 25.5315 94.1241 25.3987C94.3083 25.2656 94.4006 25.0785 94.4006 24.8368C94.4006 24.6035 94.3062 24.4232 94.1184 24.2965C93.9303 24.1701 93.6525 24.1065 93.2844 24.1065H91.959ZM91.959 22.2297V23.6852H93.2003C93.4842 23.6852 93.716 23.6209 93.8959 23.492C94.0758 23.3632 94.1656 23.174 94.1656 22.9244C94.1656 22.7107 94.0858 22.5417 93.9261 22.4167C93.7657 22.2918 93.5361 22.2297 93.2362 22.2297H91.959ZM97.3106 26.0853C97.1218 26.0853 96.9546 26.0551 96.8084 25.9951C96.6622 25.9348 96.5377 25.8496 96.4354 25.7392C96.3332 25.6291 96.2552 25.4978 96.2012 25.3455C96.1466 25.1928 96.1196 25.0246 96.1196 24.84V22.9095H96.5827V24.726C96.5827 25.0143 96.6569 25.2433 96.8052 25.4119C96.9536 25.5798 97.1658 25.6639 97.4426 25.6639C97.575 25.6639 97.6985 25.6412 97.8124 25.5951C97.9267 25.5489 98.0246 25.4829 98.1073 25.3966C98.1893 25.3103 98.2546 25.207 98.3028 25.087C98.3504 24.9667 98.3749 24.8343 98.3749 24.6898V22.9095H98.8316V26.0193H98.3749V25.4776C98.2705 25.6462 98.1343 25.7896 97.9657 25.9078C97.7975 26.026 97.5792 26.0853 97.3106 26.0853ZM101.321 26.0793C101.096 26.0793 100.87 26.0381 100.642 25.9561C100.413 25.8737 100.211 25.7626 100.034 25.622L100.269 25.2915C100.437 25.4197 100.612 25.5177 100.795 25.5862C100.977 25.6543 101.16 25.6884 101.345 25.6884C101.533 25.6884 101.688 25.6444 101.808 25.556C101.928 25.468 101.988 25.3476 101.988 25.195V25.1829C101.988 25.1069 101.967 25.0409 101.925 24.9845C101.883 24.9284 101.826 24.8794 101.754 24.8371C101.682 24.7949 101.599 24.758 101.504 24.726C101.41 24.6937 101.313 24.6635 101.213 24.6355C101.093 24.5996 100.971 24.5606 100.849 24.5183C100.727 24.4765 100.616 24.4228 100.518 24.3589C100.42 24.2947 100.34 24.2148 100.278 24.1183C100.215 24.0221 100.184 23.9021 100.184 23.7572V23.7455C100.184 23.6131 100.211 23.4917 100.263 23.3816C100.315 23.2712 100.388 23.1772 100.482 23.0987C100.576 23.0206 100.688 22.9602 100.819 22.9184C100.949 22.8761 101.09 22.8552 101.243 22.8552C101.435 22.8552 101.63 22.8861 101.826 22.9485C102.022 23.0107 102.201 23.0937 102.361 23.1981L102.15 23.5471C102.006 23.4548 101.855 23.3816 101.697 23.3273C101.538 23.2734 101.383 23.246 101.231 23.246C101.046 23.246 100.9 23.2893 100.792 23.3752C100.684 23.4615 100.629 23.5691 100.629 23.6972V23.7093C100.629 23.7817 100.651 23.8445 100.696 23.8989C100.74 23.9528 100.799 24 100.873 24.0402C100.947 24.0803 101.032 24.1165 101.129 24.1484C101.225 24.1807 101.325 24.2127 101.429 24.2446C101.549 24.2808 101.669 24.3206 101.787 24.365C101.905 24.409 102.012 24.4654 102.109 24.5333C102.205 24.6014 102.282 24.6838 102.34 24.78C102.398 24.8762 102.428 24.9948 102.428 25.1346V25.1467C102.428 25.2951 102.398 25.4268 102.34 25.5411C102.282 25.6551 102.204 25.7523 102.106 25.8326C102.007 25.9131 101.891 25.9742 101.757 26.0161C101.622 26.0583 101.477 26.0793 101.321 26.0793ZM103.776 26.0193V22.9095H104.267V26.0193H103.776ZM103.72 22.2297V21.7181H104.211V22.2297H103.72ZM108.429 26.0193H107.966V24.2024C107.966 23.9138 107.891 23.6852 107.743 23.5169C107.595 23.3483 107.383 23.2645 107.105 23.2645C106.973 23.2645 106.85 23.2872 106.736 23.3334C106.622 23.3795 106.522 23.4455 106.438 23.5322C106.354 23.6181 106.289 23.7214 106.243 23.8417C106.197 23.9621 106.173 24.0945 106.173 24.2386V26.0193H105.711V22.9095H106.173V23.4505C106.278 23.2822 106.414 23.1388 106.583 23.0206C106.751 22.9024 106.969 22.8431 107.238 22.8431C107.427 22.8431 107.594 22.8733 107.74 22.9333C107.886 22.9936 108.011 23.0788 108.113 23.1892C108.215 23.2993 108.293 23.4306 108.347 23.5829C108.401 23.7356 108.429 23.9038 108.429 24.0884V26.0193ZM111.2 26.0913C110.988 26.0913 110.787 26.0519 110.599 25.9742C110.411 25.8957 110.246 25.7853 110.104 25.6433C109.963 25.501 109.851 25.3295 109.768 25.1289C109.685 24.9284 109.643 24.7079 109.643 24.4672C109.643 24.2429 109.68 24.0313 109.754 23.8325C109.828 23.6344 109.932 23.4615 110.064 23.3152C110.196 23.169 110.354 23.0536 110.536 22.9695C110.718 22.885 110.917 22.8431 111.134 22.8431C111.363 22.8431 111.567 22.8861 111.748 22.9723C111.928 23.0589 112.08 23.1761 112.204 23.3245C112.329 23.4729 112.423 23.6472 112.487 23.8477C112.551 24.0483 112.583 24.2627 112.583 24.4914V24.5574L112.577 24.6355H110.118C110.134 24.8041 110.174 24.9536 110.238 25.0839C110.302 25.2141 110.385 25.3242 110.485 25.4144C110.585 25.5049 110.697 25.573 110.822 25.6188C110.946 25.665 111.076 25.6884 111.212 25.6884C111.429 25.6884 111.614 25.6483 111.769 25.5681C111.923 25.4875 112.064 25.3817 112.192 25.2493L112.481 25.5077C112.325 25.6842 112.146 25.8258 111.946 25.9316C111.745 26.0381 111.497 26.0913 111.2 26.0913ZM111.122 23.2343C110.987 23.2343 110.861 23.2613 110.745 23.3152C110.63 23.3696 110.529 23.4438 110.441 23.5378C110.353 23.6323 110.282 23.7434 110.225 23.8719C110.17 24 110.134 24.1403 110.118 24.2926H112.108C112.096 24.1527 112.068 24.0181 112.022 23.8896C111.976 23.7615 111.912 23.6493 111.831 23.5527C111.749 23.4569 111.649 23.3795 111.531 23.3213C111.414 23.2634 111.277 23.2343 111.122 23.2343ZM114.844 26.0793C114.62 26.0793 114.393 26.0381 114.165 25.9561C113.936 25.8737 113.734 25.7626 113.557 25.622L113.792 25.2915C113.961 25.4197 114.136 25.5177 114.318 25.5862C114.5 25.6543 114.684 25.6884 114.868 25.6884C115.057 25.6884 115.211 25.6444 115.331 25.556C115.451 25.468 115.512 25.3476 115.512 25.195V25.1829C115.512 25.1069 115.491 25.0409 115.449 24.9845C115.406 24.9284 115.349 24.8794 115.277 24.8371C115.205 24.7949 115.122 24.758 115.028 24.726C114.933 24.6937 114.836 24.6635 114.736 24.6355C114.616 24.5996 114.495 24.5606 114.372 24.5183C114.25 24.4765 114.14 24.4228 114.042 24.3589C113.943 24.2947 113.863 24.2148 113.801 24.1183C113.739 24.0221 113.708 23.9021 113.708 23.7572V23.7455C113.708 23.6131 113.734 23.4917 113.786 23.3816C113.838 23.2712 113.911 23.1772 114.006 23.0987C114.099 23.0206 114.212 22.9602 114.342 22.9184C114.472 22.8761 114.614 22.8552 114.766 22.8552C114.959 22.8552 115.153 22.8861 115.349 22.9485C115.546 23.0107 115.724 23.0937 115.885 23.1981L115.674 23.5471C115.53 23.4548 115.378 23.3816 115.22 23.3273C115.061 23.2734 114.906 23.246 114.754 23.246C114.57 23.246 114.423 23.2893 114.315 23.3752C114.207 23.4615 114.153 23.5691 114.153 23.6972V23.7093C114.153 23.7817 114.175 23.8445 114.219 23.8989C114.263 23.9528 114.322 24 114.396 24.0402C114.47 24.0803 114.556 24.1165 114.652 24.1484C114.748 24.1807 114.848 24.2127 114.953 24.2446C115.073 24.2808 115.192 24.3206 115.31 24.365C115.428 24.409 115.536 24.4654 115.632 24.5333C115.728 24.6014 115.805 24.6838 115.863 24.78C115.921 24.8762 115.951 24.9948 115.951 25.1346V25.1467C115.951 25.2951 115.921 25.4268 115.863 25.5411C115.805 25.6551 115.727 25.7523 115.629 25.8326C115.531 25.9131 115.414 25.9742 115.28 26.0161C115.146 26.0583 115 26.0793 114.844 26.0793ZM118.199 26.0793C117.975 26.0793 117.749 26.0381 117.52 25.9561C117.291 25.8737 117.089 25.7626 116.913 25.622L117.147 25.2915C117.316 25.4197 117.491 25.5177 117.673 25.5862C117.855 25.6543 118.039 25.6884 118.223 25.6884C118.412 25.6884 118.566 25.6444 118.686 25.556C118.807 25.468 118.867 25.3476 118.867 25.195V25.1829C118.867 25.1069 118.846 25.0409 118.804 24.9845C118.761 24.9284 118.704 24.8794 118.632 24.8371C118.56 24.7949 118.477 24.758 118.383 24.726C118.288 24.6937 118.192 24.6635 118.091 24.6355C117.971 24.5996 117.85 24.5606 117.727 24.5183C117.605 24.4765 117.495 24.4228 117.397 24.3589C117.298 24.2947 117.218 24.2148 117.156 24.1183C117.094 24.0221 117.063 23.9021 117.063 23.7572V23.7455C117.063 23.6131 117.089 23.4917 117.141 23.3816C117.193 23.2712 117.266 23.1772 117.361 23.0987C117.455 23.0206 117.567 22.9602 117.697 22.9184C117.827 22.8761 117.969 22.8552 118.121 22.8552C118.314 22.8552 118.508 22.8861 118.704 22.9485C118.901 23.0107 119.079 23.0937 119.24 23.1981L119.029 23.5471C118.885 23.4548 118.733 23.3816 118.575 23.3273C118.417 23.2734 118.261 23.246 118.109 23.246C117.925 23.246 117.778 23.2893 117.67 23.3752C117.562 23.4615 117.508 23.5691 117.508 23.6972V23.7093C117.508 23.7817 117.53 23.8445 117.574 23.8989C117.618 23.9528 117.677 24 117.751 24.0402C117.825 24.0803 117.911 24.1165 118.007 24.1484C118.103 24.1807 118.203 24.2127 118.308 24.2446C118.428 24.2808 118.547 24.3206 118.666 24.365C118.784 24.409 118.891 24.4654 118.987 24.5333C119.083 24.6014 119.16 24.6838 119.219 24.78C119.276 24.8762 119.306 24.9948 119.306 25.1346V25.1467C119.306 25.2951 119.276 25.4268 119.219 25.5411C119.16 25.6551 119.082 25.7523 118.984 25.8326C118.886 25.9131 118.769 25.9742 118.635 26.0161C118.501 26.0583 118.356 26.0793 118.199 26.0793ZM123.364 26.0193H122.889V21.8086H124.464C124.701 21.8086 124.917 21.8395 125.111 21.902C125.306 21.9641 125.472 22.0522 125.61 22.1665C125.749 22.2808 125.854 22.4214 125.929 22.5875C126.003 22.754 126.04 22.9414 126.04 23.1498C126.04 23.3784 125.996 23.579 125.908 23.7515C125.82 23.9237 125.7 24.0682 125.55 24.1843C125.4 24.3011 125.224 24.3881 125.024 24.4463C124.824 24.5045 124.611 24.5333 124.387 24.5333H123.364V26.0193ZM123.364 22.2474V24.1001H124.407C124.58 24.1001 124.738 24.0785 124.881 24.0341C125.023 23.9901 125.146 23.9269 125.248 23.8446C125.351 23.7625 125.429 23.6642 125.484 23.5499C125.538 23.4356 125.565 23.3085 125.565 23.1679C125.565 22.8633 125.462 22.6336 125.255 22.4792C125.048 22.3248 124.774 22.2474 124.432 22.2474H123.364ZM127.712 26.0193H127.249V22.9095H127.712V23.7214C127.768 23.5929 127.838 23.475 127.922 23.3664C128.007 23.2581 128.103 23.1647 128.211 23.087C128.32 23.0085 128.438 22.9496 128.566 22.9095C128.682 22.8729 128.806 22.8548 128.939 22.8548C128.953 22.8548 128.967 22.8548 128.981 22.8552V23.3547H128.944C128.776 23.3547 128.617 23.3848 128.467 23.4448C128.316 23.5048 128.185 23.595 128.073 23.7153C127.96 23.8357 127.872 23.9851 127.808 24.1633C127.744 24.3419 127.712 24.5475 127.712 24.78V26.0193ZM131.392 26.0913C131.16 26.0913 130.945 26.048 130.748 25.9618C130.552 25.8759 130.382 25.7594 130.238 25.6132C130.093 25.4669 129.981 25.2951 129.901 25.0988C129.82 24.9025 129.781 24.6937 129.781 24.4733C129.781 24.2528 129.82 24.043 129.901 23.8446C129.981 23.6461 130.093 23.4729 130.238 23.3245C130.382 23.1761 130.553 23.0589 130.752 22.9723C130.95 22.8861 131.167 22.8431 131.404 22.8431C131.636 22.8431 131.852 22.8861 132.05 22.9723C132.249 23.0589 132.42 23.175 132.565 23.3213C132.709 23.4679 132.821 23.639 132.901 23.8357C132.981 24.0323 133.022 24.2407 133.022 24.4612C133.022 24.682 132.98 24.8914 132.898 25.0895C132.816 25.2883 132.703 25.4616 132.559 25.61C132.414 25.7584 132.242 25.8759 132.042 25.9618C131.841 26.048 131.625 26.0913 131.392 26.0913ZM131.392 23.2521C131.224 23.2521 131.07 23.2829 130.929 23.3451C130.789 23.4072 130.67 23.4931 130.571 23.6032C130.473 23.7132 130.396 23.8414 130.34 23.9873C130.283 24.1332 130.256 24.2901 130.256 24.4583C130.256 24.6263 130.285 24.7842 130.343 24.9323C130.401 25.0803 130.481 25.2081 130.583 25.3164C130.686 25.4243 130.807 25.5102 130.947 25.5745C131.087 25.6384 131.239 25.6703 131.404 25.6703C131.572 25.6703 131.726 25.6391 131.867 25.5773C132.007 25.5155 132.127 25.4303 132.228 25.3224C132.328 25.2141 132.406 25.0871 132.462 24.9411C132.518 24.7952 132.547 24.6383 132.547 24.4701C132.547 24.3025 132.517 24.1442 132.46 23.9961C132.401 23.8481 132.32 23.7192 132.216 23.6092C132.111 23.4995 131.989 23.4122 131.849 23.3483C131.708 23.284 131.556 23.2521 131.392 23.2521ZM136.768 26.0193H136.232L135.271 24.7498L134.302 26.0193H133.785L135.006 24.437L133.833 22.9095H134.362L135.283 24.1122L136.203 22.9095H136.72L135.541 24.425L136.768 26.0193ZM138.361 26.9994C138.233 26.9994 138.116 26.9863 138.012 26.9604C137.908 26.9345 137.804 26.8951 137.7 26.8432L137.856 26.4765C137.932 26.5163 138.007 26.5454 138.081 26.5635C138.156 26.5816 138.243 26.5905 138.343 26.5905C138.483 26.5905 138.602 26.5486 138.698 26.4641C138.794 26.38 138.888 26.2273 138.981 26.0069L137.567 22.9095H138.079L139.209 25.5017L140.207 22.9095H140.7L139.395 26.1215C139.263 26.4421 139.116 26.6689 138.954 26.8013C138.791 26.9334 138.594 26.9994 138.361 26.9994ZM147.717 26.0193H147.338L144.621 22.5666V26.0193H144.158V21.8086H144.603L147.254 25.1829V21.8086H147.717V26.0193ZM150.616 26.0913C150.403 26.0913 150.203 26.0519 150.014 25.9742C149.826 25.8957 149.661 25.7853 149.52 25.6433C149.378 25.501 149.266 25.3295 149.183 25.1289C149.1 24.9284 149.058 24.7079 149.058 24.4672C149.058 24.2429 149.095 24.0313 149.17 23.8325C149.244 23.6344 149.347 23.4615 149.479 23.3152C149.611 23.169 149.769 23.0536 149.951 22.9695C150.133 22.885 150.333 22.8431 150.549 22.8431C150.778 22.8431 150.982 22.8861 151.163 22.9723C151.343 23.0589 151.495 23.1761 151.62 23.3245C151.744 23.4729 151.838 23.6472 151.903 23.8477C151.966 24.0483 151.998 24.2627 151.998 24.4914V24.5574L151.993 24.6355H149.533C149.549 24.8041 149.589 24.9536 149.654 25.0839C149.718 25.2141 149.8 25.3242 149.9 25.4144C150 25.5049 150.113 25.573 150.237 25.6188C150.361 25.665 150.491 25.6884 150.627 25.6884C150.844 25.6884 151.03 25.6483 151.184 25.5681C151.338 25.4875 151.479 25.3817 151.608 25.2493L151.896 25.5077C151.74 25.6842 151.562 25.8258 151.361 25.9316C151.161 26.0381 150.912 26.0913 150.616 26.0913ZM150.537 23.2343C150.402 23.2343 150.276 23.2613 150.161 23.3152C150.045 23.3696 149.944 23.4438 149.856 23.5378C149.768 23.6323 149.697 23.7434 149.641 23.8719C149.585 24 149.549 24.1403 149.533 24.2926H151.524C151.511 24.1527 151.483 24.0181 151.437 23.8896C151.391 23.7615 151.327 23.6493 151.246 23.5527C151.164 23.4569 151.064 23.3795 150.947 23.3213C150.829 23.2634 150.693 23.2343 150.537 23.2343ZM154.272 26.0732C154.147 26.0732 154.031 26.0573 153.923 26.025C153.814 25.993 153.721 25.9419 153.643 25.8716C153.565 25.8017 153.504 25.7101 153.459 25.5979C153.416 25.4857 153.394 25.3515 153.394 25.195V23.3184H152.96V22.9095H153.394V21.9709H153.857V22.9095H154.843V23.3184H153.857V25.1346C153.857 25.3274 153.904 25.4616 154.001 25.5379C154.097 25.6142 154.223 25.6522 154.38 25.6522C154.46 25.6522 154.535 25.6444 154.605 25.6281C154.675 25.6121 154.75 25.5841 154.831 25.5439V25.9408C154.75 25.9852 154.665 26.0182 154.575 26.0402C154.485 26.0622 154.384 26.0732 154.272 26.0732ZM159.394 26.0431H158.992L158.156 23.589L157.314 26.0431H156.905L155.817 22.9095H156.31L157.127 25.4055L157.964 22.8974H158.348L159.19 25.4055L160.008 22.9095H160.489L159.394 26.0431ZM162.948 26.0913C162.716 26.0913 162.501 26.048 162.304 25.9618C162.108 25.8759 161.938 25.7594 161.794 25.6132C161.649 25.4669 161.537 25.2951 161.457 25.0988C161.376 24.9025 161.337 24.6937 161.337 24.4733C161.337 24.2528 161.376 24.043 161.457 23.8446C161.537 23.6461 161.649 23.4729 161.794 23.3245C161.938 23.1761 162.109 23.0589 162.308 22.9723C162.506 22.8861 162.724 22.8431 162.96 22.8431C163.192 22.8431 163.408 22.8861 163.607 22.9723C163.805 23.0589 163.976 23.175 164.12 23.3213C164.265 23.4679 164.377 23.639 164.458 23.8357C164.537 24.0323 164.578 24.2407 164.578 24.4612C164.578 24.682 164.536 24.8914 164.454 25.0895C164.372 25.2883 164.259 25.4616 164.115 25.61C163.97 25.7584 163.798 25.8759 163.598 25.9618C163.397 26.048 163.181 26.0913 162.948 26.0913ZM162.948 23.2521C162.78 23.2521 162.626 23.2829 162.485 23.3451C162.345 23.4072 162.226 23.4931 162.127 23.6032C162.029 23.7132 161.952 23.8414 161.896 23.9873C161.84 24.1332 161.812 24.2901 161.812 24.4583C161.812 24.6263 161.841 24.7842 161.899 24.9323C161.957 25.0803 162.037 25.2081 162.139 25.3164C162.242 25.4243 162.363 25.5102 162.503 25.5745C162.643 25.6384 162.796 25.6703 162.96 25.6703C163.129 25.6703 163.283 25.6391 163.423 25.5773C163.563 25.5155 163.684 25.4303 163.784 25.3224C163.884 25.2141 163.962 25.0871 164.018 24.9411C164.075 24.7952 164.103 24.6383 164.103 24.4701C164.103 24.3025 164.074 24.1442 164.016 23.9961C163.958 23.8481 163.876 23.7192 163.772 23.6092C163.668 23.4995 163.545 23.4122 163.405 23.3483C163.264 23.284 163.113 23.2521 162.948 23.2521ZM166.297 26.0193H165.835V22.9095H166.297V23.7214C166.354 23.5929 166.424 23.475 166.508 23.3664C166.592 23.2581 166.688 23.1647 166.797 23.087C166.905 23.0085 167.023 22.9496 167.151 22.9095C167.268 22.8729 167.392 22.8548 167.524 22.8548C167.538 22.8548 167.552 22.8548 167.566 22.8552V23.3547H167.53C167.362 23.3547 167.202 23.3848 167.052 23.4448C166.902 23.5048 166.77 23.595 166.658 23.7153C166.546 23.8357 166.458 23.9851 166.394 24.1633C166.33 24.3419 166.297 24.5475 166.297 24.78V26.0193ZM171.451 26.0193H170.897L169.785 24.5695L169.153 25.207V26.0193H168.69V21.6279H169.153V24.6596L170.831 22.9095H171.409L170.103 24.2446L171.451 26.0193Z" fill="#1C1C20" stroke="#1C1C20" stroke-width="0.4" stroke-linecap="round" stroke-linejoin="round"/>
<path d="M46.056 37.124H41.352V39.116H45.612V40.484H41.352V42.632H46.056V44H39.852V35.756H46.056V37.124ZM50.5406 42.668L50.9606 43.652C50.6126 43.952 50.1086 44.144 49.6406 44.144C48.6086 44.144 47.8886 43.4 47.8886 42.356V39.008H46.9886V37.796H47.8886V36.092H49.3166V37.796H50.7206V39.008H49.3166V42.176C49.3166 42.596 49.5806 42.896 49.9286 42.896C50.1806 42.896 50.4086 42.8 50.5406 42.668ZM55.481 37.652C56.837 37.652 57.785 38.648 57.785 40.052V44H56.369V40.34C56.369 39.5 55.829 38.9 55.061 38.9C54.233 38.9 53.549 39.5 53.549 40.244V44H52.085V35.612H53.549V38.648C53.921 38.048 54.653 37.652 55.481 37.652ZM60.1183 36.86C59.6503 36.86 59.2783 36.464 59.2783 36.02C59.2783 35.576 59.6503 35.192 60.1183 35.192C60.5743 35.192 60.9463 35.576 60.9463 36.02C60.9463 36.464 60.5743 36.86 60.1183 36.86ZM59.3743 44V37.796H60.8383V44H59.3743ZM65.4443 44.144C63.6563 44.144 62.1323 42.656 62.1323 40.892C62.1323 39.128 63.6563 37.652 65.4683 37.652C66.4043 37.652 67.2323 38.048 67.8203 38.66L66.8363 39.524C66.5003 39.152 65.9843 38.9 65.4563 38.9C64.4363 38.9 63.5843 39.812 63.5843 40.892C63.5843 41.984 64.4363 42.896 65.4563 42.896C65.9963 42.896 66.5243 42.644 66.8723 42.248L67.8563 43.1C67.2563 43.736 66.4283 44.144 65.4443 44.144ZM71.7071 37.652C73.3511 37.652 74.3711 38.696 74.3711 40.268V44H72.9431V43.256C72.4871 43.832 71.7071 44.144 70.9871 44.144C69.6671 44.144 68.6711 43.364 68.6711 42.164C68.6711 40.94 69.8111 40.1 71.2031 40.1C71.7671 40.1 72.3791 40.22 72.9431 40.436V40.268C72.9431 39.548 72.5471 38.852 71.4191 38.852C70.8311 38.852 70.2671 39.056 69.7391 39.32L69.2351 38.3C70.1111 37.868 70.9271 37.652 71.7071 37.652ZM71.3111 43.076C72.0191 43.076 72.7751 42.716 72.9431 42.056V41.36C72.4871 41.204 71.9711 41.12 71.4191 41.12C70.6871 41.12 70.0991 41.528 70.0991 42.116C70.0991 42.704 70.6151 43.076 71.3111 43.076ZM75.9563 44V35.612H77.4203V44H75.9563ZM80.2984 46.16C79.8304 46.16 79.3144 46.04 78.9424 45.836L79.2544 44.78C79.5184 44.924 79.8184 45.008 80.0464 45.008C80.3944 45.008 80.6584 44.9 80.8384 44.6L81.1024 44.048L78.4744 37.796H80.0224L81.8344 42.428L83.5384 37.796H85.0504L82.4224 44.432C81.9544 45.608 81.2344 46.148 80.2984 46.16ZM86.006 41.348V40.064H89.234V41.348H86.006ZM92.9202 44.144C91.9722 44.144 90.9522 43.808 90.2082 43.208L90.8682 42.188C91.4682 42.62 92.1642 42.908 92.9442 42.908C93.5322 42.908 93.9402 42.656 93.9402 42.272C93.9402 41.792 93.4002 41.636 92.6922 41.444C91.3482 41.096 90.4962 40.712 90.4842 39.608C90.4842 38.444 91.4442 37.652 92.8242 37.652C93.6762 37.652 94.5282 37.952 95.2002 38.396L94.5882 39.464C94.0002 39.092 93.3642 38.9 92.8242 38.9C92.3082 38.9 91.9122 39.104 91.9122 39.452C91.9122 39.848 92.2362 39.968 93.1842 40.244C94.2282 40.532 95.3562 40.892 95.3562 42.188C95.3562 43.376 94.3722 44.144 92.9202 44.144ZM99.6282 44.144C97.8282 44.144 96.3042 42.656 96.3042 40.892C96.3042 39.128 97.8282 37.652 99.6282 37.652C101.428 37.652 102.952 39.128 102.952 40.892C102.952 42.656 101.428 44.144 99.6282 44.144ZM99.6282 42.896C100.648 42.896 101.512 41.984 101.512 40.892C101.512 39.812 100.648 38.9 99.6282 38.9C98.5962 38.9 97.7322 39.812 97.7322 40.892C97.7322 41.984 98.5962 42.896 99.6282 42.896ZM108.422 37.796H109.886V44H108.422V43.172C108.038 43.748 107.318 44.144 106.502 44.144C105.146 44.144 104.198 43.148 104.198 41.744V37.796H105.614V41.456C105.614 42.296 106.154 42.896 106.922 42.896C107.69 42.896 108.326 42.38 108.422 41.72V37.796ZM112.999 38.996C113.395 38.168 114.199 37.652 115.219 37.652V38.9C113.887 38.9 112.999 39.692 112.999 40.868V44H111.535V37.796H112.999V38.996ZM119.292 44.144C117.504 44.144 115.98 42.656 115.98 40.892C115.98 39.128 117.504 37.652 119.316 37.652C120.252 37.652 121.08 38.048 121.668 38.66L120.684 39.524C120.348 39.152 119.832 38.9 119.304 38.9C118.284 38.9 117.432 39.812 117.432 40.892C117.432 41.984 118.284 42.896 119.304 42.896C119.844 42.896 120.372 42.644 120.72 42.248L121.704 43.1C121.104 43.736 120.276 44.144 119.292 44.144ZM125.747 42.848C126.323 42.848 127.007 42.584 127.355 42.224L128.279 43.184C127.739 43.76 126.659 44.144 125.759 44.144C123.983 44.144 122.519 42.788 122.519 40.88C122.519 39.02 123.911 37.652 125.675 37.652C127.595 37.652 128.711 39.104 128.711 41.396H124.031C124.211 42.248 124.859 42.848 125.747 42.848ZM125.735 38.948C124.919 38.948 124.259 39.464 124.043 40.28H127.307C127.139 39.5 126.611 38.948 125.735 38.948ZM134.696 35.612H136.16V44H134.696V43.04C134.204 43.736 133.46 44.144 132.548 44.144C130.904 44.144 129.704 42.8 129.704 40.892C129.704 38.996 130.904 37.652 132.548 37.652C133.46 37.652 134.204 38.06 134.696 38.756V35.612ZM132.944 42.896C133.976 42.896 134.696 42.056 134.696 40.892C134.696 39.728 133.976 38.9 132.944 38.9C131.9 38.9 131.156 39.728 131.156 40.892C131.156 42.056 131.9 42.896 132.944 42.896ZM144.866 37.652C146.51 37.652 147.71 38.996 147.71 40.892C147.71 42.8 146.51 44.144 144.866 44.144C143.942 44.144 143.198 43.724 142.706 43.016V46.064H141.242V37.796H142.706V38.78C143.198 38.072 143.942 37.652 144.866 37.652ZM144.47 42.896C145.514 42.896 146.258 42.056 146.258 40.892C146.258 39.728 145.514 38.9 144.47 38.9C143.438 38.9 142.718 39.728 142.718 40.892C142.718 42.056 143.438 42.896 144.47 42.896ZM150.534 38.996C150.93 38.168 151.734 37.652 152.754 37.652V38.9C151.422 38.9 150.534 39.692 150.534 40.868V44H149.07V37.796H150.534V38.996ZM156.687 44.144C154.887 44.144 153.363 42.656 153.363 40.892C153.363 39.128 154.887 37.652 156.687 37.652C158.487 37.652 160.011 39.128 160.011 40.892C160.011 42.656 158.487 44.144 156.687 44.144ZM156.687 42.896C157.707 42.896 158.571 41.984 158.571 40.892C158.571 39.812 157.707 38.9 156.687 38.9C155.655 38.9 154.791 39.812 154.791 40.892C154.791 41.984 155.655 42.896 156.687 42.896ZM166.969 44H165.349L163.837 41.924L162.313 44H160.717L163.045 40.832L160.825 37.796H162.433L163.849 39.728L165.265 37.796H166.861L164.641 40.82L166.969 44ZM168.751 36.86C168.283 36.86 167.911 36.464 167.911 36.02C167.911 35.576 168.283 35.192 168.751 35.192C169.207 35.192 169.579 35.576 169.579 36.02C169.579 36.464 169.207 36.86 168.751 36.86ZM168.007 44V37.796H169.471V44H168.007ZM173.981 42.848C174.557 42.848 175.241 42.584 175.589 42.224L176.513 43.184C175.973 43.76 174.893 44.144 173.993 44.144C172.217 44.144 170.753 42.788 170.753 40.88C170.753 39.02 172.145 37.652 173.909 37.652C175.829 37.652 176.945 39.104 176.945 41.396H172.265C172.445 42.248 173.093 42.848 173.981 42.848ZM173.969 38.948C173.153 38.948 172.493 39.464 172.277 40.28H175.541C175.373 39.5 174.845 38.948 173.969 38.948ZM180.506 44.144C179.558 44.144 178.538 43.808 177.794 43.208L178.454 42.188C179.054 42.62 179.75 42.908 180.53 42.908C181.118 42.908 181.526 42.656 181.526 42.272C181.526 41.792 180.986 41.636 180.278 41.444C178.934 41.096 178.082 40.712 178.07 39.608C178.07 38.444 179.03 37.652 180.41 37.652C181.262 37.652 182.114 37.952 182.786 38.396L182.174 39.464C181.586 39.092 180.95 38.9 180.41 38.9C179.894 38.9 179.498 39.104 179.498 39.452C179.498 39.848 179.822 39.968 180.77 40.244C181.814 40.532 182.942 40.892 182.942 42.188C182.942 43.376 181.958 44.144 180.506 44.144ZM185.102 39.596C184.55 39.596 184.142 39.164 184.142 38.636C184.142 38.144 184.55 37.712 185.102 37.712C185.606 37.712 186.026 38.144 186.026 38.636C186.026 39.164 185.606 39.596 185.102 39.596ZM185.102 44.144C184.55 44.144 184.142 43.712 184.142 43.184C184.142 42.692 184.55 42.26 185.102 42.26C185.606 42.26 186.026 42.692 186.026 43.184C186.026 43.712 185.606 44.144 185.102 44.144Z" fill="#1C1C20"/>
<rect x="192" y="28" width="77" height="24" rx="6" fill="#D6EDFF"/>
<path d="M199.268 42.632H203.504V44H197.78V35.756H199.268V42.632ZM207.563 42.848C208.139 42.848 208.823 42.584 209.171 42.224L210.095 43.184C209.555 43.76 208.475 44.144 207.575 44.144C205.799 44.144 204.335 42.788 204.335 40.88C204.335 39.02 205.727 37.652 207.491 37.652C209.411 37.652 210.527 39.104 210.527 41.396H205.847C206.027 42.248 206.675 42.848 207.563 42.848ZM207.551 38.948C206.735 38.948 206.075 39.464 205.859 40.28H209.123C208.955 39.5 208.427 38.948 207.551 38.948ZM214.496 37.652C216.14 37.652 217.16 38.696 217.16 40.268V44H215.732V43.256C215.276 43.832 214.496 44.144 213.776 44.144C212.456 44.144 211.46 43.364 211.46 42.164C211.46 40.94 212.6 40.1 213.992 40.1C214.556 40.1 215.168 40.22 215.732 40.436V40.268C215.732 39.548 215.336 38.852 214.208 38.852C213.62 38.852 213.056 39.056 212.528 39.32L212.024 38.3C212.9 37.868 213.716 37.652 214.496 37.652ZM214.1 43.076C214.808 43.076 215.564 42.716 215.732 42.056V41.36C215.276 41.204 214.76 41.12 214.208 41.12C213.476 41.12 212.888 41.528 212.888 42.116C212.888 42.704 213.404 43.076 214.1 43.076ZM220.245 38.996C220.641 38.168 221.445 37.652 222.465 37.652V38.9C221.133 38.9 220.245 39.692 220.245 40.868V44H218.781V37.796H220.245V38.996ZM226.934 37.652C228.29 37.652 229.238 38.648 229.238 40.052V44H227.822V40.34C227.822 39.5 227.282 38.9 226.514 38.9C225.746 38.9 225.11 39.416 225.014 40.076V44H223.55V37.796H225.014V38.624C225.398 38.048 226.118 37.652 226.934 37.652ZM234.382 44V35.756H235.882L238.594 40.784L241.318 35.756H242.806V44H241.318V38.492L238.594 43.52L235.882 38.492V44H234.382ZM247.585 44.144C245.785 44.144 244.261 42.656 244.261 40.892C244.261 39.128 245.785 37.652 247.585 37.652C249.385 37.652 250.909 39.128 250.909 40.892C250.909 42.656 249.385 44.144 247.585 44.144ZM247.585 42.896C248.605 42.896 249.469 41.984 249.469 40.892C249.469 39.812 248.605 38.9 247.585 38.9C246.553 38.9 245.689 39.812 245.689 40.892C245.689 41.984 246.553 42.896 247.585 42.896ZM253.679 38.996C254.075 38.168 254.879 37.652 255.899 37.652V38.9C254.567 38.9 253.679 39.692 253.679 40.868V44H252.215V37.796H253.679V38.996ZM259.876 42.848C260.452 42.848 261.136 42.584 261.484 42.224L262.408 43.184C261.868 43.76 260.788 44.144 259.888 44.144C258.112 44.144 256.648 42.788 256.648 40.88C256.648 39.02 258.04 37.652 259.804 37.652C261.724 37.652 262.84 39.104 262.84 41.396H258.16C258.34 42.248 258.988 42.848 259.876 42.848ZM259.864 38.948C259.048 38.948 258.388 39.464 258.172 40.28H261.436C261.268 39.5 260.74 38.948 259.864 38.948Z" fill="#218AEF"/>
<path d="M197 45.596H263.308V45.836H197V45.596Z" fill="#218AEF"/>
<defs>
<linearGradient id="paint0_linear_12390_16574" x1="12.2885" y1="0.245117" x2="12.2885" y2="49.9764" gradientUnits="userSpaceOnUse">
<stop stop-color="#E237B7"/>
<stop offset="1" stop-color="#705CDE"/>
</linearGradient>
<linearGradient id="paint1_linear_12390_16574" x1="12.3351" y1="6.21191" x2="12.3351" y2="49.9809" gradientUnits="userSpaceOnUse">
<stop stop-color="#E237B7"/>
<stop offset="1" stop-color="#705CDE"/>
</linearGradient>
</defs>
</svg>
