<svg width="240" height="48" viewBox="0 0 240 48" fill="none" xmlns="http://www.w3.org/2000/svg">
<path opacity="0.396508" fill-rule="evenodd" clip-rule="evenodd" d="M11.7338 23.8682L7.81628 26.1225L5.94623 25.3413L1.58594 21.6435L11.7338 15.8038C11.8625 15.7326 12.0086 15.6967 12.155 15.6967C12.3013 15.6967 12.4474 15.7326 12.5761 15.8038L22.6671 21.6149L17.8999 25.7578L16.5287 26.1444L12.5761 23.8682C12.4474 23.7967 12.3013 23.7611 12.155 23.7611C12.0086 23.7611 11.8625 23.7967 11.7338 23.8682ZM13.6775 12.2534L10.0497 11.5992L1.58594 6.23073L11.7338 0.391336C11.8625 0.319797 12.0086 0.28418 12.155 0.28418C12.3013 0.28418 12.4474 0.319797 12.5761 0.391336L22.6671 6.20242L19.3865 9.57631L13.6775 12.2534ZM10.1093 43.9618L1.58594 37.7723L1.68575 37.7151L11.7338 31.9327C11.8625 31.8614 12.0086 31.8255 12.155 31.8255C12.3013 31.8255 12.4474 31.8614 12.5761 31.9327L22.6671 37.7437L20.3975 40.2138L15.9374 43.1886L10.1093 43.9618Z" fill="url(#paint0_linear_12419_13564)"/>
<path fill-rule="evenodd" clip-rule="evenodd" d="M0.546875 23.8246V23.254C0.58239 22.9764 0.670428 22.7011 0.814677 22.4432C1.01431 22.1004 1.27116 21.8435 1.58521 21.6438L1.68503 21.5865C2.34175 21.2437 3.1552 21.2294 3.84053 21.6291L9.7066 24.9991L11.2532 25.8892C11.8155 26.2131 12.5073 26.2131 13.0696 25.8892L20.4683 21.6291C21.1819 21.2151 22.0096 21.2437 22.6664 21.6151C22.9944 21.8005 23.2799 22.0861 23.4941 22.4432C23.9795 23.2855 23.8508 24.3135 23.2516 24.9991C23.0945 25.1702 22.8946 25.3272 22.6807 25.4557L13.503 30.7526C13.0891 30.9812 12.618 31.1097 12.1615 31.1097C11.6905 31.1097 11.2337 30.9812 10.8198 30.7526L1.62782 25.4557C1.41388 25.3272 1.21425 25.1702 1.07152 24.9991C0.781739 24.6677 0.602021 24.2563 0.546875 23.8246ZM0.546875 8.41185V7.84133C0.58239 7.56374 0.670428 7.28836 0.814677 7.03035C1.01431 6.68787 1.27116 6.43064 1.58521 6.23094L1.68503 6.17371C2.34175 5.83123 3.1552 5.81693 3.84053 6.21663L9.7066 9.58626L11.2532 10.4767C11.8155 10.8003 12.5073 10.8003 13.0696 10.4767L20.4683 6.21663C21.1819 5.80262 22.0096 5.83123 22.6664 6.20232C22.9944 6.38802 23.2799 6.67357 23.4941 7.03035C23.9795 7.87298 23.8508 8.90071 23.2516 9.58626C23.0945 9.75765 22.8946 9.91443 22.6807 10.0429L13.503 15.3401C13.0891 15.5687 12.618 15.6969 12.1615 15.6969C11.6905 15.6969 11.2337 15.5687 10.8198 15.3401L1.62782 10.0429C1.41388 9.91443 1.21425 9.75765 1.07152 9.58626C0.781739 9.25489 0.602021 8.84357 0.546875 8.41184V8.41185ZM0.546875 31.8889V31.3183C0.58239 31.0407 0.670428 30.7653 0.814677 30.5073C1.01431 30.1648 1.27116 29.9079 1.58521 29.7079L1.68503 29.6509C2.34175 29.3082 3.1552 29.2938 3.84053 29.6935L9.7066 33.0632L11.2532 33.9539C11.8155 34.2775 12.5073 34.2775 13.0696 33.9539L20.4683 29.6935C21.1819 29.2795 22.0096 29.3082 22.6664 29.6795C22.9944 29.8649 23.2799 30.1505 23.4941 30.5073C23.9795 31.3499 23.8508 32.3779 23.2516 33.0632C23.0945 33.2346 22.8946 33.3917 22.6807 33.5201L13.503 38.817C13.0891 39.0454 12.618 39.1738 12.1615 39.1738C11.6905 39.1738 11.2337 39.0454 10.8198 38.817L1.62782 33.5201C1.41388 33.3917 1.21425 33.2346 1.07152 33.0632C0.781739 32.732 0.602021 32.3206 0.546875 31.8889ZM12.4635 47.22H11.8537C11.492 47.177 11.1428 47.0596 10.8198 46.8811L1.62782 41.5842C1.41388 41.4558 1.21425 41.299 1.07152 41.1276C0.781739 40.7962 0.602021 40.3849 0.546875 39.9532V39.3828C0.58239 39.1052 0.670428 38.8299 0.814677 38.572C1.01431 38.2292 1.27116 37.9723 1.58521 37.7723L1.68503 37.715C2.34175 37.3726 3.1552 37.3583 3.84053 37.758L9.7066 41.1276L11.2532 42.018C11.8155 42.3416 12.5073 42.3416 13.0696 42.018L20.4683 37.758C21.1819 37.3439 22.0096 37.3726 22.6664 37.744C22.9944 37.9293 23.2799 38.2149 23.4941 38.572C23.9795 39.4143 23.8508 40.442 23.2516 41.1276C23.0945 41.299 22.8946 41.4558 22.6807 41.5842L13.503 46.8811C13.18 47.0596 12.8221 47.177 12.4635 47.22Z" fill="url(#paint1_linear_12419_13564)"/>
<path fill-rule="evenodd" clip-rule="evenodd" d="M31.791 4.76803C31.791 4.61121 31.8363 4.48004 31.927 4.37427C32.0173 4.26897 32.1499 4.21631 32.3252 4.21631H33.8269C33.893 4.21631 33.961 4.22982 34.0301 4.25683C34.0997 4.28385 34.1612 4.32322 34.2157 4.37427C34.2699 4.42578 34.3153 4.48462 34.3514 4.55078C34.3876 4.61762 34.4056 4.68996 34.4056 4.76803V15.1657C34.4056 15.5274 34.2157 15.7085 33.8358 15.7085H32.3341C31.972 15.7085 31.791 15.5274 31.791 15.1657V4.76803ZM31.791 0.761111C31.791 0.397803 31.9688 0.216264 32.3252 0.216264H33.8445C34.0136 0.216264 34.1493 0.262049 34.2519 0.352476C34.3544 0.443589 34.4056 0.579801 34.4056 0.761111V2.1143C34.4056 2.25395 34.3571 2.38558 34.2608 2.50966C34.1642 2.63374 34.0285 2.69601 33.8537 2.69601H32.3341C31.972 2.69601 31.791 2.5021 31.791 2.1143V0.761111ZM37.2281 4.47844C37.3004 4.38206 37.3695 4.32162 37.4361 4.29735C37.4844 4.24905 37.5567 4.22364 37.6535 4.22066C37.7499 4.21746 37.8403 4.21631 37.9247 4.21631H38.8383C39.0133 4.21631 39.1426 4.27355 39.2271 4.38778C39.312 4.5027 39.369 4.6293 39.3992 4.76803L39.4987 5.72746C39.6374 5.52212 39.8077 5.31997 40.0098 5.12081C40.2116 4.9221 40.4515 4.74376 40.7288 4.58695C41.0062 4.43013 41.3229 4.30354 41.6788 4.20716C42.0346 4.11055 42.4358 4.06225 42.8819 4.06225C43.5936 4.06225 44.2266 4.19022 44.7818 4.44662C45.3363 4.70324 45.8036 5.05465 46.184 5.50106C46.5636 5.94769 46.8515 6.47239 47.0479 7.07585C47.2435 7.67907 47.3415 8.32785 47.3415 9.02127V15.0569C47.3415 15.2742 47.2905 15.4367 47.1882 15.5455C47.0852 15.6542 46.9376 15.7085 46.7446 15.7085H45.3697C45.1285 15.7085 44.9674 15.6634 44.8859 15.5727C44.8044 15.4823 44.7635 15.3225 44.7635 15.0931V9.06637C44.7635 8.74679 44.7092 8.43453 44.6008 8.1296C44.4921 7.82513 44.3337 7.55225 44.1259 7.31073C43.9176 7.06967 43.6597 6.87668 43.3524 6.73177C43.0448 6.58686 42.6889 6.51452 42.2848 6.51452C42.0074 6.51452 41.7195 6.57038 41.4209 6.68186C41.1224 6.79381 40.8494 6.95177 40.6025 7.15712C40.3549 7.36224 40.1498 7.61131 39.9869 7.90365C39.8244 8.19622 39.7397 8.52656 39.734 8.89445V14.7584C39.734 14.8729 39.7278 14.9878 39.7159 15.1023C39.7036 15.2165 39.6779 15.3198 39.639 15.4097C39.5994 15.5004 39.5438 15.5727 39.4715 15.627C39.3992 15.6815 39.3056 15.7085 39.1909 15.7085H37.6984C37.4995 15.7085 37.3533 15.662 37.2597 15.5684C37.1663 15.4747 37.1194 15.3406 37.1194 15.1657V4.74994C37.1194 4.6657 37.1555 4.57504 37.2281 4.47844ZM49.9557 4.25248C49.9557 3.71542 50.0371 3.19804 50.2001 2.70059C50.363 2.20244 50.6013 1.76381 50.9148 1.38357C51.2283 1.00355 51.6125 0.700217 52.068 0.474265C52.5234 0.248085 53.0406 0.134766 53.6194 0.134766H53.71C53.8848 0.134766 54.0205 0.187877 54.1173 0.293183C54.2134 0.398948 54.2615 0.542257 54.2615 0.72288V1.97191C54.2615 2.14704 54.2151 2.2947 54.1219 2.41511C54.0279 2.53576 53.8999 2.59619 53.737 2.59619C53.6466 2.59619 53.5322 2.61909 53.3935 2.66419C53.2546 2.70951 53.1221 2.78025 52.9953 2.87663C52.8685 2.97324 52.76 3.09709 52.6698 3.24795C52.5792 3.39836 52.5341 3.57669 52.5341 3.78158V5.24763H53.8457C54.0205 5.24763 54.1562 5.29296 54.2526 5.38339C54.3494 5.47404 54.3974 5.62468 54.3974 5.83575V6.94902C54.3974 7.16009 54.3494 7.31851 54.2526 7.42382C54.1562 7.52958 54.0205 7.58246 53.8457 7.58246H52.5341V15.1206C52.5341 15.3133 52.4707 15.4596 52.344 15.5592C52.2172 15.6588 52.0787 15.7085 51.9281 15.7085H50.5255C50.3449 15.7085 50.2047 15.6531 50.1051 15.5409C50.0056 15.4294 49.9557 15.2891 49.9557 15.1206V7.58246H49.0599C48.8853 7.58246 48.7437 7.52958 48.635 7.42382C48.5265 7.31851 48.4722 7.16009 48.4722 6.94902V5.83575C48.4722 5.62468 48.5265 5.47404 48.635 5.38339C48.7437 5.29296 48.8853 5.24763 49.0599 5.24763H49.9557V4.25248ZM57.9163 9.95324C57.9163 10.4363 58.0009 10.893 58.1698 11.3243C58.3383 11.7554 58.5738 12.1342 58.8754 12.4595C59.1768 12.7855 59.531 13.0435 59.9384 13.2333C60.3453 13.4235 60.79 13.5186 61.2726 13.5186C61.761 13.5186 62.218 13.4235 62.6432 13.2333C63.068 13.0435 63.4375 12.7855 63.7515 12.4595C64.0651 12.1342 64.3122 11.7554 64.4928 11.3243C64.6738 10.893 64.7642 10.4363 64.7642 9.95324C64.7642 9.47661 64.6738 9.02288 64.4928 8.59158C64.3122 8.16005 64.0651 7.78163 63.7515 7.45564C63.4375 7.1301 63.068 6.87073 62.6432 6.67751C62.218 6.4843 61.761 6.38792 61.2726 6.38792C60.79 6.38792 60.3453 6.4843 59.9384 6.67751C59.531 6.87073 59.1768 7.1301 58.8754 7.45564C58.5738 7.78163 58.3383 8.16005 58.1698 8.59158C58.0009 9.02288 57.9163 9.47661 57.9163 9.95324ZM67.3246 15.1748C67.3246 15.2834 67.3019 15.3722 67.2566 15.4415C67.2115 15.5111 67.1527 15.5654 67.0804 15.6045C67.0079 15.6439 66.9248 15.6712 66.8314 15.6858C66.7378 15.7011 66.6401 15.7085 66.5376 15.7085H65.4066C65.2137 15.7085 65.0793 15.6574 65.004 15.5546C64.9285 15.4521 64.8729 15.3225 64.8367 15.1657L64.7825 14.3965C64.5715 14.6076 64.3376 14.8054 64.0813 14.989C63.825 15.173 63.549 15.333 63.2535 15.4686C62.9583 15.6045 62.6443 15.7098 62.3127 15.7856C61.9811 15.8607 61.6406 15.8987 61.2907 15.8987C60.7481 15.8987 60.2247 15.8273 59.7212 15.6858C59.2175 15.5443 58.7456 15.3452 58.3055 15.0888C57.8652 14.8324 57.4654 14.5233 57.1071 14.1612C56.748 13.7992 56.4404 13.3981 56.1841 12.9577C55.928 12.5172 55.7289 12.0436 55.5872 11.537C55.4454 11.0299 55.3746 10.5024 55.3746 9.95324C55.3746 9.40427 55.4454 8.87636 55.5872 8.36952C55.7289 7.8629 55.928 7.38925 56.1841 6.94902C56.4404 6.50856 56.748 6.10886 57.1071 5.75013C57.4654 5.39117 57.8652 5.08349 58.3055 4.82709C58.7456 4.57069 59.2175 4.3713 59.7212 4.22982C60.2247 4.08789 60.7481 4.01715 61.2907 4.01715C61.6768 4.01715 62.0445 4.05767 62.3942 4.13917C62.7439 4.22066 63.0714 4.33513 63.3758 4.48301C63.6801 4.63113 63.9621 4.80901 64.2216 5.0171C64.4809 5.22497 64.7161 5.45298 64.9271 5.70022L65.0539 4.73186C65.0841 4.62312 65.1127 4.53429 65.14 4.46493C65.167 4.39556 65.2002 4.33971 65.2393 4.29735C65.2787 4.25546 65.3283 4.22662 65.3885 4.21174C65.4492 4.1964 65.5242 4.18907 65.6146 4.18907H66.5195C66.6156 4.18907 66.7124 4.19823 66.8088 4.21631C66.9053 4.2344 66.9928 4.26279 67.0713 4.30193C67.1493 4.34131 67.2115 4.39556 67.2566 4.46493C67.3019 4.53429 67.3246 4.62037 67.3246 4.72293V15.1748ZM73.5844 15.7085C73.1079 15.7028 72.6598 15.63 72.241 15.4912C71.8218 15.3525 71.457 15.1517 71.1462 14.8887C70.8356 14.6261 70.5901 14.3031 70.4088 13.9194C70.2278 13.5364 70.1374 13.0996 70.1374 12.6109V6.49643H69.0975C68.922 6.49643 68.7913 6.45774 68.7037 6.37945C68.6165 6.30116 68.5725 6.17204 68.5725 5.99188V4.69363C68.5725 4.51941 68.6165 4.39648 68.7037 4.32414C68.7913 4.25203 68.922 4.21631 69.0975 4.21631H70.1374C70.1374 3.8965 70.1392 3.57784 70.142 3.26146C70.1452 2.94439 70.1466 2.62641 70.1466 2.3066C70.1466 2.18596 70.1843 2.09095 70.2596 2.02181C70.3349 1.95222 70.4509 1.89041 70.6082 1.83615C70.7107 1.79998 70.834 1.75649 70.9789 1.70498C71.1238 1.65393 71.273 1.60402 71.427 1.55549C71.5803 1.50741 71.7298 1.46667 71.8746 1.43324C72.0195 1.40028 72.1399 1.38357 72.2367 1.38357C72.4232 1.38357 72.5454 1.43484 72.6026 1.5374C72.6598 1.64042 72.6886 1.77572 72.6886 1.9449C72.6886 2.32469 72.687 2.70333 72.6843 3.08038C72.6809 3.45742 72.6795 3.83607 72.6795 4.21631H73.9823C74.1389 4.21631 74.2595 4.25661 74.3444 4.33765C74.4286 4.41914 74.4707 4.54666 74.4707 4.72087V5.95548C74.4707 6.148 74.4286 6.28651 74.3444 6.37029C74.2595 6.45431 74.1389 6.49643 73.9823 6.49643H72.6795C72.6795 6.88927 72.6795 7.22145 72.6795 7.49295C72.6795 7.76515 72.6795 8.00484 72.6795 8.21385C72.6795 8.42194 72.6809 8.61653 72.6843 8.79807C72.687 8.97915 72.6886 9.17557 72.6886 9.3871C72.6886 9.59794 72.6886 9.84015 72.6886 10.1119C72.6886 10.3839 72.6886 10.7158 72.6886 11.1086L72.6843 11.1448L72.6795 11.1812V12.368C72.6795 12.7668 72.7578 13.0536 72.915 13.229C73.0718 13.4039 73.3249 13.4913 73.675 13.4913C73.8013 13.4913 73.9006 13.5369 73.9732 13.6273C74.0455 13.718 74.0817 13.8265 74.0817 13.9528V15.211C74.0817 15.3678 74.0382 15.4901 73.9505 15.5773C73.8633 15.6648 73.7411 15.7085 73.5844 15.7085ZM76.0445 4.76803C76.0445 4.61121 76.0901 4.48004 76.1805 4.37427C76.2711 4.26897 76.4034 4.21631 76.5787 4.21631H78.0804C78.1465 4.21631 78.2145 4.22982 78.2836 4.25683C78.353 4.28385 78.415 4.32322 78.4692 4.37427C78.5234 4.42578 78.5688 4.48462 78.6049 4.55078C78.6411 4.61762 78.6592 4.68996 78.6592 4.76803V15.1657C78.6592 15.5274 78.4692 15.7085 78.0893 15.7085H76.5878C76.2256 15.7085 76.0445 15.5274 76.0445 15.1657V4.76803ZM76.0445 0.761111C76.0445 0.397803 76.2223 0.216264 76.5787 0.216264H78.098C78.2671 0.216264 78.4029 0.262049 78.5054 0.352476C78.6079 0.443589 78.6592 0.579801 78.6592 0.761111V2.1143C78.6592 2.25395 78.6106 2.38558 78.5143 2.50966C78.4177 2.63374 78.282 2.69601 78.1072 2.69601H76.5878C76.2256 2.69601 76.0445 2.5021 76.0445 2.1143V0.761111ZM89.0891 12.6951C89.1916 12.6289 89.2777 12.5882 89.3465 12.5729C89.4161 12.558 89.4752 12.5502 89.5232 12.5502C89.6255 12.5564 89.7132 12.6109 89.7855 12.7132L90.0029 13.0122L90.645 13.9258C90.675 13.9679 90.6995 14.0117 90.7176 14.057C90.7357 14.1021 90.7448 14.1431 90.7448 14.1792C90.7448 14.2758 90.7112 14.3619 90.645 14.4372C90.5784 14.5126 90.4913 14.5895 90.3828 14.6678C89.8701 15.0418 89.3168 15.3433 88.7227 15.5727C88.1284 15.8019 87.4757 15.9168 86.7642 15.9168C86.2273 15.9168 85.7073 15.8456 85.2036 15.7039C84.7002 15.5624 84.2299 15.3633 83.7925 15.1069C83.3552 14.8505 82.9559 14.5425 82.594 14.1838C82.232 13.8249 81.9201 13.4252 81.6578 12.9847C81.3951 12.5445 81.1932 12.0708 81.0516 11.564C80.9097 11.0571 80.839 10.5294 80.839 9.98048C80.839 9.43151 80.9097 8.90338 81.0516 8.39676C81.1932 7.89014 81.3951 7.41649 81.6578 6.97603C81.9201 6.53558 82.232 6.1361 82.594 5.77691C82.9559 5.41841 83.3552 5.1105 83.7925 4.85411C84.2299 4.59771 84.7002 4.39854 85.2036 4.25683C85.7073 4.1149 86.2273 4.04416 86.7642 4.04416C87.4336 4.04416 88.0668 4.14672 88.6636 4.35161C89.2609 4.55696 89.7914 4.83442 90.256 5.18422L90.2468 5.17529C90.3311 5.25999 90.4144 5.33371 90.4958 5.39712C90.5771 5.46031 90.618 5.55829 90.618 5.69129C90.618 5.72746 90.6162 5.76959 90.6135 5.81766C90.6103 5.86619 90.5938 5.91152 90.5638 5.95342L89.8219 7.08478C89.7008 7.2654 89.5683 7.35583 89.4234 7.35583C89.3211 7.35583 89.2067 7.305 89.0799 7.20267C88.7723 6.94284 88.4135 6.73177 88.0034 6.56877C87.5931 6.40601 87.1711 6.32474 86.7369 6.32474C86.2667 6.32474 85.825 6.42249 85.4119 6.61845C84.9986 6.81464 84.6352 7.0802 84.3214 7.41466C84.0081 7.74981 83.7607 8.13876 83.5797 8.58242C83.3991 9.02562 83.3087 9.49172 83.3087 9.98048C83.3087 10.4814 83.3991 10.9518 83.5797 11.392C83.7607 11.8325 84.0065 12.2157 84.3171 12.5413C84.6276 12.8673 84.991 13.1253 85.4075 13.315C85.8234 13.505 86.2667 13.6001 86.7369 13.6001C87.2496 13.6001 87.6929 13.5112 88.0668 13.3331C88.4405 13.1552 88.7815 12.9426 89.0891 12.6951ZM94.5254 9.95324C94.5254 10.4363 94.6104 10.893 94.779 11.3243C94.9477 11.7554 95.1829 12.1342 95.4848 12.4595C95.7862 12.7855 96.1405 13.0435 96.5476 13.2333C96.9547 13.4235 97.3994 13.5186 97.882 13.5186C98.3704 13.5186 98.8274 13.4235 99.2526 13.2333C99.6774 13.0435 100.047 12.7855 100.361 12.4595C100.674 12.1342 100.922 11.7554 101.102 11.3243C101.283 10.893 101.374 10.4363 101.374 9.95324C101.374 9.47661 101.283 9.02288 101.102 8.59158C100.922 8.16005 100.674 7.78163 100.361 7.45564C100.047 7.1301 99.6774 6.87073 99.2526 6.67751C98.8274 6.4843 98.3704 6.38792 97.882 6.38792C97.3994 6.38792 96.9547 6.4843 96.5476 6.67751C96.1405 6.87073 95.7862 7.1301 95.4848 7.45564C95.1829 7.78163 94.9477 8.16005 94.779 8.59158C94.6104 9.02288 94.5254 9.47661 94.5254 9.95324ZM103.934 15.1748C103.934 15.2834 103.911 15.3722 103.866 15.4415C103.821 15.5111 103.762 15.5654 103.69 15.6045C103.617 15.6439 103.534 15.6712 103.441 15.6858C103.347 15.7011 103.249 15.7085 103.147 15.7085H102.016C101.823 15.7085 101.689 15.6574 101.613 15.5546C101.538 15.4521 101.482 15.3225 101.446 15.1657L101.392 14.3965C101.181 14.6076 100.947 14.8054 100.691 14.989C100.434 15.173 100.158 15.333 99.863 15.4686C99.5677 15.6045 99.2538 15.7098 98.9219 15.7856C98.5905 15.8607 98.2498 15.8987 97.9001 15.8987C97.3573 15.8987 96.8341 15.8273 96.3304 15.6858C95.8269 15.5443 95.355 15.3452 94.915 15.0888C94.4746 14.8324 94.0748 14.5233 93.7162 14.1612C93.3572 13.7992 93.0498 13.3981 92.7935 12.9577C92.5372 12.5172 92.3381 12.0436 92.1967 11.537C92.0545 11.0299 91.9838 10.5024 91.9838 9.95324C91.9838 9.40427 92.0545 8.87636 92.1967 8.36952C92.3381 7.8629 92.5372 7.38925 92.7935 6.94902C93.0498 6.50856 93.3572 6.10886 93.7162 5.75013C94.0748 5.39117 94.4746 5.08349 94.915 4.82709C95.355 4.57069 95.8269 4.3713 96.3304 4.22982C96.8341 4.08789 97.3573 4.01715 97.9001 4.01715C98.2859 4.01715 98.6537 4.05767 99.0036 4.13917C99.3533 4.22066 99.6808 4.33513 99.9852 4.48301C100.29 4.63113 100.571 4.80901 100.831 5.0171C101.09 5.22497 101.326 5.45298 101.537 5.70022L101.663 4.73186C101.694 4.62312 101.722 4.53429 101.749 4.46493C101.776 4.39556 101.809 4.33971 101.848 4.29735C101.888 4.25546 101.938 4.22662 101.998 4.21174C102.058 4.1964 102.133 4.18907 102.224 4.18907H103.129C103.225 4.18907 103.322 4.19823 103.418 4.21631C103.515 4.2344 103.602 4.26279 103.68 4.30193C103.759 4.34131 103.821 4.39556 103.866 4.46493C103.911 4.53429 103.934 4.62037 103.934 4.72293V15.1748ZM105.307 13.962C105.307 13.7933 105.33 13.6484 105.375 13.5277C105.42 13.4071 105.53 13.3466 105.706 13.3466H107.126C107.198 13.3466 107.272 13.3498 107.347 13.3558C107.423 13.362 107.492 13.3782 107.555 13.4055C107.619 13.4325 107.671 13.4721 107.714 13.5231C107.756 13.5746 107.777 13.6484 107.777 13.745V15.0842C107.777 15.1684 107.774 15.2472 107.768 15.3198C107.762 15.3916 107.745 15.4583 107.718 15.5185C107.691 15.5787 107.65 15.6258 107.596 15.6588C107.542 15.6922 107.466 15.7085 107.37 15.7085H105.95C105.738 15.7085 105.579 15.6858 105.47 15.6407C105.362 15.5954 105.307 15.4823 105.307 15.3017V13.962ZM109.063 10.1039C109.063 10.0237 109.086 9.95621 109.133 9.90242C109.18 9.84839 109.247 9.82115 109.337 9.82115H110.106C110.14 9.82115 110.175 9.82824 110.21 9.84175C110.246 9.85571 110.277 9.87586 110.305 9.90242C110.333 9.92874 110.356 9.95873 110.375 9.99238C110.394 10.0267 110.402 10.0638 110.402 10.1039V15.4303C110.402 15.616 110.305 15.7085 110.111 15.7085H109.342C109.156 15.7085 109.063 15.616 109.063 15.4303V10.1039ZM109.063 8.05131C109.063 7.86496 109.154 7.77202 109.337 7.77202H110.115C110.202 7.77202 110.271 7.79537 110.324 7.84207C110.376 7.88854 110.402 7.9579 110.402 8.05131V8.7445C110.402 8.8157 110.378 8.88323 110.329 8.9471C110.279 9.01051 110.21 9.04211 110.12 9.04211H109.342C109.156 9.04211 109.063 8.94298 109.063 8.7445V8.05131ZM112.882 12.7743C112.882 13.0216 112.925 13.2557 113.012 13.4762C113.099 13.6973 113.219 13.8899 113.373 14.0536C113.528 14.2175 113.711 14.3473 113.923 14.4432C114.134 14.5389 114.365 14.5867 114.615 14.5867C114.86 14.5867 115.086 14.5389 115.294 14.4432C115.503 14.3473 115.683 14.2175 115.834 14.0536C115.986 13.8899 116.103 13.6973 116.189 13.4762C116.274 13.2557 116.316 13.0216 116.316 12.7743C116.316 12.53 116.274 12.2968 116.189 12.074C116.103 11.8513 115.986 11.6565 115.834 11.4875C115.683 11.3192 115.503 11.1846 115.294 11.0844C115.086 10.9839 114.86 10.9335 114.615 10.9335C114.365 10.9335 114.134 10.9839 113.923 11.0844C113.711 11.1846 113.528 11.3192 113.373 11.4875C113.219 11.6565 113.099 11.8513 113.012 12.074C112.925 12.2968 112.882 12.53 112.882 12.7743ZM111.575 12.7743C111.575 12.493 111.612 12.2217 111.684 11.9605C111.756 11.6995 111.86 11.4559 111.992 11.2302C112.125 11.0049 112.284 10.7998 112.469 10.616C112.654 10.4324 112.86 10.2747 113.085 10.1435C113.311 10.0118 113.552 9.9102 113.81 9.83717C114.068 9.76483 114.337 9.7282 114.617 9.7282C114.896 9.7282 115.164 9.76483 115.424 9.83717C115.683 9.9102 115.924 10.0118 116.148 10.1435C116.372 10.2747 116.576 10.4324 116.762 10.616C116.947 10.7998 117.106 11.0049 117.239 11.2302C117.371 11.4559 117.474 11.6995 117.547 11.9605C117.619 12.2217 117.655 12.493 117.655 12.7743C117.655 13.0552 117.619 13.3258 117.547 13.5852C117.474 13.845 117.371 14.087 117.239 14.3109C117.106 14.5348 116.947 14.7397 116.762 14.9249C116.576 15.1107 116.372 15.2689 116.148 15.4001C115.924 15.5315 115.683 15.6336 115.424 15.706C115.164 15.779 114.896 15.8152 114.617 15.8152C114.337 15.8152 114.068 15.779 113.81 15.706C113.552 15.6336 113.311 15.5315 113.085 15.4001C112.86 15.2689 112.654 15.1107 112.469 14.9249C112.284 14.7397 112.125 14.5348 111.992 14.3109C111.86 14.087 111.756 13.845 111.684 13.5852C111.612 13.3258 111.575 13.0552 111.575 12.7743Z" fill="#1C1C20"/>
<path fill-rule="evenodd" clip-rule="evenodd" d="M33.8108 24.6233C33.497 24.6233 33.216 24.57 32.9682 24.4641C32.7207 24.3586 32.5087 24.2125 32.3329 24.027C32.1567 23.842 32.0224 23.6243 31.93 23.3743C31.8372 23.1248 31.791 22.8577 31.791 22.574C31.791 22.3016 31.8392 22.0406 31.9357 21.7907C32.0318 21.5408 32.1671 21.3214 32.3413 21.1324C32.5151 20.9428 32.7244 20.7927 32.9682 20.6808C33.2123 20.5693 33.4836 20.5136 33.7827 20.5136C33.9491 20.5136 34.1012 20.5247 34.2395 20.5478C34.3775 20.5703 34.5061 20.6041 34.6253 20.6497C34.7445 20.6952 34.8561 20.7512 34.9602 20.8172C35.064 20.8832 35.1652 20.9582 35.2636 21.0413L34.9743 21.382C34.8986 21.314 34.8192 21.2524 34.7358 21.1974C34.6528 21.1428 34.563 21.0952 34.4662 21.0554C34.3698 21.0158 34.2639 20.9847 34.1487 20.9619C34.0332 20.9395 33.9056 20.9277 33.7656 20.9277C33.5462 20.9277 33.3436 20.9713 33.1584 21.0587C32.9729 21.1458 32.8141 21.2634 32.6819 21.4115C32.5492 21.5592 32.4454 21.7328 32.3697 21.9314C32.294 22.1304 32.2562 22.3418 32.2562 22.5656C32.2562 22.8045 32.293 23.0253 32.3667 23.2283C32.4407 23.431 32.5456 23.6058 32.6819 23.7539C32.8182 23.9017 32.9826 24.0176 33.1755 24.1007C33.3684 24.1841 33.5858 24.2259 33.8279 24.2259C34.055 24.2259 34.2686 24.1871 34.4692 24.109C34.6695 24.0313 34.838 23.9372 34.9743 23.8269V22.8353H33.7656V22.4376H35.4056V24.0176C35.2201 24.1834 34.992 24.3261 34.7218 24.4447C34.4512 24.5636 34.1477 24.6233 33.8108 24.6233ZM36.7787 24.5553V20.4111H37.2158V24.5553H36.7787ZM39.9677 24.6233C39.7483 24.6233 39.5457 24.5824 39.3605 24.501C39.1753 24.4199 39.0146 24.31 38.8783 24.172C38.7419 24.034 38.6361 23.8718 38.5604 23.6866C38.4847 23.5013 38.4469 23.3043 38.4469 23.0963C38.4469 22.8882 38.4847 22.6902 38.5604 22.503C38.6361 22.3157 38.7419 22.1522 38.8783 22.0122C39.0146 21.8721 39.1763 21.7616 39.3635 21.6798C39.5507 21.5984 39.7557 21.5579 39.9791 21.5579C40.1984 21.5579 40.4017 21.5984 40.5889 21.6798C40.7765 21.7616 40.9382 21.8711 41.0742 22.0092C41.2105 22.1475 41.3164 22.309 41.392 22.4946C41.4677 22.6802 41.5056 22.8768 41.5056 23.0849C41.5056 23.2933 41.4667 23.4909 41.389 23.6779C41.3117 23.8655 41.2048 24.029 41.0685 24.169C40.9326 24.309 40.7698 24.4199 40.5806 24.501C40.3914 24.5824 40.1871 24.6233 39.9677 24.6233ZM39.9677 21.9438C39.809 21.9438 39.6633 21.973 39.531 22.0316C39.3984 22.0902 39.2858 22.1713 39.1931 22.2752C39.1003 22.379 39.0276 22.5 38.9747 22.6376C38.9218 22.7753 38.8953 22.9234 38.8953 23.0822C38.8953 23.2407 38.9228 23.3898 38.9774 23.5295C39.0323 23.6692 39.108 23.7898 39.2045 23.8919C39.3009 23.9938 39.4154 24.0749 39.5477 24.1355C39.68 24.1958 39.824 24.2259 39.9791 24.2259C40.1382 24.2259 40.2835 24.1965 40.4161 24.1382C40.5484 24.0799 40.662 23.9995 40.7564 23.8976C40.8508 23.7955 40.9249 23.6755 40.9778 23.5378C41.0307 23.4001 41.0571 23.2521 41.0571 23.0933C41.0571 22.9351 41.0297 22.7857 40.9751 22.646C40.9202 22.5063 40.8435 22.3847 40.7453 22.2809C40.6469 22.1773 40.5313 22.0949 40.3991 22.0346C40.2664 21.974 40.1228 21.9438 39.9677 21.9438ZM44.2521 24.6176C44.1158 24.6176 43.9909 24.6005 43.8777 24.5667C43.7642 24.5325 43.6617 24.4869 43.5713 24.43C43.4805 24.3734 43.3981 24.3074 43.3241 24.2316C43.2504 24.1559 43.1851 24.0765 43.1285 23.9931V24.5553H42.6915V20.4111H43.1285V22.2105C43.1888 22.1237 43.2561 22.0406 43.3298 21.9609C43.4038 21.8815 43.4859 21.8125 43.577 21.7539C43.6677 21.6949 43.7685 21.648 43.8804 21.6118C43.9919 21.576 44.1158 21.5579 44.2521 21.5579C44.4259 21.5579 44.5971 21.5921 44.7655 21.6601C44.934 21.7281 45.0844 21.8276 45.2166 21.9582C45.3493 22.0886 45.4551 22.2487 45.5345 22.4376C45.6138 22.6273 45.6537 22.8427 45.6537 23.0849C45.6537 23.3271 45.6138 23.5429 45.5345 23.7318C45.4551 23.9214 45.3503 24.0809 45.2193 24.2115C45.0891 24.3422 44.9397 24.4427 44.7712 24.5127C44.6028 24.5824 44.4296 24.6176 44.2521 24.6176ZM44.1724 21.9556C44.0364 21.9556 43.9048 21.9827 43.7782 22.0373C43.6513 22.0919 43.5378 22.168 43.4376 22.2658C43.3375 22.3636 43.2578 22.4825 43.1995 22.6219C43.1406 22.7613 43.1114 22.9154 43.1114 23.0849C43.1114 23.2544 43.1406 23.4095 43.1995 23.5509C43.2578 23.6919 43.3375 23.8119 43.4376 23.9097C43.5378 24.0075 43.6513 24.0836 43.7782 24.1382C43.9048 24.1928 44.0364 24.2199 44.1724 24.2199C44.3124 24.2199 44.4457 24.1948 44.5726 24.1439C44.6992 24.0933 44.8091 24.0199 44.9018 23.9238C44.9946 23.828 45.0683 23.709 45.1232 23.5676C45.1778 23.4266 45.2053 23.2678 45.2053 23.0906C45.2053 22.9174 45.1778 22.7613 45.1232 22.6219C45.0683 22.4825 44.9936 22.3629 44.8988 22.2634C44.8044 22.1636 44.6949 22.0869 44.5696 22.0343C44.445 21.9817 44.3124 21.9556 44.1724 21.9556ZM47.7304 24.6176C47.5941 24.6176 47.4608 24.5985 47.3306 24.5606C47.2 24.5231 47.0824 24.4651 46.9786 24.3874C46.8744 24.31 46.7914 24.2146 46.7291 24.101C46.6664 23.9874 46.6353 23.8534 46.6353 23.698C46.6353 23.5429 46.6654 23.4058 46.7261 23.2862C46.7867 23.1673 46.8724 23.0678 46.9843 22.9884C47.0958 22.9087 47.2281 22.8484 47.3815 22.8068C47.5345 22.7653 47.704 22.7442 47.8895 22.7442C48.0784 22.7442 48.2432 22.7556 48.3832 22.7783C48.5228 22.8011 48.6591 22.8313 48.7914 22.8691V22.7673C48.7914 22.5023 48.7151 22.3026 48.5617 22.168C48.4086 22.0339 48.1939 21.9666 47.9176 21.9666C47.7438 21.9666 47.5858 21.9864 47.4438 22.0262C47.3021 22.0661 47.1631 22.118 47.0268 22.1824L46.8962 21.8246C47.059 21.7492 47.2234 21.6895 47.3898 21.646C47.5563 21.6024 47.7475 21.5807 47.9632 21.5807C48.3641 21.5807 48.6725 21.6798 48.8882 21.8785C49.1039 22.0775 49.2114 22.3716 49.2114 22.7613V24.5553H48.7914V24.1124C48.6896 24.245 48.5523 24.362 48.3802 24.4641C48.208 24.5667 47.9913 24.6176 47.7304 24.6176ZM47.9377 23.0678C47.6625 23.0678 47.4511 23.1227 47.3041 23.2323C47.1571 23.3422 47.0834 23.4919 47.0834 23.6809C47.0834 23.7754 47.1032 23.8588 47.143 23.9305C47.1825 24.0025 47.2361 24.0641 47.3041 24.1151C47.3721 24.166 47.4501 24.2052 47.5389 24.2316C47.6273 24.2581 47.7207 24.2712 47.8189 24.2712C47.9545 24.2712 48.0818 24.2514 48.2006 24.2115C48.3192 24.172 48.423 24.1171 48.5118 24.0471C48.6002 23.977 48.6702 23.8939 48.7207 23.7975C48.7717 23.701 48.7971 23.5938 48.7971 23.4765V23.1928C48.6879 23.1623 48.5623 23.1341 48.421 23.1077C48.2797 23.0812 48.1186 23.0678 47.9377 23.0678ZM50.5788 24.5553V20.4111H51.0158V24.5553H50.5788ZM55.0504 24.5553H54.602V20.5817H56.089C56.312 20.5817 56.5153 20.6108 56.6988 20.6698C56.8824 20.7284 57.0391 20.8115 57.1697 20.9194C57.3003 21.0272 57.4005 21.1599 57.4708 21.3167C57.5404 21.4738 57.5756 21.6507 57.5756 21.8473C57.5756 22.0631 57.5338 22.2524 57.4507 22.4152C57.3673 22.5777 57.2548 22.714 57.1131 22.8236C56.9711 22.9338 56.8057 23.0159 56.6164 23.0708C56.4272 23.1258 56.227 23.1529 56.015 23.1529H55.0504V24.5553ZM55.0504 20.9957V22.7442H56.0347C56.1978 22.7442 56.3468 22.7237 56.4815 22.6819C56.6161 22.6403 56.7317 22.5807 56.8284 22.503C56.9252 22.4256 56.9992 22.3328 57.0505 22.2249C57.1017 22.117 57.1272 21.9971 57.1272 21.8644C57.1272 21.577 57.0297 21.3602 56.8341 21.2145C56.6389 21.0688 56.38 20.9957 56.0575 20.9957H55.0504ZM59.9759 24.6233C59.7753 24.6233 59.586 24.5861 59.4085 24.5127C59.2307 24.4387 59.075 24.3345 58.942 24.2005C58.8084 24.0661 58.7026 23.9043 58.6239 23.715C58.5455 23.5258 58.5063 23.3177 58.5063 23.0906C58.5063 22.8789 58.5411 22.6792 58.6111 22.4916C58.6811 22.3046 58.7786 22.1415 58.9035 22.0035C59.0281 21.8654 59.1768 21.7566 59.3489 21.6772C59.5211 21.5974 59.7093 21.5579 59.9136 21.5579C60.1289 21.5579 60.3222 21.5984 60.4923 21.6798C60.6624 21.7616 60.8061 21.8721 60.9233 22.0122C61.0409 22.1522 61.1296 22.3167 61.1902 22.506C61.2508 22.6953 61.281 22.8976 61.281 23.1134V23.1757L61.2753 23.2494H58.9544C58.9695 23.4085 59.0073 23.5496 59.0679 23.6725C59.1286 23.7955 59.2059 23.8993 59.3007 23.9844C59.3951 24.0698 59.501 24.1342 59.6182 24.1774C59.7357 24.2209 59.8587 24.243 59.9873 24.243C60.1915 24.243 60.3664 24.2052 60.512 24.1295C60.6577 24.0534 60.791 23.9536 60.9123 23.8286L61.1845 24.0725C61.0368 24.239 60.8687 24.3727 60.6795 24.4725C60.4903 24.573 60.2558 24.6233 59.9759 24.6233ZM59.9022 21.9271C59.7743 21.9271 59.6557 21.9525 59.5469 22.0035C59.4377 22.0547 59.3419 22.1247 59.2592 22.2135C59.1765 22.3026 59.1088 22.4075 59.0559 22.5288C59.0033 22.6497 58.9695 22.782 58.9544 22.9258H60.8326C60.8215 22.7938 60.794 22.6668 60.7508 22.5455C60.7076 22.4246 60.6477 22.3187 60.5703 22.2276C60.4933 22.1371 60.3995 22.0641 60.2887 22.0092C60.1775 21.9545 60.0489 21.9271 59.9022 21.9271ZM63.7325 24.6233C63.5319 24.6233 63.3427 24.5861 63.1648 24.5127C62.9873 24.4387 62.8316 24.3345 62.6983 24.2005C62.565 24.0661 62.4592 23.9043 62.3805 23.715C62.3021 23.5258 62.2626 23.3177 62.2626 23.0906C62.2626 22.8789 62.2978 22.6792 62.3678 22.4916C62.4377 22.3046 62.5352 22.1415 62.6601 22.0035C62.7847 21.8654 62.9334 21.7566 63.1055 21.6772C63.2774 21.5974 63.4656 21.5579 63.6702 21.5579C63.8855 21.5579 64.0784 21.5984 64.2489 21.6798C64.419 21.7616 64.5627 21.8721 64.6799 22.0122C64.7971 22.1522 64.8862 22.3167 64.9468 22.506C65.0071 22.6953 65.0376 22.8976 65.0376 23.1134V23.1757L65.0319 23.2494H62.711C62.7261 23.4085 62.7639 23.5496 62.8246 23.6725C62.8848 23.7955 62.9625 23.8993 63.0573 23.9844C63.1518 24.0698 63.2576 24.1342 63.3748 24.1774C63.492 24.2209 63.6153 24.243 63.7439 24.243C63.9482 24.243 64.123 24.2052 64.2687 24.1295C64.4144 24.0534 64.5476 23.9536 64.6689 23.8286L64.9412 24.0725C64.7935 24.239 64.6253 24.3727 64.4361 24.4725C64.2469 24.573 64.0125 24.6233 63.7325 24.6233ZM63.6588 21.9271C63.5309 21.9271 63.4123 21.9525 63.3031 22.0035C63.1943 22.0547 63.0985 22.1247 63.0158 22.2135C62.9331 22.3026 62.8651 22.4075 62.8125 22.5288C62.7599 22.6497 62.7261 22.782 62.711 22.9258H64.5892C64.5781 22.7938 64.5507 22.6668 64.5075 22.5455C64.4643 22.4246 64.4043 22.3187 64.3269 22.2276C64.2499 22.1371 64.1558 22.0641 64.045 22.0092C63.9341 21.9545 63.8052 21.9271 63.6588 21.9271ZM66.6378 24.5553H66.2007V21.6205H66.6378V22.3867C66.6907 22.2654 66.757 22.1542 66.8364 22.0517C66.9161 21.9495 67.0068 21.8614 67.1087 21.788C67.2108 21.714 67.3223 21.6584 67.4436 21.6205C67.5534 21.586 67.6706 21.5689 67.7959 21.5689C67.8089 21.5689 67.822 21.5689 67.8351 21.5693V22.0406H67.8012C67.6422 22.0406 67.4918 22.0691 67.3498 22.1257C67.2081 22.1824 67.0842 22.2675 66.9784 22.381C66.8722 22.4946 66.7892 22.6356 66.7285 22.8038C66.6679 22.9723 66.6378 23.1663 66.6378 23.3857V24.5553ZM68.7771 23.0792V22.6196H70.3545V23.0792H68.7771ZM72.5904 24.6062C72.4728 24.6062 72.3633 24.5911 72.2612 24.5606C72.159 24.5305 72.0709 24.4822 71.9972 24.4159C71.9236 24.3499 71.8656 24.2635 71.8241 24.1576C71.7826 24.0517 71.7618 23.9251 71.7618 23.7774V22.0065H71.3532V21.6205H71.7618V20.7348H72.1989V21.6205H73.1292V22.0065H72.1989V23.7204C72.1989 23.9023 72.2441 24.029 72.3348 24.101C72.4256 24.173 72.5448 24.2089 72.6925 24.2089C72.7682 24.2089 72.8389 24.2015 72.9052 24.1861C72.9715 24.171 73.0421 24.1445 73.1182 24.1067V24.4812C73.0421 24.5231 72.9618 24.5543 72.8767 24.575C72.7916 24.5958 72.6962 24.6062 72.5904 24.6062ZM75.5526 24.6233C75.3329 24.6233 75.1303 24.5824 74.9451 24.501C74.7599 24.4199 74.5991 24.31 74.4628 24.172C74.3265 24.034 74.2207 23.8718 74.145 23.6866C74.0693 23.5013 74.0315 23.3043 74.0315 23.0963C74.0315 22.8882 74.0693 22.6902 74.145 22.503C74.2207 22.3157 74.3265 22.1522 74.4628 22.0122C74.5991 21.8721 74.7605 21.7616 74.9478 21.6798C75.1353 21.5984 75.3403 21.5579 75.5636 21.5579C75.7827 21.5579 75.9863 21.5984 76.1738 21.6798C76.361 21.7616 76.5225 21.8711 76.6584 22.0092C76.7954 22.1475 76.9006 22.309 76.9766 22.4946C77.0523 22.6802 77.0901 22.8768 77.0901 23.0849C77.0901 23.2933 77.0509 23.4909 76.9739 23.6779C76.8959 23.8655 76.7894 24.029 76.6534 24.169C76.5168 24.309 76.3544 24.4199 76.1655 24.501C75.9756 24.5824 75.7716 24.6233 75.5526 24.6233ZM75.5526 21.9438C75.3935 21.9438 75.2478 21.973 75.1152 22.0316C74.9829 22.0902 74.8704 22.1713 74.7776 22.2752C74.6849 22.379 74.6122 22.5 74.5593 22.6376C74.5063 22.7753 74.4799 22.9234 74.4799 23.0822C74.4799 23.2407 74.5074 23.3898 74.5619 23.5295C74.6169 23.6692 74.6926 23.7898 74.789 23.8919C74.8855 23.9938 75 24.0749 75.1323 24.1355C75.2646 24.1958 75.4086 24.2259 75.5636 24.2259C75.7224 24.2259 75.8677 24.1965 76.0007 24.1382C76.1326 24.0799 76.2465 23.9995 76.3413 23.8976C76.4354 23.7955 76.5094 23.6755 76.5623 23.5378C76.6152 23.4001 76.6417 23.2521 76.6417 23.0933C76.6417 22.9351 76.6142 22.7857 76.56 22.646C76.5047 22.5063 76.4277 22.3847 76.3296 22.2809C76.2314 22.1773 76.1156 22.0949 75.9836 22.0346C75.8507 21.974 75.7077 21.9438 75.5526 21.9438ZM78.1571 23.0792V22.6196H79.7345V23.0792H78.1571ZM82.824 24.5553H81.0624V20.5817H82.75C82.9466 20.5817 83.1238 20.6051 83.2825 20.6527C83.4409 20.6999 83.5769 20.7662 83.6901 20.8513C83.8033 20.9364 83.8904 21.0403 83.951 21.1632C84.0109 21.2865 84.0414 21.4239 84.0414 21.575C84.0414 21.7076 84.0237 21.8229 83.9875 21.921C83.952 22.0195 83.9034 22.1066 83.8435 22.1824C83.7829 22.2581 83.7159 22.3217 83.6422 22.3726C83.5685 22.4236 83.4925 22.4661 83.4128 22.5003C83.53 22.5341 83.6405 22.5787 83.7443 22.6336C83.8482 22.6886 83.9379 22.7536 84.0133 22.8293C84.089 22.9053 84.1496 22.9961 84.1945 23.102C84.24 23.2078 84.2624 23.3288 84.2624 23.4655C84.2624 23.6353 84.2286 23.7888 84.161 23.9251C84.093 24.0615 83.9955 24.176 83.8693 24.2685C83.7427 24.361 83.5906 24.432 83.4128 24.4812C83.2356 24.5305 83.039 24.5553 82.824 24.5553ZM81.5105 22.7502V24.1576H82.8408C83.1429 24.1576 83.3806 24.095 83.5538 23.9697C83.7276 23.844 83.8147 23.6675 83.8147 23.4393C83.8147 23.2192 83.7256 23.049 83.5484 22.9294C83.3709 22.8102 83.1087 22.7502 82.7614 22.7502H81.5105ZM81.5105 20.979V22.3525H82.682C82.95 22.3525 83.1686 22.2919 83.3384 22.1703C83.5082 22.0487 83.593 21.8701 83.593 21.6346C83.593 21.4329 83.5176 21.2735 83.3669 21.1555C83.2155 21.0376 82.9988 20.979 82.7159 20.979H81.5105ZM86.5609 24.6176C86.3827 24.6176 86.225 24.5891 86.087 24.5325C85.949 24.4755 85.8315 24.3951 85.735 24.2909C85.6386 24.1871 85.5649 24.0631 85.514 23.9194C85.4624 23.7754 85.437 23.6166 85.437 23.4423V21.6205H85.874V23.3348C85.874 23.6068 85.944 23.8229 86.084 23.9821C86.224 24.1405 86.4242 24.2199 86.6855 24.2199C86.8104 24.2199 86.9269 24.1985 87.0344 24.1549C87.1423 24.1114 87.2347 24.0491 87.3127 23.9677C87.3901 23.8862 87.4517 23.7888 87.4973 23.6755C87.5422 23.5619 87.5653 23.437 87.5653 23.3006V21.6205H87.9963V24.5553H87.5653V24.044C87.4668 24.2032 87.3382 24.3385 87.1791 24.4501C87.0204 24.5616 86.8144 24.6176 86.5609 24.6176ZM90.3456 24.6119C90.1336 24.6119 89.92 24.573 89.7043 24.4956C89.4886 24.4179 89.2977 24.3131 89.1313 24.1804L89.3526 23.8685C89.5114 23.9894 89.6765 24.0819 89.849 24.1466C90.0211 24.2109 90.1939 24.243 90.3681 24.243C90.5459 24.243 90.6916 24.2015 90.8051 24.1181C90.9187 24.035 90.9753 23.9214 90.9753 23.7774V23.766C90.9753 23.6943 90.9555 23.632 90.916 23.5787C90.8761 23.5258 90.8219 23.4795 90.7539 23.4397C90.6859 23.3998 90.6075 23.365 90.5184 23.3348C90.4297 23.3043 90.3379 23.2758 90.2435 23.2494C90.13 23.2155 90.0154 23.1787 89.9002 23.1388C89.7847 23.0993 89.6805 23.0487 89.5881 22.9884C89.4953 22.9278 89.4196 22.8524 89.361 22.7613C89.3021 22.6705 89.2729 22.5572 89.2729 22.4206V22.4095C89.2729 22.2845 89.2977 22.17 89.3466 22.0661C89.3962 21.9619 89.4652 21.8731 89.5539 21.7991C89.6427 21.7254 89.7485 21.6684 89.8717 21.6289C89.9947 21.589 90.1279 21.5693 90.2716 21.5693C90.4535 21.5693 90.637 21.5984 90.8219 21.6574C91.0074 21.716 91.1759 21.7944 91.3272 21.8929L91.1283 22.2222C90.9923 22.1351 90.8493 22.0661 90.7 22.0149C90.5506 21.9639 90.4039 21.9381 90.2606 21.9381C90.0864 21.9381 89.9484 21.979 89.846 22.0601C89.7441 22.1415 89.6929 22.243 89.6929 22.3639V22.3753C89.6929 22.4437 89.7137 22.503 89.7555 22.5542C89.7971 22.6051 89.8527 22.6497 89.9227 22.6876C89.9926 22.7254 90.073 22.7596 90.1641 22.7897C90.2545 22.8202 90.349 22.8504 90.4474 22.8805C90.561 22.9147 90.6735 22.9522 90.7854 22.9941C90.8969 23.0356 90.998 23.0889 91.0888 23.1529C91.1799 23.2172 91.2526 23.2949 91.3075 23.3857C91.3621 23.4765 91.3899 23.5884 91.3899 23.7204V23.7318C91.3899 23.8718 91.3621 23.9961 91.3075 24.104C91.2526 24.2115 91.1789 24.3033 91.0861 24.3791C90.9933 24.4551 90.8835 24.5127 90.7569 24.5523C90.63 24.5921 90.493 24.6119 90.3456 24.6119ZM92.6624 24.5553V21.6205H93.1259V24.5553H92.6624ZM92.6096 20.979V20.4962H93.0731V20.979H92.6096ZM97.0531 24.5553H96.616V22.8407C96.616 22.5683 96.5457 22.3525 96.4061 22.1937C96.2661 22.0346 96.0658 21.9556 95.8042 21.9556C95.6797 21.9556 95.5634 21.977 95.4553 22.0205C95.3478 22.0641 95.254 22.1264 95.1746 22.2082C95.0952 22.2892 95.0336 22.3867 94.9904 22.5003C94.9469 22.6139 94.9248 22.7388 94.9248 22.8748V24.5553H94.4881V21.6205H94.9248V22.1311C95.0232 21.9723 95.1518 21.837 95.3109 21.7254C95.4697 21.6138 95.676 21.5579 95.9292 21.5579C96.1073 21.5579 96.2651 21.5864 96.403 21.643C96.5414 21.6999 96.6586 21.7803 96.755 21.8845C96.8515 21.9884 96.9252 22.1123 96.9761 22.2561C97.0273 22.4001 97.0531 22.5589 97.0531 22.7331V24.5553ZM99.6687 24.6233C99.4681 24.6233 99.2789 24.5861 99.1014 24.5127C98.9235 24.4387 98.7678 24.3345 98.6345 24.2005C98.5012 24.0661 98.3954 23.9043 98.3167 23.715C98.2383 23.5258 98.1991 23.3177 98.1991 23.0906C98.1991 22.8789 98.234 22.6792 98.304 22.4916C98.374 22.3046 98.4714 22.1415 98.596 22.0035C98.7209 21.8654 98.8696 21.7566 99.0414 21.6772C99.2139 21.5974 99.4018 21.5579 99.6064 21.5579C99.8217 21.5579 100.015 21.5984 100.185 21.6798C100.355 21.7616 100.499 21.8721 100.616 22.0122C100.734 22.1522 100.823 22.3167 100.883 22.506C100.944 22.6953 100.974 22.8976 100.974 23.1134V23.1757L100.968 23.2494H98.6476C98.6626 23.4085 98.7002 23.5496 98.7608 23.6725C98.8214 23.7955 98.8991 23.8993 98.9935 23.9844C99.088 24.0698 99.1938 24.1342 99.3114 24.1774C99.4286 24.2209 99.5515 24.243 99.6801 24.243C99.8844 24.243 100.059 24.2052 100.205 24.1295C100.351 24.0534 100.484 23.9536 100.605 23.8286L100.877 24.0725C100.73 24.239 100.561 24.3727 100.372 24.4725C100.183 24.573 99.9487 24.6233 99.6687 24.6233ZM99.595 21.9271C99.4671 21.9271 99.3485 21.9525 99.2393 22.0035C99.1305 22.0547 99.0347 22.1247 98.952 22.2135C98.8693 22.3026 98.8016 22.4075 98.7487 22.5288C98.6961 22.6497 98.6623 22.782 98.6476 22.9258H100.526C100.514 22.7938 100.487 22.6668 100.444 22.5455C100.4 22.4246 100.34 22.3187 100.263 22.2276C100.186 22.1371 100.092 22.0641 99.9812 22.0092C99.8703 21.9545 99.7414 21.9271 99.595 21.9271ZM103.107 24.6119C102.895 24.6119 102.682 24.573 102.466 24.4956C102.25 24.4179 102.06 24.3131 101.893 24.1804L102.114 23.8685C102.274 23.9894 102.439 24.0819 102.611 24.1466C102.783 24.2109 102.956 24.243 103.13 24.243C103.308 24.243 103.453 24.2015 103.567 24.1181C103.681 24.035 103.737 23.9214 103.737 23.7774V23.766C103.737 23.6943 103.717 23.632 103.678 23.5787C103.638 23.5258 103.584 23.4795 103.516 23.4397C103.448 23.3998 103.369 23.365 103.281 23.3348C103.192 23.3043 103.1 23.2758 103.005 23.2494C102.892 23.2155 102.778 23.1787 102.662 23.1388C102.547 23.0993 102.443 23.0487 102.35 22.9884C102.257 22.9278 102.181 22.8524 102.123 22.7613C102.064 22.6705 102.035 22.5572 102.035 22.4206V22.4095C102.035 22.2845 102.06 22.17 102.109 22.0661C102.158 21.9619 102.227 21.8731 102.316 21.7991C102.405 21.7254 102.511 21.6684 102.634 21.6289C102.757 21.589 102.89 21.5693 103.033 21.5693C103.215 21.5693 103.399 21.5984 103.584 21.6574C103.77 21.716 103.938 21.7944 104.089 21.8929L103.89 22.2222C103.755 22.1351 103.612 22.0661 103.462 22.0149C103.312 21.9639 103.166 21.9381 103.022 21.9381C102.849 21.9381 102.71 21.979 102.608 22.0601C102.506 22.1415 102.455 22.243 102.455 22.3639V22.3753C102.455 22.4437 102.476 22.503 102.517 22.5542C102.559 22.6051 102.615 22.6497 102.685 22.6876C102.755 22.7254 102.835 22.7596 102.926 22.7897C103.016 22.8202 103.111 22.8504 103.21 22.8805C103.323 22.9147 103.435 22.9522 103.547 22.9941C103.659 23.0356 103.76 23.0889 103.851 23.1529C103.942 23.2172 104.014 23.2949 104.069 23.3857C104.124 23.4765 104.152 23.5884 104.152 23.7204V23.7318C104.152 23.8718 104.124 23.9961 104.069 24.104C104.014 24.2115 103.941 24.3033 103.848 24.3791C103.756 24.4551 103.645 24.5127 103.519 24.5523C103.392 24.5921 103.255 24.6119 103.107 24.6119ZM106.274 24.6119C106.062 24.6119 105.848 24.573 105.632 24.4956C105.417 24.4179 105.226 24.3131 105.059 24.1804L105.281 23.8685C105.44 23.9894 105.605 24.0819 105.777 24.1466C105.949 24.2109 106.122 24.243 106.296 24.243C106.474 24.243 106.62 24.2015 106.733 24.1181C106.847 24.035 106.904 23.9214 106.904 23.7774V23.766C106.904 23.6943 106.884 23.632 106.844 23.5787C106.804 23.5258 106.75 23.4795 106.682 23.4397C106.614 23.3998 106.536 23.365 106.447 23.3348C106.358 23.3043 106.266 23.2758 106.172 23.2494C106.058 23.2155 105.944 23.1787 105.828 23.1388C105.713 23.0993 105.609 23.0487 105.516 22.9884C105.423 22.9278 105.348 22.8524 105.289 22.7613C105.23 22.6705 105.201 22.5572 105.201 22.4206V22.4095C105.201 22.2845 105.226 22.17 105.275 22.0661C105.324 21.9619 105.393 21.8731 105.482 21.7991C105.571 21.7254 105.677 21.6684 105.8 21.6289C105.923 21.589 106.056 21.5693 106.2 21.5693C106.382 21.5693 106.565 21.5984 106.75 21.6574C106.936 21.716 107.104 21.7944 107.256 21.8929L107.057 22.2222C106.921 22.1351 106.778 22.0661 106.628 22.0149C106.479 21.9639 106.332 21.9381 106.189 21.9381C106.015 21.9381 105.876 21.979 105.774 22.0601C105.672 22.1415 105.621 22.243 105.621 22.3639V22.3753C105.621 22.4437 105.642 22.503 105.684 22.5542C105.725 22.6051 105.781 22.6497 105.851 22.6876C105.921 22.7254 106.001 22.7596 106.092 22.7897C106.183 22.8202 106.277 22.8504 106.376 22.8805C106.489 22.9147 106.602 22.9522 106.714 22.9941C106.825 23.0356 106.926 23.0889 107.017 23.1529C107.108 23.2172 107.181 23.2949 107.236 23.3857C107.29 23.4765 107.318 23.5884 107.318 23.7204V23.7318C107.318 23.8718 107.29 23.9961 107.236 24.104C107.181 24.2115 107.107 24.3033 107.014 24.3791C106.922 24.4551 106.812 24.5127 106.685 24.5523C106.558 24.5921 106.421 24.6119 106.274 24.6119ZM111.148 24.5553H110.7V20.5817H112.186C112.409 20.5817 112.613 20.6108 112.797 20.6698C112.98 20.7284 113.137 20.8115 113.267 20.9194C113.398 21.0272 113.498 21.1599 113.568 21.3167C113.638 21.4738 113.673 21.6507 113.673 21.8473C113.673 22.0631 113.632 22.2524 113.548 22.4152C113.465 22.5777 113.353 22.714 113.211 22.8236C113.069 22.9338 112.903 23.0159 112.714 23.0708C112.525 23.1258 112.324 23.1529 112.113 23.1529H111.148V24.5553ZM111.148 20.9957V22.7442H112.132C112.296 22.7442 112.444 22.7237 112.579 22.6819C112.714 22.6403 112.829 22.5807 112.926 22.503C113.023 22.4256 113.097 22.3328 113.148 22.2249C113.199 22.117 113.225 21.9971 113.225 21.8644C113.225 21.577 113.127 21.3602 112.932 21.2145C112.736 21.0688 112.478 20.9957 112.155 20.9957H111.148ZM115.251 24.5553H114.814V21.6205H115.251V22.3867C115.304 22.2654 115.37 22.1542 115.449 22.0517C115.529 21.9495 115.619 21.8614 115.722 21.788C115.824 21.714 115.936 21.6584 116.057 21.6205C116.166 21.586 116.284 21.5689 116.409 21.5689C116.422 21.5689 116.435 21.5689 116.448 21.5693V22.0406H116.414C116.255 22.0406 116.105 22.0691 115.963 22.1257C115.821 22.1824 115.697 22.2675 115.591 22.381C115.485 22.4946 115.402 22.6356 115.342 22.8038C115.281 22.9723 115.251 23.1663 115.251 23.3857V24.5553ZM118.724 24.6233C118.504 24.6233 118.302 24.5824 118.116 24.501C117.931 24.4199 117.77 24.31 117.634 24.172C117.498 24.034 117.392 23.8718 117.316 23.6866C117.24 23.5013 117.203 23.3043 117.203 23.0963C117.203 22.8882 117.24 22.6902 117.316 22.503C117.392 22.3157 117.498 22.1522 117.634 22.0122C117.77 21.8721 117.932 21.7616 118.119 21.6798C118.307 21.5984 118.512 21.5579 118.735 21.5579C118.954 21.5579 119.158 21.5984 119.345 21.6798C119.532 21.7616 119.694 21.8711 119.83 22.0092C119.967 22.1475 120.072 22.309 120.148 22.4946C120.223 22.6802 120.262 22.8768 120.262 23.0849C120.262 23.2933 120.222 23.4909 120.145 23.6779C120.068 23.8655 119.961 24.029 119.825 24.169C119.688 24.309 119.525 24.4199 119.337 24.501C119.147 24.5824 118.943 24.6233 118.724 24.6233ZM118.724 21.9438C118.565 21.9438 118.419 21.973 118.287 22.0316C118.154 22.0902 118.042 22.1713 117.949 22.2752C117.856 22.379 117.783 22.5 117.731 22.6376C117.677 22.7753 117.651 22.9234 117.651 23.0822C117.651 23.2407 117.678 23.3898 117.733 23.5295C117.788 23.6692 117.864 23.7898 117.96 23.8919C118.057 23.9938 118.171 24.0749 118.304 24.1355C118.436 24.1958 118.58 24.2259 118.735 24.2259C118.894 24.2259 119.039 24.1965 119.172 24.1382C119.304 24.0799 119.418 23.9995 119.512 23.8976C119.607 23.7955 119.681 23.6755 119.734 23.5378C119.787 23.4001 119.813 23.2521 119.813 23.0933C119.813 22.9351 119.786 22.7857 119.731 22.646C119.676 22.5063 119.599 22.3847 119.501 22.2809C119.403 22.1773 119.287 22.0949 119.155 22.0346C119.022 21.974 118.879 21.9438 118.724 21.9438ZM123.797 24.5553H123.291L122.384 23.3573L121.47 24.5553H120.982L122.134 23.0621L121.028 21.6205H121.527L122.395 22.7556L123.264 21.6205H123.752L122.639 23.0507L123.797 24.5553ZM125.301 25.4802C125.179 25.4802 125.069 25.4678 124.971 25.4434C124.873 25.4189 124.774 25.3817 124.676 25.3328L124.824 24.9868C124.896 25.0243 124.967 25.0518 125.036 25.0688C125.107 25.0859 125.189 25.0943 125.283 25.0943C125.416 25.0943 125.527 25.0548 125.618 24.975C125.709 24.8956 125.798 24.7516 125.885 24.5435L124.551 21.6205H125.034L126.101 24.0668L127.043 21.6205H127.508L126.276 24.6518C126.152 24.9543 126.013 25.1683 125.86 25.2933C125.706 25.4179 125.52 25.4802 125.301 25.4802ZM134.13 24.5553H133.772L131.208 21.2969V24.5553H130.771V20.5817H131.191L133.693 23.766V20.5817H134.13V24.5553ZM136.865 24.6233C136.664 24.6233 136.475 24.5861 136.297 24.5127C136.12 24.4387 135.964 24.3345 135.831 24.2005C135.697 24.0661 135.592 23.9043 135.513 23.715C135.434 23.5258 135.395 23.3177 135.395 23.0906C135.395 22.8789 135.43 22.6792 135.5 22.4916C135.57 22.3046 135.668 22.1415 135.792 22.0035C135.917 21.8654 136.066 21.7566 136.238 21.6772C136.41 21.5974 136.598 21.5579 136.803 21.5579C137.018 21.5579 137.211 21.5984 137.382 21.6798C137.552 21.7616 137.695 21.8721 137.813 22.0122C137.93 22.1522 138.019 22.3167 138.08 22.506C138.14 22.6953 138.17 22.8976 138.17 23.1134V23.1757L138.165 23.2494H135.844C135.859 23.4085 135.896 23.5496 135.957 23.6725C136.018 23.7955 136.095 23.8993 136.19 23.9844C136.284 24.0698 136.39 24.1342 136.507 24.1774C136.625 24.2209 136.748 24.243 136.876 24.243C137.08 24.243 137.256 24.2052 137.401 24.1295C137.547 24.0534 137.68 23.9536 137.801 23.8286L138.073 24.0725C137.926 24.239 137.758 24.3727 137.568 24.4725C137.38 24.573 137.145 24.6233 136.865 24.6233ZM136.791 21.9271C136.663 21.9271 136.545 21.9525 136.436 22.0035C136.327 22.0547 136.231 22.1247 136.148 22.2135C136.065 22.3026 135.998 22.4075 135.945 22.5288C135.893 22.6497 135.858 22.782 135.844 22.9258H137.722C137.71 22.7938 137.683 22.6668 137.64 22.5455C137.597 22.4246 137.537 22.3187 137.46 22.2276C137.383 22.1371 137.288 22.0641 137.178 22.0092C137.066 21.9545 136.938 21.9271 136.791 21.9271ZM140.315 24.6062C140.198 24.6062 140.088 24.5911 139.986 24.5606C139.884 24.5305 139.796 24.4822 139.722 24.4159C139.648 24.3499 139.591 24.2635 139.549 24.1576C139.508 24.0517 139.487 23.9251 139.487 23.7774V22.0065H139.078V21.6205H139.487V20.7348H139.924V21.6205H140.854V22.0065H139.924V23.7204C139.924 23.9023 139.969 24.029 140.06 24.101C140.151 24.173 140.27 24.2089 140.417 24.2089C140.493 24.2089 140.564 24.2015 140.63 24.1861C140.696 24.171 140.767 24.1445 140.843 24.1067V24.4812C140.767 24.5231 140.687 24.5543 140.602 24.575C140.517 24.5958 140.421 24.6062 140.315 24.6062ZM145.15 24.5777H144.77L143.981 22.2618L143.186 24.5777H142.801L141.773 21.6205H142.239L143.01 23.976L143.799 21.6091H144.162L144.957 23.976L145.729 21.6205H146.183L145.15 24.5777ZM148.503 24.6233C148.284 24.6233 148.081 24.5824 147.896 24.501C147.711 24.4199 147.55 24.31 147.414 24.172C147.278 24.034 147.171 23.8718 147.096 23.6866C147.02 23.5013 146.983 23.3043 146.983 23.0963C146.983 22.8882 147.02 22.6902 147.096 22.503C147.171 22.3157 147.278 22.1522 147.414 22.0122C147.55 21.8721 147.712 21.7616 147.899 21.6798C148.086 21.5984 148.291 21.5579 148.515 21.5579C148.734 21.5579 148.937 21.5984 149.125 21.6798C149.312 21.7616 149.474 21.8711 149.61 22.0092C149.746 22.1475 149.852 22.309 149.928 22.4946C150.003 22.6802 150.041 22.8768 150.041 23.0849C150.041 23.2933 150.002 23.4909 149.925 23.6779C149.847 23.8655 149.74 24.029 149.604 24.169C149.468 24.309 149.305 24.4199 149.116 24.501C148.927 24.5824 148.723 24.6233 148.503 24.6233ZM148.503 21.9438C148.344 21.9438 148.199 21.973 148.066 22.0316C147.934 22.0902 147.822 22.1713 147.729 22.2752C147.636 22.379 147.563 22.5 147.51 22.6376C147.457 22.7753 147.431 22.9234 147.431 23.0822C147.431 23.2407 147.458 23.3898 147.513 23.5295C147.568 23.6692 147.643 23.7898 147.74 23.8919C147.837 23.9938 147.951 24.0749 148.083 24.1355C148.216 24.1958 148.359 24.2259 148.515 24.2259C148.674 24.2259 148.819 24.1965 148.952 24.1382C149.084 24.0799 149.197 23.9995 149.292 23.8976C149.387 23.7955 149.46 23.6755 149.513 23.5378C149.566 23.4001 149.593 23.2521 149.593 23.0933C149.593 22.9351 149.565 22.7857 149.511 22.646C149.456 22.5063 149.379 22.3847 149.281 22.2809C149.182 22.1773 149.067 22.0949 148.934 22.0346C148.802 21.974 148.658 21.9438 148.503 21.9438ZM151.664 24.5553H151.227V21.6205H151.664V22.3867C151.717 22.2654 151.783 22.1542 151.862 22.0517C151.942 21.9495 152.033 21.8614 152.135 21.788C152.237 21.714 152.349 21.6584 152.47 21.6205C152.58 21.586 152.697 21.5689 152.822 21.5689C152.835 21.5689 152.848 21.5689 152.861 21.5693V22.0406H152.827C152.668 22.0406 152.518 22.0691 152.376 22.1257C152.234 22.1824 152.11 22.2675 152.004 22.381C151.899 22.4946 151.815 22.6356 151.755 22.8038C151.694 22.9723 151.664 23.1663 151.664 23.3857V24.5553ZM156.527 24.5553H156.005L154.955 23.1871L154.359 23.7888V24.5553H153.922V20.4111H154.359V23.2722L155.943 21.6205H156.488L155.256 22.8805L156.527 24.5553Z" fill="#1C1C20" stroke="#1C1C20" stroke-width="0.377481" stroke-linecap="round" stroke-linejoin="round"/>
<path d="M38.259 35.4372H33.947V37.2632H37.852V38.5172H33.947V40.4862H38.259V41.7402H32.572V34.1832H38.259V35.4372ZM42.3699 40.5192L42.7549 41.4212C42.4359 41.6962 41.9739 41.8722 41.5449 41.8722C40.5989 41.8722 39.9389 41.1902 39.9389 40.2332V37.1642H39.1139V36.0532H39.9389V34.4912H41.2479V36.0532H42.5349V37.1642H41.2479V40.0682C41.2479 40.4532 41.4899 40.7282 41.8089 40.7282C42.0399 40.7282 42.2489 40.6402 42.3699 40.5192ZM46.8986 35.9212C48.1416 35.9212 49.0106 36.8342 49.0106 38.1212V41.7402H47.7126V38.3852C47.7126 37.6152 47.2176 37.0652 46.5136 37.0652C45.7546 37.0652 45.1276 37.6152 45.1276 38.2972V41.7402H43.7856V34.0512H45.1276V36.8342C45.4686 36.2842 46.1396 35.9212 46.8986 35.9212ZM51.1495 35.1952C50.7205 35.1952 50.3795 34.8322 50.3795 34.4252C50.3795 34.0182 50.7205 33.6662 51.1495 33.6662C51.5675 33.6662 51.9085 34.0182 51.9085 34.4252C51.9085 34.8322 51.5675 35.1952 51.1495 35.1952ZM50.4675 41.7402V36.0532H51.8095V41.7402H50.4675ZM56.0317 41.8722C54.3927 41.8722 52.9957 40.5082 52.9957 38.8912C52.9957 37.2742 54.3927 35.9212 56.0537 35.9212C56.9117 35.9212 57.6707 36.2842 58.2097 36.8452L57.3077 37.6372C56.9997 37.2962 56.5267 37.0652 56.0427 37.0652C55.1077 37.0652 54.3267 37.9012 54.3267 38.8912C54.3267 39.8922 55.1077 40.7282 56.0427 40.7282C56.5377 40.7282 57.0217 40.4972 57.3407 40.1342L58.2427 40.9152C57.6927 41.4982 56.9337 41.8722 56.0317 41.8722ZM61.7725 35.9212C63.2795 35.9212 64.2145 36.8782 64.2145 38.3192V41.7402H62.9055V41.0582C62.4875 41.5862 61.7725 41.8722 61.1125 41.8722C59.9025 41.8722 58.9895 41.1572 58.9895 40.0572C58.9895 38.9352 60.0345 38.1652 61.3105 38.1652C61.8275 38.1652 62.3885 38.2752 62.9055 38.4732V38.3192C62.9055 37.6592 62.5425 37.0212 61.5085 37.0212C60.9695 37.0212 60.4525 37.2082 59.9685 37.4502L59.5065 36.5152C60.3095 36.1192 61.0575 35.9212 61.7725 35.9212ZM61.4095 40.8932C62.0585 40.8932 62.7515 40.5632 62.9055 39.9582V39.3202C62.4875 39.1772 62.0145 39.1002 61.5085 39.1002C60.8375 39.1002 60.2985 39.4742 60.2985 40.0132C60.2985 40.5522 60.7715 40.8932 61.4095 40.8932ZM65.6677 41.7402V34.0512H67.0097V41.7402H65.6677ZM69.6479 43.7202C69.2189 43.7202 68.7459 43.6102 68.4049 43.4232L68.6909 42.4552C68.9329 42.5872 69.2079 42.6642 69.4169 42.6642C69.7359 42.6642 69.9779 42.5652 70.1429 42.2902L70.3849 41.7842L67.9759 36.0532H69.3949L71.0559 40.2992L72.6179 36.0532H74.0039L71.5949 42.1362C71.1659 43.2142 70.5059 43.7092 69.6479 43.7202ZM74.8798 39.3092V38.1322H77.8388V39.3092H74.8798ZM81.2179 41.8722C80.3489 41.8722 79.4139 41.5642 78.7319 41.0142L79.3369 40.0792C79.8869 40.4752 80.5249 40.7392 81.2399 40.7392C81.7789 40.7392 82.1529 40.5082 82.1529 40.1562C82.1529 39.7162 81.6579 39.5732 81.0089 39.3972C79.7769 39.0782 78.9959 38.7262 78.9849 37.7142C78.9849 36.6472 79.8649 35.9212 81.1299 35.9212C81.9109 35.9212 82.6919 36.1962 83.3079 36.6032L82.7469 37.5822C82.2079 37.2412 81.6249 37.0652 81.1299 37.0652C80.6569 37.0652 80.2939 37.2522 80.2939 37.5712C80.2939 37.9342 80.5909 38.0442 81.4599 38.2972C82.4169 38.5612 83.4509 38.8912 83.4509 40.0792C83.4509 41.1682 82.5489 41.8722 81.2179 41.8722ZM87.3669 41.8722C85.7169 41.8722 84.3199 40.5082 84.3199 38.8912C84.3199 37.2742 85.7169 35.9212 87.3669 35.9212C89.0169 35.9212 90.4139 37.2742 90.4139 38.8912C90.4139 40.5082 89.0169 41.8722 87.3669 41.8722ZM87.3669 40.7282C88.3019 40.7282 89.0939 39.8922 89.0939 38.8912C89.0939 37.9012 88.3019 37.0652 87.3669 37.0652C86.4209 37.0652 85.6289 37.9012 85.6289 38.8912C85.6289 39.8922 86.4209 40.7282 87.3669 40.7282ZM95.4278 36.0532H96.7698V41.7402H95.4278V40.9812C95.0758 41.5092 94.4158 41.8722 93.6678 41.8722C92.4248 41.8722 91.5558 40.9592 91.5558 39.6722V36.0532H92.8538V39.4082C92.8538 40.1782 93.3488 40.7282 94.0528 40.7282C94.7568 40.7282 95.3398 40.2552 95.4278 39.6502V36.0532ZM99.6237 37.1532C99.9867 36.3942 100.724 35.9212 101.659 35.9212V37.0652C100.438 37.0652 99.6237 37.7912 99.6237 38.8692V41.7402H98.2817V36.0532H99.6237V37.1532ZM105.392 41.8722C103.753 41.8722 102.356 40.5082 102.356 38.8912C102.356 37.2742 103.753 35.9212 105.414 35.9212C106.272 35.9212 107.031 36.2842 107.57 36.8452L106.668 37.6372C106.36 37.2962 105.887 37.0652 105.403 37.0652C104.468 37.0652 103.687 37.9012 103.687 38.8912C103.687 39.8922 104.468 40.7282 105.403 40.7282C105.898 40.7282 106.382 40.4972 106.701 40.1342L107.603 40.9152C107.053 41.4982 106.294 41.8722 105.392 41.8722ZM111.309 40.6842C111.837 40.6842 112.464 40.4422 112.783 40.1122L113.63 40.9922C113.135 41.5202 112.145 41.8722 111.32 41.8722C109.692 41.8722 108.35 40.6292 108.35 38.8802C108.35 37.1752 109.626 35.9212 111.243 35.9212C113.003 35.9212 114.026 37.2522 114.026 39.3532H109.736C109.901 40.1342 110.495 40.6842 111.309 40.6842ZM111.298 37.1092C110.55 37.1092 109.945 37.5822 109.747 38.3302H112.739C112.585 37.6152 112.101 37.1092 111.298 37.1092ZM119.512 34.0512H120.854V41.7402H119.512V40.8602C119.061 41.4982 118.379 41.8722 117.543 41.8722C116.036 41.8722 114.936 40.6402 114.936 38.8912C114.936 37.1532 116.036 35.9212 117.543 35.9212C118.379 35.9212 119.061 36.2952 119.512 36.9332V34.0512ZM117.906 40.7282C118.852 40.7282 119.512 39.9582 119.512 38.8912C119.512 37.8242 118.852 37.0652 117.906 37.0652C116.949 37.0652 116.267 37.8242 116.267 38.8912C116.267 39.9582 116.949 40.7282 117.906 40.7282ZM128.835 35.9212C130.342 35.9212 131.442 37.1532 131.442 38.8912C131.442 40.6402 130.342 41.8722 128.835 41.8722C127.988 41.8722 127.306 41.4872 126.855 40.8382V43.6322H125.513V36.0532H126.855V36.9552C127.306 36.3062 127.988 35.9212 128.835 35.9212ZM128.472 40.7282C129.429 40.7282 130.111 39.9582 130.111 38.8912C130.111 37.8242 129.429 37.0652 128.472 37.0652C127.526 37.0652 126.866 37.8242 126.866 38.8912C126.866 39.9582 127.526 40.7282 128.472 40.7282ZM134.031 37.1532C134.394 36.3942 135.131 35.9212 136.066 35.9212V37.0652C134.845 37.0652 134.031 37.7912 134.031 38.8692V41.7402H132.689V36.0532H134.031V37.1532ZM139.671 41.8722C138.021 41.8722 136.624 40.5082 136.624 38.8912C136.624 37.2742 138.021 35.9212 139.671 35.9212C141.321 35.9212 142.718 37.2742 142.718 38.8912C142.718 40.5082 141.321 41.8722 139.671 41.8722ZM139.671 40.7282C140.606 40.7282 141.398 39.8922 141.398 38.8912C141.398 37.9012 140.606 37.0652 139.671 37.0652C138.725 37.0652 137.933 37.9012 137.933 38.8912C137.933 39.8922 138.725 40.7282 139.671 40.7282ZM149.096 41.7402H147.611L146.225 39.8372L144.828 41.7402H143.365L145.499 38.8362L143.464 36.0532H144.938L146.236 37.8242L147.534 36.0532H148.997L146.962 38.8252L149.096 41.7402ZM150.73 35.1952C150.301 35.1952 149.96 34.8322 149.96 34.4252C149.96 34.0182 150.301 33.6662 150.73 33.6662C151.148 33.6662 151.489 34.0182 151.489 34.4252C151.489 34.8322 151.148 35.1952 150.73 35.1952ZM150.048 41.7402V36.0532H151.39V41.7402H150.048ZM155.524 40.6842C156.052 40.6842 156.679 40.4422 156.998 40.1122L157.845 40.9922C157.35 41.5202 156.36 41.8722 155.535 41.8722C153.907 41.8722 152.565 40.6292 152.565 38.8802C152.565 37.1752 153.841 35.9212 155.458 35.9212C157.218 35.9212 158.241 37.2522 158.241 39.3532H153.951C154.116 40.1342 154.71 40.6842 155.524 40.6842ZM155.513 37.1092C154.765 37.1092 154.16 37.5822 153.962 38.3302H156.954C156.8 37.6152 156.316 37.1092 155.513 37.1092ZM161.505 41.8722C160.636 41.8722 159.701 41.5642 159.019 41.0142L159.624 40.0792C160.174 40.4752 160.812 40.7392 161.527 40.7392C162.066 40.7392 162.44 40.5082 162.44 40.1562C162.44 39.7162 161.945 39.5732 161.296 39.3972C160.064 39.0782 159.283 38.7262 159.272 37.7142C159.272 36.6472 160.152 35.9212 161.417 35.9212C162.198 35.9212 162.979 36.1962 163.595 36.6032L163.034 37.5822C162.495 37.2412 161.912 37.0652 161.417 37.0652C160.944 37.0652 160.581 37.2522 160.581 37.5712C160.581 37.9342 160.878 38.0442 161.747 38.2972C162.704 38.5612 163.738 38.8912 163.738 40.0792C163.738 41.1682 162.836 41.8722 161.505 41.8722ZM165.718 37.7032C165.212 37.7032 164.838 37.3072 164.838 36.8232C164.838 36.3722 165.212 35.9762 165.718 35.9762C166.18 35.9762 166.565 36.3722 166.565 36.8232C166.565 37.3072 166.18 37.7032 165.718 37.7032ZM165.718 41.8722C165.212 41.8722 164.838 41.4762 164.838 40.9922C164.838 40.5412 165.212 40.1452 165.718 40.1452C166.18 40.1452 166.565 40.5412 166.565 40.9922C166.565 41.4762 166.18 41.8722 165.718 41.8722Z" fill="#1C1C20"/>
<rect x="171.42" y="29.1104" width="68.2593" height="18.2593" rx="7.25926" fill="#D6EDFF"/>
<path d="M177.128 40.4862H181.011V41.7402H175.764V34.1832H177.128V40.4862ZM184.732 40.6842C185.26 40.6842 185.887 40.4422 186.206 40.1122L187.053 40.9922C186.558 41.5202 185.568 41.8722 184.743 41.8722C183.115 41.8722 181.773 40.6292 181.773 38.8802C181.773 37.1752 183.049 35.9212 184.666 35.9212C186.426 35.9212 187.449 37.2522 187.449 39.3532H183.159C183.324 40.1342 183.918 40.6842 184.732 40.6842ZM184.721 37.1092C183.973 37.1092 183.368 37.5822 183.17 38.3302H186.162C186.008 37.6152 185.524 37.1092 184.721 37.1092ZM191.087 35.9212C192.594 35.9212 193.529 36.8782 193.529 38.3192V41.7402H192.22V41.0582C191.802 41.5862 191.087 41.8722 190.427 41.8722C189.217 41.8722 188.304 41.1572 188.304 40.0572C188.304 38.9352 189.349 38.1652 190.625 38.1652C191.142 38.1652 191.703 38.2752 192.22 38.4732V38.3192C192.22 37.6592 191.857 37.0212 190.823 37.0212C190.284 37.0212 189.767 37.2082 189.283 37.4502L188.821 36.5152C189.624 36.1192 190.372 35.9212 191.087 35.9212ZM190.724 40.8932C191.373 40.8932 192.066 40.5632 192.22 39.9582V39.3202C191.802 39.1772 191.329 39.1002 190.823 39.1002C190.152 39.1002 189.613 39.4742 189.613 40.0132C189.613 40.5522 190.086 40.8932 190.724 40.8932ZM196.357 37.1532C196.72 36.3942 197.457 35.9212 198.392 35.9212V37.0652C197.171 37.0652 196.357 37.7912 196.357 38.8692V41.7402H195.015V36.0532H196.357V37.1532ZM202.488 35.9212C203.731 35.9212 204.6 36.8342 204.6 38.1212V41.7402H203.302V38.3852C203.302 37.6152 202.807 37.0652 202.103 37.0652C201.399 37.0652 200.816 37.5382 200.728 38.1432V41.7402H199.386V36.0532H200.728V36.8122C201.08 36.2842 201.74 35.9212 202.488 35.9212ZM209.316 41.7402V34.1832H210.691L213.177 38.7922L215.674 34.1832H217.038V41.7402H215.674V36.6912L213.177 41.3002L210.691 36.6912V41.7402H209.316ZM221.419 41.8722C219.769 41.8722 218.372 40.5082 218.372 38.8912C218.372 37.2742 219.769 35.9212 221.419 35.9212C223.069 35.9212 224.466 37.2742 224.466 38.8912C224.466 40.5082 223.069 41.8722 221.419 41.8722ZM221.419 40.7282C222.354 40.7282 223.146 39.8922 223.146 38.8912C223.146 37.9012 222.354 37.0652 221.419 37.0652C220.473 37.0652 219.681 37.9012 219.681 38.8912C219.681 39.8922 220.473 40.7282 221.419 40.7282ZM227.005 37.1532C227.368 36.3942 228.105 35.9212 229.04 35.9212V37.0652C227.819 37.0652 227.005 37.7912 227.005 38.8692V41.7402H225.663V36.0532H227.005V37.1532ZM232.685 40.6842C233.213 40.6842 233.84 40.4422 234.159 40.1122L235.006 40.9922C234.511 41.5202 233.521 41.8722 232.696 41.8722C231.068 41.8722 229.726 40.6292 229.726 38.8802C229.726 37.1752 231.002 35.9212 232.619 35.9212C234.379 35.9212 235.402 37.2522 235.402 39.3532H231.112C231.277 40.1342 231.871 40.6842 232.685 40.6842ZM232.674 37.1092C231.926 37.1092 231.321 37.5822 231.123 38.3302H234.115C233.961 37.6152 233.477 37.1092 232.674 37.1092Z" fill="#218AEF"/>
<path d="M175.049 43.2032H235.831V43.4232H175.049V43.2032Z" fill="#218AEF"/>
<defs>
<linearGradient id="paint0_linear_12419_13564" x1="12.1265" y1="0.28418" x2="12.1265" y2="47.2158" gradientUnits="userSpaceOnUse">
<stop stop-color="#E237B7"/>
<stop offset="1" stop-color="#705CDE"/>
</linearGradient>
<linearGradient id="paint1_linear_12419_13564" x1="12.1691" y1="5.91504" x2="12.1691" y2="47.22" gradientUnits="userSpaceOnUse">
<stop stop-color="#E237B7"/>
<stop offset="1" stop-color="#705CDE"/>
</linearGradient>
</defs>
</svg>
