<?xml version="1.0" encoding="UTF-8"?>
<svg xmlns="http://www.w3.org/2000/svg" width="48" height="48" viewBox="0 0 48 48" fill="none">
  <g clip-path="url(#clip0_305_684)">
    <path opacity="0.06" d="M24 48C37.2548 48 48 37.2548 48 24C48 10.7452 37.2548 0 24 0C10.7452 0 0 10.7452 0 24C0 37.2548 10.7452 48 24 48Z" fill="#CF2F2F"></path>
    <path fill-rule="evenodd" clip-rule="evenodd" d="M13.0432 31.4986C13.0432 29.0128 15.058 26.998 17.5438 26.998H30.7807C33.2665 26.998 35.2813 29.0128 35.2813 31.4986C35.2813 33.9844 33.2665 35.9992 30.7807 35.9992H17.5438C15.058 35.9992 13.0432 33.9844 13.0432 31.4986ZM17.5438 28.057C15.6428 28.057 14.1022 29.5977 14.1022 31.4986C14.1022 33.3996 15.6428 34.9402 17.5438 34.9402H30.7807C32.6817 34.9402 34.2223 33.3996 34.2223 31.4986C34.2223 29.5977 32.6817 28.057 30.7807 28.057H17.5438Z" fill="#CF2F2F"></path>
    <path fill-rule="evenodd" clip-rule="evenodd" d="M23.6326 31.4982C23.6326 31.2058 23.8696 30.9688 24.162 30.9688H30.7805C31.0729 30.9688 31.31 31.2058 31.31 31.4982C31.31 31.7907 31.0729 32.0277 30.7805 32.0277H24.162C23.8696 32.0277 23.6326 31.7907 23.6326 31.4982Z" fill="#CF2F2F"></path>
    <path d="M18.1829 31.1238C18.3897 31.3306 18.3897 31.6659 18.1829 31.8726C17.9762 32.0794 17.6409 32.0794 17.4341 31.8726C17.2274 31.6659 17.2274 31.3306 17.4341 31.1238C17.6409 30.9171 17.9762 30.9171 18.1829 31.1238Z" fill="#CF2F2F"></path>
    <path fill-rule="evenodd" clip-rule="evenodd" d="M13 23.442C13 20.9562 15.0148 18.9414 17.5006 18.9414H30.7375C33.2233 18.9414 35.2381 20.9562 35.2381 23.442C35.2381 25.9278 33.2233 27.9425 30.7375 27.9425H17.5006C15.0148 27.9425 13 25.9278 13 23.442ZM17.5006 20.0004C15.5996 20.0004 14.059 21.541 14.059 23.442C14.059 25.3429 15.5996 26.8836 17.5006 26.8836H30.7375C32.6385 26.8836 34.1791 25.3429 34.1791 23.442C34.1791 21.541 32.6385 20.0004 30.7375 20.0004H17.5006Z" fill="#CF2F2F"></path>
    <path fill-rule="evenodd" clip-rule="evenodd" d="M23.5896 23.4416C23.5896 23.1492 23.8267 22.9121 24.1191 22.9121H30.7376C31.03 22.9121 31.267 23.1492 31.267 23.4416C31.267 23.734 31.03 23.9711 30.7376 23.9711H24.1191C23.8267 23.9711 23.5896 23.734 23.5896 23.4416Z" fill="#CF2F2F"></path>
    <path d="M18.14 23.0672C18.3467 23.274 18.3467 23.6092 18.14 23.816C17.9332 24.0228 17.5979 24.0228 17.3912 23.816C17.1844 23.6092 17.1844 23.274 17.3912 23.0672C17.5979 22.8604 17.9332 22.8604 18.14 23.0672Z" fill="#CF2F2F"></path>
    <path fill-rule="evenodd" clip-rule="evenodd" d="M13 15.5006C13 13.0148 15.0148 11 17.5006 11H30.7375C33.2233 11 35.2381 13.0148 35.2381 15.5006C35.2381 17.9864 33.2233 20.0011 30.7375 20.0011H17.5006C15.0148 20.0011 13 17.9864 13 15.5006ZM17.5006 12.059C15.5996 12.059 14.059 13.5996 14.059 15.5006C14.059 17.4015 15.5996 18.9422 17.5006 18.9422H30.7375C32.6385 18.9422 34.1791 17.4015 34.1791 15.5006C34.1791 13.5996 32.6385 12.059 30.7375 12.059H17.5006Z" fill="#CF2F2F"></path>
    <path fill-rule="evenodd" clip-rule="evenodd" d="M23.5896 15.5002C23.5896 15.2078 23.8267 14.9707 24.1191 14.9707H30.7376C31.03 14.9707 31.267 15.2078 31.267 15.5002C31.267 15.7926 31.03 16.0297 30.7376 16.0297H24.1191C23.8267 16.0297 23.5896 15.7926 23.5896 15.5002Z" fill="#CF2F2F"></path>
    <path d="M18.14 15.1258C18.3467 15.3326 18.3467 15.6678 18.14 15.8746C17.9332 16.0814 17.5979 16.0814 17.3912 15.8746C17.1844 15.6678 17.1844 15.3326 17.3912 15.1258C17.5979 14.919 17.9332 14.919 18.14 15.1258Z" fill="#CF2F2F"></path>
  </g>
  <defs>
    <clipPath id="clip0_305_684">
      <rect width="48" height="48" fill="white"></rect>
    </clipPath>
  </defs>
</svg>
