<svg width="20" height="12" viewBox="0 0 20 12" fill="none" xmlns="http://www.w3.org/2000/svg">
<g id="Mexico">
<path id="Vector" fill-rule="evenodd" clip-rule="evenodd" d="M20.0009 11.4674V0.244141H13.3359V11.4674H20.0009Z" fill="#CC2229"/>
<path id="Vector_2" fill-rule="evenodd" clip-rule="evenodd" d="M6.66509 11.4688V0.245605H0V11.4688H6.66509Z" fill="#33A457"/>
<path id="Vector_3" fill-rule="evenodd" clip-rule="evenodd" d="M11.0649 3.79954C11.0973 3.7778 11.1082 3.73797 11.1336 3.71988C11.1588 3.78861 11.1985 3.89365 11.1336 3.95521C11.4621 4.07823 11.6103 4.42577 11.7295 4.71892C11.7763 4.80586 11.8631 4.83112 11.9461 4.84205C11.9461 4.87107 11.9532 4.90361 11.9208 4.91806C11.9317 5.00137 11.9532 5.10993 11.8703 5.16421C11.8918 5.55522 11.9533 5.96786 11.7836 6.30083H11.7582C11.7258 6.2321 11.7836 6.16348 11.7403 6.10191C11.6969 6.12342 11.7258 6.22482 11.6536 6.21412C11.6029 6.17793 11.6137 5.87375 11.5668 6.08371C11.5235 6.00416 11.5848 5.85213 11.4801 5.83028L11.4114 5.69998C11.4149 5.74345 11.3607 5.74345 11.3391 5.729L11.2633 5.63124C11.2561 5.68188 11.2127 5.68188 11.1766 5.66743C11.1442 5.64934 11.1188 5.61315 11.0899 5.58777C11.0645 5.65298 10.9924 5.62396 10.967 5.5806C10.8588 5.47921 10.7937 5.33446 10.6385 5.32C10.6205 5.30544 10.6096 5.28017 10.5878 5.27653L10.6205 5.50094C10.9381 5.73628 11.1801 6.1562 11.5738 6.20695C11.6027 6.21788 11.5955 6.25054 11.5847 6.26499C11.4583 6.33725 11.3102 6.42055 11.1657 6.36251C11.097 6.42783 10.9779 6.40963 10.8985 6.46766C10.9454 6.51455 10.9563 6.57987 10.9852 6.64121C11.0465 6.57247 11.1079 6.4894 11.1946 6.44934C11.1981 6.47108 11.1766 6.47847 11.1837 6.49998C11.227 6.52172 11.3173 6.38061 11.3137 6.49293C11.3247 6.51091 11.3282 6.53276 11.3499 6.54357C11.4764 6.53264 11.433 6.38061 11.5558 6.3698C11.6064 6.38072 11.6714 6.34806 11.7039 6.39517C11.7652 6.38425 11.7906 6.2865 11.8592 6.30095C11.8338 6.35182 11.7834 6.40963 11.7291 6.45674C11.74 6.52547 11.758 6.62323 11.6787 6.65589C11.6389 6.66658 11.61 6.64121 11.5738 6.64121L11.4691 6.72815C11.4945 6.75728 11.5629 6.73543 11.5558 6.77879C11.5015 6.88394 11.3102 6.84764 11.3247 6.97794C11.2743 7.09379 11.1549 7.20975 11.0357 7.24958C10.9998 7.27495 10.9779 7.19507 10.949 7.24958C10.9815 7.24958 11.0068 7.28554 11.0213 7.30739C11.0357 7.39808 10.9853 7.45942 10.942 7.52451C11.0105 7.57538 11.0105 7.43404 11.0791 7.48116C11.108 7.53544 11.0104 7.57538 11.0791 7.60429C11.1225 7.60781 11.1622 7.60076 11.1947 7.57891C11.2165 7.48468 11.0214 7.43404 11.1404 7.35086C11.1731 7.35086 11.202 7.37976 11.202 7.41242C11.1766 7.45931 11.2091 7.49197 11.238 7.5244C11.2489 7.29282 11.4331 7.14431 11.5847 6.97782L11.5992 6.84752C11.6822 6.88371 11.6822 6.99956 11.6787 7.09003C11.74 7.07911 11.7941 6.99603 11.8268 6.93447C11.8447 6.79313 11.6101 6.8729 11.6967 6.72804C11.7182 6.6956 11.7545 6.6774 11.7834 6.69208C11.8158 6.71358 11.8268 6.77162 11.8088 6.81498C11.8557 6.86209 11.8592 6.93083 11.9025 6.97077C11.9279 6.7896 11.805 6.57247 11.9748 6.43136C12.0217 6.37332 12.0868 6.32268 12.094 6.25042C12.1553 6.24314 12.1119 6.31551 12.1482 6.33714C12.1697 6.28285 12.2818 6.23961 12.217 6.17065C12.1627 6.0911 11.9351 6.19603 12.0183 6.03307C12.04 6.01156 12.0761 5.99324 12.105 6.01509C12.1194 6.03307 12.1304 6.06573 12.112 6.08382L12.1988 6.1092C12.1843 6.02226 12.0726 5.90652 12.1628 5.80524C12.1917 5.7002 12.1194 5.63511 12.0941 5.55545C12.1483 5.54828 12.2241 5.55909 12.2494 5.62419C12.2998 5.53724 12.3252 5.44677 12.3975 5.37076C12.4264 5.43585 12.3759 5.57343 12.4408 5.64228L12.4588 5.65673C12.5059 5.59881 12.4842 5.50106 12.4661 5.43232C12.5274 5.44677 12.5309 5.52996 12.5636 5.58072C12.614 5.78703 12.5491 5.99335 12.3903 6.13457C12.4481 6.15631 12.4985 6.05856 12.5636 6.12012C12.5743 6.15631 12.5491 6.18521 12.5202 6.19614C12.4913 6.19614 12.4624 6.19967 12.4407 6.17816L12.2926 6.22152C12.286 6.28929 12.2775 6.35687 12.2673 6.42419C12.3395 6.43512 12.3902 6.30835 12.4769 6.35193C12.3216 6.56178 12.3106 6.84775 12.0434 6.98898C12.0505 7.01071 12.0759 7.02881 12.0938 7.04701C12.13 7.03973 12.1734 6.98898 12.2058 7.03233C12.2383 7.05407 12.2238 7.10118 12.2058 7.12656C12.1734 7.15194 12.1371 7.18812 12.0938 7.16275C12.0434 7.13009 12.0903 7.0469 12.0181 7.03233C11.9819 7.01435 11.935 7.02528 11.8951 7.02164C11.8662 7.05782 11.8772 7.11916 11.8772 7.15194C11.9025 7.14841 11.917 7.10482 11.9459 7.10858C11.9783 7.2061 11.9314 7.31842 11.8881 7.40525C11.7328 7.58266 11.4909 7.54636 11.2886 7.61146C11.339 7.66597 11.5053 7.69476 11.3933 7.79615C11.3644 7.82506 11.3173 7.80708 11.3066 7.77077C11.2921 7.73834 11.3066 7.68383 11.2523 7.68383L11.1836 7.80343C11.2269 7.85772 11.3643 7.75985 11.3136 7.88298C11.1222 7.91541 10.9562 8.01704 10.7684 8.06392C10.6346 8.01328 10.5154 7.93726 10.4037 7.82881C10.3601 7.83234 10.2724 7.92861 10.2325 7.94307C10.2325 7.94307 10.4578 8.06392 10.483 8.06392C10.483 8.06392 10.4108 8.17613 10.371 8.27399C10.3746 8.30665 10.3314 8.34648 10.2988 8.31735C10.2303 8.2378 10.1327 8.13994 10.0316 8.16907C9.9955 8.19798 10.01 8.27752 9.94486 8.27399C9.94122 8.2015 9.68119 8.15462 9.61621 8.21243C9.5765 8.13994 9.68847 8.13994 9.70293 8.08213L9.87624 7.92634L9.85815 7.89038C9.75345 7.8939 9.73536 8.11103 9.63419 8.01328C9.60529 8.03149 9.57638 8.01328 9.55476 7.9953C9.52221 8.0242 9.51152 8.08577 9.46088 8.08224C9.41752 8.10762 9.38144 8.04605 9.37416 8.01339C9.31999 8.04605 9.25501 8.07849 9.18992 8.06403C9.1502 8.0242 9.18992 7.96651 9.18992 7.93373C9.10685 7.93021 9.06713 8.10751 8.99134 8.00247C8.97325 7.96651 9.02389 7.9409 8.99851 7.90847C8.96244 7.95911 8.89382 7.97004 8.83601 7.95183C8.8071 7.92645 8.81438 7.87957 8.8252 7.84691C8.85399 7.79627 8.96244 7.79979 8.92272 7.72753C8.90827 7.69487 8.87219 7.71285 8.85399 7.71661C8.83601 7.75996 8.81791 7.818 8.76727 7.82881C8.69512 7.7743 8.56505 7.8757 8.5506 7.74187C8.51817 7.7454 8.50735 7.70921 8.48926 7.69123V7.62966C8.44226 7.62966 8.38809 7.66585 8.33393 7.66585C8.30149 7.61134 8.23287 7.61134 8.21842 7.55365C8.21842 7.51382 8.26178 7.51382 8.27987 7.48116C8.1968 7.4667 8.15344 7.37623 8.10656 7.3182C8.10945 7.30296 8.11685 7.28894 8.12781 7.27796C8.13877 7.26698 8.15277 7.25955 8.16801 7.25663H8.2727C8.25461 7.22044 8.1968 7.18437 8.16801 7.1335C8.14991 7.15524 8.13546 7.18437 8.10656 7.19507C8.05603 7.20975 8.02348 7.17709 7.99469 7.14443C7.95498 7.16263 7.90445 7.15171 7.8719 7.12645C7.89352 7.05396 7.98752 7.03598 8.03794 6.99615C7.95498 7.03211 7.83207 7.01413 7.75992 6.94551C7.74911 6.91284 7.77438 6.89486 7.796 6.87302C7.74183 6.84764 7.6624 6.86209 7.62997 6.797C7.62632 6.75341 7.66251 6.74989 7.68413 6.71745C7.64442 6.68479 7.57944 6.68126 7.56851 6.62323C7.56851 6.59785 7.56487 6.56519 7.59742 6.56166C7.73102 6.62675 7.64442 6.44946 7.74194 6.44946C7.73113 6.4061 7.68413 6.38072 7.65523 6.34453C7.58649 6.42055 7.52163 6.31187 7.43856 6.33725C7.3952 6.28661 7.37358 6.21788 7.3952 6.15278C7.42058 6.13457 7.45665 6.11659 7.48191 6.13457C7.53608 6.18521 7.55782 6.19967 7.62997 6.17816C7.6228 6.05503 7.4241 6.09122 7.43127 5.94635C7.44937 5.92484 7.46735 5.91392 7.49272 5.91039L7.50001 5.91745C7.54325 5.85235 7.40612 5.7002 7.55418 5.68575L7.58661 5.73639L7.6047 5.61326C7.6517 5.5806 7.65523 5.67836 7.70951 5.63136L7.79611 5.52643C7.85392 5.5517 7.8323 5.64228 7.81421 5.68564L7.7853 5.72911C7.82502 5.74356 7.84311 5.76166 7.86473 5.79784C7.86837 5.87022 7.77449 5.88103 7.75275 5.94624C7.76357 5.94624 7.80328 5.93918 7.82138 5.95352L7.84664 6.01509C7.87919 6.00063 7.90092 5.95705 7.94416 5.9715C8.03441 6.0548 7.95498 6.17793 7.94416 6.27557C7.90445 6.31563 7.82855 6.30823 7.7853 6.28285L7.76027 6.25748C7.67355 6.34078 7.81079 6.4168 7.82889 6.49998C7.85779 6.48929 7.84687 6.4531 7.87224 6.44934C7.93722 6.482 7.89387 6.576 7.94451 6.62311C7.97341 6.576 7.94451 6.43842 8.04556 6.49281C8.09973 6.57236 8.0203 6.65577 8.04556 6.73532C8.07811 6.73885 8.08892 6.69196 8.12499 6.70994L8.15025 6.7533C8.18633 6.71734 8.24414 6.64109 8.3164 6.68456C8.35612 6.72075 8.34895 6.80394 8.32357 6.84752C8.28021 6.90556 8.35247 7.03575 8.22969 7.03199C8.22969 7.0576 8.22252 7.0865 8.23685 7.10824C8.25848 7.06818 8.29831 7.03199 8.34155 7.04667C8.3741 7.07558 8.37045 7.11893 8.41028 7.1442C8.41248 7.12577 8.41926 7.10818 8.42999 7.09303C8.44072 7.07789 8.45507 7.06567 8.47174 7.05748C8.57643 7.06454 8.5259 7.26733 8.66315 7.22022C8.76067 7.27473 8.64152 7.42665 8.76784 7.45555L8.81848 7.34335C8.77148 7.29999 8.70286 7.24195 8.73177 7.16958C8.77877 7.11893 8.84727 7.11893 8.91237 7.10824C8.80392 7.03199 8.63777 7.0576 8.56562 6.92707C8.53671 6.85458 8.58371 6.77503 8.59453 6.72792C8.74622 6.81862 8.88346 6.98158 9.07123 7.01401C9.11459 7.03575 9.1724 7.12269 9.21575 7.03939L9.25183 7.0032C9.21575 6.98522 9.16511 6.96337 9.15794 6.91626V6.85845C9.02787 6.86937 8.93399 6.81134 8.81848 6.7607V6.74272L8.87993 6.73543C8.77524 6.69924 8.73188 6.52183 8.60181 6.59785C8.54764 6.59785 8.51885 6.53628 8.46457 6.57987C8.42485 6.56895 8.4393 6.54368 8.4104 6.5183C8.35623 6.50385 8.29478 6.48564 8.26235 6.43136C8.25154 6.38072 8.30934 6.39517 8.33449 6.38072C8.32368 6.27557 8.16129 6.25759 8.21899 6.14539C8.23708 6.1381 8.24425 6.15267 8.25506 6.16359C8.30923 6.10203 8.2298 6.05492 8.21171 6.00428C8.14309 6.02965 8.07446 5.98254 8.04556 5.91733C7.98411 5.80866 8.11054 5.7942 8.16118 5.72911C8.10337 5.69292 8.09973 5.60962 8.11782 5.54441L8.14308 5.53724C8.16118 5.59881 8.13592 5.67483 8.19361 5.7183C8.24778 5.68575 8.32721 5.66766 8.38502 5.7002C8.46092 5.75084 8.38138 5.84143 8.4211 5.89207C8.46445 5.9319 8.42474 6.01167 8.49689 6.03318C8.52579 5.98982 8.47891 5.96092 8.48972 5.91733C8.54753 5.92462 8.54388 6.00063 8.56562 6.04046L8.72448 6.12741C8.56198 6.00075 8.63777 5.74356 8.44647 5.62419C8.34895 5.49753 8.48983 5.34185 8.3923 5.21508C8.38149 5.2441 8.34895 5.23317 8.33449 5.22236C8.27316 5.15716 8.17563 5.17889 8.10701 5.13553C8.07094 5.11016 8.04556 5.08842 8.0203 5.04859C8.00948 4.97986 8.06365 4.92182 8.12499 4.91101C8.19361 4.95448 8.31276 4.89656 8.34895 4.99067C8.45364 4.98703 8.56209 5.07033 8.60898 5.17161C8.67396 5.33093 8.45728 5.5336 8.7065 5.60598C8.8112 5.67836 8.72813 5.92462 8.91237 5.86658C8.95208 5.83039 8.90872 5.76154 8.95561 5.72911C8.85091 5.71818 8.75339 5.63136 8.7065 5.53713C8.63424 5.35255 8.6776 5.16797 8.80039 5.0231L9.04232 4.77331C8.98816 4.65382 8.80767 4.70811 8.71367 4.69365C8.68477 4.66828 8.6306 4.70811 8.60898 4.65746C8.57643 4.61775 8.55481 4.55607 8.57643 4.5019C8.58724 4.45126 8.52943 4.40415 8.50781 4.35351C8.47526 4.18691 8.67032 4.16529 8.74975 4.06025C8.82201 4.02042 8.82565 4.12546 8.84363 4.16517C8.84363 4.19055 8.8508 4.21957 8.83646 4.24119C8.77865 4.252 8.80756 4.17962 8.77501 4.15436C8.75327 4.20136 8.73529 4.24483 8.73882 4.30275C8.7931 4.34987 8.8508 4.29194 8.90497 4.28466C8.8978 4.36432 8.81108 4.39687 8.75692 4.44034C8.78218 4.45126 8.81108 4.49098 8.85433 4.47653C8.91578 4.39322 9.00966 4.34258 8.9844 4.2231C9.00602 4.14344 9.10355 4.15072 9.12881 4.07834C9.13598 4.0277 9.15772 3.9625 9.12881 3.91914C9.13974 3.90469 9.15772 3.9155 9.17217 3.91197C9.19026 3.93735 9.20107 3.96261 9.22634 3.9807C9.25888 3.94452 9.22269 3.85405 9.28779 3.85029L9.32033 3.91902C9.36369 3.89012 9.30952 3.80682 9.36369 3.79954C9.41069 3.8322 9.39977 3.88648 9.42503 3.92995C9.50093 3.90821 9.41422 3.79954 9.48648 3.79954C9.53348 3.84301 9.5262 3.90821 9.53701 3.9625C9.68153 3.9625 9.87294 3.9444 9.94509 4.10372C9.95954 4.10736 9.97035 4.11089 9.98116 4.12181C9.99926 4.10008 9.98116 4.07834 9.97035 4.06025C9.89445 3.88284 9.59106 3.92267 9.66697 3.69461C9.84745 3.49546 10.2014 3.55714 10.4218 3.64397C10.6208 3.7308 10.8267 3.88648 11.0649 3.79954ZM9.25911 4.60682C9.45416 4.92899 8.9052 5.03403 8.94127 5.34527C8.99544 5.60234 9.32056 5.33798 9.41797 5.56979C9.47226 5.61315 9.40352 5.76518 9.50469 5.73628C9.48307 5.7109 9.46497 5.67835 9.48659 5.64934H9.58048L9.48659 5.42492C9.46497 5.43938 9.42878 5.4684 9.40716 5.43221C9.34571 5.27289 9.26992 5.08467 9.33854 4.90361C9.23385 4.80222 9.42161 4.76239 9.42526 4.67556C9.38918 4.61399 9.46861 4.54526 9.45052 4.47641C9.39635 4.52364 9.32409 4.58873 9.25911 4.60682ZM10.032 6.03307C10.0356 6.09463 10.1008 6.16348 10.0392 6.22129C9.95613 6.09839 9.85143 6.22129 9.75391 6.23221C9.69246 6.24314 9.61303 6.28285 9.55522 6.23221C9.55157 6.18886 9.55886 6.15267 9.58048 6.12001C9.45405 6.17805 9.31328 5.96092 9.22656 6.10203L9.31328 6.17805C9.3349 6.26112 9.30964 6.34806 9.26992 6.41315L9.31328 6.4061C9.36016 6.47859 9.39624 6.36991 9.46133 6.4061L9.45052 6.39517C9.44825 6.37972 9.44933 6.36395 9.45369 6.34895C9.45805 6.33395 9.46558 6.32006 9.47578 6.30823C9.5625 6.29378 9.6491 6.33714 9.72864 6.36251L9.73581 6.31916C9.77553 6.3047 9.80079 6.30823 9.84051 6.31916C9.85143 6.4894 10.0392 6.33714 10.0934 6.45674C10.1656 6.38425 10.2848 6.42055 10.3534 6.36251C10.2632 6.3047 10.2343 6.18897 10.162 6.10908L10.1258 6.16359C10.0646 6.14527 10.0754 6.06925 10.032 6.03307ZM8.77512 6.15267L8.73177 6.12729L8.75703 6.13435L8.77512 6.15267ZM8.85456 6.14527L8.8871 6.30083H9.00989V6.28285C8.9918 6.23574 9.01706 6.1851 9.06042 6.15255L8.85456 6.14527ZM9.38907 6.90181L9.34571 6.97782C9.39624 7.03211 9.44688 7.07558 9.50458 7.10824C9.52267 7.09003 9.50093 7.0576 9.51903 7.03939C9.48648 7.04667 9.46122 7.02847 9.44324 7.0032C9.42878 6.9743 9.46486 6.96701 9.4685 6.94539C9.44335 6.92718 9.42161 6.90568 9.38907 6.90181ZM8.11782 6.9092C8.08892 6.95984 8.14308 6.99967 8.16846 7.0395C8.21535 6.98169 8.10701 6.96349 8.11782 6.9092ZM10.0247 6.97077L9.98868 6.99615C9.99801 7.00321 10.0053 7.01265 10.0097 7.02348C10.0142 7.03431 10.0156 7.04613 10.0139 7.05771L10.0247 6.97077ZM9.02798 7.34346C8.91612 7.3652 9.02446 7.47751 8.96665 7.53532C8.99908 7.55353 8.96665 7.65493 9.03527 7.60417C9.11117 7.6077 9.15089 7.67666 9.18343 7.73447L9.17251 7.68383C9.1906 7.6514 9.22304 7.61874 9.27004 7.62955C9.28802 7.63308 9.30975 7.65493 9.31339 7.67291V7.65493C9.33137 7.60429 9.38554 7.59689 9.43254 7.59689C9.47237 7.60781 9.4759 7.6514 9.48671 7.68383C9.54088 7.75985 9.61314 7.71274 9.69257 7.72742C9.73593 7.71649 9.77564 7.78523 9.80819 7.73447C9.72512 7.63308 9.56978 7.66198 9.53007 7.51734C9.46509 7.51006 9.35675 7.48468 9.33866 7.56799C9.29166 7.62227 9.22304 7.61134 9.15806 7.61134C9.12551 7.58244 9.07134 7.53532 9.10389 7.48104C9.14008 7.40855 9.21234 7.36167 9.2953 7.36884L9.28813 7.30727C9.23385 7.25299 9.02434 7.19507 9.02798 7.34346ZM10.7435 7.45578C10.6677 7.4667 10.6026 7.49197 10.5702 7.56799C10.5268 7.61134 10.4617 7.62227 10.4042 7.60417C10.357 7.644 10.2633 7.66198 10.2668 7.73447C10.4799 7.91188 10.5991 7.56446 10.7869 7.55353C10.7435 7.5318 10.758 7.48844 10.7435 7.45578Z" fill="#553117"/>
<path id="Vector_4" fill-rule="evenodd" clip-rule="evenodd" d="M9.79661 3.7559C9.83268 3.84273 9.9194 3.76307 9.96992 3.82464L9.85794 3.86811C9.80742 3.83909 9.7388 3.81747 9.7207 3.7559C9.74232 3.6726 9.82904 3.63994 9.9013 3.62549L9.79661 3.7559Z" fill="#A27550"/>
<path id="Vector_5" fill-rule="evenodd" clip-rule="evenodd" d="M10.3718 3.70163C10.3608 3.74874 10.3862 3.79938 10.4151 3.84285C10.2671 3.86459 10.1516 3.78493 10.0576 3.69446C10.0143 3.74157 10.101 3.79574 10.1117 3.82476C10.0358 3.80313 9.98178 3.73064 9.90234 3.71983C10.0106 3.52797 10.2272 3.67989 10.3718 3.70163ZM11.0977 3.84285C11.1086 3.90806 11.0543 3.9587 11.0039 3.98043C10.8161 4.03107 10.6788 3.90077 10.5163 3.86094C10.4729 3.8284 10.437 3.78857 10.4225 3.73793C10.6318 3.8103 10.8703 4.00217 11.0977 3.84285ZM10.3537 4.09264C10.3464 4.06726 10.3177 4.05645 10.2923 4.04917L10.267 4.07807L10.3537 4.3026C10.3392 4.30624 10.2959 4.23386 10.267 4.27722C10.2705 4.35324 10.3283 4.42926 10.3176 4.51973C10.2705 4.50527 10.2849 4.41833 10.2127 4.43278C10.1767 4.46897 10.2127 4.53771 10.2127 4.58846L10.1369 4.43278C10.1693 4.44371 10.1873 4.41833 10.2056 4.3966C10.1802 4.36405 10.267 4.34231 10.249 4.2952C10.2634 4.19028 10.1912 4.14681 10.2056 4.04177C10.155 3.99466 10.2345 3.92592 10.1694 3.88609C10.1912 3.87164 10.2272 3.87517 10.249 3.88609C10.3068 3.94425 10.3284 4.02379 10.3537 4.09264ZM10.137 3.92979C10.1514 3.97315 10.0936 3.99136 10.0575 3.98043C9.99611 3.99489 9.96004 3.95141 9.92021 3.9117C9.9853 3.89349 10.0757 3.87187 10.137 3.92979Z" fill="#A27550"/>
<path id="Vector_6" fill-rule="evenodd" clip-rule="evenodd" d="M10.6376 4.12143L10.6628 4.24091C10.6087 4.07078 10.3703 4.0635 10.3594 3.9043C10.4894 3.92239 10.5616 4.02367 10.6376 4.12143Z" fill="#936349"/>
<path id="Vector_7" fill-rule="evenodd" clip-rule="evenodd" d="M9.39819 4.04237C9.4379 4.04601 9.46328 3.9989 9.4849 3.97363C9.49207 4.00629 9.49571 4.06774 9.52826 4.10405H9.55352L9.56069 4.02439C9.6655 4.02803 9.78101 4.00629 9.85691 4.07867C9.79546 4.1004 9.71239 4.0352 9.65822 4.09323C9.70874 4.1837 9.8387 4.12578 9.89298 4.23435C9.828 4.27053 9.74129 4.15833 9.6655 4.19816C9.70157 4.27065 9.80627 4.27782 9.85691 4.33938C9.78101 4.37557 9.65469 4.33938 9.57879 4.27782C9.62214 4.23799 9.64024 4.18006 9.63295 4.12942C9.55705 4.08959 9.59688 4.19463 9.55352 4.21625C9.52462 4.24516 9.48126 4.2307 9.44166 4.23435C9.45964 4.19087 9.44883 4.12578 9.41628 4.10405H9.39819C9.36564 4.14023 9.42709 4.18371 9.38009 4.21625C9.32957 4.28146 9.25002 4.18006 9.21406 4.25972H9.19961C9.1888 4.23799 9.21406 4.2307 9.22487 4.21625C9.25013 4.21989 9.26823 4.20908 9.28632 4.19087C9.27915 4.14376 9.22487 4.12931 9.1888 4.11122H9.15625L9.1888 4.0171C9.2177 4.04237 9.19961 4.11122 9.25742 4.10393L9.29349 4.00618C9.28985 4.02427 9.29713 4.03873 9.31159 4.04965C9.35847 4.06046 9.36211 4.00254 9.37292 3.97363C9.39454 3.99161 9.36211 4.02791 9.39819 4.04237Z" fill="#A27550"/>
<path id="Vector_8" fill-rule="evenodd" clip-rule="evenodd" d="M11.5913 4.57035C11.6453 4.6862 11.6922 4.8165 11.808 4.88535C11.4973 4.77314 11.4684 4.41831 11.2879 4.19038C11.2697 4.18673 11.2517 4.15783 11.2372 4.17956L11.3746 4.433C11.324 4.49092 11.4395 4.5452 11.3746 4.60677C11.3492 4.62486 11.3059 4.61394 11.2951 4.58139C11.288 4.53792 11.3493 4.55965 11.3493 4.51982C11.3349 4.32068 11.1616 4.18673 11.0098 4.06724C11.0604 4.00204 11.1616 4.03106 11.2374 4.07806C11.407 4.20471 11.5442 4.37484 11.5913 4.57035Z" fill="#936349"/>
<path id="Vector_9" fill-rule="evenodd" clip-rule="evenodd" d="M10.1548 4.07823V4.11089C10.1189 4.08551 10.0212 4.13627 10.0393 4.04932C10.072 4.06025 10.1585 3.9914 10.1548 4.07823Z" fill="#A27550"/>
<path id="Vector_10" fill-rule="evenodd" clip-rule="evenodd" d="M10.6027 4.28458L10.4727 4.12891C10.5342 4.15792 10.5883 4.22302 10.6027 4.28458Z" fill="#936349"/>
<path id="Vector_11" fill-rule="evenodd" clip-rule="evenodd" d="M10.0758 4.30989L10.063 4.42573C10.0414 4.35336 9.96368 4.19415 9.90234 4.14704C9.98906 4.14329 10.0685 4.29532 10.0758 4.30989Z" fill="#A27550"/>
<path id="Vector_12" fill-rule="evenodd" clip-rule="evenodd" d="M9.00963 4.32789C8.99154 4.25915 9.04207 4.2084 9.08554 4.17221L9.16497 4.16504C9.10716 4.21204 9.14323 4.36043 9.00963 4.32789Z" fill="#CC2229"/>
<path id="Vector_13" fill-rule="evenodd" clip-rule="evenodd" d="M8.69528 4.36411C8.72783 4.36411 8.73853 4.35695 8.76743 4.3714C8.76026 4.38585 8.67002 4.40758 8.69528 4.46904C8.72407 4.51615 8.78552 4.49077 8.82535 4.51251L8.84345 4.632C8.782 4.65362 8.71338 4.63552 8.65192 4.6139C8.61949 4.57043 8.6303 4.52343 8.65192 4.47643C8.61585 4.41487 8.52914 4.34613 8.57613 4.26647L8.70621 4.17236C8.70245 4.23734 8.65193 4.30255 8.69528 4.36411Z" fill="#6CB476"/>
<path id="Vector_14" fill-rule="evenodd" clip-rule="evenodd" d="M10.1854 4.25206L10.1784 4.30999C10.1135 4.30282 10.0917 4.23033 10.0664 4.17969C10.1134 4.18697 10.1747 4.19061 10.1854 4.25206Z" fill="#A27550"/>
<path id="Vector_15" fill-rule="evenodd" clip-rule="evenodd" d="M10.551 4.39683L10.533 4.46921C10.4932 4.37157 10.403 4.29544 10.3848 4.19052C10.4678 4.18687 10.569 4.29908 10.551 4.39683ZM11.2371 4.55604C11.2371 4.60679 11.2696 4.65743 11.2444 4.71172C11.1215 4.75154 11.0168 4.57425 10.9228 4.48366C10.9988 4.54887 11.0781 4.59587 11.1575 4.65015C11.219 4.61396 11.1539 4.56321 11.1504 4.51985L10.9337 4.21578C11.0564 4.30272 11.1539 4.43302 11.2371 4.55604Z" fill="#936349"/>
<path id="Vector_16" fill-rule="evenodd" clip-rule="evenodd" d="M10.0055 4.43302L9.98024 4.48366C9.94041 4.4873 9.93688 4.44383 9.91879 4.42574C9.94769 4.42221 9.97295 4.38591 9.98741 4.36417C10.0019 4.28451 9.9296 4.37863 9.91879 4.30989L9.94405 4.27734C9.98024 4.31365 10.0236 4.3751 10.0055 4.43302ZM9.59025 4.36429C9.51799 4.41857 9.62996 4.63217 9.48555 4.5706C9.48555 4.56025 9.5758 4.39638 9.38086 4.28463C9.52709 4.29009 9.54689 4.27734 9.59025 4.36429Z" fill="#A27550"/>
<path id="Vector_17" fill-rule="evenodd" clip-rule="evenodd" d="M9.42487 4.39675C9.39961 4.45467 9.33816 4.50543 9.27682 4.51988C9.28035 4.46913 9.30937 4.4112 9.28763 4.37149C9.15756 4.40403 9.00962 4.44386 8.94089 4.56335L8.95534 4.63208C8.92655 4.63208 8.90117 4.5959 8.88672 4.57052C8.91562 4.50179 8.96251 4.42577 9.03477 4.38958C9.08541 4.3642 9.19363 4.40767 9.19011 4.32085C9.28763 4.30628 9.36354 4.33883 9.42487 4.39675Z" fill="#A27550"/>
<path id="Vector_18" fill-rule="evenodd" clip-rule="evenodd" d="M10.6883 4.43301C10.6667 4.4041 10.6234 4.35335 10.6812 4.3208C10.728 4.34982 10.6377 4.39318 10.6883 4.43301Z" fill="#936349"/>
<path id="Vector_19" fill-rule="evenodd" clip-rule="evenodd" d="M9.70317 4.43999L9.64172 4.61376C9.68143 4.54503 9.55148 4.38571 9.68508 4.39652L9.70317 4.43999ZM9.81503 4.42542C9.83313 4.46537 9.81868 4.51237 9.79694 4.54491L9.76439 4.42542H9.81503Z" fill="#A27550"/>
<path id="Vector_20" fill-rule="evenodd" clip-rule="evenodd" d="M10.6376 4.6321L10.6014 4.67557C10.5292 4.60308 10.5979 4.50544 10.6124 4.42578C10.6448 4.47278 10.6556 4.56325 10.6376 4.6321ZM10.4461 4.51261C10.4715 4.57053 10.4715 4.63927 10.4823 4.70083L10.3848 4.45104C10.4245 4.4185 10.5003 4.45469 10.4461 4.51261Z" fill="#936349"/>
<path id="Vector_21" fill-rule="evenodd" clip-rule="evenodd" d="M9.9369 4.83094C9.88273 4.744 9.84655 4.6137 9.87545 4.4834C9.99824 4.54861 9.92962 4.72238 9.9369 4.83094Z" fill="#A27550"/>
<path id="Vector_22" fill-rule="evenodd" clip-rule="evenodd" d="M9.23279 4.65764C9.26169 4.96171 8.79216 5.04502 8.87887 5.37082C8.93304 5.46129 8.89685 5.59523 9.01611 5.64951C8.92587 5.64951 8.81025 5.62414 8.76689 5.51921C8.71272 5.4432 8.72354 5.32735 8.72354 5.24041C8.78863 5.04854 9.0053 4.95079 9.10283 4.78794C9.08485 4.72274 9.06311 4.65753 9.01623 4.607C9.0053 4.57798 9.0234 4.53827 9.05958 4.52734C9.13526 4.52734 9.20024 4.59972 9.23279 4.65764Z" fill="#6CB476"/>
<path id="Vector_23" fill-rule="evenodd" clip-rule="evenodd" d="M10.082 4.58842L10.0566 4.52686L10.082 4.57033V4.58842Z" fill="#936349"/>
<path id="Vector_24" fill-rule="evenodd" clip-rule="evenodd" d="M9.80774 4.61408C9.80774 4.69009 9.8511 4.77339 9.76438 4.82404L9.72831 4.84941C9.72467 4.78068 9.76438 4.71911 9.73548 4.65038C9.67414 4.67928 9.68131 4.7553 9.66686 4.81687C9.59095 4.7083 9.75346 4.66119 9.72819 4.55615C9.75357 4.57436 9.75721 4.63581 9.80774 4.61408Z" fill="#A27550"/>
<path id="Vector_25" fill-rule="evenodd" clip-rule="evenodd" d="M10.4141 4.85986L10.3348 4.60643L10.3782 4.58105C10.4034 4.66071 10.4792 4.76564 10.4141 4.85986ZM10.1684 4.99016C10.1433 4.84894 9.9843 4.75847 10.0059 4.59915C10.1107 4.70054 10.1684 4.84894 10.1684 4.99016Z" fill="#936349"/>
<path id="Vector_26" fill-rule="evenodd" clip-rule="evenodd" d="M9.53684 4.81686H9.51874L9.5802 4.625C9.58008 4.672 9.63072 4.78432 9.53684 4.81686ZM11.8013 5.1355C11.5737 5.07394 11.5413 4.80605 11.4546 4.625C11.5882 4.78785 11.6712 4.99064 11.8013 5.1355ZM9.44295 4.84213C9.42122 4.8493 9.40677 4.83132 9.38867 4.82403L9.50429 4.67575C9.48267 4.72992 9.47539 4.79877 9.44295 4.84213Z" fill="#A27550"/>
<path id="Vector_27" fill-rule="evenodd" clip-rule="evenodd" d="M10.3098 5.00471L10.2988 4.69336L10.353 4.87441L10.3098 5.00471Z" fill="#936349"/>
<path id="Vector_28" fill-rule="evenodd" clip-rule="evenodd" d="M11.4008 4.69351C11.4656 4.8601 11.5505 5.01814 11.6538 5.16406L11.6284 5.18944C11.4768 5.07007 11.4225 4.88537 11.3574 4.71888C11.3467 4.68986 11.3827 4.69351 11.4008 4.69351Z" fill="#A27550"/>
<path id="Vector_29" fill-rule="evenodd" clip-rule="evenodd" d="M11.1338 4.80563C11.0869 4.83101 11.0327 4.78025 10.9858 4.75488C11.0254 4.67533 11.0831 4.74407 11.1338 4.77309V4.80563ZM10.9929 4.89246C10.964 4.97212 10.9099 4.8961 10.8738 4.88529L10.8304 4.82373C10.8629 4.80927 10.8738 4.76216 10.8558 4.72961C10.9027 4.7839 11.0109 4.82361 10.9929 4.89246ZM10.545 4.82361C10.5343 4.84899 10.5235 4.88154 10.4907 4.89235C10.4728 4.84887 10.5595 4.80916 10.5523 4.75476C10.5704 4.77661 10.527 4.80563 10.545 4.82361Z" fill="#936349"/>
<path id="Vector_30" fill-rule="evenodd" clip-rule="evenodd" d="M11.5484 5.21464C11.4367 5.14227 11.3246 4.97214 11.2812 4.82363L11.2957 4.78027C11.368 4.92503 11.4258 5.08434 11.5484 5.21464Z" fill="#A27550"/>
<path id="Vector_31" fill-rule="evenodd" clip-rule="evenodd" d="M10.0746 5.08429C10.0384 5.0011 9.98425 4.92508 10.0059 4.81641C10.0602 4.88514 10.0891 4.99018 10.0746 5.08429ZM9.95182 5.10238C9.90482 5.01544 9.83984 4.92861 9.83984 4.83086C9.91928 4.89607 9.95899 4.9937 9.95182 5.10238Z" fill="#936349"/>
<path id="Vector_32" fill-rule="evenodd" clip-rule="evenodd" d="M11.4358 5.2146C11.2878 5.17124 11.2336 5.01193 11.1758 4.89244L11.2082 4.8418C11.2481 4.97927 11.3418 5.09875 11.4358 5.2146ZM9.82137 5.22189C9.75274 5.22905 9.73829 5.14587 9.70939 5.1024L9.69141 5.01545L9.75286 5.04811C9.81784 5.00464 9.73841 4.93591 9.78893 4.88515C9.83935 4.98291 9.79974 5.11321 9.82137 5.22189ZM11.0963 4.90325C11.1613 5.00817 11.2082 5.12049 11.2879 5.22177C11.1541 5.24351 11.1001 5.07338 11.0458 4.97927L11.0712 4.89232L11.0963 4.90325Z" fill="#A27550"/>
<path id="Vector_33" fill-rule="evenodd" clip-rule="evenodd" d="M10.8561 4.95396C10.8488 4.97934 10.8417 5.0046 10.8199 5.01553C10.784 5.01553 10.7551 4.98662 10.7441 4.95396L10.7946 4.90332C10.8198 4.91049 10.8378 4.93587 10.8561 4.95396Z" fill="#936349"/>
<path id="Vector_34" fill-rule="evenodd" clip-rule="evenodd" d="M11.8706 4.96141C11.8777 5.00124 11.8524 5.02662 11.8597 5.06645C11.7946 5.05552 11.7657 4.98315 11.7296 4.93604L11.8706 4.96141ZM8.15055 4.96141C8.1361 4.98679 8.08557 5.00852 8.0891 5.04835C8.05303 5.00124 8.11437 4.9687 8.15055 4.96141ZM9.64212 5.35242C9.58066 5.26195 9.54823 5.1642 9.53742 5.04835C9.54823 5.06645 9.56268 5.07009 9.58078 5.06645C9.63859 5.04107 9.56997 4.99396 9.61685 4.96141C9.6024 5.09183 9.59876 5.24011 9.64212 5.35242Z" fill="#A27550"/>
<path id="Vector_35" fill-rule="evenodd" clip-rule="evenodd" d="M10.6999 5.01552L10.6889 5.06628C10.66 5.059 10.6346 5.0409 10.6131 5.01552L10.6456 4.97217C10.6674 4.97581 10.6819 5.00107 10.6999 5.01552ZM10.7612 5.3015C10.6096 5.27248 10.5265 5.10964 10.4902 4.97934C10.6168 5.06992 10.6241 5.21103 10.7612 5.3015Z" fill="#936349"/>
<path id="Vector_36" fill-rule="evenodd" clip-rule="evenodd" d="M8.2793 4.99763C8.26121 5.03018 8.2034 5.07729 8.23595 5.12793C8.2034 5.13157 8.17449 5.09174 8.16016 5.06637C8.1638 5.01561 8.23595 4.98307 8.2793 4.99763ZM11.0892 5.20748C11.0241 5.17857 10.9556 5.08435 10.9339 5.0048C11.0314 5.01561 11.0206 5.14591 11.0892 5.20748ZM9.44233 5.34506C9.38993 5.25231 9.36255 5.14752 9.3629 5.04099C9.37007 5.06261 9.38452 5.08799 9.40614 5.09163L9.46031 5.03371C9.49285 5.12065 9.51448 5.26552 9.44233 5.34506ZM8.34064 5.1532C8.31185 5.16765 8.28647 5.10256 8.2974 5.07718C8.32266 5.06637 8.34064 5.04452 8.36602 5.04099L8.34064 5.1532Z" fill="#A27550"/>
<path id="Vector_37" fill-rule="evenodd" clip-rule="evenodd" d="M8.5504 5.18938C8.59375 5.31615 8.47825 5.40662 8.5216 5.53692C8.7492 5.61294 8.64803 5.90256 8.86835 5.95331L8.89714 6.06552C8.84661 6.07257 8.81418 6.04731 8.76707 6.05824C8.60456 5.93533 8.70209 5.69624 8.50704 5.59849C8.43113 5.45374 8.55404 5.23285 8.40234 5.12065L8.40951 5.05908C8.45651 5.08799 8.52513 5.12793 8.5504 5.18938Z" fill="#6CB476"/>
<path id="Vector_38" fill-rule="evenodd" clip-rule="evenodd" d="M10.9781 5.2147L11.0215 5.25817C10.9711 5.25817 10.9133 5.23279 10.8734 5.17851C10.8555 5.15313 10.8301 5.12423 10.8301 5.09168C10.9132 5.03729 10.9059 5.18215 10.9781 5.2147Z" fill="#A27550"/>
<path id="Vector_39" fill-rule="evenodd" clip-rule="evenodd" d="M10.0055 5.19672L10.0742 5.33794C10.0272 5.28002 9.98751 5.14972 9.89362 5.16417L9.88281 5.0918C9.90079 5.14597 9.9586 5.17863 10.0055 5.19672Z" fill="#936349"/>
<path id="Vector_40" fill-rule="evenodd" clip-rule="evenodd" d="M10.8733 5.27631C10.8046 5.2655 10.7469 5.22203 10.707 5.1641L10.7613 5.10254C10.7793 5.16775 10.8299 5.2292 10.8733 5.27631Z" fill="#A27550"/>
<path id="Vector_41" fill-rule="evenodd" clip-rule="evenodd" d="M10.2121 5.43211C10.1687 5.35245 10.093 5.28008 10.082 5.19678L10.2121 5.43211Z" fill="#936349"/>
<path id="Vector_42" fill-rule="evenodd" clip-rule="evenodd" d="M11.7216 5.19687C11.7505 5.41776 11.7596 5.74903 11.7487 5.97355C11.7487 5.74538 11.7 5.43949 11.6855 5.21497C11.6965 5.20768 11.7072 5.18959 11.7216 5.19687ZM11.821 5.16797L11.8265 5.21497L11.8121 6.08189L11.7669 5.23124L11.821 5.16797Z" fill="#79513F"/>
<path id="Vector_43" fill-rule="evenodd" clip-rule="evenodd" d="M10.5147 5.32672L10.5436 5.48239L10.3848 5.22168C10.4354 5.2507 10.4499 5.37383 10.5147 5.32672Z" fill="#936349"/>
<path id="Vector_44" fill-rule="evenodd" clip-rule="evenodd" d="M11.461 5.28361C11.4827 5.42836 11.4901 5.59132 11.4863 5.73618C11.4215 5.58768 11.3852 5.42847 11.3492 5.26562C11.3852 5.27279 11.4249 5.30534 11.461 5.28361ZM11.3311 5.62386C11.2624 5.5623 11.2262 5.39945 11.1758 5.28361C11.3707 5.26915 11.2805 5.51177 11.3311 5.62386ZM11.5839 5.82313V5.84839L11.5477 5.30181C11.5659 5.30534 11.6164 5.2547 11.6092 5.30898C11.638 5.4864 11.5911 5.65288 11.5839 5.82313Z" fill="#79513F"/>
<path id="Vector_45" fill-rule="evenodd" clip-rule="evenodd" d="M9.94438 5.38854C9.93721 5.38126 9.88657 5.32698 9.90102 5.29443L9.94438 5.38854Z" fill="#936349"/>
<path id="Vector_46" fill-rule="evenodd" clip-rule="evenodd" d="M11.178 5.59868C11.0949 5.5263 11.0586 5.43219 11.0117 5.34525C11.0406 5.34525 11.0624 5.27276 11.0984 5.30178C11.1455 5.39225 11.1491 5.51538 11.178 5.59868Z" fill="#79513F"/>
<path id="Vector_47" fill-rule="evenodd" clip-rule="evenodd" d="M10.5256 5.56977L10.3594 5.34524L10.3703 5.32715C10.4389 5.396 10.4643 5.49364 10.5256 5.56977Z" fill="#936349"/>
<path id="Vector_48" fill-rule="evenodd" clip-rule="evenodd" d="M10.8477 5.34524C10.8512 5.33796 10.9019 5.35969 10.9164 5.32715L10.9922 5.5263L10.8477 5.34524Z" fill="#79513F"/>
<path id="Vector_49" fill-rule="evenodd" clip-rule="evenodd" d="M9.77903 5.50072L10.0065 5.81572C9.87291 5.71796 9.80065 5.58766 9.70312 5.45737L9.72122 5.38135C9.77186 5.39944 9.75012 5.46465 9.77903 5.50072Z" fill="#A27550"/>
<path id="Vector_50" fill-rule="evenodd" clip-rule="evenodd" d="M10.0133 5.71801C9.95182 5.6528 9.88684 5.53695 9.83984 5.43931L9.87603 5.38867C9.94829 5.48995 9.98073 5.60216 10.0133 5.71801Z" fill="#936349"/>
<path id="Vector_51" fill-rule="evenodd" clip-rule="evenodd" d="M10.258 5.59327L10.2491 5.64755L10.1426 5.43213C10.1533 5.46115 10.2474 5.56072 10.258 5.59327Z" fill="#79513F"/>
<path id="Vector_52" fill-rule="evenodd" clip-rule="evenodd" d="M9.37501 5.67427C9.29193 5.52224 9.07526 5.69601 8.99219 5.52588C9.10781 5.60907 9.35338 5.45703 9.37501 5.67427Z" fill="#A27550"/>
<path id="Vector_53" fill-rule="evenodd" clip-rule="evenodd" d="M12.4073 5.74354C12.4288 5.77256 12.4507 5.75071 12.476 5.74354L12.5194 5.66752C12.5374 5.84846 12.476 6.03304 12.3027 6.12738C12.2484 6.05137 12.1763 5.98252 12.1798 5.88465C12.2232 5.81239 12.2232 5.70735 12.1907 5.63134C12.2595 5.68926 12.2269 5.80158 12.2845 5.85939C12.3172 5.75435 12.2883 5.62769 12.3461 5.53711C12.3567 5.60243 12.4145 5.67481 12.4073 5.74354Z" fill="#33A457"/>
<path id="Vector_54" fill-rule="evenodd" clip-rule="evenodd" d="M9.75235 5.85925L9.58984 5.55518L9.74507 5.76149L9.75235 5.85925Z" fill="#936349"/>
<path id="Vector_55" fill-rule="evenodd" clip-rule="evenodd" d="M11.6703 6.04755C11.6305 5.90644 11.6703 5.72914 11.6703 5.56982C11.6813 5.72539 11.7391 5.9028 11.6703 6.04755ZM10.1679 5.7725C10.2366 5.6892 10.2835 5.89552 10.3161 5.76158C10.4173 5.9102 10.5689 6.03663 10.6195 6.20687C10.4497 6.10548 10.3161 5.92818 10.2042 5.77978C10.186 5.95708 10.3811 6.06576 10.3956 6.23964C10.298 6.01512 10.1102 5.8269 10.0488 5.58792C10.0885 5.64937 10.1102 5.71822 10.1679 5.7725Z" fill="#79513F"/>
<path id="Vector_56" fill-rule="evenodd" clip-rule="evenodd" d="M10.7555 5.72853C10.7519 5.73206 10.7174 5.7538 10.721 5.76108L10.6289 5.59277L10.7555 5.72853Z" fill="#936349"/>
<path id="Vector_57" fill-rule="evenodd" clip-rule="evenodd" d="M7.72828 5.80505H7.80418C7.77164 5.86297 7.65249 5.90633 7.68503 5.98975C7.69949 6.01148 7.76447 6.03663 7.7862 6.03663L7.69596 6.27197C7.68868 6.17421 7.55872 6.04391 7.51172 5.97882C7.55508 5.9861 7.56589 5.93899 7.58034 5.91009C7.56953 5.87378 7.55872 5.84477 7.56225 5.80505C7.58751 5.81586 7.62006 5.83395 7.64896 5.81586C7.68868 5.77603 7.64896 5.72903 7.64896 5.68556C7.67787 5.6892 7.7392 5.67828 7.77175 5.64209C7.76799 5.70001 7.68492 5.74713 7.72828 5.80505Z" fill="#33A457"/>
<path id="Vector_58" fill-rule="evenodd" clip-rule="evenodd" d="M10.3595 5.71811L10.3164 5.64209L10.3849 5.69273L10.3595 5.71811ZM10.4715 5.74337C10.6233 5.8302 10.6737 6.00044 10.8183 6.10889L11.0712 6.32625L10.9593 6.33695C10.7785 6.11982 10.5728 5.91714 10.4211 5.69262C10.4607 5.64209 10.4645 5.72164 10.4715 5.74337Z" fill="#79513F"/>
<path id="Vector_59" fill-rule="evenodd" clip-rule="evenodd" d="M9.09707 5.85903C9.07181 5.83001 9.07181 5.7722 9.09707 5.74318L9.16569 5.69971C9.15488 5.73965 9.08262 5.79029 9.09707 5.85903Z" fill="white"/>
<path id="Vector_60" fill-rule="evenodd" clip-rule="evenodd" d="M9.44955 5.86622C9.42429 5.91686 9.38457 5.96044 9.33041 5.97842C9.25097 6.00016 9.19316 5.95305 9.18235 5.8842C9.17871 5.84812 9.15698 5.79384 9.18952 5.76118C9.27976 5.65626 9.39538 5.79737 9.44955 5.86622Z" fill="#79513F"/>
<path id="Vector_61" fill-rule="evenodd" clip-rule="evenodd" d="M9.64921 5.77217C9.62395 5.77934 9.56626 5.76124 9.5625 5.71777C9.59493 5.7287 9.63829 5.73234 9.64921 5.77217Z" fill="#A27550"/>
<path id="Vector_62" fill-rule="evenodd" clip-rule="evenodd" d="M8.34882 5.736C8.35963 5.783 8.33801 5.88075 8.27292 5.83011L8.21875 5.7723C8.25858 5.74681 8.2983 5.72872 8.34882 5.736Z" fill="#E0922F"/>
<path id="Vector_63" fill-rule="evenodd" clip-rule="evenodd" d="M9.01586 5.85897C8.96886 5.82642 8.97614 5.76486 9.02667 5.73584L9.01586 5.85897ZM9.57199 5.8229C9.5358 5.85897 9.50326 5.89163 9.49245 5.9351C9.51407 5.90244 9.52852 5.81903 9.51054 5.76122L9.57199 5.8229Z" fill="white"/>
<path id="Vector_64" fill-rule="evenodd" clip-rule="evenodd" d="M11.4626 6.25046C11.4375 6.27196 11.3978 6.28642 11.358 6.29381C11.1775 6.14531 10.9932 5.99714 10.8198 5.82326V5.77979C11.0366 5.92818 11.199 6.2104 11.4626 6.25046ZM11.1341 6.26491C10.9463 6.1345 10.7945 5.97154 10.6465 5.78695L11.1341 6.26491Z" fill="#79513F"/>
<path id="Vector_65" fill-rule="evenodd" clip-rule="evenodd" d="M8.25362 5.89163C8.232 5.90608 8.20309 5.92782 8.17419 5.90984C8.16338 5.90608 8.15985 5.92053 8.14892 5.92782C8.12366 5.89516 8.08747 5.81914 8.15985 5.80469C8.20309 5.81197 8.20662 5.87718 8.25362 5.89163Z" fill="#E0922F"/>
<path id="Vector_66" fill-rule="evenodd" clip-rule="evenodd" d="M9.72813 5.91684H9.58008C9.59089 5.8662 9.64506 5.85891 9.68477 5.84082C9.70287 5.8662 9.72085 5.88793 9.72813 5.91684Z" fill="#A27550"/>
<path id="Vector_67" fill-rule="evenodd" clip-rule="evenodd" d="M10.2128 6.05817C10.1768 6.03644 10.1732 5.98216 10.1261 5.97863L10.0936 6.02199L9.99609 5.87359C10.0539 5.90614 10.0466 5.79393 10.0936 5.85914L10.2128 6.05817Z" fill="#79513F"/>
<path id="Vector_68" fill-rule="evenodd" clip-rule="evenodd" d="M9.92591 5.90251L9.96927 6.07628C9.90065 6.05455 9.85729 5.94587 9.83203 5.86621C9.85377 5.90251 9.91146 5.92436 9.92591 5.90251Z" fill="#A27550"/>
<path id="Vector_69" fill-rule="evenodd" clip-rule="evenodd" d="M8.4026 6.09089C8.34115 6.1198 8.29062 6.03285 8.26172 5.9895C8.27253 5.94967 8.34479 5.9244 8.36641 5.87354C8.39179 5.94238 8.43151 6.01487 8.4026 6.09089Z" fill="#CC2229"/>
<path id="Vector_70" fill-rule="evenodd" clip-rule="evenodd" d="M9.12803 5.91701C9.14965 5.96765 9.16786 6.02193 9.14612 6.07632C9.08467 6.09078 9.00888 6.09078 8.96552 6.04014C8.915 6.00031 8.92945 5.92793 8.94015 5.87354C8.9909 5.91701 9.06669 5.9821 9.12803 5.91701Z" fill="#79513F"/>
<path id="Vector_71" fill-rule="evenodd" clip-rule="evenodd" d="M9.68528 5.98975C9.64192 6.07282 9.53359 6.04403 9.45051 6.04756L9.41797 6.0331C9.48659 5.98975 9.59493 6.0042 9.68528 5.98975Z" fill="#A27550"/>
<path id="Vector_72" fill-rule="evenodd" clip-rule="evenodd" d="M7.92473 6.11954C7.90311 6.11249 7.88854 6.09417 7.86328 6.10156L7.91381 6.03271C7.94283 6.04353 7.93566 6.09428 7.92473 6.11954Z" fill="#668566"/>
<path id="Vector_73" fill-rule="evenodd" clip-rule="evenodd" d="M9.86498 6.10206C9.87215 6.09854 9.87579 6.09114 9.88308 6.09114L9.89389 6.10206C9.80717 6.13802 9.7241 6.17433 9.62305 6.1708L9.72057 6.05859C9.75665 6.09854 9.81081 6.12369 9.86498 6.10206Z" fill="#A27550"/>
<path id="Vector_74" fill-rule="evenodd" clip-rule="evenodd" d="M8.80028 6.25006C8.82566 6.35498 8.76773 6.44545 8.68841 6.51794H8.66315C8.67396 6.51418 8.67032 6.49973 8.67032 6.49256C8.61615 6.44192 8.56563 6.51054 8.50782 6.49962C8.50782 6.48164 8.50417 6.46719 8.48972 6.45626C8.46082 6.45626 8.42474 6.49609 8.40301 6.45626C8.42827 6.38377 8.34884 6.31139 8.32358 6.23913C8.35612 6.23913 8.32722 6.18849 8.31641 6.16311C8.34531 6.14491 8.38503 6.18849 8.4211 6.16311L8.47163 6.07617C8.60534 6.07629 8.69558 6.19555 8.80028 6.25006Z" fill="#6CB476"/>
<path id="Vector_75" fill-rule="evenodd" clip-rule="evenodd" d="M10.8197 6.44916C10.7366 6.43471 10.6212 6.45291 10.5886 6.35163C10.5632 6.31897 10.5815 6.25388 10.5272 6.25024C10.5128 6.26094 10.5055 6.27539 10.5092 6.2936L10.4297 6.13428C10.5381 6.30805 10.7728 6.24284 10.8197 6.44916Z" fill="#79513F"/>
<path id="Vector_76" fill-rule="evenodd" clip-rule="evenodd" d="M10.8984 6.38054C10.8189 6.41673 10.79 6.30805 10.7501 6.26469L10.6816 6.13428L10.8984 6.38054Z" fill="#79513F"/>
<path id="Vector_77" fill-rule="evenodd" clip-rule="evenodd" d="M7.9017 6.19554V6.23913H7.82227C7.82943 6.19554 7.86198 6.116 7.9017 6.19554Z" fill="#668566"/>
<path id="Vector_78" fill-rule="evenodd" clip-rule="evenodd" d="M9.26879 6.21417C9.26515 6.2829 9.24717 6.36973 9.18207 6.38771C9.10253 6.39864 9.08091 6.30817 9.05928 6.25741C9.05212 6.21758 9.10253 6.19232 9.12791 6.17787C9.16774 6.18139 9.21098 6.22851 9.21462 6.16341C9.24353 6.15966 9.26515 6.18879 9.26879 6.21417Z" fill="#E0922F"/>
<path id="Vector_79" fill-rule="evenodd" clip-rule="evenodd" d="M8.47878 6.21397C8.46797 6.25733 8.43542 6.20305 8.41016 6.19576L8.42097 6.17039C8.44623 6.16674 8.48242 6.18484 8.47878 6.21397ZM8.59428 6.18859C8.59601 6.19816 8.59396 6.20802 8.58857 6.2161C8.58318 6.22419 8.57487 6.22987 8.56538 6.23195C8.53283 6.23548 8.50028 6.20657 8.51485 6.17767L8.59428 6.18859Z" fill="white"/>
<path id="Vector_80" fill-rule="evenodd" clip-rule="evenodd" d="M7.60512 6.30788L7.59795 6.3188C7.57633 6.31152 7.56541 6.28262 7.56905 6.25724L7.59795 6.23926C7.61229 6.25712 7.6231 6.2899 7.60512 6.30788Z" fill="#668566"/>
<path id="Vector_81" fill-rule="evenodd" clip-rule="evenodd" d="M8.51508 6.29354C8.48617 6.32973 8.43917 6.32973 8.4031 6.30799C8.38148 6.29001 8.36703 6.26088 8.39229 6.23926C8.42119 6.36956 8.55115 6.16324 8.51508 6.29354ZM8.70649 6.27533C8.72811 6.31152 8.69932 6.35158 8.69568 6.38754H8.68122C8.66313 6.35158 8.67041 6.29354 8.70649 6.27533Z" fill="white"/>
<path id="Vector_82" fill-rule="evenodd" clip-rule="evenodd" d="M12.1379 6.68448C12.2536 6.64465 12.203 6.47088 12.3366 6.45643C12.2823 6.6483 12.1813 6.86918 11.9754 6.95225C11.9501 6.76403 11.8887 6.52505 12.0766 6.39487C12.0297 6.48909 11.9935 6.60494 12.0079 6.69894H12.0332C12.0801 6.56488 12.1272 6.43105 12.2246 6.31885C12.2246 6.44915 12.1668 6.57228 12.1379 6.68448Z" fill="#33A457"/>
<path id="Vector_83" fill-rule="evenodd" clip-rule="evenodd" d="M8.60912 6.34424C8.62721 6.39852 8.56576 6.40228 8.5405 6.43118H8.52252C8.50442 6.38407 8.57304 6.35516 8.60912 6.34424Z" fill="white"/>
<path id="Vector_84" fill-rule="evenodd" clip-rule="evenodd" d="M9.01731 6.35163C9.01014 6.43471 8.98124 6.57969 9.07865 6.63033C9.15455 6.64478 9.22318 6.58322 9.2448 6.51812L9.25197 6.48193C9.28804 6.51084 9.38557 6.49639 9.35666 6.56148C9.33504 6.63033 9.32059 6.68461 9.27723 6.73525C9.20497 6.76416 9.13635 6.80399 9.04246 6.78589L9.08582 6.73525C9.06056 6.69542 9.02437 6.73525 8.99194 6.73525C8.89794 6.70635 8.82943 6.62305 8.75 6.56876C8.77162 6.48922 8.89088 6.44563 8.86915 6.34424L9.01731 6.35163Z" fill="#6CB476"/>
<path id="Vector_85" fill-rule="evenodd" clip-rule="evenodd" d="M10.5086 6.36962L10.5265 6.35163C10.559 6.51437 10.7397 6.5072 10.8733 6.52518C10.8913 6.54339 10.9093 6.57229 10.8913 6.59767C10.8514 6.63033 10.7937 6.64103 10.7432 6.62305C10.7975 6.58686 10.7108 6.53974 10.6745 6.51812C10.5878 6.48193 10.4651 6.47454 10.3784 6.49275C10.3891 6.46361 10.353 6.46737 10.3422 6.45656L10.1797 6.49991V6.47454C10.2555 6.4239 10.4182 6.47829 10.4217 6.34424C10.4508 6.35869 10.4759 6.39852 10.5086 6.36962Z" fill="#E0922F"/>
<path id="Vector_86" fill-rule="evenodd" clip-rule="evenodd" d="M9.75427 6.43818C9.84087 6.46731 9.93123 6.48904 10.0251 6.51067C10.0143 6.55425 9.95285 6.60114 9.99621 6.64825C10.0467 6.64825 10.0793 6.61206 10.1191 6.59761C10.1226 6.6701 10.0685 6.73166 10.1011 6.80381C10.0577 6.87266 9.98904 6.91602 9.92042 6.94515L9.90961 6.86538C9.83735 6.82919 9.80127 6.93423 9.73629 6.94515C9.76156 6.92341 9.73629 6.89064 9.71091 6.88358L9.55569 6.95232C9.54124 6.93434 9.61714 6.89451 9.56286 6.86538C9.49788 6.90157 9.43279 6.84387 9.40753 6.78583C9.39548 6.73499 9.39541 6.68205 9.40732 6.63118C9.41922 6.58031 9.44279 6.5329 9.47615 6.49269L9.46898 6.4565C9.50505 6.4854 9.54488 6.43829 9.58096 6.46742C9.60258 6.43476 9.5846 6.39493 9.56286 6.36967C9.64229 6.35863 9.66767 6.52512 9.75427 6.43818Z" fill="#6CB476"/>
<path id="Vector_87" fill-rule="evenodd" clip-rule="evenodd" d="M9.19056 6.45649C9.1942 6.49985 9.15802 6.53603 9.12911 6.56141C9.09304 6.57586 9.07494 6.53603 9.07858 6.51077L9.08587 6.42383L9.19056 6.45649Z" fill="#CC2229"/>
<path id="Vector_88" fill-rule="evenodd" clip-rule="evenodd" d="M11.6527 6.42373C11.6598 6.44546 11.631 6.47824 11.6707 6.49257H11.6851C11.7031 6.5324 11.7031 6.5975 11.6527 6.61195L11.5914 6.60489C11.5949 6.56871 11.6238 6.53605 11.5984 6.49974C11.5769 6.47084 11.5478 6.45991 11.5117 6.46731C11.5336 6.41292 11.5985 6.42373 11.6527 6.42373Z" fill="#E0922F"/>
<path id="Vector_89" fill-rule="evenodd" clip-rule="evenodd" d="M9.93864 6.5615C9.93147 6.57242 9.92054 6.56878 9.90973 6.56878C9.88447 6.55786 9.89164 6.52519 9.90256 6.51074C9.935 6.51086 9.94217 6.53259 9.93864 6.5615Z" fill="white"/>
<path id="Vector_90" fill-rule="evenodd" clip-rule="evenodd" d="M10.2418 6.62299C10.2129 6.61946 10.2203 6.5868 10.2129 6.56871C10.2562 6.54333 10.2996 6.52159 10.3538 6.51807L10.2418 6.62299Z" fill="#E0922F"/>
<path id="Vector_91" fill-rule="evenodd" clip-rule="evenodd" d="M11.5549 6.52505C11.5659 6.61552 11.4792 6.63373 11.4249 6.68437C11.3924 6.69529 11.378 6.65546 11.3671 6.64078C11.3456 6.57569 11.4213 6.56476 11.4538 6.53586C11.4862 6.53233 11.5225 6.50343 11.5549 6.52505Z" fill="#CC2229"/>
<path id="Vector_92" fill-rule="evenodd" clip-rule="evenodd" d="M7.87176 6.62314C7.88622 6.65205 7.87893 6.68824 7.91512 6.71009L7.97646 6.69916C7.97433 6.71784 7.97723 6.73675 7.98485 6.75393C7.99247 6.77112 8.00454 6.78595 8.01982 6.79691H8.08844C8.07763 6.85848 8.04508 6.93074 7.97646 6.94542L7.86459 6.9345C7.88257 6.91276 7.94755 6.91629 7.95131 6.86565C7.95848 6.79316 7.87188 6.82946 7.8465 6.7861C7.79962 6.78258 7.76707 6.80784 7.72735 6.77882C7.78516 6.74992 7.83933 6.78258 7.88986 6.73546C7.88633 6.69563 7.86824 6.65592 7.82852 6.64124L7.66602 6.63054C7.70573 6.64124 7.73828 6.62326 7.75273 6.58696V6.52539C7.80678 6.53632 7.79233 6.6665 7.87176 6.62314Z" fill="#33A457"/>
<path id="Vector_93" fill-rule="evenodd" clip-rule="evenodd" d="M9.87693 6.59788L9.86612 6.65592C9.83722 6.66662 9.84803 6.63054 9.82276 6.62326C9.79022 6.63054 9.76495 6.67754 9.72888 6.64863C9.71807 6.61245 9.76143 6.59799 9.77941 6.5799C9.75414 6.55817 9.66026 6.5906 9.69269 6.52539C9.76131 6.53267 9.85884 6.50377 9.87693 6.59788ZM8.86207 6.61233C8.84034 6.60141 8.84398 6.5799 8.84398 6.56169C8.85843 6.54724 8.87288 6.5255 8.89815 6.53632C8.90532 6.56898 8.89462 6.60141 8.86207 6.61233ZM9.31351 6.53632C9.29906 6.55452 9.30987 6.60141 9.27016 6.59788C9.23761 6.56898 9.28097 6.52539 9.31351 6.53632Z" fill="white"/>
<path id="Vector_94" fill-rule="evenodd" clip-rule="evenodd" d="M11.3318 6.7099L11.4435 6.78592C11.3787 6.85101 11.281 6.86194 11.1944 6.89084C11.1874 6.91258 11.1979 6.93443 11.2198 6.93443L11.2956 6.92715C11.2921 6.95981 11.2522 6.99224 11.2198 7.00316C11.1151 7.01045 11.0102 7.00316 10.9488 6.92715C10.9273 6.92009 10.9129 6.93443 10.9055 6.95252L10.9164 6.98871C10.8441 6.98871 10.8189 6.88003 10.7501 6.92715C10.7719 7.01045 10.8621 7.04299 10.9344 7.05756C10.8406 7.12629 10.7105 7.10444 10.595 7.1082C10.5372 6.96686 10.7322 6.9886 10.7755 6.87286C10.8551 6.91269 10.902 6.81483 10.9669 6.79685C10.9851 6.69909 11.0645 6.62308 11.1223 6.55434C11.1187 6.58325 11.1296 6.60862 11.1512 6.63036L11.2631 6.53613C11.3208 6.5796 11.2919 6.65926 11.3318 6.7099ZM10.6816 6.58677C10.6672 6.60123 10.6744 6.62296 10.6744 6.64106C10.7068 6.68464 10.7611 6.69556 10.8117 6.69909C10.7539 6.98154 10.3745 6.91269 10.2734 7.19491C10.259 7.22757 10.2445 7.26376 10.2121 7.28186C10.1328 7.26388 10.1109 7.17341 10.082 7.10831C10.082 6.93454 10.1291 6.74268 10.3096 6.67383C10.3421 6.62672 10.3963 6.57243 10.4397 6.54353C10.5298 6.53249 10.6056 6.55787 10.6816 6.58677Z" fill="#6CB476"/>
<path id="Vector_95" fill-rule="evenodd" clip-rule="evenodd" d="M9.6863 6.67359C9.6863 6.73162 9.66103 6.78579 9.60687 6.8147C9.57796 6.81845 9.54905 6.80764 9.53824 6.77851V6.76053C9.57796 6.77498 9.64294 6.74255 9.64294 6.6918C9.65375 6.64468 9.58513 6.62295 9.61768 6.57959C9.66832 6.58665 9.67184 6.64081 9.6863 6.67359ZM10.5169 6.67359H10.5351C10.5566 6.71342 10.506 6.7207 10.4736 6.72787C10.4302 6.73879 10.4157 6.70636 10.4051 6.67359C10.3978 6.65913 10.4157 6.65185 10.423 6.64093H10.441C10.441 6.65185 10.434 6.6663 10.4481 6.67359C10.4879 6.66266 10.4734 6.59757 10.5276 6.59757L10.5169 6.67359ZM10.9359 6.64821C10.9324 6.69885 10.907 6.74244 10.8637 6.77851C10.8854 6.75313 10.8492 6.64081 10.9359 6.64821ZM9.27821 6.67359C9.26376 6.71342 9.22393 6.72787 9.18433 6.72787C9.17716 6.68451 9.22405 6.67006 9.25295 6.65561C9.26729 6.65174 9.27093 6.66619 9.27821 6.67359ZM10.1702 6.69885L10.1811 6.65549L10.1991 6.67359L10.1702 6.69885ZM9.92106 6.6844C9.88852 6.74596 9.84152 6.8147 9.76573 6.82198C9.74763 6.81106 9.74411 6.7966 9.74763 6.7784C9.80909 6.7677 9.85961 6.70613 9.90297 6.66619L9.92106 6.6844ZM11.1417 6.70978C11.149 6.72776 11.1346 6.74961 11.1165 6.75313C11.1036 6.75644 11.0899 6.75451 11.0784 6.74778C11.0668 6.74105 11.0584 6.73006 11.055 6.71717L11.0732 6.67359C11.0877 6.6844 11.1092 6.72423 11.1417 6.70978Z" fill="white"/>
<path id="Vector_96" fill-rule="evenodd" clip-rule="evenodd" d="M9.60469 6.70971V6.7277C9.59023 6.73862 9.55769 6.73145 9.54688 6.70971C9.56133 6.69879 9.59376 6.67353 9.60469 6.70971ZM11.2878 6.69173C11.2948 6.69173 11.3093 6.68798 11.3129 6.69879C11.3202 6.73145 11.2949 6.75683 11.2805 6.77128L11.3311 6.78573C11.3274 6.81464 11.3022 6.82556 11.2805 6.82909C11.2407 6.84001 11.2156 6.81464 11.2012 6.78573C11.2082 6.75307 11.1867 6.71324 11.2191 6.69173C11.2481 6.69173 11.2625 6.74238 11.2878 6.69173ZM10.0055 6.74238C10.0128 6.77128 9.98022 6.77834 9.96941 6.79666C9.95132 6.79666 9.92969 6.80019 9.91888 6.77845C9.90079 6.73862 9.94779 6.74954 9.96224 6.73509C9.97669 6.73862 9.99467 6.7277 10.0055 6.74238ZM10.5077 6.78573L10.5581 6.76036C10.5798 6.77128 10.5581 6.79654 10.551 6.81464L10.5944 6.82909C10.5944 6.86175 10.5655 6.86175 10.5438 6.87267C10.4933 6.8836 10.4789 6.8473 10.4644 6.81464C10.4461 6.77128 10.5329 6.70619 10.5077 6.78573ZM10.3414 6.77128C10.3163 6.78573 10.3163 6.81111 10.3163 6.84001L10.327 6.8473C10.3632 6.83637 10.3632 6.78926 10.403 6.77845C10.421 6.78937 10.4065 6.82556 10.3957 6.84001L10.3595 6.87267L10.4391 6.8836C10.4461 6.9125 10.4137 6.91603 10.3957 6.92696C10.3379 6.94516 10.2873 6.90545 10.2728 6.85822C10.2728 6.81464 10.2693 6.764 10.3164 6.75307C10.3307 6.74954 10.3342 6.764 10.3414 6.77128ZM10.7603 6.75307C10.7712 6.7929 10.7205 6.80371 10.699 6.82192C10.6881 6.82192 10.6772 6.82545 10.6736 6.81464C10.6737 6.77481 10.7206 6.75307 10.7603 6.75307Z" fill="white"/>
<path id="Vector_97" fill-rule="evenodd" clip-rule="evenodd" d="M9.32995 6.90922C9.30833 6.93073 9.26497 6.97796 9.23242 6.9346C9.26861 6.91286 9.31197 6.88009 9.31914 6.82945C9.30833 6.81875 9.30833 6.78609 9.32995 6.77881C9.35521 6.81147 9.35521 6.87656 9.32995 6.90922Z" fill="#33A457"/>
<path id="Vector_98" fill-rule="evenodd" clip-rule="evenodd" d="M11.0714 6.82896C11.111 6.82543 11.1437 6.77115 11.1832 6.7856C11.1761 6.82896 11.1327 6.84717 11.1074 6.87255C11.1183 6.89053 11.1398 6.8796 11.1507 6.90145C11.1616 6.9233 11.1327 6.92683 11.1148 6.92683C11.0786 6.9233 11.0352 6.89439 11.028 6.85809C11.028 6.82896 11.0208 6.79277 11.0532 6.77832L11.0714 6.82896Z" fill="white"/>
<path id="Vector_99" fill-rule="evenodd" clip-rule="evenodd" d="M8.77386 6.93447C8.74131 6.98511 8.69078 6.96338 8.65095 6.9454C8.62569 6.91274 8.59326 6.86938 8.61852 6.82227C8.66916 6.85845 8.72697 6.89089 8.77386 6.93447Z" fill="#E0922F"/>
<path id="Vector_100" fill-rule="evenodd" clip-rule="evenodd" d="M9.25962 6.82192C9.27407 6.85082 9.24517 6.89065 9.20909 6.90146C9.20181 6.87267 9.21273 6.81463 9.25962 6.82192Z" fill="#33A457"/>
<path id="Vector_101" fill-rule="evenodd" clip-rule="evenodd" d="M10.5342 6.89062C10.5557 6.93421 10.5015 6.93421 10.4726 6.94513H10.4582C10.4582 6.93421 10.4511 6.93045 10.4473 6.92693C10.4726 6.90144 10.5051 6.90144 10.5342 6.89062Z" fill="white"/>
<path id="Vector_102" fill-rule="evenodd" clip-rule="evenodd" d="M8.25404 6.98703C8.2504 6.99056 8.18906 6.84592 8.18178 6.84216C8.16369 6.83147 8.26849 6.73542 8.28295 6.72461C8.27931 6.73895 8.26121 6.97258 8.25404 6.98703Z" fill="#668566"/>
<path id="Vector_103" fill-rule="evenodd" clip-rule="evenodd" d="M9.93777 7.02123L9.94494 7.01395C9.9702 7.18419 9.98466 7.3616 10.093 7.49919C10.0677 7.53515 10.0063 7.53515 9.98102 7.50988C9.88349 7.37605 9.94847 7.16245 9.8077 7.0647C9.78961 7.05025 9.80053 7.02487 9.79689 7.00314L9.84013 6.9707C9.8547 6.99597 9.89077 7.03921 9.93777 7.02123Z" fill="#E0922F"/>
<path id="Vector_104" fill-rule="evenodd" clip-rule="evenodd" d="M10.2916 6.97037C10.3096 7.02101 10.1291 7.09327 10.2662 7.08975C10.2733 7.11148 10.2518 7.12241 10.2409 7.12593C10.1975 7.12241 10.1436 7.1042 10.1362 7.0572C10.1471 7.02454 10.1108 7.00269 10.1362 6.97743L10.1795 7.04627C10.2195 7.03171 10.241 6.96662 10.2916 6.97037Z" fill="white"/>
<path id="Vector_105" fill-rule="evenodd" clip-rule="evenodd" d="M9.28636 7.12611L9.243 7.08252C9.26838 7.07182 9.28636 7.04269 9.31173 7.02118C9.3659 7.09345 9.43805 7.15501 9.5176 7.17675C9.57905 7.26005 9.57905 7.37214 9.56095 7.46637C9.49233 7.40127 9.31185 7.49527 9.35509 7.32526C9.36237 7.32526 9.37683 7.32878 9.38035 7.31797C9.34792 7.20577 9.2323 7.19131 9.13842 7.17686C9.07344 7.21669 9.06968 7.13703 9.02644 7.10813L8.82422 7.00298C8.99742 6.99945 9.1094 7.19484 9.28636 7.12611Z" fill="#00ACEC"/>
<path id="Vector_106" fill-rule="evenodd" clip-rule="evenodd" d="M9.69227 7.206C9.76453 7.23513 9.77899 7.06841 9.83316 7.17709C9.84749 7.3182 9.86206 7.45931 9.9523 7.56811L9.85114 7.55365C9.84749 7.48856 9.82951 7.41254 9.76442 7.38716C9.68135 7.41607 9.67771 7.41254 9.63435 7.34358L9.62354 7.28201C9.65244 7.28201 9.69216 7.30739 9.71014 7.26404C9.67418 7.21692 9.56209 7.22045 9.57301 7.12645C9.58735 7.09379 9.57301 7.04315 9.61625 7.03223C9.59122 7.09755 9.61284 7.19154 9.69227 7.206Z" fill="#E0922F"/>
<path id="Vector_107" fill-rule="evenodd" clip-rule="evenodd" d="M9.72872 7.13359C9.69982 7.13735 9.65646 7.13735 9.6601 7.10116C9.63848 7.03606 9.71427 7.09023 9.72872 7.04688V7.13359ZM10.4149 7.1444C10.4294 7.09012 10.48 7.08659 10.5161 7.05769C10.516 7.07931 10.4582 7.13359 10.4149 7.1444Z" fill="#E0922F"/>
<path id="Vector_108" fill-rule="evenodd" clip-rule="evenodd" d="M11.6101 7.2059C11.5992 7.21682 11.5847 7.22411 11.5847 7.23856C11.5956 7.27475 11.6281 7.24948 11.6425 7.23856C11.6823 7.16971 11.7726 7.12988 11.8158 7.05762C11.8557 7.11895 11.7689 7.18792 11.8338 7.23116L11.8952 7.22024C11.8807 7.31446 11.8266 7.39401 11.7471 7.44829C11.6207 7.49187 11.4799 7.5028 11.3499 7.53523C11.3282 7.34337 11.4656 7.1878 11.592 7.05762C11.6282 7.09745 11.5993 7.15526 11.6101 7.2059Z" fill="#33A457"/>
<path id="Vector_109" fill-rule="evenodd" clip-rule="evenodd" d="M8.10561 7.13352C8.09844 7.15173 7.9793 7.10109 7.96484 7.10462L8.06226 7.06479C8.10914 7.05773 8.10914 7.09745 8.10561 7.13352Z" fill="#668566"/>
<path id="Vector_110" fill-rule="evenodd" clip-rule="evenodd" d="M11.1943 7.08243C11.151 7.13694 11.0896 7.17313 11.021 7.17666C10.9812 7.144 11.0139 7.09711 11.0283 7.06445C11.0823 7.07185 11.133 7.08983 11.1943 7.08243Z" fill="#E0922F"/>
<path id="Vector_111" fill-rule="evenodd" clip-rule="evenodd" d="M8.40327 7.21332C8.44298 7.2313 8.46472 7.18442 8.47917 7.16268V7.13355C8.53334 7.19511 8.54062 7.3327 8.6452 7.29287C8.64884 7.36171 8.63439 7.44137 8.68856 7.49201C8.76082 7.51739 8.78244 7.59341 8.81863 7.64758C8.74273 7.6296 8.61994 7.60069 8.5586 7.67295C8.57305 7.6296 8.54051 7.5645 8.48998 7.55358C8.42853 7.56064 8.35991 7.65497 8.30574 7.56803L8.27683 7.53913C8.32019 7.45583 8.33646 7.51204 8.44662 7.43773C8.35991 7.35796 8.21902 7.48109 8.17578 7.31813C8.22995 7.29275 8.3491 7.34351 8.34181 7.23858C8.32383 7.22038 8.29857 7.20968 8.28048 7.18794L8.31655 7.1084C8.33464 7.14823 8.35991 7.19147 8.40327 7.21332Z" fill="#33A457"/>
<path id="Vector_112" fill-rule="evenodd" clip-rule="evenodd" d="M10.9428 7.18792C10.8813 7.25301 10.708 7.18792 10.7262 7.30729L10.7875 7.3618C10.7658 7.42689 10.6863 7.37978 10.6466 7.41244C10.6791 7.31469 10.4768 7.28556 10.5888 7.17711C10.6973 7.17358 10.8344 7.19509 10.9246 7.12646C10.9391 7.13352 10.9356 7.16618 10.9428 7.18792Z" fill="#00ACEC"/>
<path id="Vector_113" fill-rule="evenodd" clip-rule="evenodd" d="M10.4652 7.27458C10.4867 7.28528 10.5157 7.30702 10.5157 7.33615C10.4469 7.31441 10.3821 7.36153 10.3352 7.42286L10.299 7.47373C10.2701 7.42286 10.1978 7.49171 10.1439 7.45552C10.0751 7.37951 10.0535 7.28528 10.0391 7.18764C10.0788 7.24568 10.1112 7.33228 10.187 7.3506C10.2557 7.36153 10.3099 7.29996 10.3353 7.24921C10.3423 7.15145 10.4654 7.25273 10.5086 7.16943C10.5266 7.23475 10.411 7.20562 10.4652 7.27458Z" fill="#E0922F"/>
<path id="Vector_114" fill-rule="evenodd" clip-rule="evenodd" d="M8.92923 7.18788C8.89316 7.1914 8.89668 7.25297 8.86778 7.20586C8.86414 7.1988 8.86061 7.19493 8.85333 7.19493C8.81361 7.20961 8.85333 7.23852 8.85333 7.2565C8.88587 7.29633 8.94368 7.29633 8.96531 7.23852L8.95438 7.18788H8.97248C8.96531 7.21325 8.96531 7.25297 9.00855 7.26389C8.99046 7.2854 8.98693 7.31818 8.95427 7.31818C8.89293 7.26389 8.83148 7.3291 8.79176 7.23123C8.78118 7.15169 8.88587 7.18059 8.92923 7.18788Z" fill="#33A457"/>
<path id="Vector_115" fill-rule="evenodd" clip-rule="evenodd" d="M10.9683 7.31787C10.9792 7.36146 10.9683 7.42279 10.9249 7.45545C10.9034 7.49528 10.8491 7.51349 10.8202 7.49164C10.8058 7.48436 10.8167 7.46626 10.8132 7.45545C10.8276 7.43747 10.8565 7.45545 10.8636 7.43008C10.8058 7.36851 10.9249 7.33608 10.9683 7.31787Z" fill="#E0922F"/>
<path id="Vector_116" fill-rule="evenodd" clip-rule="evenodd" d="M8.91099 7.38686C8.88937 7.43022 8.8929 7.49179 8.84237 7.51716C8.81347 7.47381 8.8352 7.36865 8.91099 7.38686Z" fill="#668566"/>
<path id="Vector_117" fill-rule="evenodd" clip-rule="evenodd" d="M10.516 7.43002C10.5342 7.47714 10.433 7.48806 10.4836 7.53495C10.4582 7.55668 10.4258 7.53142 10.4042 7.51697C10.3716 7.48806 10.4258 7.4554 10.4294 7.42274C10.4474 7.39384 10.5234 7.37199 10.516 7.43002ZM9.28811 7.51697C9.2592 7.5387 9.21949 7.53495 9.18341 7.53495C9.15803 7.49899 9.20139 7.4554 9.23394 7.448L9.28811 7.45529V7.51697ZM9.754 7.448C9.78655 7.48066 9.80817 7.54223 9.76481 7.57842C9.73591 7.5964 9.69983 7.5964 9.6674 7.58547C9.63121 7.55657 9.63121 7.50946 9.63485 7.4661L9.6493 7.44789L9.6674 7.48055L9.754 7.448Z" fill="#E0922F"/>
<path id="Vector_118" fill-rule="evenodd" clip-rule="evenodd" d="M9.94544 7.69081L9.7793 7.65462C9.81901 7.55686 9.89844 7.65815 9.96354 7.64016C10.0827 7.62196 10.2236 7.6075 10.3357 7.55322C10.256 7.66167 10.0971 7.69797 9.94544 7.69081Z" fill="#00ACEC"/>
<path id="Vector_119" fill-rule="evenodd" clip-rule="evenodd" d="M8.94076 7.61136L8.92995 7.65495L8.86133 7.5861C8.87578 7.55355 8.9444 7.56801 8.94076 7.61136Z" fill="#668566"/>
<path id="Vector_120" fill-rule="evenodd" clip-rule="evenodd" d="M10.9784 7.59668C10.9604 7.60044 10.946 7.61842 10.935 7.62934C10.9568 7.74519 11.0831 7.62934 11.1589 7.66553C11.1698 7.72709 10.9713 7.83554 11.1409 7.86445L10.7508 7.99486C10.675 7.94422 10.5919 7.92237 10.527 7.84635C10.5812 7.82837 10.675 7.85728 10.6895 7.78479L10.5703 7.77773C10.6641 7.64027 10.8268 7.61842 10.9784 7.59668ZM9.44348 7.73426C9.51563 7.82849 9.61316 7.77785 9.71068 7.80311C9.68189 7.84647 9.66744 7.91509 9.6168 7.95867C9.58425 7.93694 9.6638 7.88994 9.59871 7.86445C9.54818 7.85375 9.51927 7.91156 9.49401 7.94422C9.4832 7.97313 9.48684 8.00931 9.45065 8.03116C9.43256 7.98758 9.49401 7.94422 9.43256 7.91509C9.36394 7.91884 9.32058 7.99133 9.25196 8.00203C9.2556 7.97313 9.28451 7.89358 9.25913 7.85739C9.20132 7.85387 9.13634 7.89005 9.07853 7.92613V7.83919C8.9991 7.81028 8.94129 7.88277 8.86914 7.90803C8.87995 7.82473 9.04963 7.81381 8.97384 7.70889L9.03517 7.75247L9.07125 7.70889L9.06044 7.69796L9.07125 7.69091C9.10732 7.74872 9.14715 7.81756 9.22658 7.81381C9.2428 7.80416 9.25455 7.78851 9.25928 7.77024C9.26401 7.75198 9.26134 7.73259 9.25185 7.71628C9.27722 7.76317 9.32047 7.7923 9.37464 7.78502C9.41799 7.75258 9.39626 7.71628 9.38909 7.67281C9.41811 7.67645 9.42539 7.71628 9.44348 7.73426Z" fill="#33A457"/>
<path id="Vector_121" fill-rule="evenodd" clip-rule="evenodd" d="M8.69609 7.70867C8.69609 7.7378 8.66718 7.75931 8.64545 7.77023C8.631 7.76295 8.62019 7.76295 8.60938 7.75225C8.61666 7.71959 8.66002 7.6834 8.69609 7.70867ZM8.79361 7.72688C8.7828 7.74838 8.76107 7.77752 8.73216 7.77752L8.75743 7.70867L8.79361 7.72688Z" fill="#668566"/>
<path id="Vector_122" fill-rule="evenodd" clip-rule="evenodd" d="M10.2121 7.75252C10.1906 7.7416 10.241 7.85005 10.1977 7.91526H10.1687L10.1543 7.74171C10.1797 7.75264 10.1867 7.72351 10.2121 7.73443V7.75252Z" fill="#CC2229"/>
<path id="Vector_123" fill-rule="evenodd" clip-rule="evenodd" d="M9.97158 7.90088C9.91741 7.92625 9.92458 7.85752 9.91013 7.82133C9.89203 7.7815 9.94256 7.77422 9.95348 7.75977L9.97158 7.90088Z" fill="#33A457"/>
<path id="Vector_124" fill-rule="evenodd" clip-rule="evenodd" d="M10.1108 7.85728V7.90792H10.0386C10.0134 7.86809 10.0205 7.803 10.0315 7.75942C10.1036 7.73415 10.0927 7.82109 10.1108 7.85728Z" fill="white"/>
<path id="Vector_125" fill-rule="evenodd" clip-rule="evenodd" d="M9.77573 8.14168H9.69141C9.69505 8.1055 9.84435 8.00922 9.89499 7.97656C9.84435 8.01651 9.82626 8.10185 9.77573 8.14168Z" fill="#33A457"/>
<path id="Vector_126" fill-rule="evenodd" clip-rule="evenodd" d="M9.82422 8.13L9.98194 7.97705L9.88078 8.16015L9.82422 8.13Z" fill="white"/>
<path id="Vector_127" fill-rule="evenodd" clip-rule="evenodd" d="M9.95247 8.17571C9.94154 8.17218 9.92721 8.17218 9.91992 8.16126L10.0753 7.97656C10.0608 8.05634 9.99571 8.11062 9.95247 8.17571ZM10.4291 8.08877C10.447 8.10698 10.4111 8.1286 10.3966 8.13235C10.3208 8.08171 10.2233 8.03096 10.169 7.97656L10.4291 8.08877Z" fill="#CC2229"/>
<path id="Vector_128" fill-rule="evenodd" clip-rule="evenodd" d="M10.3539 8.20208C10.343 8.21301 10.3419 8.27321 10.3236 8.28049C10.2732 8.2154 10.1734 8.12163 10.0938 8.10717L10.1202 8.0332L10.3539 8.20208Z" fill="#33A457"/>
</g>
</svg>
