<?xml version="1.0" encoding="UTF-8"?>
<svg xmlns="http://www.w3.org/2000/svg" width="48" height="48" viewBox="0 0 48 48" fill="none">
  <circle opacity="0.06" cx="24" cy="24" r="24" fill="#54A5F3"></circle>
  <path fill-rule="evenodd" clip-rule="evenodd" d="M11.4666 12.0001C11.4666 11.7056 11.7053 11.4668 11.9999 11.4668H26.6666C26.9611 11.4668 27.1999 11.7056 27.1999 12.0001V26.6668C27.1999 26.9614 26.9611 27.2001 26.6666 27.2001H11.9999C11.7053 27.2001 11.4666 26.9614 11.4666 26.6668V12.0001ZM12.5332 12.5335V26.1335H26.1332V12.5335H12.5332Z" fill="#54A5F3"></path>
  <path fill-rule="evenodd" clip-rule="evenodd" d="M35.259 29.2003C36.5771 23.26 31.4077 18.0902 25.4658 19.4072L25.3504 18.8865L25.4658 19.4072C22.4814 20.069 20.0688 22.4816 19.4071 25.4659L19.407 25.466C18.0889 31.4063 23.2584 36.576 29.2003 35.2591L29.3157 35.7798L29.2003 35.2591C32.1846 34.5973 34.5972 32.1847 35.259 29.2003L35.259 29.2003ZM36.3004 29.4313L35.7797 29.3158L36.3004 29.4313C36.3004 29.4313 36.3004 29.4313 36.3004 29.4313ZM36.3004 29.4313C35.5488 32.8203 32.8202 35.5489 29.4312 36.3005L29.4311 36.3005C22.7277 37.7862 16.8785 31.9373 18.3657 25.235L18.8864 25.3505L18.3657 25.235C19.1172 21.846 21.8459 19.1173 25.2349 18.3658L25.3504 18.8865L25.235 18.3658C31.9384 16.88 37.7875 22.7289 36.3004 29.4313Z" fill="#54A5F3"></path>
</svg>
