<?xml version="1.0" encoding="UTF-8"?>
<svg xmlns="http://www.w3.org/2000/svg" width="20" height="20" viewBox="0 0 20 20" fill="none">
  <circle opacity="0.15" cx="10" cy="10" r="10" fill="#71D4B3"></circle>
  <circle cx="10" cy="10" r="10" fill="#71D4B3" fill-opacity="0.2"></circle>
  <g clip-path="url(#clip0_6484_70633)">
    <path d="M8.46948 14.8086C8.61057 14.8101 8.75167 14.8111 8.89276 14.8133C9.01964 14.8155 9.11406 14.8797 9.1188 15.0044C9.12865 15.2727 9.14359 15.5447 9.11042 15.8094C9.05354 16.2633 8.68896 16.5619 8.23031 16.5622C6.8726 16.5637 5.5149 16.563 4.15719 16.563C4.06604 16.563 3.9749 16.5637 3.88375 16.563C3.50677 16.5586 3.19724 16.3468 3.05687 15.9982C3.04047 15.9578 3.01896 15.9191 3 15.8797C3 15.5698 3 15.2599 3 14.9501C3.0762 14.8381 3.18193 14.8013 3.31536 14.8111C3.42802 14.8195 3.54177 14.8101 3.65516 14.8086C3.94719 14.8115 4.23958 14.8144 4.53161 14.8173C4.53161 15.031 4.52979 15.245 4.53125 15.4586C4.53307 15.7226 4.71391 15.9056 4.97714 15.906C5.70047 15.9074 6.4238 15.9074 7.14714 15.906C7.41036 15.9056 7.5912 15.7226 7.59302 15.4586C7.59448 15.245 7.59302 15.031 7.59266 14.8173C7.88469 14.8144 8.17708 14.8115 8.46911 14.8086H8.46948Z" fill="#34CCA9"></path>
    <path d="M17.0001 15.8794C16.9822 15.9144 16.9614 15.9483 16.9469 15.9847C16.8065 16.3442 16.4999 16.5615 16.116 16.5622C14.6624 16.5637 13.2091 16.5644 11.7556 16.5622C11.2619 16.5615 10.8816 16.1791 10.8754 15.6876C10.8729 15.478 10.8729 15.2683 10.8754 15.0587C10.8776 14.8965 10.9582 14.817 11.1204 14.8133C11.2572 14.8101 11.3935 14.8101 11.5302 14.8086C11.8223 14.8115 12.1147 14.8144 12.4067 14.8173C12.4067 15.031 12.4049 15.245 12.4063 15.4586C12.4082 15.7226 12.589 15.9056 12.8522 15.906C13.5756 15.9074 14.2989 15.9074 15.0222 15.906C15.2854 15.9056 15.4663 15.7226 15.4681 15.4586C15.4696 15.245 15.4681 15.031 15.4677 14.8173C15.7598 14.8144 16.0522 14.8115 16.3442 14.8086C16.4576 14.8101 16.5713 14.8195 16.684 14.8111C16.8178 14.8009 16.9232 14.8381 16.9994 14.9501V15.8797L17.0001 15.8794Z" fill="#34CCA9"></path>
    <path d="M8.46948 14.8078C8.17745 14.8107 7.88505 14.8136 7.59302 14.8165C6.57255 14.8165 5.55244 14.8165 4.53198 14.8165C4.23994 14.8136 3.94755 14.8107 3.65552 14.8078C3.65552 13.8832 3.65588 12.9586 3.65625 12.0344C3.65625 11.8167 3.72333 11.75 3.94099 11.75C5.35739 11.75 6.7738 11.75 8.19021 11.75C8.39911 11.75 8.46838 11.8189 8.46875 12.0271C8.46948 12.446 8.46948 12.8649 8.46948 13.2842C8.46948 13.4282 8.46948 13.5722 8.46948 13.7162C8.46948 14.0801 8.46948 14.4443 8.46948 14.8081V14.8078Z" fill="#E5EBFE"></path>
    <path d="M16.3445 14.8079C16.0524 14.8108 15.76 14.8138 15.468 14.8167C14.4475 14.8167 13.4274 14.8167 12.407 14.8167C12.1149 14.8138 11.8225 14.8108 11.5305 14.8079C11.5305 14.4441 11.5305 14.0798 11.5305 13.716V13.284C11.5305 12.8603 11.5305 12.437 11.5316 12.0134C11.532 11.8234 11.6056 11.7502 11.7963 11.7502C13.2218 11.7498 14.6473 11.7502 16.0729 11.7502C16.2719 11.7502 16.3437 11.822 16.3437 12.0207C16.3445 12.9496 16.3445 13.879 16.3448 14.8079H16.3445Z" fill="#E5EBFE"></path>
    <path d="M6.94231 4.394C6.90731 4.2015 7.01814 4.08374 7.15814 3.98676C7.42903 3.79972 7.73929 3.70202 8.05538 3.63676C9.41601 3.35603 10.777 3.34874 12.1285 3.68889C12.3797 3.75233 12.6192 3.87702 12.8511 3.99842C12.9955 4.07389 13.0928 4.20806 13.0578 4.394C12.9466 4.61238 12.7457 4.71665 12.5325 4.80233C11.8449 5.07832 11.1182 5.15342 10.3891 5.17967C9.92314 5.19644 9.45465 5.1567 8.98835 5.13009C8.52059 5.10347 8.06267 5.01452 7.62007 4.85957C7.35429 4.7666 7.08523 4.66889 6.94194 4.39363L6.94231 4.394Z" fill="#29A387"></path>
    <path d="M6.94214 4.39453C7.08542 4.66979 7.35448 4.7675 7.62026 4.86047C8.0625 5.01542 8.52078 5.10438 8.98854 5.13099C9.45521 5.1576 9.9237 5.19698 10.3893 5.18057C11.1184 5.15432 11.8451 5.07922 12.5327 4.80323C12.7459 4.71755 12.9468 4.61328 13.058 4.3949C13.058 4.83313 13.058 5.27135 13.0577 5.70958C12.9545 5.97135 12.7303 6.08729 12.4871 6.17552C11.8042 6.42271 11.0875 6.45661 10.374 6.49562C10.0531 6.51312 9.72974 6.48031 9.40709 6.47448C8.88026 6.46464 8.35855 6.4063 7.84776 6.2787C7.49485 6.19047 7.13901 6.09167 6.94214 5.7362C6.94214 5.28922 6.94214 4.84224 6.9425 4.39526L6.94214 4.39453ZM9.99042 6.03479C9.99042 6.04719 9.99042 6.05958 9.99042 6.07198C10.2715 6.05958 10.5526 6.04719 10.8337 6.03516C10.9792 6.02896 11.0958 5.92906 11.0936 5.81021C11.0911 5.67385 10.9996 5.59547 10.8333 5.59802C10.4472 5.60458 10.0615 5.61917 9.67542 5.62281C9.5037 5.62427 9.33162 5.6024 9.15953 5.59875C9.0024 5.5951 8.91235 5.67312 8.90651 5.80401C8.90141 5.91812 9.01224 6.03151 9.14641 6.0337C9.4275 6.03807 9.70896 6.03516 9.99042 6.03516V6.03479Z" fill="#34CCA9"></path>
    <path d="M13.0575 8.33398C13.059 8.74779 13.0651 9.16122 13.06 9.57503C13.0575 9.76862 12.931 9.90242 12.7706 9.97424C12.5321 10.0814 12.2849 10.1784 12.0319 10.2411C11.4384 10.3884 10.8281 10.4117 10.2199 10.4376C10.0734 10.4376 9.92645 10.4376 9.77989 10.4376C9.1302 10.4114 8.48088 10.3775 7.84833 10.2141C7.63541 10.1591 7.42723 10.0723 7.22926 9.97497C7.02801 9.87581 6.92593 9.70591 6.93432 9.46602C6.94744 9.08904 6.94051 8.71169 6.94234 8.33435C6.98609 8.4018 7.01562 8.48857 7.07614 8.53268C7.21359 8.63294 7.3565 8.73794 7.514 8.79591C8.20708 9.05221 8.93843 9.09742 9.66541 9.11602C10.2163 9.13023 10.7697 9.07555 11.3213 9.04164C11.7249 9.01648 12.1198 8.93336 12.5004 8.79518C12.7385 8.70878 12.9576 8.59102 13.0575 8.33398V8.33398ZM9.98989 9.97206C9.98989 9.97206 9.98989 9.97206 9.98952 9.97206C10.271 9.97206 10.5521 9.97388 10.8335 9.97133C10.9794 9.97023 11.0957 9.86633 11.0935 9.74747C11.0913 9.61112 10.9994 9.53237 10.8332 9.53529C10.438 9.54221 10.0431 9.55607 9.64791 9.56008C9.48531 9.56154 9.32234 9.53966 9.15937 9.53602C9.0015 9.53237 8.91255 9.60966 8.90635 9.74128C8.90088 9.85576 9.01208 9.96914 9.14588 9.97096C9.42697 9.97534 9.70843 9.97242 9.98989 9.97242V9.97206Z" fill="#29A387"></path>
    <path d="M6.94153 5.7356C7.1384 6.09107 7.49423 6.18987 7.84715 6.2781C8.35793 6.4057 8.87965 6.46404 9.40647 6.47388C9.72877 6.48008 10.0525 6.51253 10.3734 6.49503C11.0868 6.45602 11.804 6.42247 12.4865 6.17492C12.73 6.08669 12.9539 5.97076 13.057 5.70898C13.057 6.14612 13.0578 6.58289 13.0578 7.01966C13.0144 7.08711 12.9849 7.17424 12.9243 7.21872C12.7869 7.31935 12.6436 7.42398 12.4865 7.48305C11.8022 7.73971 11.0788 7.78529 10.3602 7.80352C9.80861 7.81737 9.25517 7.76195 8.70283 7.72951C8.29413 7.70544 7.89491 7.62487 7.50845 7.48669C7.27147 7.40174 7.06403 7.27888 6.94189 7.04628C6.94189 6.60914 6.94116 6.17201 6.94116 5.73487L6.94153 5.7356ZM9.99637 7.34779C10.2778 7.34779 10.5589 7.34961 10.8404 7.34706C10.9764 7.3456 11.0919 7.24206 11.0934 7.13013C11.0952 6.99341 11.0019 6.90846 10.84 6.91138C10.4495 6.91794 10.0591 6.93253 9.66825 6.93581C9.49653 6.93727 9.32444 6.91539 9.15236 6.91174C8.99851 6.90846 8.90845 6.99159 8.90627 7.12393C8.90444 7.23768 9.0171 7.34523 9.15309 7.34706C9.43418 7.3507 9.71564 7.34815 9.99674 7.34815L9.99637 7.34779Z" fill="#29A387"></path>
    <path d="M6.94263 7.04615C7.06476 7.27875 7.27221 7.40161 7.50919 7.48656C7.89565 7.62474 8.2945 7.70531 8.70356 7.72938C9.25591 7.76182 9.80935 7.81724 10.361 7.80339C11.0796 7.78516 11.8029 7.73958 12.4872 7.48292C12.6447 7.42385 12.788 7.31922 12.9251 7.21859C12.9856 7.17411 13.0151 7.08734 13.0585 7.01953C13.0585 7.4574 13.0581 7.89562 13.0578 8.33349C12.9575 8.59052 12.7388 8.70828 12.5007 8.79469C12.1201 8.93286 11.7256 9.01599 11.3216 9.04115C10.77 9.07542 10.2169 9.1301 9.6657 9.11552C8.93872 9.09656 8.20737 9.05172 7.51429 8.79542C7.35679 8.73708 7.21388 8.63245 7.07643 8.53219C7.01591 8.48807 6.98638 8.4013 6.94263 8.33385C6.94263 7.90474 6.94263 7.47526 6.94263 7.04615V7.04615ZM9.99638 8.65943C10.2822 8.65943 10.568 8.66234 10.8539 8.65797C10.9877 8.65615 11.0989 8.5424 11.0938 8.42828C11.0876 8.29667 10.9986 8.2201 10.8408 8.22266C10.4547 8.22922 10.0689 8.2438 9.68284 8.24708C9.50638 8.24854 9.32992 8.22667 9.15346 8.22302C8.99924 8.21974 8.90919 8.3025 8.907 8.43448C8.90481 8.54823 9.01784 8.65615 9.1531 8.65797C9.43419 8.66161 9.71565 8.65906 9.99674 8.65906L9.99638 8.65943Z" fill="#34CCA9"></path>
    <path d="M10.6293 13.7173C10.506 13.9699 10.3219 14.1446 10.027 14.1548C9.70797 14.1654 9.5038 13.9915 9.37036 13.7173C9.37036 13.5729 9.37036 13.4282 9.37036 13.2838C9.45494 13.0931 9.59531 12.9586 9.78307 12.8711C9.92744 12.8711 10.0722 12.8711 10.2166 12.8711C10.4065 12.9564 10.5436 13.0942 10.6293 13.2838C10.6293 13.4282 10.6293 13.5729 10.6293 13.7173Z" fill="#34CCA9"></path>
    <path d="M10.217 12.87C10.0727 12.87 9.92793 12.87 9.78355 12.87C9.78246 12.0592 9.78137 11.2483 9.78027 10.4375C9.92684 10.4375 10.0738 10.4375 10.2203 10.4375C10.2192 11.2483 10.2181 12.0592 10.217 12.87Z" fill="#267361"></path>
    <path d="M9.37061 13.2832C9.37061 13.4276 9.37061 13.5723 9.37061 13.7167C9.0702 13.7167 8.76978 13.7163 8.46973 13.716C8.46973 13.572 8.46973 13.4279 8.46973 13.2839C8.77014 13.2839 9.07056 13.2832 9.37061 13.2832Z" fill="#267361"></path>
    <path d="M10.6293 13.7167C10.6293 13.5723 10.6293 13.4276 10.6293 13.2832C10.9297 13.2832 11.2301 13.2836 11.5302 13.2839V13.716C11.2297 13.716 10.9293 13.7163 10.6289 13.7167H10.6293Z" fill="#267361"></path>
    <path d="M4.53201 14.8164C5.55247 14.8164 6.57258 14.8164 7.59305 14.8164C7.59305 15.0301 7.59487 15.2441 7.59341 15.4577C7.59159 15.7217 7.41112 15.9047 7.14753 15.9051C6.42419 15.9065 5.70086 15.9065 4.97753 15.9051C4.7143 15.9047 4.53346 15.7217 4.53164 15.4577C4.53018 15.2441 4.53164 15.0301 4.53201 14.8164V14.8164Z" fill="#29A387"></path>
    <path d="M12.407 14.8164C13.4275 14.8164 14.4476 14.8164 15.468 14.8164C15.468 15.0301 15.4699 15.2441 15.4684 15.4577C15.4666 15.7217 15.2861 15.9047 15.0225 15.9051C14.2992 15.9065 13.5759 15.9065 12.8525 15.9051C12.5893 15.9047 12.4085 15.7217 12.4066 15.4577C12.4052 15.2441 12.4066 15.0301 12.407 14.8164V14.8164Z" fill="#29A387"></path>
    <path d="M9.99008 6.03487C9.70862 6.03487 9.42753 6.03779 9.14607 6.03341C9.01227 6.03122 8.90107 5.9182 8.90617 5.80372C8.91201 5.67284 9.00206 5.59482 9.1592 5.59846C9.33128 5.60211 9.50336 5.62435 9.67508 5.62253C10.0612 5.61925 10.4469 5.60466 10.833 5.59773C10.9992 5.59482 11.0908 5.6732 11.0933 5.80992C11.0955 5.92878 10.9792 6.02867 10.8334 6.03487C10.5523 6.04654 10.2712 6.0593 9.99008 6.07169C9.99008 6.0593 9.99008 6.0469 9.99008 6.03451V6.03487Z" fill="#29A387"></path>
    <path d="M9.99023 9.97237C9.70877 9.97237 9.42768 9.97529 9.14622 9.97091C9.01205 9.96872 8.90122 9.85534 8.90669 9.74122C8.91289 9.60961 9.00221 9.53268 9.15971 9.53596C9.32268 9.53961 9.48565 9.56148 9.64825 9.56003C10.0435 9.55638 10.4383 9.54216 10.8335 9.53523C10.9994 9.53232 11.0913 9.61107 11.0938 9.74742C11.096 9.86628 10.9797 9.97018 10.8339 9.97128C10.5524 9.97383 10.2713 9.97201 9.98987 9.97201C9.98987 9.97201 9.98987 9.97201 9.99023 9.97201V9.97237Z" fill="#267361"></path>
    <path d="M9.99674 7.34698C9.71565 7.34698 9.43419 7.34954 9.15309 7.34589C9.01747 7.34407 8.90445 7.23651 8.90627 7.12276C8.90846 6.99042 8.99851 6.90766 9.15237 6.91058C9.32445 6.91422 9.49653 6.9361 9.66825 6.93464C10.0587 6.93136 10.4492 6.91677 10.84 6.91021C11.0023 6.90766 11.0952 6.99224 11.0934 7.12896C11.0919 7.24125 10.9764 7.34443 10.8404 7.34589C10.5593 7.34881 10.2778 7.34662 9.99674 7.34662V7.34698Z" fill="#267361"></path>
    <path d="M9.99627 8.66108C9.71517 8.66108 9.43371 8.66363 9.15262 8.65998C9.01699 8.65816 8.90434 8.55024 8.90653 8.43649C8.90871 8.30415 8.99913 8.22175 9.15298 8.22504C9.32944 8.22868 9.50627 8.25056 9.68236 8.2491C10.0685 8.24582 10.4542 8.23123 10.8403 8.22467C10.9981 8.22212 11.0871 8.29868 11.0933 8.4303C11.0984 8.54441 10.9876 8.6578 10.8534 8.65998C10.5676 8.66436 10.2817 8.66144 9.9959 8.66144L9.99627 8.66108Z" fill="#29A387"></path>
  </g>
  <defs>
    <clipPath id="clip0_6484_70633">
      <rect width="14" height="14" fill="white" transform="translate(3 3)"></rect>
    </clipPath>
  </defs>
</svg>
