<svg width="94" height="30" viewBox="0 0 94 30" fill="none" xmlns="http://www.w3.org/2000/svg">
<g id="Shopee 1" clip-path="url(#clip0_12595_5436)">
<g id="Group">
<path id="Vector" fill-rule="evenodd" clip-rule="evenodd" d="M17.3042 21.1463C17.14 22.5021 16.3184 23.588 15.0459 24.1317C14.3372 24.4346 13.3857 24.5981 12.6325 24.5468C11.4576 24.5019 10.3537 24.2161 9.33626 23.6938C8.97277 23.5071 8.4309 23.1343 8.01482 22.7851C7.90943 22.6969 7.89692 22.6403 7.96665 22.5414C8.0043 22.4847 8.07372 22.3822 8.22717 22.1574C8.44973 21.8313 8.47749 21.7904 8.50253 21.7522C8.57373 21.6429 8.68943 21.6334 8.80354 21.7232C8.81553 21.7325 8.81553 21.7325 8.82458 21.7396C8.8433 21.7541 8.8433 21.7541 8.88747 21.7884C8.93217 21.8233 8.95868 21.8438 8.9694 21.8519C10.0667 22.7113 11.3447 23.2069 12.6349 23.2565C14.43 23.232 15.7208 22.4249 15.9521 21.1856C16.2064 19.8216 15.1357 18.6434 13.0409 17.9867C12.3858 17.7814 10.7297 17.1185 10.4244 16.9394C8.99055 16.0981 8.32015 14.9961 8.41544 13.635C8.56142 11.7483 10.3129 10.3411 12.5261 10.3317C13.5158 10.3297 14.5034 10.5354 15.4522 10.9351C15.7881 11.0767 16.3879 11.4031 16.595 11.5578C16.7143 11.6454 16.7379 11.7474 16.6695 11.8576C16.6313 11.9215 16.5682 12.0227 16.4352 12.2338L16.4337 12.2361C16.2586 12.5141 16.2531 12.5228 16.2129 12.5878C16.1435 12.6935 16.0619 12.7033 15.9367 12.6239C14.9215 11.9419 13.796 11.5987 12.5581 11.574C11.0171 11.6045 9.86203 12.5216 9.7861 13.771C9.76591 14.8994 10.6123 15.7233 12.4404 16.3514C16.1514 17.5439 17.5715 18.942 17.3042 21.1463ZM12.7213 1.66601C15.1373 1.66601 17.1066 3.95878 17.1988 6.82884H8.24389C8.33603 3.95878 10.3054 1.66601 12.7213 1.66601ZM25.2249 7.36843C25.2249 7.07041 24.9849 6.82884 24.6889 6.82884H18.8846C18.7422 3.0393 16.0373 0.0175781 12.7213 0.0175781C9.40536 0.0175781 6.70042 3.0393 6.55801 6.82884L0.745416 6.82894C0.453971 6.83424 0.219322 7.0738 0.219322 7.36843C0.219322 7.38252 0.219849 7.3965 0.220899 7.41026H0.216797L1.04538 25.6754C1.04549 25.7262 1.04738 25.7775 1.05117 25.8291C1.05201 25.8407 1.05295 25.8523 1.0539 25.8638L1.05569 25.9024L1.05769 25.9044C1.18358 27.1754 2.10598 28.199 3.36022 28.2463L3.36306 28.249H21.8011C21.8098 28.2491 21.8185 28.2493 21.8273 28.2493C21.836 28.2493 21.8447 28.2491 21.8535 28.249H21.8927L21.8935 28.2483C23.1696 28.2135 24.2033 27.1755 24.3125 25.8888L24.3131 25.8882L24.314 25.8709C24.315 25.8574 24.316 25.8439 24.3168 25.8304C24.3189 25.7979 24.3202 25.7656 24.3207 25.7336L25.2248 7.39629H25.2242C25.2247 7.38708 25.2249 7.37775 25.2249 7.36843ZM86.6923 19.2726C87.0475 18.1139 88.1217 17.3414 89.3751 17.3414C90.5716 17.3414 91.7107 18.1539 92.1042 19.2704L92.1313 19.3472H86.6693L86.6923 19.2726ZM93.3468 20.9514C93.3542 20.9517 93.3542 20.9517 93.365 20.9518C93.3759 20.9517 93.3759 20.9517 93.3869 20.9514C93.6484 20.9394 93.8554 20.7165 93.8554 20.4452C93.8554 20.432 93.855 20.4207 93.8539 20.4025C93.8541 20.3992 93.8541 20.3925 93.8541 20.3712C93.8541 17.8121 91.8479 15.7382 89.3736 15.7382C86.8993 15.7382 84.8931 17.8121 84.8931 20.3712C84.8931 20.562 84.9041 20.7522 84.9265 20.9413L84.928 20.9514L84.9349 21.0013C85.0581 21.9221 85.451 22.7673 86.0715 23.4511C86.0712 23.4508 86.0719 23.4514 86.075 23.455C86.763 24.2122 87.6971 24.7282 88.7332 24.9212L88.7467 24.9238V24.9224L88.814 24.9336C88.8486 24.9395 88.8851 24.9453 88.934 24.9529C90.2976 25.1168 91.5072 24.9203 92.5314 24.4045C92.7836 24.2774 93.0104 24.1372 93.2069 23.9891C93.2701 23.9414 93.327 23.8952 93.3762 23.852C93.4015 23.8297 93.4217 23.811 93.4324 23.8002C93.6635 23.5621 93.6779 23.4777 93.5385 23.2603C93.385 23.016 93.2496 22.8079 93.1335 22.6356C93.0929 22.5753 93.0576 22.5239 93.0278 22.4812C93.0114 22.4578 93.0114 22.4578 93.001 22.4429C92.9971 22.4372 92.9971 22.4372 92.9942 22.4335L92.9927 22.4316C92.8664 22.2745 92.78 22.2601 92.6399 22.3838C92.6249 22.397 92.575 22.4356 92.566 22.4452C91.5806 23.3201 90.2351 23.6016 88.8915 23.3205C88.6412 23.2533 88.4072 23.1679 88.1917 23.0649C87.3498 22.6428 86.7534 21.8907 86.5813 21.0201L86.5677 20.9514L93.3468 20.9514ZM76.0305 19.2726C76.3858 18.1139 77.4599 17.3414 78.7134 17.3414C79.9098 17.3414 81.0489 18.1539 81.4426 19.2704L81.4695 19.3472H76.0076L76.0305 19.2726ZM82.685 20.9514C82.6925 20.9517 82.6925 20.9517 82.7033 20.9518C82.7141 20.9517 82.7141 20.9517 82.7251 20.9514C82.9866 20.9394 83.1936 20.7165 83.1936 20.4452C83.1936 20.432 83.1932 20.4207 83.1921 20.4025C83.1923 20.3992 83.1923 20.3925 83.1923 20.3712C83.1923 17.8121 81.1861 15.7382 78.7118 15.7382C76.2377 15.7382 74.2313 17.8121 74.2313 20.3712C74.2313 20.562 74.2425 20.7522 74.2648 20.9413L74.2663 20.9514L74.2732 21.0013C74.3964 21.9221 74.7893 22.7673 75.4098 23.4511C75.4095 23.4508 75.4101 23.4514 75.4133 23.455C76.1013 24.2122 77.0354 24.7282 78.0714 24.9212L78.0849 24.9238V24.9224L78.1522 24.9336C78.1868 24.9395 78.2233 24.9453 78.2723 24.9529C79.6359 25.1168 80.8455 24.9203 81.8696 24.4045C82.1218 24.2774 82.3486 24.1372 82.5451 23.9891C82.6083 23.9414 82.6651 23.8952 82.7143 23.852C82.7397 23.8297 82.7599 23.811 82.7706 23.8002C83.0017 23.5621 83.0161 23.4777 82.8767 23.2603C82.7232 23.016 82.5878 22.8079 82.4717 22.6356C82.4311 22.5753 82.3958 22.5239 82.3661 22.4812C82.3496 22.4578 82.3496 22.4578 82.3392 22.4429C82.3353 22.4372 82.3353 22.4372 82.3324 22.4335L82.3314 22.4316C82.205 22.2745 82.1186 22.2601 81.9785 22.3838C81.9635 22.397 81.9136 22.4356 81.9045 22.4452C80.9193 23.3201 79.5737 23.6016 78.2301 23.3205C77.9799 23.2533 77.7458 23.1679 77.5303 23.0649C76.6885 22.6428 76.0922 21.8907 75.9201 21.0201L75.9064 20.9514L82.685 20.9514ZM67.8936 23.5031C66.2272 23.5031 64.8642 22.1819 64.8224 20.5261V20.3703C64.8638 18.7172 66.2272 17.3958 67.8936 17.3958C69.5901 17.3958 70.9655 18.763 70.9655 20.4494C70.9655 22.1359 69.5901 23.5031 67.8936 23.5031ZM67.8946 15.7759C66.8016 15.7759 65.7572 16.1481 64.9179 16.8309L64.8225 16.9084V16.0539C64.8225 15.826 64.7735 15.7759 64.5429 15.7759H63.4702C63.2366 15.7759 63.1905 15.8223 63.1905 16.0539V29.6759C63.1905 29.8996 63.2426 29.9539 63.4702 29.9539H64.5429C64.7713 29.9539 64.8225 29.9008 64.8225 29.6759V23.9951L64.9179 24.0727C65.7573 24.7555 66.8017 25.1278 67.8946 25.1278C70.4925 25.1278 72.5985 23.0343 72.5985 20.4518C72.5985 17.8694 70.4925 15.7759 67.8946 15.7759ZM56.8474 23.3987C55.1474 23.3987 53.7693 22.0436 53.7693 20.3714C53.7693 18.6993 55.1475 17.344 56.8474 17.344C58.5471 17.344 59.9254 18.6993 59.9254 20.3714C59.9254 22.0435 58.5472 23.3987 56.8474 23.3987ZM56.8484 15.7382C54.2453 15.7382 52.1354 17.8136 52.1354 20.3737C52.1354 22.9337 54.2453 25.0093 56.8484 25.0093C59.4514 25.0093 61.5611 22.9337 61.5611 20.3737C61.5611 17.8136 59.4515 15.7382 56.8484 15.7382ZM46.3423 15.8411C45.3921 15.8411 44.4726 16.1466 43.7097 16.7113L43.617 16.7799V10.4536C43.617 10.2439 43.5482 10.1755 43.3385 10.1755H42.2157C41.989 10.1755 41.9372 10.2297 41.9372 10.4536V24.8855C41.9372 25.104 41.9931 25.1638 42.2157 25.1638H43.3385C43.5468 25.1638 43.617 25.092 43.617 24.8855V20.1716C43.6286 18.6877 44.8457 17.4899 46.3423 17.4899C47.8428 17.4899 49.0612 18.6935 49.0676 20.1823V24.8855C49.0676 25.1242 49.1073 25.1637 49.3461 25.1637H50.4662C50.7036 25.1637 50.7447 25.1231 50.7447 24.8855V20.1685C50.7358 17.7891 48.7517 15.8411 46.3423 15.8411ZM30.6968 22.546L30.6942 22.55C30.5341 22.7926 30.4671 22.8946 30.4296 22.9532C30.3034 23.141 30.3191 23.2248 30.5118 23.3877C30.9616 23.7503 31.5398 24.1311 31.9299 24.3219C33.0153 24.8526 34.1876 25.1331 35.4299 25.1585C36.2324 25.199 37.2403 25.0081 37.9909 24.6734C39.3496 24.0673 40.2151 22.8859 40.3668 21.4308C40.6124 19.073 39.0783 17.5991 35.1269 16.4113L35.1258 16.411C33.2848 15.8172 32.4199 15.0279 32.4196 13.9258C32.4738 12.7078 33.6032 11.7978 35.1269 11.741C36.3542 11.7441 37.4394 12.07 38.5056 12.7562C38.7305 12.8926 38.8341 12.8674 38.9853 12.6713C39.0027 12.6423 39.051 12.5721 39.2531 12.2819L39.2537 12.281C39.4425 12.0099 39.5046 11.9194 39.52 11.8926C39.6474 11.653 39.6292 11.5606 39.3993 11.3975C39.1729 11.2354 38.5351 10.9035 38.1704 10.7579C37.1559 10.3532 36.1072 10.1566 35.0634 10.1769C32.688 10.2285 30.8355 11.7734 30.7134 13.8C30.6359 15.2639 31.3789 16.441 32.9312 17.3113C33.3664 17.541 34.9575 18.1425 35.7001 18.36C37.8118 18.9783 38.9128 20.1159 38.6853 21.4581C38.4787 22.6775 37.201 23.4886 35.408 23.5441C34.1078 23.517 32.7978 23.0405 31.6603 22.1857C31.6547 22.1816 31.6258 22.1601 31.5727 22.1205C31.4979 22.0648 31.4979 22.0648 31.4868 22.0564C31.2549 21.8963 31.1185 21.9097 30.9769 22.1206C30.9598 22.1467 30.7837 22.4145 30.6968 22.546Z" fill="#EE4D2D"/>
</g>
</g>
<defs>
<clipPath id="clip0_12595_5436">
<rect width="94" height="30" fill="white"/>
</clipPath>
</defs>
</svg>
