<?xml version="1.0" encoding="UTF-8"?>
<svg xmlns="http://www.w3.org/2000/svg" width="22" height="22" viewBox="0 0 22 22" fill="none">
  <circle cx="10.9827" cy="10" r="10" fill="#34CCA9"></circle>
  <g clip-path="url(#clip0_9909_8967)">
    <path d="M17.3317 7.62651C17.0337 6.98748 16.3034 6.67604 15.6329 6.90204C15.3007 7.01404 14.9608 7.10126 14.6227 7.16131C13.3132 7.39379 9.49323 7.46961 8.35363 7.48731C7.97091 7.49324 7.63887 7.73007 7.50765 8.09066L6.91898 9.708C6.85634 9.8801 6.7044 10 6.52246 10.021L5.08971 10.1859C4.98368 10.1981 4.88221 10.1413 4.83713 10.0446L4.78215 9.92669C4.67697 9.70113 4.40792 9.60321 4.18236 9.70839L3.94555 9.81881C3.61896 9.9711 3.46615 10.3532 3.59763 10.6887L4.7881 13.726C4.87975 13.9529 5.05261 14.1291 5.27641 14.225L5.70758 15.1496C5.81275 15.3752 6.0818 15.4731 6.30736 15.368L13.2742 12.1192C15.3413 11.1554 16.7849 9.98303 17.3096 9.52375C17.4533 9.398 17.5386 9.21687 17.5438 9.02677L17.5668 8.18523C17.5678 8.15061 17.5603 8.11723 17.5462 8.08708L17.5465 8.08697L17.3317 7.62651ZM14.6991 7.59129C15.0585 7.52752 15.4197 7.43482 15.7724 7.31591C15.7988 7.30704 15.8252 7.29952 15.8518 7.29301C15.7909 7.34964 15.7209 7.41264 15.6399 7.48239C15.2965 7.77787 14.69 8.24998 13.7505 8.82102C13.5886 8.91945 13.4627 9.06137 13.3865 9.23137L13.2114 9.6221C13.1949 9.62421 13.1783 9.62805 13.162 9.63414C12.61 9.84164 12.0247 10.0448 11.4402 10.2374L12.5305 8.62559C13.2033 8.31889 13.6128 8.01536 13.7759 7.70423C14.142 7.67139 14.4589 7.63393 14.6991 7.59129ZM9.43775 10.8628C9.21369 10.9294 8.9969 10.9929 8.7899 11.0527L9.72326 9.67291C9.789 9.57567 9.88728 9.50589 9.9999 9.47637C10.1574 9.43513 10.3107 9.39338 10.4602 9.35122L9.43775 10.8628ZM11.1211 9.15373C11.3621 9.07728 11.5898 8.99972 11.8031 8.92137L10.7654 10.4555C10.5409 10.5267 10.3186 10.5959 10.1004 10.6628L11.1211 9.15373ZM12.9646 10.1728L12.6419 10.8929C11.9741 11.1831 11.3594 11.4214 10.76 11.6537C9.98704 11.9533 9.18861 12.2629 8.28082 12.6812L7.25188 11.9351C8.28401 11.6581 10.8119 10.9564 12.9646 10.1728ZM4.00412 10.5293C3.95665 10.4079 4.01191 10.2697 4.13004 10.2147L4.36686 10.1042C4.37414 10.1008 4.38279 10.104 4.38619 10.1113L4.44117 10.2292C4.56584 10.4965 4.84651 10.6535 5.13957 10.6198L6.57229 10.4549C6.91963 10.4149 7.20973 10.186 7.32933 9.85741L7.91799 8.24008C7.98673 8.05121 8.16037 7.92714 8.36035 7.92406C8.44984 7.92267 8.54726 7.92106 8.65129 7.91926L8.55254 8.2303C8.51605 8.34524 8.57963 8.46804 8.69458 8.50455C8.74891 8.5218 8.805 8.51666 8.8529 8.49432C8.9063 8.46942 8.94953 8.42308 8.96878 8.36247L9.11229 7.91046C9.24245 7.90777 9.37893 7.90479 9.5205 7.9015L9.43681 8.16505C9.40033 8.27999 9.46391 8.4028 9.57886 8.4393C9.63319 8.45656 9.68928 8.45141 9.73718 8.42908C9.79058 8.40418 9.83381 8.35784 9.85306 8.29722L9.98236 7.88995C10.116 7.88639 10.2527 7.88252 10.3914 7.87839L10.3211 8.09981C10.2846 8.21475 10.3482 8.33755 10.4631 8.37406C10.5175 8.39131 10.5736 8.38617 10.6215 8.36383C10.6749 8.33893 10.7181 8.2926 10.7373 8.23198L10.8543 7.86365C10.9902 7.85905 11.127 7.85417 11.2643 7.84894L11.2054 8.03455C11.1689 8.14949 11.2325 8.27229 11.3474 8.3088C11.4018 8.32606 11.4579 8.32091 11.5058 8.29858C11.5592 8.27368 11.6024 8.22734 11.6216 8.16672L11.7285 7.83014C12.2273 7.80863 12.7195 7.78278 13.1692 7.7518C12.6757 8.16185 11.5045 8.63069 9.88901 9.05383C9.67387 9.11018 9.4864 9.2431 9.36127 9.42815L8.13648 11.2389C7.459 11.4293 6.95673 11.5622 6.75976 11.6137C6.38186 11.421 5.95576 11.334 5.5287 11.3672L4.36788 11.4575L4.00412 10.5293ZM5.19388 13.5646L4.53461 11.8826L5.56267 11.8027C6.00682 11.7682 6.45002 11.8932 6.81067 12.1547L7.82753 12.892L5.84164 13.8181C5.72098 13.8743 5.58631 13.8784 5.46245 13.8296C5.33859 13.7808 5.24291 13.686 5.19388 13.5646ZM17.1072 9.01483C17.1053 9.08361 17.0742 9.14934 17.0219 9.19511C16.6235 9.54384 15.1624 10.7568 13.0896 11.7234L6.12274 14.9721C6.11546 14.9755 6.10681 14.9723 6.10341 14.9651L5.80171 14.3181C5.80622 14.3163 5.81071 14.3144 5.81515 14.3123L8.34853 13.131C9.29196 12.6911 10.1185 12.3707 10.9178 12.0609C11.7238 11.7485 12.5572 11.4255 13.5138 10.9794C15.2034 10.1915 16.5046 9.18886 17.1165 8.67423L17.1072 9.01483ZM17.0825 8.12556C16.6775 8.48449 15.2449 9.69027 13.3292 10.5836C13.2995 10.5974 13.2703 10.6108 13.2408 10.6244L13.7851 9.41001C13.8243 9.32239 13.8926 9.2458 13.9773 9.19428C15.5149 8.25968 16.2134 7.57003 16.4298 7.33347C16.6465 7.41991 16.8306 7.58553 16.9358 7.81109L17.0825 8.12557L17.0825 8.12556Z" fill="white"></path>
    <path d="M17.3317 7.62651C17.0337 6.98748 16.3034 6.67604 15.6329 6.90204C15.3007 7.01404 14.9608 7.10126 14.6227 7.16131C13.3132 7.39379 9.49323 7.46961 8.35363 7.48731C7.97091 7.49324 7.63887 7.73007 7.50765 8.09066L6.91898 9.708C6.85634 9.8801 6.7044 10 6.52246 10.021L5.08971 10.1859C4.98368 10.1981 4.88221 10.1413 4.83713 10.0446L4.78215 9.92669C4.67697 9.70113 4.40792 9.60321 4.18236 9.70839L3.94555 9.81881C3.61896 9.9711 3.46615 10.3532 3.59763 10.6887L4.7881 13.726C4.87975 13.9529 5.05261 14.1291 5.27641 14.225L5.70758 15.1496C5.81275 15.3752 6.0818 15.4731 6.30736 15.368L13.2742 12.1192C15.3413 11.1554 16.7849 9.98303 17.3096 9.52375C17.4533 9.398 17.5386 9.21687 17.5438 9.02677L17.5668 8.18523C17.5678 8.15061 17.5603 8.11723 17.5462 8.08708L17.5465 8.08697L17.3317 7.62651ZM14.6991 7.59129C15.0585 7.52752 15.4197 7.43482 15.7724 7.31591C15.7988 7.30704 15.8252 7.29952 15.8518 7.29301C15.7909 7.34964 15.7209 7.41264 15.6399 7.48239C15.2965 7.77787 14.69 8.24998 13.7505 8.82102C13.5886 8.91945 13.4627 9.06137 13.3865 9.23137L13.2114 9.6221C13.1949 9.62421 13.1783 9.62805 13.162 9.63414C12.61 9.84164 12.0247 10.0448 11.4402 10.2374L12.5305 8.62559C13.2033 8.31889 13.6128 8.01536 13.7759 7.70423C14.142 7.67139 14.4589 7.63393 14.6991 7.59129ZM9.43775 10.8628C9.21369 10.9294 8.9969 10.9929 8.7899 11.0527L9.72326 9.67291C9.789 9.57567 9.88728 9.50589 9.9999 9.47637C10.1574 9.43513 10.3107 9.39338 10.4602 9.35122L9.43775 10.8628ZM11.1211 9.15373C11.3621 9.07728 11.5898 8.99972 11.8031 8.92137L10.7654 10.4555C10.5409 10.5267 10.3186 10.5959 10.1004 10.6628L11.1211 9.15373ZM12.9646 10.1728L12.6419 10.8929C11.9741 11.1831 11.3594 11.4214 10.76 11.6537C9.98704 11.9533 9.18861 12.2629 8.28082 12.6812L7.25188 11.9351C8.28401 11.6581 10.8119 10.9564 12.9646 10.1728ZM4.00412 10.5293C3.95665 10.4079 4.01191 10.2697 4.13004 10.2147L4.36686 10.1042C4.37414 10.1008 4.38279 10.104 4.38619 10.1113L4.44117 10.2292C4.56584 10.4965 4.84651 10.6535 5.13957 10.6198L6.57229 10.4549C6.91963 10.4149 7.20973 10.186 7.32933 9.85741L7.91799 8.24008C7.98673 8.05121 8.16037 7.92714 8.36035 7.92406C8.44984 7.92267 8.54726 7.92106 8.65129 7.91926L8.55254 8.2303C8.51605 8.34524 8.57963 8.46804 8.69458 8.50455C8.74891 8.5218 8.805 8.51666 8.8529 8.49432C8.9063 8.46942 8.94953 8.42308 8.96878 8.36247L9.11229 7.91046C9.24245 7.90777 9.37893 7.90479 9.5205 7.9015L9.43681 8.16505C9.40033 8.27999 9.46391 8.4028 9.57886 8.4393C9.63319 8.45656 9.68928 8.45141 9.73718 8.42908C9.79058 8.40418 9.83381 8.35784 9.85306 8.29722L9.98236 7.88995C10.116 7.88639 10.2527 7.88252 10.3914 7.87839L10.3211 8.09981C10.2846 8.21475 10.3482 8.33755 10.4631 8.37406C10.5175 8.39131 10.5736 8.38617 10.6215 8.36383C10.6749 8.33893 10.7181 8.2926 10.7373 8.23198L10.8543 7.86365C10.9902 7.85905 11.127 7.85417 11.2643 7.84894L11.2054 8.03455C11.1689 8.14949 11.2325 8.27229 11.3474 8.3088C11.4018 8.32606 11.4579 8.32091 11.5058 8.29858C11.5592 8.27368 11.6024 8.22734 11.6216 8.16672L11.7285 7.83014C12.2273 7.80863 12.7195 7.78278 13.1692 7.7518C12.6757 8.16185 11.5045 8.63069 9.88901 9.05383C9.67387 9.11018 9.4864 9.2431 9.36127 9.42815L8.13648 11.2389C7.459 11.4293 6.95673 11.5622 6.75976 11.6137C6.38186 11.421 5.95576 11.334 5.5287 11.3672L4.36788 11.4575L4.00412 10.5293ZM5.19388 13.5646L4.53461 11.8826L5.56267 11.8027C6.00682 11.7682 6.45002 11.8932 6.81067 12.1547L7.82753 12.892L5.84164 13.8181C5.72098 13.8743 5.58631 13.8784 5.46245 13.8296C5.33859 13.7808 5.24291 13.686 5.19388 13.5646ZM17.1072 9.01483C17.1053 9.08361 17.0742 9.14934 17.0219 9.19511C16.6235 9.54384 15.1624 10.7568 13.0896 11.7234L6.12274 14.9721C6.11546 14.9755 6.10681 14.9723 6.10341 14.9651L5.80171 14.3181C5.80622 14.3163 5.81071 14.3144 5.81515 14.3123L8.34853 13.131C9.29196 12.6911 10.1185 12.3707 10.9178 12.0609C11.7238 11.7485 12.5572 11.4255 13.5138 10.9794C15.2034 10.1915 16.5046 9.18886 17.1165 8.67423L17.1072 9.01483ZM17.0825 8.12556C16.6775 8.48449 15.2449 9.69027 13.3292 10.5836C13.2995 10.5974 13.2703 10.6108 13.2408 10.6244L13.7851 9.41001C13.8243 9.32239 13.8926 9.2458 13.9773 9.19428C15.5149 8.25968 16.2134 7.57003 16.4298 7.33347C16.6465 7.41991 16.8306 7.58553 16.9358 7.81109L17.0825 8.12557L17.0825 8.12556Z" fill="white"></path>
  </g>
  <defs>
    <clipPath id="clip0_9909_8967">
      <rect width="16" height="16" fill="white" transform="translate(0 7.12695) rotate(-25)"></rect>
    </clipPath>
  </defs>
</svg>
