<?xml version="1.0" encoding="UTF-8"?>
<svg xmlns="http://www.w3.org/2000/svg" width="20" height="20" viewBox="0 0 20 20" fill="none">
  <circle cx="10" cy="10" r="10" fill="#218AEF"></circle>
  <path fill-rule="evenodd" clip-rule="evenodd" d="M10.556 4.86407C10.656 4.90747 10.7154 5.0116 10.7019 5.11975L10.2453 8.77233H14.3868C14.4821 8.77233 14.5687 8.82744 14.6092 8.91372C14.6496 8.99999 14.6364 9.10186 14.5754 9.17505L9.66473 15.0679C9.59495 15.1516 9.47832 15.1793 9.37833 15.1359C9.27835 15.0925 9.21894 14.9884 9.23246 14.8802L9.68903 11.2277H5.54754C5.45227 11.2277 5.3656 11.1726 5.32519 11.0863C5.28478 11 5.29792 10.8981 5.35891 10.825L10.2696 4.93211C10.3394 4.84838 10.456 4.82067 10.556 4.86407ZM6.07177 10.7366H9.96717C10.0376 10.7366 10.1046 10.7668 10.1512 10.8196C10.1979 10.8724 10.2195 10.9427 10.2108 11.0126L9.82362 14.1101L13.8626 9.2634H9.96717C9.89674 9.2634 9.82971 9.23315 9.7831 9.18036C9.73649 9.12756 9.7148 9.05729 9.72353 8.98741L10.1107 5.88986L6.07177 10.7366Z" fill="white"></path>
</svg>
