<svg width="24" height="22" viewBox="0 0 24 22" fill="none" xmlns="http://www.w3.org/2000/svg">
<g id="Frame 164315">
<path id="Vector" d="M22.654 8.3665C22.8317 8.53666 22.8854 8.80612 22.7767 9.03547L22.7765 9.03581L21.4732 11.7703C21.402 11.9201 21.2691 12.0336 21.1081 12.0792L21.1076 12.0793C20.9466 12.1244 20.7761 12.0988 20.6362 12.01L20.6355 12.0096L18.3791 10.5651V20.9625C18.3791 21.2831 18.119 21.5432 17.7984 21.5432H4.97677C4.65617 21.5432 4.39614 21.2831 4.39614 20.9625V10.7648L2.58077 12.0052L2.58005 12.0057C2.48286 12.0715 2.36953 12.1065 2.25284 12.1065C2.19992 12.1065 2.14797 12.0987 2.09956 12.0859L2.09766 12.0854C1.9312 12.0396 1.79553 11.9212 1.72494 11.7665L1.72466 11.7658L0.484846 9.02448C0.484784 9.02435 0.484723 9.02421 0.484661 9.02408C0.368231 8.768 0.453122 8.46426 0.686014 8.30547L0.686039 8.30545L10.9718 1.29461C10.9718 1.29457 10.9719 1.29452 10.972 1.29447L10.9722 1.29435L11.0848 1.45961C11.2107 1.37337 11.3752 1.37139 11.5041 1.45366L22.654 8.3665ZM22.654 8.3665L22.6536 8.35302L22.565 8.29631L18.158 5.47464V1.33767C18.158 1.01707 17.898 0.757031 17.5774 0.757031H14.2488C13.9282 0.757031 13.6682 1.01707 13.6682 1.33767V2.60175L22.654 8.3665ZM11.6115 4.85457L11.6109 4.85417C11.5171 4.79462 11.4087 4.76254 11.2985 4.76254C11.1849 4.76254 11.0697 4.79539 10.9701 4.86411C10.9699 4.86425 10.9697 4.86438 10.9695 4.86452L2.49588 10.6559L1.74158 8.98913L11.3079 2.46935L21.5067 8.99788L20.7067 10.6769L11.6115 4.85457ZM14.8292 1.91831H16.9955V4.73178L14.8292 3.34445V1.91831ZM17.2175 20.3817H5.55713V9.9718L11.3091 6.04006L17.2175 9.82217V20.3817Z" fill="#F9FAFB" stroke="#F9FAFB" stroke-width="0.4"/>
<path id="Vector_2" d="M10.1762 12.996C9.94946 12.7693 9.58195 12.7692 9.35516 12.996C9.35516 12.996 9.35516 12.996 9.35515 12.996L7.48963 14.8616C7.26284 15.0884 7.26283 15.4559 7.48963 15.6827C7.60347 15.7965 7.75237 15.8523 7.90067 15.8523C8.04769 15.8523 8.19768 15.7967 8.31171 15.6827L9.7662 14.2282L11.1206 15.5825C11.3473 15.8093 11.7149 15.8093 11.9416 15.5825C11.9417 15.5825 11.9417 15.5825 11.9417 15.5825L13.7938 13.7303V14.2011C13.7938 14.5217 14.0539 14.7817 14.3745 14.7817C14.6951 14.7817 14.9551 14.5217 14.9551 14.2011V12.3474C14.9551 12.0268 14.6951 11.7668 14.3745 11.7668H12.6943C12.3737 11.7668 12.1137 12.0268 12.1137 12.3474C12.1137 12.668 12.3737 12.9281 12.6943 12.9281H12.9549L11.5316 14.3514L10.1762 12.996Z" fill="#F9FAFB" stroke="#F9FAFB" stroke-width="0.4"/>
</g>
</svg>
