<?xml version="1.0" encoding="UTF-8"?>
<svg xmlns="http://www.w3.org/2000/svg" width="20" height="20" viewBox="0 0 20 20" fill="none">
  <circle opacity="0.2" cx="10" cy="10" r="10" fill="#8D21EF"></circle>
  <circle cx="10" cy="10" r="10" fill="#8D21EF"></circle>
  <g clip-path="url(#clip0_9911_12073)">
    <path d="M3.75949 8.73797H2.26352C2.16657 8.73797 2.08789 8.65929 2.08789 8.56234C2.08789 8.4654 2.16657 8.38672 2.26352 8.38672H3.75949C3.85643 8.38672 3.93511 8.4654 3.93511 8.56234C3.93511 8.65929 3.85643 8.73797 3.75949 8.73797Z" fill="white"></path>
    <path d="M12.2516 15.6443C12.1457 15.6443 12.0398 15.6041 11.9591 15.5235L10.2754 13.8398C10.1142 13.6782 10.1142 13.4158 10.2754 13.2546L11.9346 11.5954H7.2127C7.11576 11.5954 7.03708 11.5169 7.03708 11.4198C7.03708 11.3227 7.11576 11.2442 7.2127 11.2442H12.3587C12.4296 11.2442 12.4939 11.2869 12.521 11.3525C12.5482 11.4182 12.5331 11.4938 12.4829 11.544L10.5238 13.5029C10.4993 13.5273 10.4993 13.567 10.5239 13.5916L12.2073 15.275C12.2317 15.2995 12.2714 15.2994 12.2958 15.275L17.5259 10.0447C17.5407 10.0299 17.5433 10.0111 17.5428 9.99795C17.5433 9.97161 17.5407 9.95282 17.5259 9.93807L12.2958 4.70778C12.264 4.67616 12.2394 4.67546 12.2073 4.70778L10.5238 6.39114C10.4993 6.41555 10.4993 6.45525 10.5238 6.47966L12.4827 8.4384C12.5329 8.48863 12.548 8.56415 12.5208 8.62984C12.4937 8.69552 12.4295 8.7382 12.3585 8.7382H5.30893C5.21198 8.7382 5.1333 8.65952 5.1333 8.56257C5.1333 8.46563 5.21198 8.38695 5.30893 8.38695H11.9347L10.2756 6.72782C10.1144 6.56642 10.1144 6.30386 10.2756 6.14263L11.9591 4.45909C12.1158 4.30261 12.3884 4.30279 12.5443 4.45909L17.7744 9.6892C17.8559 9.77052 17.8983 9.88011 17.8939 9.99743C17.8983 10.1016 17.8559 10.211 17.7744 10.2925L12.5443 15.5228C12.4635 15.6039 12.3576 15.6443 12.2516 15.6443Z" fill="white"></path>
    <path d="M5.75182 11.5954H4.29501C4.19806 11.5954 4.11938 11.5169 4.11938 11.4198C4.11938 11.3226 4.19806 11.2441 4.29501 11.2441H5.75182C5.84876 11.2441 5.92744 11.3226 5.92744 11.4198C5.92744 11.5169 5.84876 11.5954 5.75182 11.5954Z" fill="white"></path>
    <path d="M9.38212 10.1677H3.37118C3.27424 10.1677 3.19556 10.089 3.19556 9.99203C3.19556 9.89509 3.27424 9.81641 3.37118 9.81641H9.38212C9.47907 9.81641 9.55775 9.89509 9.55775 9.99203C9.55775 10.089 9.47907 10.1677 9.38212 10.1677Z" fill="white"></path>
  </g>
  <defs>
    <clipPath id="clip0_9911_12073">
      <rect width="16" height="16" fill="white" transform="translate(2 2)"></rect>
    </clipPath>
  </defs>
</svg>
