<?xml version="1.0" encoding="UTF-8"?>
<svg xmlns="http://www.w3.org/2000/svg" width="22" height="22" viewBox="0 0 22 22" fill="none">
  <circle opacity="0.2" cx="10.9827" cy="10" r="10" fill="#8D21EF"></circle>
  <circle cx="10.9827" cy="10" r="10" fill="#ED1C24"></circle>
  <g clip-path="url(#clip0_9911_9027)">
    <path d="M4.1876 8.89753C4.08269 8.71411 3.93031 8.59867 3.69644 8.59867C3.47256 8.59867 3.22932 8.77261 3.19122 9.00886C3.09599 9.62176 4.56355 9.36622 4.37308 10.587C4.2588 11.3159 3.72985 11.8324 2.99607 11.8324C2.50022 11.8324 2.1811 11.5427 2 11.1227L2.52426 10.6739C2.57672 10.9538 2.78624 11.2049 3.08631 11.2049C3.37233 11.2049 3.59152 10.9589 3.63461 10.679C3.69176 10.3027 3.36764 10.1961 3.10067 10.0851C2.67196 9.89216 2.36689 9.6556 2.45744 9.09108C2.55268 8.48767 3.07226 8 3.67739 8C3.99651 8 4.41117 8.15939 4.59228 8.40576L4.1876 8.89753ZM5.38726 9.36591L5.18711 10.6496C5.14433 10.92 5.13465 11.2432 5.47313 11.2432C5.81129 11.2432 5.90652 10.92 5.94962 10.6496L6.14945 9.36559H6.81673L6.59753 10.7603C6.48824 11.4507 6.07826 11.8128 5.38257 11.8128C4.68689 11.8128 4.39119 11.4507 4.50079 10.7606L4.71999 9.36591H5.38726ZM8.57999 10.5481C8.62745 10.2296 8.47476 9.8871 8.13191 9.8871C7.78844 9.8871 7.52178 10.2296 7.47432 10.5481C7.42654 10.8669 7.57892 11.2141 7.92208 11.2141C8.26524 11.2141 8.5319 10.8669 8.57967 10.5481H8.57999ZM7.6932 9.58286C7.87431 9.39943 8.13659 9.28874 8.38421 9.28874C9.0468 9.28874 9.35654 9.91588 9.25631 10.5386C9.15639 11.1853 8.66554 11.8128 7.97454 11.8128C7.73629 11.8128 7.50304 11.7065 7.39782 11.5136H7.38845L7.15957 13H6.49261L7.05934 9.36591H7.7263L7.6932 9.58286ZM10.2274 9.61195H10.2368C10.4035 9.40449 10.618 9.28843 10.8659 9.28843C10.9612 9.28843 11.0564 9.31278 11.1326 9.34662L10.9565 9.97375C10.8815 9.91523 10.7889 9.88463 10.6942 9.8871C10.2321 9.8871 10.1178 10.302 10.0603 10.6689L9.89361 11.7356H9.22665L9.59822 9.36591H10.2655L10.2274 9.61195ZM12.524 10.2394C12.5287 9.9981 12.4144 9.76154 12.1571 9.76154C11.8901 9.76154 11.7043 9.99304 11.6328 10.2391L12.524 10.2394ZM11.5473 10.6591C11.5042 10.9586 11.5613 11.2963 11.9095 11.2963C12.1284 11.2963 12.2904 11.1613 12.4097 10.9728L13.0101 11.074C12.7719 11.5471 12.3191 11.8128 11.8283 11.8128C11.1039 11.8128 10.7467 11.2916 10.8563 10.5724C10.9705 9.85326 11.4327 9.28843 12.1905 9.28843C12.9577 9.28843 13.2103 9.86275 13.1007 10.5772L13.0863 10.6594H11.547M14.0487 9.57812H14.058C14.1347 9.4887 14.2291 9.41668 14.3351 9.36676C14.4411 9.31684 14.5563 9.29015 14.6732 9.28843C14.9636 9.28843 15.1734 9.40923 15.2877 9.66003C15.4688 9.42853 15.7545 9.28843 16.0261 9.28843C16.6219 9.28843 16.6981 9.74225 16.6172 10.2587L16.3884 11.7356H15.7214L15.9165 10.4902C15.95 10.2587 16.0358 9.82922 15.707 9.82922C15.3448 9.82922 15.2686 10.3261 15.2305 10.5724L15.0494 11.7356H14.3822L14.5679 10.5338C14.6064 10.302 14.711 9.82922 14.3631 9.82922C13.9915 9.82922 13.9297 10.3213 13.8916 10.5724L13.7105 11.7356H13.0432L13.4148 9.36591H14.0821L14.0487 9.57812ZM18.3989 10.2394C18.4039 9.9981 18.2896 9.76154 18.032 9.76154C17.7654 9.76154 17.5793 9.99304 17.5081 10.2391L18.3989 10.2394ZM17.4222 10.6591C17.3794 10.9586 17.4366 11.2963 17.7844 11.2963C18.0036 11.2963 18.1654 11.1613 18.2846 10.9728L18.8851 11.074C18.6468 11.5471 18.1941 11.8128 17.7032 11.8128C16.9788 11.8128 16.6216 11.2916 16.7312 10.5724C16.8455 9.85326 17.3079 9.28843 18.0654 9.28843C18.8326 9.28843 19.0852 9.86275 18.9756 10.5772L18.9613 10.6594H17.4222" fill="white"></path>
  </g>
  <defs>
    <clipPath id="clip0_9911_9027">
      <rect width="16" height="16" fill="white" transform="translate(0 7.12695) rotate(-25)"></rect>
    </clipPath>
  </defs>
</svg>
