<svg width="20" height="20" viewBox="0 0 20 20" fill="none" xmlns="http://www.w3.org/2000/svg">
<circle opacity="0.06" cx="10" cy="10" r="10" fill="#3C5A9A"/>
<path d="M15.0119 4H5.4881C4.66756 4 4 4.66756 4 5.4881V15.0119C4 15.8324 4.66756 16.5 5.4881 16.5H15.0119C15.8324 16.5 16.5 15.8324 16.5 15.0119V5.4881C16.5 4.66756 15.8324 4 15.0119 4ZM13.8232 9.45327C13.755 9.45991 13.6864 9.46338 13.6179 9.46369C13.2476 9.46374 12.8831 9.37159 12.5574 9.19555C12.2317 9.01951 11.9549 8.76513 11.7521 8.45536V11.889C11.7521 12.3909 11.6032 12.8816 11.3244 13.2989C11.0455 13.7163 10.6492 14.0415 10.1855 14.2336C9.72174 14.4257 9.21147 14.4759 8.71919 14.378C8.2269 14.2801 7.77471 14.0384 7.41979 13.6835C7.06487 13.3286 6.82317 12.8764 6.72525 12.3841C6.62733 11.8918 6.67759 11.3815 6.86967 10.9178C7.06175 10.4541 7.38702 10.0577 7.80436 9.77889C8.2217 9.50003 8.71236 9.35119 9.21429 9.35119C9.26726 9.35119 9.31905 9.35595 9.37113 9.35923V10.6098C9.31905 10.6036 9.26786 10.594 9.21429 10.594C8.87077 10.594 8.54132 10.7305 8.29841 10.9734C8.05551 11.2163 7.91905 11.5458 7.91905 11.8893C7.91905 12.2328 8.05551 12.5623 8.29841 12.8052C8.54132 13.0481 8.87077 13.1845 9.21429 13.1845C9.92976 13.1845 10.5616 12.6208 10.5616 11.9054L10.5741 6.07381H11.7705C11.8252 6.59366 12.0609 7.07775 12.4363 7.44144C12.8117 7.80513 13.3031 8.02528 13.8244 8.06339V9.45327" fill="black"/>
</svg>
