<svg width="102" height="30" viewBox="0 0 102 30" fill="none" xmlns="http://www.w3.org/2000/svg">
<g id="TikTok_logo 1">
<g id="Group">
<path id="Vector" d="M20.4837 11.0454C22.354 12.3817 24.6452 13.1679 27.1197 13.1679V8.40851C26.6514 8.40861 26.1843 8.3598 25.7261 8.26278V12.0091C23.2518 12.0091 20.9609 11.2229 19.0901 9.88671V19.5992C19.0901 24.4579 15.1494 28.3964 10.2885 28.3964C8.47481 28.3964 6.78904 27.8483 5.38867 26.9084C6.98696 28.5418 9.2159 29.5551 11.6818 29.5551C16.543 29.5551 20.4839 25.6166 20.4839 20.7577V11.0454H20.4837ZM22.2029 6.24379C21.2471 5.2001 20.6195 3.85133 20.4837 2.3602V1.74805H19.1631C19.4955 3.64327 20.6294 5.26243 22.2029 6.24379ZM8.46317 23.18C7.92915 22.4802 7.64057 21.6241 7.64186 20.7438C7.64186 18.5216 9.44434 16.7198 11.6681 16.7198C12.0825 16.7197 12.4945 16.7832 12.8894 16.9084V12.0427C12.4279 11.9795 11.9621 11.9526 11.4964 11.9625V15.7497C11.1012 15.6245 10.689 15.5608 10.2745 15.5612C8.05073 15.5612 6.24836 17.3628 6.24836 19.5853C6.24836 21.1567 7.14929 22.5172 8.46317 23.18Z" fill="#FF004F"/>
<path id="Vector_2" d="M19.0889 9.88661C20.9597 11.2228 23.2506 12.009 25.7249 12.009V8.26268C24.3438 7.96863 23.121 7.24722 22.2017 6.24379C20.6281 5.26233 19.4943 3.64317 19.1619 1.74805H15.6929V20.7575C15.6851 22.9736 13.8857 24.768 11.6667 24.768C10.3591 24.768 9.1974 24.1451 8.46168 23.18C7.1479 22.5172 6.24696 21.1566 6.24696 19.5854C6.24696 17.3631 8.04934 15.5613 10.2731 15.5613C10.6992 15.5613 11.1098 15.6276 11.495 15.7498V11.9626C6.71955 12.0612 2.87891 15.9612 2.87891 20.7576C2.87891 23.152 3.83531 25.3225 5.38758 26.9085C6.78794 27.8483 8.47371 28.3965 10.2874 28.3965C15.1484 28.3965 19.089 24.4578 19.089 19.5992V9.88661H19.0889Z" fill="black"/>
<path id="Vector_3" d="M25.7239 8.26113V7.24815C24.4784 7.25004 23.2574 6.90142 22.2007 6.24214C23.1361 7.26575 24.3679 7.97155 25.7239 8.26113ZM19.1609 1.7465C19.1292 1.56537 19.1048 1.38306 19.0879 1.20005V0.587891H14.2982V19.5976C14.2906 21.8134 12.4913 23.6078 10.2721 23.6078C9.62055 23.6078 9.00542 23.4532 8.46066 23.1785C9.19638 24.1435 10.3581 24.7664 11.6657 24.7664C13.8845 24.7664 15.6842 22.9722 15.6919 20.7561V1.7465H19.1609ZM11.4942 11.961V10.8826C11.094 10.8279 10.6905 10.8005 10.2865 10.8007C5.42512 10.8006 1.48438 14.7393 1.48438 19.5976C1.48438 22.6434 3.03316 25.3278 5.38665 26.9068C3.83439 25.3209 2.87798 23.1502 2.87798 20.756C2.87798 15.9596 6.71853 12.0596 11.4942 11.961Z" fill="#00F2EA"/>
<path id="Vector_4" d="M81.2223 24.412C84.7005 24.412 87.5202 21.6151 87.5202 18.1652C87.5202 14.7154 84.7005 11.918 81.2223 11.918H80.2734C83.7517 11.918 86.5715 14.7153 86.5715 18.1652C86.5715 21.6151 83.7517 24.412 80.2734 24.412H81.2223Z" fill="#FF004F"/>
<path id="Vector_5" d="M80.1885 11.918H79.2397C75.7616 11.918 72.9414 14.7153 72.9414 18.1652C72.9414 21.6151 75.7616 24.412 79.2397 24.412H80.1885C76.7099 24.412 73.8902 21.6151 73.8902 18.1652C73.8901 14.7154 76.7099 11.918 80.1885 11.918Z" fill="#00F2EA"/>
<path id="Vector_6" d="M32.3066 9.09375V12.2602H36.0157V24.3258H39.7262V12.3457H42.7454L43.7807 9.09385L32.3066 9.09375ZM62.6741 9.09375V12.2602H66.3831V24.3258H70.0937V12.3457H73.1128L74.1479 9.09385L62.6741 9.09375ZM44.4714 10.8907C44.4714 9.89846 45.2812 9.09375 46.2817 9.09375C47.283 9.09375 48.0937 9.89846 48.0937 10.8907C48.0937 11.883 47.2835 12.6877 46.2817 12.6877C45.2812 12.6872 44.4714 11.883 44.4714 10.8907ZM44.4714 13.9716H48.0937V24.3258H44.4714V13.9716ZM49.6468 9.09375V24.3257H53.2705V20.3897L54.3921 19.3619L57.9288 24.4112H61.8106L56.7202 17.052L61.2927 12.6017H56.8931L53.2705 16.1956V9.09375H49.6468ZM88.727 9.09375V24.3257H92.3511V20.3897L93.4722 19.3619L97.0099 24.4112H100.892L95.8019 17.052L100.374 12.6017H95.9747L92.3511 16.1956V9.09375H88.727Z" fill="black"/>
<path id="Vector_7" d="M80.2746 24.412C83.7527 24.412 86.5729 21.6151 86.5729 18.1652C86.5729 14.7154 83.7527 11.918 80.2746 11.918H80.1886C76.7103 11.918 73.8906 14.7153 73.8906 18.1652C73.8906 21.6151 76.7103 24.412 80.1886 24.412H80.2746ZM77.1689 18.1652C77.1689 16.4871 78.5408 15.1278 80.2324 15.1278C81.9228 15.1278 83.2946 16.4871 83.2946 18.1652C83.2946 19.8433 81.9228 21.2034 80.2324 21.2034C78.5408 21.2031 77.1689 19.8433 77.1689 18.1652Z" fill="black"/>
</g>
</g>
</svg>
