<svg width="120" height="30" viewBox="0 0 120 30" fill="none" xmlns="http://www.w3.org/2000/svg">
<g id="Walmart_logo 1" clip-path="url(#clip0_12595_5478)">
<g id="Group">
<path id="Vector" d="M70.684 15.91C70.684 13.0461 69.4588 10.5156 65.3154 10.5156C63.1896 10.5156 61.5008 11.1219 60.5853 11.6526L61.2564 13.9503C62.0993 13.4211 63.4444 12.9853 64.7139 12.9853C66.8116 12.9823 67.1553 14.1697 67.1553 14.9331V15.117C62.5763 15.1095 59.6816 16.6927 59.6816 19.9169C59.6816 21.887 61.1512 23.7341 63.72 23.7341C65.2873 23.7341 66.6116 23.1011 67.4027 22.102H67.4797C67.4797 22.102 68.0012 24.2855 70.8855 23.4509C70.7388 22.5363 70.684 21.5728 70.684 20.4017V15.91ZM67.2679 18.9341C67.2679 19.1654 67.2487 19.4055 67.1805 19.6116C66.9168 20.4936 66.0073 21.2318 64.8754 21.2318C63.92 21.2318 63.1703 20.6907 63.1703 19.5567C63.1703 17.8223 65.0843 17.345 67.2679 17.3568" fill="#0071CE"/>
<path id="Vector_2" d="M0.578125 6.62305C0.578125 6.62305 3.56904 18.8676 4.0446 20.851C4.60455 23.1695 5.60746 24.0263 8.50213 23.4556L10.3716 15.8628C10.8442 13.9816 11.1656 12.6326 11.4709 10.7159H11.5227C11.7345 12.6519 12.0397 13.9816 12.4263 15.8687C12.4263 15.8687 13.1892 19.3182 13.5848 21.1252C13.9699 22.9323 15.0543 24.0722 17.8942 23.4556L22.3443 6.62305H18.7519L17.2246 13.9045C16.8202 16.014 16.4528 17.6757 16.1669 19.6088H16.115C15.8573 17.6965 15.5299 16.1029 15.1092 14.0365L13.527 6.62305H9.7791L8.09028 13.8467C7.60881 16.0525 7.15848 17.821 6.87552 19.6933H6.82665C6.53483 17.9366 6.1393 15.6997 5.72003 13.5769C5.72003 13.5769 4.71712 8.40488 4.36309 6.62305" fill="#0071CE"/>
<path id="Vector_3" d="M32.3549 15.91C32.3549 13.0461 31.1268 10.5156 26.9833 10.5156C24.8635 10.5156 23.1717 11.1219 22.2562 11.6526L22.9273 13.9503C23.7672 13.4211 25.1109 12.9853 26.3849 12.9853C28.4825 12.9823 28.8262 14.1697 28.8262 14.9331V15.117C24.2472 15.1095 21.3496 16.6927 21.3496 19.9169C21.3496 21.887 22.8251 23.7341 25.382 23.7341C26.964 23.7341 28.2766 23.1011 29.0677 22.102H29.1476C29.1476 22.102 29.672 24.2855 32.5534 23.4509C32.4053 22.5363 32.3549 21.5728 32.3549 20.4017V15.91ZM28.9359 18.9341C28.9359 19.1654 28.9166 19.4055 28.8514 19.6116C28.5847 20.4936 27.6752 21.2318 26.5404 21.2318C25.5908 21.2318 24.8383 20.6907 24.8383 19.5567C24.8383 17.8223 26.7522 17.345 28.9359 17.3568" fill="#0071CE"/>
<path id="Vector_4" d="M34.2188 6.62305V23.4496H37.6378V19.8815V6.62305H34.2188Z" fill="#0071CE"/>
<path id="Vector_5" d="M81.1777 6.62305V19.038C81.1777 20.7517 81.4992 21.9465 82.1909 22.6788C82.7984 23.3207 83.7923 23.7387 84.976 23.7387C85.9923 23.7387 86.9862 23.543 87.4559 23.3725L87.4144 20.6998C87.0633 20.7813 86.6618 20.851 86.1107 20.851C84.9434 20.851 84.5583 20.1113 84.5583 18.5726V13.82H87.5359V10.6047H84.5583V6.62305" fill="#0071CE"/>
<path id="Vector_6" d="M72.3398 10.809V23.4523H75.8744V16.9772C75.8744 16.6288 75.8966 16.3279 75.9515 16.0492C76.2151 14.684 77.2506 13.8197 78.7424 13.8197C79.1587 13.8197 79.4416 13.8657 79.7557 13.9146V10.6C79.492 10.5525 79.3128 10.5273 78.9883 10.5273C77.6654 10.5273 76.1662 11.3679 75.5337 13.1986H75.4463V10.809" fill="#0071CE"/>
<path id="Vector_7" d="M39.625 10.809V23.4523H43.0692V16.0314C43.0692 15.6831 43.1077 15.3273 43.2307 15.0056C43.5107 14.2541 44.2055 13.3839 45.3209 13.3839C46.7075 13.3839 47.3623 14.555 47.3623 16.2449V23.4523H50.7977V15.9425C50.7977 15.6149 50.8436 15.2132 50.9398 14.9226C51.2154 14.0702 51.968 13.3839 53.008 13.3839C54.4093 13.3839 55.0878 14.5298 55.0878 16.5221V23.4523H58.5202V15.9974C58.5202 12.0809 56.5292 10.5273 54.2686 10.5273C53.2746 10.5273 52.4835 10.7719 51.7724 11.2107C51.1709 11.5798 50.6436 12.1002 50.171 12.7806H50.1192C49.5755 11.4197 48.2986 10.5273 46.6305 10.5273C44.4914 10.5273 43.5196 11.608 42.9477 12.5212H42.8959V10.809" fill="#0071CE"/>
<path id="Vector_8" d="M106.033 10.2415C106.709 10.2415 107.277 9.88871 107.351 9.4351L108.021 1.84528C108.021 1.09371 107.137 0.478516 106.033 0.478516C104.923 0.478516 104.045 1.09371 104.045 1.84528L104.72 9.4351C104.792 9.88871 105.357 10.2415 106.033 10.2415Z" fill="#FFC220"/>
<path id="Vector_9" d="M101.924 12.6196C102.258 12.0267 102.239 11.3685 101.878 11.075L95.626 6.70044C94.9757 6.32096 94.0024 6.77308 93.4454 7.73071C92.8899 8.68684 93.0025 9.76009 93.6395 10.1322L100.561 13.343C101.004 13.509 101.583 13.2007 101.924 12.6137" fill="#FFC220"/>
<path id="Vector_10" d="M110.14 12.6115C110.494 13.1985 111.074 13.5068 111.505 13.3497L118.426 10.1299C119.069 9.75045 119.165 8.68758 118.621 7.73144C118.066 6.77382 117.087 6.32466 116.438 6.69673L110.185 11.0668C109.838 11.3648 109.813 12.0259 110.148 12.6174" fill="#FFC220"/>
<path id="Vector_11" d="M106.033 19.7207C106.709 19.7207 107.277 20.0735 107.351 20.5271L108.021 28.1169C108.021 28.8685 107.137 29.4778 106.033 29.4778C104.923 29.4778 104.045 28.8685 104.045 28.1169L104.72 20.5271C104.792 20.0735 105.357 19.7207 106.033 19.7207Z" fill="#FFC220"/>
<path id="Vector_12" d="M110.14 17.3547C110.494 16.7661 111.074 16.4519 111.505 16.6224L118.426 19.8362C119.069 20.2082 119.165 21.28 118.621 22.2376C118.066 23.1878 117.087 23.64 116.438 23.2679L110.185 18.8919C109.838 18.5969 109.813 17.9387 110.148 17.3547" fill="#FFC220"/>
<path id="Vector_13" d="M101.924 17.3464C102.258 17.9379 102.239 18.5946 101.878 18.891L95.626 23.2596C94.9757 23.6391 94.0024 23.1855 93.4454 22.2353C92.8899 21.2792 93.0025 20.2059 93.6395 19.8338L100.561 16.62C101.004 16.451 101.583 16.7623 101.924 17.3464Z" fill="#FFC220"/>
</g>
</g>
<defs>
<clipPath id="clip0_12595_5478">
<rect width="119" height="30" fill="white" transform="translate(0.5)"/>
</clipPath>
</defs>
</svg>
