<svg width="20" height="20" viewBox="0 0 20 20" fill="none" xmlns="http://www.w3.org/2000/svg">
<circle opacity="0.08" cx="10" cy="10" r="10" fill="#FF0000"/>
<path d="M14.6124 4H5.8876C4.84508 4 4 4.84515 4 5.8877V14.6124C4 15.6549 4.84508 16.5 5.8876 16.5H14.6124C15.6549 16.5 16.5 15.6549 16.5 14.6124V5.88776C16.5 4.8452 15.6549 4 14.6124 4V4Z" fill="#FF0000"/>
<path opacity="0.554" d="M13.1975 4.53516H7.3025C5.74207 4.53516 4.48584 5.80171 4.48584 7.37493V13.1267C4.53637 14.3547 4.73067 13.5783 5.10045 12.2184C5.53027 10.6378 6.92996 9.25641 8.63463 8.22109C9.93571 7.43089 11.392 6.92629 14.043 6.87826C15.5463 6.85107 15.4137 4.92693 13.1975 4.53516Z" fill="url(#paint0_linear_5826_60497)"/>
<path d="M6.81029 6.27178C7.59723 5.56754 8.51991 5.07204 9.93108 5.32822V9.86467C9.87061 10.0824 9.68918 10.1308 9.53195 10.0098L6.81029 6.27178ZM12.4424 7.92298C13.0746 8.31789 13.7821 9.10724 13.9826 10.2697L10.9437 10.7617C10.7684 10.6951 10.6366 10.5851 10.6535 10.3262L12.4424 7.92298ZM11.0345 11.8142C10.8384 11.8582 10.7348 11.9761 10.7805 12.2134L12.3175 14.8156C13.001 14.5019 13.6832 13.7699 13.9919 12.6852L11.0345 11.8142ZM9.45594 12.1771C9.65923 12.1507 9.84912 12.1468 9.90954 12.3585L10.0003 15.2619C9.0017 15.3358 8.16896 15.0779 7.60526 14.282L9.45594 12.1771ZM9.05675 10.8343C9.20196 11.0088 9.28345 11.1925 9.09308 11.415L6.29887 12.3949C5.96946 11.4852 5.99962 10.631 6.29887 9.81818L9.05675 10.8343Z" fill="white"/>
<defs>
<linearGradient id="paint0_linear_5826_60497" x1="7.18144" y1="2.16094" x2="8.80816" y2="6.90222" gradientUnits="userSpaceOnUse">
<stop stop-color="white"/>
<stop offset="1" stop-color="white" stop-opacity="0"/>
</linearGradient>
</defs>
</svg>
