<svg width="20" height="20" viewBox="0 0 20 20" fill="none" xmlns="http://www.w3.org/2000/svg">
<g id="Frame 164244">
<path id="Vector" d="M20 10C20 15.524 15.524 20 10 20C4.476 20 0 15.524 0 10C0 4.476 4.476 0 10 0C15.524 0 20 4.48 20 10Z" fill="#FF492C"/>
<path id="Vector_2" d="M14.3287 8.36799H11.7447V8.24799C11.7447 7.80799 11.8327 7.44399 12.0087 7.15999C12.1847 6.87199 12.4887 6.61999 12.9287 6.39599L13.1287 6.29599C13.4847 6.11599 13.5767 5.95999 13.5767 5.77599C13.5767 5.55599 13.3847 5.39599 13.0767 5.39599C12.7087 5.39599 12.4327 5.58799 12.2407 5.97599L11.7447 5.47999C11.8527 5.24799 12.0287 5.06399 12.2607 4.91599C12.4967 4.76799 12.7567 4.69599 13.0407 4.69599C13.3967 4.69599 13.7047 4.78799 13.9567 4.97999C14.2167 5.17199 14.3447 5.43599 14.3447 5.76799C14.3447 6.29999 14.0447 6.62399 13.4847 6.91199L13.1687 7.07199C12.8327 7.23999 12.6687 7.39199 12.6207 7.65999H14.3287V8.36799ZM14.1007 9.18399H11.2727L9.86067 11.632H12.6887L14.1047 14.08L15.5167 11.632L14.1007 9.18399ZM10.1047 13.268C8.30467 13.268 6.84067 11.804 6.84067 10.004C6.84067 8.20399 8.30467 6.73999 10.1047 6.73999L11.2247 4.39999C10.8607 4.32799 10.4887 4.29199 10.1047 4.29199C6.94867 4.29199 4.38867 6.85199 4.38867 10.004C4.38867 13.16 6.94467 15.72 10.1047 15.72C11.3607 15.72 12.5247 15.312 13.4687 14.624L12.2287 12.48C11.6607 12.968 10.9167 13.268 10.1047 13.268Z" fill="#1C1C20"/>
</g>
</svg>
