<svg width="40" height="40" viewBox="0 0 40 40" fill="none" xmlns="http://www.w3.org/2000/svg">
<g id="home-house-checkmark.1 1">
<path id="Vector" d="M5 17.8256L18.2251 6.48961C18.7194 6.06591 19.349 5.83301 20 5.83301C20.651 5.83301 21.2806 6.06591 21.7749 6.48961L35 17.8256" stroke="#434396" stroke-width="1.5" stroke-linecap="round" stroke-linejoin="round"/>
<path id="Vector_2" d="M32.8572 16.021V6.36363C32.8572 6.18456 32.822 6.00724 32.7534 5.84179C32.6849 5.67635 32.5845 5.52602 32.4578 5.3994C32.3312 5.27277 32.1809 5.17233 32.0155 5.1038C31.85 5.03527 31.6727 5 31.4936 5H27.4027C27.041 5 26.6942 5.14367 26.4385 5.3994C26.1827 5.65513 26.0391 6.00198 26.0391 6.36363V10.1767" stroke="#434396" stroke-width="1.5" stroke-linecap="round" stroke-linejoin="round"/>
<path id="Vector_3" d="M29.9997 21.667C31.3182 21.667 32.6072 22.058 33.7035 22.7905C34.7998 23.5231 35.6543 24.5643 36.1589 25.7824C36.6635 27.0006 36.7955 28.3411 36.5382 29.6343C36.281 30.9275 35.6461 32.1154 34.7137 33.0477C33.7814 33.9801 32.5935 34.615 31.3003 34.8722C30.0071 35.1295 28.6666 34.9974 27.4485 34.4929C26.2303 33.9883 25.1891 33.1338 24.4565 32.0375C23.724 30.9411 23.333 29.6522 23.333 28.3337C23.333 26.5655 24.0354 24.8699 25.2856 23.6196C26.5359 22.3694 28.2316 21.667 29.9997 21.667Z" stroke="#434396" stroke-width="1.5" stroke-linecap="round" stroke-linejoin="round"/>
<path id="Vector_4" d="M15.9092 33.333V24.6966C15.9092 24.335 16.0529 23.9881 16.3086 23.7324C16.5643 23.4767 16.9112 23.333 17.2728 23.333H20.0001" stroke="#434396" stroke-width="1.5" stroke-linecap="round" stroke-linejoin="round"/>
<path id="Vector_5" d="M7.14258 16.0215V33.3338" stroke="#434396" stroke-width="1.5" stroke-linecap="round" stroke-linejoin="round"/>
<path id="Vector_6" d="M20 33.333H5" stroke="#434396" stroke-width="1.5" stroke-linecap="round" stroke-linejoin="round"/>
<path id="Vector_7" d="M32.2671 27.167L29.4338 30.0003L27.7305 28.302" stroke="#434396" stroke-width="1.5" stroke-linecap="round" stroke-linejoin="round"/>
</g>
</svg>
