<svg width="48" height="48" viewBox="0 0 48 48" fill="none" xmlns="http://www.w3.org/2000/svg">
<g id="Logo">
<circle id="Ellipse 10" opacity="0.06" cx="24" cy="24" r="24" fill="#34CCA9"/>
<g id="Residential proxy">
<g id="Group 66">
<path id="Vector (Stroke)" fill-rule="evenodd" clip-rule="evenodd" d="M19.4668 27.9998C19.4668 26.2319 20.8989 24.7998 22.6668 24.7998H25.3335C27.1013 24.7998 28.5335 26.2319 28.5335 27.9998V35.9998C28.5335 36.2944 28.2947 36.5331 28.0001 36.5331C27.7056 36.5331 27.4668 36.2944 27.4668 35.9998V27.9998C27.4668 26.821 26.5122 25.8665 25.3335 25.8665H22.6668C21.488 25.8665 20.5335 26.821 20.5335 27.9998V35.9998C20.5335 36.2944 20.2947 36.5331 20.0001 36.5331C19.7056 36.5331 19.4668 36.2944 19.4668 35.9998V27.9998Z" fill="#34CCA9"/>
<path id="Vector (Stroke)_2" fill-rule="evenodd" clip-rule="evenodd" d="M13.3341 18.9331C13.6287 18.9331 13.8674 19.1719 13.8674 19.4664V35.4664H34.1341V19.4664C34.1341 19.1719 34.3729 18.9331 34.6674 18.9331C34.962 18.9331 35.2008 19.1719 35.2008 19.4664V35.9998C35.2008 36.2943 34.962 36.5331 34.6674 36.5331H13.3341C13.0396 36.5331 12.8008 36.2943 12.8008 35.9998V19.4664C12.8008 19.1719 13.0396 18.9331 13.3341 18.9331Z" fill="#34CCA9"/>
<path id="Vector (Stroke)_3" fill-rule="evenodd" clip-rule="evenodd" d="M23.6937 11.563C23.8773 11.4344 24.1217 11.4344 24.3054 11.563L37.6387 20.8963C37.88 21.0652 37.9387 21.3978 37.7698 21.6391C37.6009 21.8804 37.2683 21.9391 37.027 21.7701L23.9995 12.6509L10.972 21.7701C10.7307 21.9391 10.3982 21.8804 10.2293 21.6391C10.0604 21.3978 10.119 21.0652 10.3603 20.8963L23.6937 11.563Z" fill="#34CCA9"/>
</g>
</g>
</g>
</svg>
