<svg width="40" height="40" viewBox="0 0 40 40" fill="none" xmlns="http://www.w3.org/2000/svg">
<g id="Group">
<g id="Group_2">
<g id="Group_3">
<path id="Vector" d="M24.2121 29.2354H16.4805" stroke="#0B5398" stroke-width="1.5" stroke-linecap="round" stroke-linejoin="round"/>
</g>
<path id="Vector_2" d="M30.0012 34.9997C33.198 34.9997 35.7896 32.4186 35.7896 29.2347C35.7896 26.0508 33.198 23.4697 30.0012 23.4697C26.8044 23.4697 24.2129 26.0508 24.2129 29.2347C24.2129 32.4186 26.8044 34.9997 30.0012 34.9997Z" stroke="#0B5398" stroke-width="1.5" stroke-linecap="round" stroke-linejoin="round"/>
<path id="Vector_3" d="M30 16.667V23.4703" stroke="#0B5398" stroke-width="1.5" stroke-linecap="round" stroke-linejoin="round"/>
<path id="Vector_4" d="M10.0012 16.53C13.198 16.53 15.7896 13.9489 15.7896 10.765C15.7896 7.58108 13.198 5 10.0012 5C6.80442 5 4.21289 7.58108 4.21289 10.765C4.21289 13.9489 6.80442 16.53 10.0012 16.53Z" stroke="#0B5398" stroke-width="1.5" stroke-linecap="round" stroke-linejoin="round"/>
<path id="Vector_5" d="M10 23.3337V16.667" stroke="#0B5398" stroke-width="1.5" stroke-linecap="round" stroke-linejoin="round"/>
<g id="Group_4">
<path id="Vector_6" d="M13.334 34.9997H6.66732C4.82565 34.9997 3.33398 33.508 3.33398 31.6663C3.33398 29.8247 4.82565 28.333 6.66732 28.333H13.334C15.1756 28.333 16.6673 29.8247 16.6673 31.6663C16.6673 33.508 15.1756 34.9997 13.334 34.9997Z" stroke="#0B5398" stroke-width="1.5" stroke-linecap="round" stroke-linejoin="round"/>
</g>
<path id="Vector_7" d="M3.3457 31.3897L3.73904 26.4047C3.87404 24.6697 5.32237 23.333 7.0607 23.333H12.939C14.679 23.333 16.1257 24.6697 16.2624 26.4047L16.6557 31.3897" stroke="#0B5398" stroke-width="1.5" stroke-linecap="round" stroke-linejoin="round"/>
<g id="Group_5">
<path id="Vector_8" d="M33.334 16.6667H26.6673C24.8257 16.6667 23.334 15.175 23.334 13.3333C23.334 11.4917 24.8257 10 26.6673 10H33.334C35.1757 10 36.6673 11.4917 36.6673 13.3333C36.6673 15.175 35.1757 16.6667 33.334 16.6667Z" stroke="#0B5398" stroke-width="1.5" stroke-linecap="round" stroke-linejoin="round"/>
</g>
<path id="Vector_9" d="M23.3457 13.0567L23.739 8.07167C23.874 6.33667 25.3224 5 27.0607 5H32.939C34.679 5 36.1257 6.33667 36.2624 8.07167L36.6557 13.0567" stroke="#0B5398" stroke-width="1.5" stroke-linecap="round" stroke-linejoin="round"/>
</g>
</g>
</svg>
