<svg width="35" height="30" viewBox="0 0 35 30" fill="none" xmlns="http://www.w3.org/2000/svg">
<g id="Frame 164291">
<path id="Vector" fill-rule="evenodd" clip-rule="evenodd" d="M17.4985 1.3737C15.2458 1.3737 13.4206 3.20033 13.4206 5.4518C13.4206 7.70056 15.245 9.52654 17.4989 9.52976C19.7516 9.52963 21.5766 7.70301 21.5766 5.4518C21.5766 3.19891 19.75 1.3737 17.4985 1.3737ZM12.0469 5.4518C12.0469 2.44207 14.4869 0 17.4985 0C20.5083 0 22.9503 2.44 22.9503 5.4518C22.9503 8.4614 20.5103 10.9035 17.4985 10.9035C14.4882 10.8995 12.0469 8.46037 12.0469 5.4518Z" fill="#0B5398"/>
<path id="Vector_2" fill-rule="evenodd" clip-rule="evenodd" d="M5.95179 20.4274C3.69904 20.4274 1.8737 22.254 1.8737 24.5054C1.8737 26.7584 3.69878 28.5835 5.95179 28.5835C8.20416 28.5835 10.0283 26.7571 10.0298 24.505C10.0296 22.2524 8.20301 20.4274 5.95179 20.4274ZM0.5 24.5054C0.5 21.4956 2.94 19.0537 5.95179 19.0537C8.96152 19.0537 11.4035 21.4937 11.4035 24.5054C11.4015 27.5143 8.96397 29.9572 5.95179 29.9572C2.94013 29.9572 0.5 27.517 0.5 24.5054Z" fill="#0B5398"/>
<path id="Vector_3" fill-rule="evenodd" clip-rule="evenodd" d="M29.0475 20.4274C26.7946 20.4274 24.9694 22.254 24.9694 24.5054C24.9694 26.7585 26.7929 28.5835 29.0475 28.5835C31.3003 28.5835 33.1255 26.7568 33.1255 24.5054C33.1255 22.2526 31.2988 20.4274 29.0475 20.4274ZM23.5957 24.5054C23.5957 21.4956 26.0357 19.0537 29.0475 19.0537C32.0571 19.0537 34.4992 21.4937 34.4992 24.5054C34.4992 27.5151 32.0592 29.9572 29.0475 29.9572C26.0339 29.9572 23.5957 27.5169 23.5957 24.5054Z" fill="#0B5398"/>
<path id="Vector_4" fill-rule="evenodd" clip-rule="evenodd" d="M11.8406 14.266C12.1599 14.4708 12.2527 14.8956 12.0479 15.2149L8.5931 20.6014C8.38834 20.9206 7.96349 21.0135 7.64425 20.8087C7.32487 20.6039 7.23215 20.1791 7.43691 19.8597L10.8917 14.4733C11.0965 14.154 11.5213 14.0613 11.8406 14.266Z" fill="#0B5398"/>
<path id="Vector_5" fill-rule="evenodd" clip-rule="evenodd" d="M19.6988 8.88037C20.018 8.67548 20.443 8.7682 20.6478 9.08745L24.1042 14.474C24.3091 14.7932 24.2164 15.218 23.8972 15.4229C23.5779 15.6277 23.1531 15.535 22.9482 15.2157L19.4917 9.82935C19.2868 9.51011 19.3795 9.08513 19.6988 8.88037Z" fill="#0B5398"/>
<path id="Vector_6" fill-rule="evenodd" clip-rule="evenodd" d="M16.8125 24.5051C16.8125 24.1258 17.12 23.8184 17.4993 23.8184H24.2834C24.6628 23.8184 24.9704 24.1258 24.9704 24.5051C24.9704 24.8844 24.6628 25.1919 24.2834 25.1919H17.4993C17.12 25.1919 16.8125 24.8844 16.8125 24.5051Z" fill="#0B5398"/>
</g>
</svg>
