<svg width="24" height="22" viewBox="0 0 24 22" fill="none" xmlns="http://www.w3.org/2000/svg">
<g id="Frame 164317">
<path id="Vector" d="M20.9051 4.57262L20.9051 4.57275L21.1628 5.84075C21.1724 5.87585 21.1788 5.91013 21.1832 5.94287L23.1423 15.574L23.1424 15.5742C23.2983 16.3438 23.2881 17.0988 23.1102 17.8168M20.9051 4.57262L22.8675 17.7567M20.9051 4.57262C20.661 3.37542 20.024 2.35495 19.1397 1.63221C18.256 0.908432 17.1285 0.488281 15.9083 0.488281H8.09862C6.87893 0.488281 5.75151 0.909497 4.86727 1.63221C3.98212 2.35495 3.34503 3.37547 3.10189 4.57275C3.10188 4.57277 3.10188 4.57278 3.10188 4.5728L2.86589 5.73367H2.863L2.82228 5.93383L0.86129 15.574L0.861252 15.5742C0.705262 16.344 0.716489 17.0989 0.893353 17.8166L0.893408 17.8168C1.07118 18.5353 1.41237 19.2077 1.90877 19.816M20.9051 4.57262L2.10256 19.6581M23.1102 17.8168L22.8675 17.7567M23.1102 17.8168C23.1102 17.8168 23.1102 17.8168 23.1102 17.8168L22.8675 17.7567M23.1102 17.8168C22.9324 18.5353 22.5912 19.2078 22.0947 19.8161L22.0947 19.8162C21.5972 20.4257 21.0043 20.895 20.3359 21.2126L20.3356 21.2127C19.6655 21.5302 18.9289 21.6919 18.1448 21.6919H5.85876C5.07481 21.6919 4.33723 21.5302 3.66785 21.2126C2.99849 20.8951 2.40634 20.4265 1.90877 19.816M22.8675 17.7567C22.6991 18.4373 22.3755 19.0766 21.901 19.6581C21.4257 20.2404 20.8618 20.6859 20.2286 20.9868C19.5936 21.2876 18.8938 21.4419 18.1448 21.4419H5.85876C5.10981 21.4419 4.40908 21.2876 3.775 20.9868C3.14093 20.686 2.5779 20.2413 2.10256 19.6581M1.90877 19.816C1.9088 19.8161 1.90883 19.8161 1.90886 19.8162L2.10256 19.6581M1.90877 19.816L2.10256 19.6581M19.6834 19.8294L19.6832 19.8295C19.2258 20.0472 18.7096 20.1604 18.1463 20.1604H12.0038H5.86033C5.2966 20.1604 4.78182 20.0465 4.32292 19.8293C3.86331 19.6112 3.45024 19.2845 3.09577 18.8507C2.74037 18.4151 2.50216 17.9439 2.38014 17.4501L2.38009 17.45C2.25726 16.9545 2.24894 16.4275 2.3605 15.8779C2.36051 15.8778 2.36051 15.8778 2.36052 15.8778L4.20534 6.80896H19.8013L21.6461 15.8778C21.7577 16.4274 21.7494 16.9554 21.6266 17.4499L21.6265 17.4502C21.5044 17.9449 21.2662 18.416 20.9109 18.8507L20.9109 18.8507C20.5564 19.2845 20.1424 19.6113 19.6834 19.8294ZM14.2214 15.361L14.3982 15.5378L14.2214 15.361C13.6512 15.9312 12.8658 16.284 12.004 16.284C11.1413 16.284 10.3568 15.9313 9.78653 15.361L9.60976 15.5378L9.78653 15.361C9.21628 14.7908 8.86348 14.0054 8.86348 13.1436V9.42942C8.86348 9.0063 8.52087 8.66373 8.09779 8.66373C7.67467 8.66373 7.3321 9.00633 7.3321 9.42942V13.1436C7.3321 14.4294 7.85799 15.598 8.70428 16.4434C9.54955 17.2896 10.7182 17.8154 12.0039 17.8154C13.2897 17.8154 14.4583 17.2896 15.3037 16.4433C16.15 15.5981 16.6758 14.4294 16.6758 13.1436V9.42942C16.6758 9.0063 16.3332 8.66373 15.9101 8.66373C15.487 8.66373 15.1444 9.00633 15.1444 9.42942L15.1445 13.1436C15.1445 14.0062 14.7917 14.7907 14.2214 15.361ZM19.4081 4.87851L19.4081 4.87863L19.4899 5.27939H4.51681L4.59857 4.87863L4.59859 4.87851C4.77034 4.03456 5.21661 3.31965 5.83162 2.81751C6.44676 2.31528 7.23552 2.02053 8.09848 2.02053H15.9082C16.7703 2.02053 17.5599 2.31527 18.1749 2.81739C18.7901 3.32053 19.2364 4.03468 19.4081 4.87851Z" fill="#F9FAFB" stroke="#F9FAFB" stroke-width="0.5"/>
</g>
</svg>
