<svg width="41" height="40" viewBox="0 0 41 40" fill="none" xmlns="http://www.w3.org/2000/svg">
<g id="isp-proxy-icon 1" clip-path="url(#clip0_12587_11294)">
<g id="Clip path group">
<mask id="mask0_12587_11294" style="mask-type:luminance" maskUnits="userSpaceOnUse" x="0" y="0" width="41" height="40">
<g id="a">
<path id="Vector" d="M0.5 0H40.5V40H0.5V0Z" fill="white"/>
</g>
</mask>
<g mask="url(#mask0_12587_11294)">
<g id="Group">
<path id="Vector_2" fill-rule="evenodd" clip-rule="evenodd" d="M2.57034 32.8202C2.57034 30.9093 3.32943 29.0767 4.68063 27.7255C6.03183 26.3743 7.86445 25.6152 9.77534 25.6152H30.9683C31.9147 25.6151 32.8518 25.8014 33.7261 26.1635C34.6004 26.5256 35.3949 27.0564 36.064 27.7255C36.7332 28.3947 37.264 29.1891 37.6261 30.0635C37.9882 30.9378 38.1745 31.8749 38.1743 32.8212C38.1745 33.7676 37.9882 34.7047 37.6261 35.579C37.264 36.4533 36.7332 37.2478 36.064 37.9169C35.3949 38.5861 34.6004 39.1169 33.7261 39.479C32.8518 39.8411 31.9147 40.0274 30.9683 40.0272H9.77534C8.82899 40.0274 7.8919 39.8411 7.01756 39.479C6.14323 39.1169 5.3488 38.5861 4.67963 37.9169C4.01047 37.2478 3.47968 36.4533 3.11759 35.579C2.7555 34.7047 2.5692 33.7676 2.56934 32.8212L2.57034 32.8202ZM9.77534 27.3102C8.31386 27.3102 6.91224 27.8908 5.87882 28.9242C4.8454 29.9576 4.26484 31.3593 4.26484 32.8207C4.26484 34.2822 4.8454 35.6838 5.87882 36.7172C6.91224 37.7507 8.31386 38.3312 9.77534 38.3312H30.9683C32.4297 38.3312 33.8312 37.7507 34.8645 36.7174C35.8978 35.6841 36.4783 34.2826 36.4783 32.8212C36.4783 31.3599 35.8978 29.9584 34.8645 28.9251C33.8312 27.8918 32.4297 27.3112 30.9683 27.3112H9.77534V27.3102Z" fill="#434396"/>
<path id="Vector_3" fill-rule="evenodd" clip-rule="evenodd" d="M19.5235 32.8202C19.5235 32.3522 19.9035 31.9732 20.3715 31.9732H30.9685C31.0822 31.9692 31.1956 31.9883 31.3018 32.0291C31.408 32.0699 31.505 32.1317 31.5868 32.2108C31.6687 32.2899 31.7338 32.3847 31.7782 32.4894C31.8227 32.5942 31.8456 32.7068 31.8456 32.8207C31.8456 32.9345 31.8227 33.0471 31.7782 33.1519C31.7338 33.2567 31.6687 33.3514 31.5868 33.4305C31.505 33.5096 31.408 33.5714 31.3018 33.6122C31.1956 33.653 31.0822 33.6721 30.9685 33.6682H20.3705C20.1456 33.6682 19.9299 33.5788 19.7708 33.4198C19.6118 33.2608 19.5225 33.0451 19.5225 32.8202H19.5235Z" fill="#434396"/>
<path id="Vector_4" d="M10.7978 32.2214C10.8812 32.299 10.9481 32.3926 10.9945 32.4966C11.0409 32.6006 11.0659 32.7129 11.0679 32.8268C11.07 32.9406 11.0491 33.0538 11.0065 33.1594C10.9639 33.265 10.9004 33.361 10.8199 33.4415C10.7394 33.5221 10.6435 33.5856 10.538 33.6283C10.4324 33.671 10.3193 33.692 10.2054 33.69C10.0915 33.688 9.97922 33.6632 9.87517 33.6168C9.77113 33.5705 9.67748 33.5037 9.59982 33.4204C9.45 33.2597 9.3684 33.0471 9.3722 32.8275C9.376 32.6078 9.46491 32.3982 9.62019 32.2428C9.77548 32.0873 9.98503 31.9983 10.2047 31.9943C10.4244 31.9903 10.637 32.0717 10.7978 32.2214Z" fill="#434396"/>
<path id="Vector_5" fill-rule="evenodd" clip-rule="evenodd" d="M2.5 19.9198C2.5 18.9736 2.6864 18.0366 3.04854 17.1624C3.41069 16.2882 3.9415 15.4938 4.61065 14.8248C5.2798 14.1557 6.07419 13.625 6.94846 13.263C7.82272 12.901 8.75974 12.7147 9.706 12.7148H30.899C31.8453 12.7147 32.7824 12.901 33.6568 13.2631C34.5311 13.6252 35.3255 14.156 35.9947 14.8251C36.6639 15.4943 37.1947 16.2887 37.5567 17.1631C37.9188 18.0374 38.1051 18.9745 38.105 19.9208C38.105 20.8671 37.9186 21.8041 37.5565 22.6783C37.1943 23.5525 36.6635 24.3468 35.9944 25.0159C35.3252 25.685 34.5308 26.2157 33.6565 26.5777C32.7823 26.9397 31.8453 27.126 30.899 27.1258H9.706C8.75966 27.126 7.82256 26.9397 6.94823 26.5776C6.0739 26.2155 5.27946 25.6847 4.6103 25.0155C3.94113 24.3464 3.41035 23.5519 3.04826 22.6776C2.68617 21.8033 2.49987 20.8662 2.5 19.9198ZM9.706 14.4098C8.24466 14.4098 6.84317 14.9904 5.80984 16.0237C4.77652 17.057 4.196 18.4585 4.196 19.9198C4.196 21.3812 4.77652 22.7827 5.80984 23.816C6.84317 24.8493 8.24466 25.4298 9.706 25.4298H30.899C32.3603 25.4298 33.7618 24.8493 34.7952 23.816C35.8285 22.7827 36.409 21.3812 36.409 19.9198C36.409 18.4585 35.8285 17.057 34.7952 16.0237C33.7618 14.9904 32.3603 14.4098 30.899 14.4098H9.706Z" fill="#434396"/>
<path id="Vector_6" fill-rule="evenodd" clip-rule="evenodd" d="M19.4551 19.9203C19.4551 19.4523 19.8351 19.0723 20.3021 19.0723H30.9001C31.125 19.0723 31.3407 19.1616 31.4997 19.3206C31.6587 19.4797 31.7481 19.6954 31.7481 19.9203C31.7481 20.1452 31.6587 20.3609 31.4997 20.5199C31.3407 20.6789 31.125 20.7683 30.9001 20.7683H20.3021C20.0773 20.768 19.8619 20.6785 19.7031 20.5195C19.5443 20.3605 19.4551 20.145 19.4551 19.9203Z" fill="#434396"/>
<path id="Vector_7" d="M10.7298 19.3198C10.8086 19.3986 10.8711 19.4922 10.9137 19.5951C10.9564 19.698 10.9783 19.8084 10.9783 19.9198C10.9783 20.0312 10.9564 20.1416 10.9137 20.2445C10.8711 20.3475 10.8086 20.441 10.7298 20.5198C10.651 20.5986 10.5574 20.6611 10.4545 20.7038C10.3515 20.7464 10.2412 20.7683 10.1298 20.7683C10.0183 20.7683 9.90801 20.7464 9.80506 20.7038C9.70211 20.6611 9.60857 20.5986 9.52978 20.5198C9.37065 20.3607 9.28125 20.1449 9.28125 19.9198C9.28125 19.6948 9.37065 19.4789 9.52978 19.3198C9.68891 19.1607 9.90473 19.0713 10.1298 19.0713C10.3548 19.0713 10.5706 19.1607 10.7298 19.3198Z" fill="#434396"/>
<path id="Vector_8" fill-rule="evenodd" clip-rule="evenodd" d="M2.5 7.206C2.49987 6.25966 2.68617 5.32256 3.04826 4.44823C3.41035 3.5739 3.94113 2.77946 4.6103 2.1103C5.27946 1.44113 6.0739 0.910345 6.94823 0.548257C7.82256 0.186168 8.75966 -0.000131285 9.706 6.94123e-08H30.899C31.8453 -0.000131285 32.7824 0.186168 33.6568 0.548257C34.5311 0.910345 35.3255 1.44113 35.9947 2.1103C36.6639 2.77946 37.1947 3.5739 37.5567 4.44823C37.9188 5.32256 38.1051 6.25966 38.105 7.206C38.105 8.15226 37.9186 9.08925 37.5565 9.96346C37.1943 10.8377 36.6635 11.632 35.9944 12.3011C35.3252 12.9701 34.5308 13.5008 33.6565 13.8628C32.7823 14.2249 31.8453 14.4111 30.899 14.411H9.706C8.75974 14.4111 7.82272 14.2249 6.94846 13.8628C6.07419 13.5008 5.2798 12.9701 4.61065 12.3011C3.9415 11.632 3.41069 10.8377 3.04854 9.96346C2.6864 9.08925 2.5 8.15226 2.5 7.206ZM9.706 1.696C8.24466 1.696 6.84317 2.27652 5.80984 3.30984C4.77652 4.34317 4.196 5.74466 4.196 7.206C4.196 8.66734 4.77652 10.0688 5.80984 11.1022C6.84317 12.1355 8.24466 12.716 9.706 12.716H30.899C32.3603 12.716 33.7618 12.1355 34.7952 11.1022C35.8285 10.0688 36.409 8.66734 36.409 7.206C36.409 5.74466 35.8285 4.34317 34.7952 3.30984C33.7618 2.27652 32.3603 1.696 30.899 1.696H9.706Z" fill="#434396"/>
<path id="Vector_9" fill-rule="evenodd" clip-rule="evenodd" d="M19.4551 7.20542C19.4551 6.73742 19.8351 6.35742 20.3021 6.35742H30.9001C31.125 6.35742 31.3407 6.44676 31.4997 6.6058C31.6587 6.76483 31.7481 6.98052 31.7481 7.20542C31.7481 7.43033 31.6587 7.64602 31.4997 7.80505C31.3407 7.96408 31.125 8.05342 30.9001 8.05342H20.3021C20.0773 8.05316 19.8619 7.9637 19.7031 7.8047C19.5443 7.64569 19.4551 7.43015 19.4551 7.20542Z" fill="#434396"/>
<path id="Vector_10" d="M10.7299 6.60562C10.8087 6.68441 10.8711 6.77794 10.9137 6.88086C10.9563 6.98379 10.9781 7.09409 10.9781 7.20547C10.9781 7.31686 10.9561 7.42714 10.9134 7.53003C10.8707 7.63292 10.8082 7.72639 10.7294 7.80512C10.6506 7.88385 10.5571 7.94628 10.4542 7.98887C10.3513 8.03145 10.241 8.05334 10.1296 8.05329C10.0182 8.05325 9.9079 8.03126 9.80502 7.9886C9.70213 7.94593 9.60865 7.88341 9.52992 7.80462C9.37079 7.64562 9.28134 7.42992 9.28125 7.20497C9.28116 6.98002 9.37043 6.76425 9.52942 6.60512C9.68842 6.44599 9.90412 6.35654 10.1291 6.35645C10.354 6.35635 10.5698 6.44562 10.7289 6.60462L10.7299 6.60562Z" fill="#434396"/>
</g>
</g>
</g>
</g>
<defs>
<clipPath id="clip0_12587_11294">
<rect width="40" height="40" fill="white" transform="translate(0.5)"/>
</clipPath>
</defs>
</svg>
