<svg width="40" height="40" viewBox="0 0 40 40" fill="none" xmlns="http://www.w3.org/2000/svg">
<g id="Datacenter Proxies" clip-path="url(#clip0_12587_7976)">
<g id="Group">
<path id="Vector (Stroke)" fill-rule="evenodd" clip-rule="evenodd" d="M19.933 30.0928C20.3275 30.0928 20.6473 30.3976 20.6473 30.7736V35.7438C20.6473 36.1199 20.3275 36.4247 19.933 36.4247C19.5385 36.4247 19.2188 36.1199 19.2188 35.7438V30.7736C19.2188 30.3976 19.5385 30.0928 19.933 30.0928Z" fill="#434396"/>
<path id="Vector (Stroke)_2" fill-rule="evenodd" clip-rule="evenodd" d="M6.71777 35.8117C6.71777 35.4357 7.03757 35.1309 7.43205 35.1309H32.4319C32.8264 35.1309 33.1462 35.4357 33.1462 35.8117C33.1462 36.1877 32.8264 36.4926 32.4319 36.4926H7.43205C7.03757 36.4926 6.71777 36.1877 6.71777 35.8117Z" fill="#434396"/>
<path id="Vector (Stroke)_3" fill-rule="evenodd" clip-rule="evenodd" d="M4.93262 10.2794C4.93262 7.08297 7.65061 4.49219 11.004 4.49219H28.861C32.2144 4.49219 34.9324 7.08297 34.9324 10.2794C34.9324 13.4759 32.2144 16.0667 28.861 16.0667H11.004C7.65061 16.0667 4.93262 13.4759 4.93262 10.2794ZM11.004 5.85389C8.43959 5.85389 6.36118 7.83502 6.36118 10.2794C6.36118 12.7238 8.43959 14.705 11.004 14.705H28.861C31.4255 14.705 33.5039 12.7238 33.5039 10.2794C33.5039 7.83502 31.4255 5.85389 28.861 5.85389H11.004Z" fill="#434396"/>
<path id="Vector (Stroke)_4" fill-rule="evenodd" clip-rule="evenodd" d="M4.93262 25.5988C4.93262 22.4023 7.65061 19.8115 11.004 19.8115H28.861C32.2144 19.8115 34.9324 22.4023 34.9324 25.5988C34.9324 28.7952 32.2144 31.386 28.861 31.386H11.004C7.65061 31.386 4.93262 28.7952 4.93262 25.5988ZM11.004 21.1732C8.43959 21.1732 6.36118 23.1544 6.36118 25.5988C6.36118 28.0432 8.43959 30.0243 11.004 30.0243H28.861C31.4255 30.0243 33.5039 28.0432 33.5039 25.5988C33.5039 23.1544 31.4255 21.1732 28.861 21.1732H11.004Z" fill="#434396"/>
<path id="Vector (Stroke)_5" fill-rule="evenodd" clip-rule="evenodd" d="M19.2188 10.2795C19.2188 9.90346 19.5385 9.59863 19.933 9.59863H28.8616C29.256 9.59863 29.5758 9.90346 29.5758 10.2795C29.5758 10.6555 29.256 10.9603 28.8616 10.9603H19.933C19.5385 10.9603 19.2188 10.6555 19.2188 10.2795Z" fill="#434396"/>
<path id="Vector" d="M11.8658 9.79805C12.1448 10.0639 12.1448 10.495 11.8658 10.7609C11.5869 11.0268 11.1346 11.0268 10.8557 10.7609C10.5767 10.495 10.5767 10.0639 10.8557 9.79805C11.1346 9.53216 11.5869 9.53216 11.8658 9.79805Z" fill="#434396"/>
<path id="Vector (Stroke)_6" fill-rule="evenodd" clip-rule="evenodd" d="M19.2188 25.5988C19.2188 25.2228 19.5385 24.918 19.933 24.918H28.8616C29.256 24.918 29.5758 25.2228 29.5758 25.5988C29.5758 25.9748 29.256 26.2797 28.8616 26.2797H19.933C19.5385 26.2797 19.2188 25.9748 19.2188 25.5988Z" fill="#434396"/>
<path id="Vector_2" d="M11.8658 25.1174C12.1448 25.3833 12.1448 25.8144 11.8658 26.0803C11.5869 26.3462 11.1346 26.3462 10.8557 26.0803C10.5767 25.8144 10.5767 25.3833 10.8557 25.1174C11.1346 24.8515 11.5869 24.8515 11.8658 25.1174Z" fill="#434396"/>
</g>
</g>
<defs>
<clipPath id="clip0_12587_7976">
<rect width="40" height="40" fill="white"/>
</clipPath>
</defs>
</svg>
