<svg width="41" height="40" viewBox="0 0 41 40" fill="none" xmlns="http://www.w3.org/2000/svg">
<g id="mobile-sync-download-upload 1">
<path id="Vector" d="M22.167 13.3333V5" stroke="#434396" stroke-width="1.5" stroke-linecap="round" stroke-linejoin="round"/>
<path id="Vector_2" d="M30.5 5V13.3333" stroke="#434396" stroke-width="1.5" stroke-linecap="round" stroke-linejoin="round"/>
<path id="Vector_3" d="M28 7.5L30.5 5L33 7.5" stroke="#434396" stroke-width="1.5" stroke-linecap="round" stroke-linejoin="round"/>
<path id="Vector_4" d="M19.667 10.833L22.167 13.333L24.667 10.833" stroke="#434396" stroke-width="1.5" stroke-linecap="round" stroke-linejoin="round"/>
<path id="Vector_5" d="M30.5 20V31.6667C30.5 32.5507 30.1488 33.3986 29.5237 34.0237C28.8986 34.6488 28.0507 35 27.1667 35H13.8333C12.9493 35 12.1014 34.6488 11.4763 34.0237C10.8512 33.3986 10.5 32.5507 10.5 31.6667V8.33333C10.5 7.44928 10.8512 6.60143 11.4763 5.97631C12.1014 5.35119 12.9493 5 13.8333 5H15.5" stroke="#434396" stroke-width="1.5" stroke-linecap="round" stroke-linejoin="round"/>
<path id="Vector_6" d="M17.167 30H23.8337" stroke="#434396" stroke-width="1.5" stroke-linecap="round" stroke-linejoin="round"/>
</g>
</svg>
