<svg width="48" height="48" viewBox="0 0 48 48" fill="none" xmlns="http://www.w3.org/2000/svg">
<g id="Logo">
<g id="Phone">
<path id="Vector (Stroke)" fill-rule="evenodd" clip-rule="evenodd" d="M21.3341 12.8C21.6287 12.8 21.8674 13.0388 21.8674 13.3334V15.7334C21.8674 15.8356 21.9023 15.9132 21.9392 15.9575C21.9748 16.0002 21.9988 16.0001 22.0007 16H26.0008C26.0027 16.0001 26.0268 16.0002 26.0624 15.9575C26.0992 15.9132 26.1341 15.8356 26.1341 15.7334V13.3334C26.1341 13.0388 26.3729 12.8 26.6674 12.8C26.962 12.8 27.2008 13.0388 27.2008 13.3334V15.7334C27.2008 16.374 26.7504 17.0667 26.0008 17.0667H22.0008C21.2512 17.0667 20.8008 16.374 20.8008 15.7334V13.3334C20.8008 13.0388 21.0396 12.8 21.3341 12.8Z" fill="#434396"/>
<path id="Vector (Stroke)_2" fill-rule="evenodd" clip-rule="evenodd" d="M21.9746 31.3334C21.9746 31.0388 22.2134 30.8 22.5079 30.8H25.4946C25.7892 30.8 26.0279 31.0388 26.0279 31.3334C26.0279 31.6279 25.7892 31.8667 25.4946 31.8667H22.5079C22.2134 31.8667 21.9746 31.6279 21.9746 31.3334Z" fill="#434396"/>
<path id="Vector (Stroke)_3" fill-rule="evenodd" clip-rule="evenodd" d="M20.0008 13.8667C18.822 13.8667 17.8674 14.8213 17.8674 16V32C17.8674 33.1788 18.822 34.1334 20.0008 34.1334H28.0008C29.1796 34.1334 30.1341 33.1788 30.1341 32V16C30.1341 14.8213 29.1796 13.8667 28.0008 13.8667H20.0008ZM16.8008 16C16.8008 14.2322 18.2329 12.8 20.0008 12.8H28.0008C29.7687 12.8 31.2008 14.2322 31.2008 16V32C31.2008 33.7679 29.7687 35.2 28.0008 35.2H20.0008C18.2329 35.2 16.8008 33.7679 16.8008 32V16Z" fill="#434396"/>
</g>
<circle id="Ellipse" opacity="0.06" cx="24" cy="24" r="24" fill="#434396"/>
</g>
</svg>
