<svg width="40" height="40" viewBox="0 0 40 40" fill="none" xmlns="http://www.w3.org/2000/svg">
<g id="saas-logo-hero 1">
<path id="Vector" fill-rule="evenodd" clip-rule="evenodd" d="M5 5.64407C5 5.28834 5.28835 5 5.64408 5H23.356C23.7117 5 24 5.28834 24 5.64407V23.3559C24 23.7116 23.7117 24 23.356 24H5.64408C5.28835 24 5 23.7116 5 23.3559V5.64407ZM6.28812 6.28815V22.7119H22.7119V6.28815H6.28812Z" fill="#0B5398"/>
<path id="Vector_2" fill-rule="evenodd" clip-rule="evenodd" d="M33.4761 26.2324C35.0521 19.1301 28.8715 12.949 21.7676 14.5236C18.1997 15.3149 15.3152 18.1995 14.524 21.7676C12.9481 28.8698 19.1285 35.0511 26.2325 33.4764C29.8005 32.6852 32.6849 29.8005 33.4761 26.2324ZM34.721 26.5086C34.721 26.5085 34.721 26.5086 34.721 26.5086V26.5086ZM34.721 26.5086C33.8226 30.5607 30.5601 33.8229 26.5085 34.7214C18.4941 36.498 11.5009 29.5047 13.279 21.4915C14.1775 17.4395 17.4398 14.1771 21.4916 13.2785C29.5059 11.5022 36.499 18.4951 34.721 26.5086Z" fill="#0B5398"/>
</g>
</svg>
