<svg width="32" height="32" viewBox="0 0 32 32" fill="none" xmlns="http://www.w3.org/2000/svg">
<g clip-path="url(#clip0_2544_10787)">
<path d="M15.668 9.3335V11.0002" stroke="#CF2F2F" stroke-width="1.2" stroke-linecap="round" stroke-linejoin="round"/>
<path d="M15.668 22.6667V21" stroke="#CF2F2F" stroke-width="1.2" stroke-linecap="round" stroke-linejoin="round"/>
<path d="M18.9833 13.3333C18.8967 12.032 17.8233 11 16.5007 11H14.674C13.3807 11 12.334 12.048 12.334 13.34C12.334 14.4133 13.0647 15.3493 14.1047 15.6107L17.2287 16.3947C18.27 16.656 18.9993 17.592 18.9993 18.6653C18.9993 19.9587 17.9513 21.0053 16.6593 21.0053H14.8327C13.5073 21.0053 12.434 19.9707 12.3487 18.6667" stroke="#CF2F2F" stroke-width="1.2" stroke-linecap="round" stroke-linejoin="round"/>
<path d="M7.82617 7.82943C9.91817 5.73743 12.8088 4.44409 16.0022 4.44409C22.3875 4.44409 27.5648 9.61876 27.5648 16.0014C27.5648 16.8921 27.4542 17.7561 27.2635 18.5894" stroke="#CF2F2F" stroke-width="1.2" stroke-linecap="round" stroke-linejoin="round"/>
<path d="M25.4766 16.8027L27.5659 18.8921L29.6552 16.8027" stroke="#CF2F2F" stroke-width="1.2" stroke-linecap="round" stroke-linejoin="round"/>
<path d="M24.1742 24.1706C22.0822 26.2626 19.1915 27.556 15.9982 27.556C9.61288 27.556 4.43555 22.3813 4.43555 15.9986C4.43555 15.108 4.54621 14.244 4.73688 13.4106" stroke="#CF2F2F" stroke-width="1.2" stroke-linecap="round" stroke-linejoin="round"/>
<path d="M6.52437 15.1975L4.43504 13.1082L2.3457 15.1975" stroke="#CF2F2F" stroke-width="1.2" stroke-linecap="round" stroke-linejoin="round"/>
</g>
<defs>
<clipPath id="clip0_2544_10787">
<rect width="32" height="32" fill="white"/>
</clipPath>
</defs>
</svg>
