<svg width="32" height="32" viewBox="0 0 32 32" fill="none" xmlns="http://www.w3.org/2000/svg">
<g id="self-managed scraping" clip-path="url(#clip0_12518_466)">
<g id="Group">
<g id="Group_2">
<path id="Vector (Stroke)" fill-rule="evenodd" clip-rule="evenodd" d="M16.0009 4.43605C14.2516 4.43605 12.8342 5.85448 12.8342 7.60272C12.8342 9.34899 14.251 10.7669 16.0012 10.7694C17.7504 10.7692 19.1676 9.35085 19.1676 7.60272C19.1676 5.85339 17.7492 4.43605 16.0009 4.43605ZM11.7676 7.60272C11.7676 5.26562 13.6622 3.36938 16.0009 3.36938C18.338 3.36938 20.2342 5.26404 20.2342 7.60272C20.2342 9.93981 18.3396 11.8361 16.0009 11.8361H16.0002C13.6626 11.833 11.7676 9.93899 11.7676 7.60272Z" fill="#34CCA9"/>
<path id="Vector (Stroke)_2" fill-rule="evenodd" clip-rule="evenodd" d="M7.03411 19.2307C5.28479 19.2307 3.86745 20.6492 3.86745 22.3974C3.86745 24.1468 5.28467 25.5641 7.03411 25.5641C8.78312 25.5641 10.1996 24.1459 10.2008 22.397C10.2006 20.6479 8.78224 19.2307 7.03411 19.2307ZM2.80078 22.3974C2.80078 20.0603 4.69544 18.1641 7.03411 18.1641C9.37121 18.1641 11.2674 20.0587 11.2674 22.3974V22.3977C11.2659 24.7342 9.37311 26.6307 7.03411 26.6307C4.69556 26.6307 2.80078 24.7359 2.80078 22.3974Z" fill="#34CCA9"/>
<path id="Vector (Stroke)_3" fill-rule="evenodd" clip-rule="evenodd" d="M24.9697 19.2307C23.2203 19.2307 21.803 20.6492 21.803 22.3974C21.803 24.147 23.219 25.5641 24.9697 25.5641C26.719 25.5641 28.1363 24.1456 28.1363 22.3974C28.1363 20.6481 26.7179 19.2307 24.9697 19.2307ZM20.7363 22.3974C20.7363 20.0603 22.631 18.1641 24.9697 18.1641C27.3068 18.1641 29.203 20.0587 29.203 22.3974C29.203 24.7345 27.3083 26.6307 24.9697 26.6307C22.6297 26.6307 20.7363 24.7358 20.7363 22.3974Z" fill="#34CCA9"/>
<path id="Vector (Stroke)_4" fill-rule="evenodd" clip-rule="evenodd" d="M11.6056 14.447C11.8535 14.606 11.9256 14.9359 11.7666 15.1839L9.08389 19.3665C8.92487 19.6145 8.59497 19.6866 8.34703 19.5275C8.09909 19.3685 8.02701 19.0386 8.18603 18.7907L10.8687 14.608C11.0277 14.3601 11.3576 14.288 11.6056 14.447Z" fill="#34CCA9"/>
<path id="Vector (Stroke)_5" fill-rule="evenodd" clip-rule="evenodd" d="M17.7102 10.2645C17.9581 10.1054 18.288 10.1774 18.4471 10.4253L21.1311 14.608C21.2902 14.8559 21.2182 15.1858 20.9703 15.3449C20.7224 15.5039 20.3925 15.4319 20.2334 15.184L17.5494 11.0014C17.3903 10.7535 17.4623 10.4235 17.7102 10.2645Z" fill="#34CCA9"/>
<path id="Vector (Stroke)_6" fill-rule="evenodd" clip-rule="evenodd" d="M15.4668 22.3973C15.4668 22.1028 15.7056 21.864 16.0001 21.864H21.2681C21.5627 21.864 21.8015 22.1028 21.8015 22.3973C21.8015 22.6919 21.5627 22.9307 21.2681 22.9307H16.0001C15.7056 22.9307 15.4668 22.6919 15.4668 22.3973Z" fill="#34CCA9"/>
</g>
</g>
</g>
<defs>
<clipPath id="clip0_12518_466">
<rect width="32" height="32" fill="white"/>
</clipPath>
</defs>
</svg>
