<svg width="32" height="32" viewBox="0 0 32 32" fill="none" xmlns="http://www.w3.org/2000/svg">
<g clip-path="url(#clip0_2544_10758)">
<path d="M4 11.9999V7.99992C4 6.52659 5.19333 5.33325 6.66667 5.33325H25.3333C26.8067 5.33325 28 6.52659 28 7.99992V23.9999C28 25.4733 26.8067 26.6666 25.3333 26.6666H17.3333" stroke="#434396" stroke-width="1.2" stroke-linecap="round" stroke-linejoin="round"/>
<path d="M11.9993 26.6666L11.6647 25.8266C11.4953 25.4013 11.2327 25.0186 10.8967 24.7079C10.3273 24.1799 9.57935 23.8879 8.80468 23.8879H5.86068C5.08468 23.8879 4.33802 24.1813 3.76868 24.7079C3.43268 25.0186 3.17002 25.4013 3.00068 25.8266L2.66602 26.6666" stroke="#434396" stroke-width="1.2" stroke-linecap="round" stroke-linejoin="round"/>
<path d="M8.98105 16.684C9.89171 17.5947 9.89171 19.072 8.98105 19.984C8.07038 20.8947 6.59305 20.8947 5.68105 19.984C4.77038 19.0733 4.77038 17.596 5.68105 16.684C6.59305 15.772 8.07038 15.772 8.98105 16.684Z" stroke="#434396" stroke-width="1.2" stroke-linecap="round" stroke-linejoin="round"/>
<path d="M14.666 20V12" stroke="#434396" stroke-width="1.2" stroke-linecap="round" stroke-linejoin="round"/>
<path d="M18.666 20V15.5667" stroke="#434396" stroke-width="1.2" stroke-linecap="round" stroke-linejoin="round"/>
<path d="M22.666 19.9999V12.7266" stroke="#434396" stroke-width="1.2" stroke-linecap="round" stroke-linejoin="round"/>
</g>
<defs>
<clipPath id="clip0_2544_10758">
<rect width="32" height="32" fill="white"/>
</clipPath>
</defs>
</svg>
