<svg width="32" height="32" viewBox="0 0 32 32" fill="none" xmlns="http://www.w3.org/2000/svg">
<g clip-path="url(#clip0_2544_10829)">
<path d="M15.8535 16.1467L16.5868 15.4133" stroke="#34CCA9" stroke-width="1.2" stroke-linecap="round" stroke-linejoin="round"/>
<path d="M11.4267 20.5732L10.6934 21.3066" stroke="#34CCA9" stroke-width="1.2" stroke-linecap="round" stroke-linejoin="round"/>
<path d="M10.6837 18.7613C10.5623 19.2639 10.6717 19.8053 11.065 20.1986L11.433 20.5666L11.8717 21.0053C12.4423 21.5759 13.3677 21.5759 13.9383 21.0053C14.4117 20.5319 14.5037 19.7959 14.1583 19.2213L13.125 17.4959C12.781 16.9213 12.8717 16.1853 13.345 15.7119C13.9157 15.1413 14.841 15.1413 15.4117 15.7119L15.8503 16.1506L16.2183 16.5186C16.6103 16.9106 16.7197 17.4506 16.601 17.9519" stroke="#34CCA9" stroke-width="1.2" stroke-linecap="round" stroke-linejoin="round"/>
<path d="M21.7071 10.2929C22.0976 10.6834 22.0976 11.3166 21.7071 11.7071C21.3166 12.0976 20.6834 12.0976 20.2929 11.7071C19.9024 11.3166 19.9024 10.6834 20.2929 10.2929C20.6834 9.90237 21.3166 9.90237 21.7071 10.2929Z" fill="#34CCA9"/>
<path d="M18.0157 5.33325H23.8623C25.4117 5.33325 26.6663 6.58792 26.6663 8.13592V13.9826C26.6663 14.7266 26.3703 15.4386 25.845 15.9653L14.6317 27.1786C13.537 28.2733 11.7623 28.2733 10.6677 27.1786L4.821 21.3319C3.72633 20.2373 3.72633 18.4626 4.821 17.3679L16.0343 6.15459C16.5597 5.62925 17.273 5.33325 18.0157 5.33325V5.33325Z" stroke="#34CCA9" stroke-width="1.2" stroke-linecap="round" stroke-linejoin="round"/>
</g>
<defs>
<clipPath id="clip0_2544_10829">
<rect width="32" height="32" fill="white"/>
</clipPath>
</defs>
</svg>
