<svg width="24" height="24" viewBox="0 0 24 24" fill="none" xmlns="http://www.w3.org/2000/svg">
<g id="servers-databases-19 1">
<path id="Vector" d="M12 16V18.5" stroke="#7D7D82" stroke-linecap="round" stroke-linejoin="round"/>
<path id="Vector_2" d="M13.5 20H20" stroke="#7D7D82" stroke-linecap="round" stroke-linejoin="round"/>
<path id="Vector_3" d="M4 20H10.5" stroke="#7D7D82" stroke-linecap="round" stroke-linejoin="round"/>
<path id="Vector_4" d="M13.0607 18.9393C13.6464 19.5251 13.6464 20.4749 13.0607 21.0607C12.4749 21.6464 11.5251 21.6464 10.9393 21.0607C10.3536 20.4749 10.3536 19.5251 10.9393 18.9393C11.5251 18.3536 12.4749 18.3536 13.0607 18.9393Z" stroke="#7D7D82" stroke-linecap="round" stroke-linejoin="round"/>
<path id="Vector_5" d="M12 3C15.598 3 18.5 5.902 18.5 9.5C18.5 13.098 15.598 16 12 16" stroke="#7D7D82" stroke-linecap="round" stroke-linejoin="round"/>
<path id="Vector_6" d="M12 16C8.402 16 5.5 13.098 5.5 9.5C5.5 5.902 8.402 3 12 3" stroke="#7D7D82" stroke-linecap="round" stroke-linejoin="round"/>
<path id="Vector_7" d="M10.6766 3.765C8.58958 7.25 8.58958 11.75 10.6766 15.235C11.2876 16.255 12.7126 16.255 13.3236 15.235C15.4106 11.75 15.4106 7.25 13.3236 3.765C12.7116 2.745 11.2876 2.745 10.6766 3.765Z" stroke="#7D7D82" stroke-linecap="round" stroke-linejoin="round"/>
<path id="Vector_8" d="M5.5 9.5H18.5" stroke="#7D7D82" stroke-linecap="round" stroke-linejoin="round"/>
</g>
</svg>
