<svg width="32" height="32" viewBox="0 0 32 32" fill="none" xmlns="http://www.w3.org/2000/svg">
<g clip-path="url(#clip0_2544_10697)">
<path d="M10.666 5.33325L8.66602 7.33325" stroke="#434396" stroke-width="1.2" stroke-linecap="round" stroke-linejoin="round"/>
<path d="M8.66602 3.33325L10.666 5.33325" stroke="#434396" stroke-width="1.2" stroke-linecap="round" stroke-linejoin="round"/>
<path d="M10.6667 5.33325H8C5.79067 5.33325 4 7.12392 4 9.33325" stroke="#434396" stroke-width="1.2" stroke-linecap="round" stroke-linejoin="round"/>
<path d="M21.334 26.6665L23.334 24.6665" stroke="#434396" stroke-width="1.2" stroke-linecap="round" stroke-linejoin="round"/>
<path d="M23.334 28.6665L21.334 26.6665" stroke="#434396" stroke-width="1.2" stroke-linecap="round" stroke-linejoin="round"/>
<path d="M21.334 26.6665H24.0007C26.21 26.6665 28.0007 24.8758 28.0007 22.6665" stroke="#434396" stroke-width="1.2" stroke-linecap="round" stroke-linejoin="round"/>
<path d="M13.5371 8.20395C13.7264 7.95462 13.9211 7.70795 14.1478 7.48129C16.9998 4.62929 21.6664 4.62929 24.5184 7.48129C27.3704 10.3333 27.3704 15 24.5184 17.852C24.2904 18.08 24.0411 18.2706 23.7891 18.456" stroke="#434396" stroke-width="1.2" stroke-linecap="round" stroke-linejoin="round"/>
<path d="M12.666 26.6667C16.6993 26.6667 20.0007 23.3667 20.0007 19.3347C20.0007 15.3027 16.6993 12 12.666 12C8.63265 12 5.33398 15.3 5.33398 19.3347C5.33398 20.98 5.88998 22.4973 6.81265 23.724C8.15398 25.5053 10.2793 26.6667 12.666 26.6667Z" stroke="#434396" stroke-width="1.2" stroke-linecap="round" stroke-linejoin="round"/>
<path d="M12.666 16.3346V15.668" stroke="#434396" stroke-width="1.2" stroke-linecap="round" stroke-linejoin="round"/>
<path d="M12.666 22.3345V23.0011" stroke="#434396" stroke-width="1.2" stroke-linecap="round" stroke-linejoin="round"/>
<path d="M10.93 21.6186C11.1887 22.0426 11.6313 22.3359 12.166 22.3359H12.666H13.262C14.038 22.3359 14.666 21.7066 14.666 20.9319C14.666 20.2879 14.2273 19.7266 13.6033 19.5693L11.7287 19.0986C11.1047 18.9426 10.666 18.3813 10.666 17.7373C10.666 16.9613 11.2953 16.3333 12.07 16.3333H12.666H13.166C13.6993 16.3333 14.1407 16.6253 14.3993 17.0479" stroke="#434396" stroke-width="1.2" stroke-linecap="round" stroke-linejoin="round"/>
</g>
<defs>
<clipPath id="clip0_2544_10697">
<rect width="32" height="32" fill="white"/>
</clipPath>
</defs>
</svg>
