<svg width="32" height="32" viewBox="0 0 32 32" fill="none" xmlns="http://www.w3.org/2000/svg">
<g clip-path="url(#clip0_2544_10802)">
<path d="M12.4631 21.6892V8.55988C12.4631 6.78388 11.0244 5.34521 9.24841 5.34521C7.78307 5.34521 6.50441 6.33588 6.13641 7.75322L2.81641 20.5666" stroke="#218AEF" stroke-width="1.2" stroke-linecap="round" stroke-linejoin="round"/>
<path d="M11.0286 18.3042C12.9416 20.2172 12.9416 23.3189 11.0286 25.2319C9.11551 27.145 6.01386 27.145 4.10081 25.2319C2.18775 23.3189 2.18775 20.2172 4.10081 18.3042C6.01386 16.3911 9.11551 16.3911 11.0286 18.3042" stroke="#218AEF" stroke-width="1.2"/>
<path d="M19.5371 21.6892V8.55988C19.5371 6.78388 20.9758 5.34521 22.7518 5.34521C24.2171 5.34521 25.4958 6.33588 25.8638 7.75322L29.1838 20.5666" stroke="#218AEF" stroke-width="1.2" stroke-linecap="round" stroke-linejoin="round"/>
<path d="M19.5376 13.3333C19.5376 11.376 17.9536 9.78931 16.0002 9.78931C14.0469 9.78931 12.4629 11.376 12.4629 13.3333" stroke="#218AEF" stroke-width="1.2" stroke-linecap="round" stroke-linejoin="round"/>
<path d="M12.4629 21.3333C12.4629 19.376 14.0469 17.7893 16.0002 17.7893C17.9536 17.7893 19.5376 19.376 19.5376 21.3333" stroke="#218AEF" stroke-width="1.2" stroke-linecap="round" stroke-linejoin="round"/>
<path d="M27.8977 18.3042C29.8108 20.2172 29.8108 23.3189 27.8977 25.2319C25.9847 27.145 22.883 27.145 20.9699 25.2319C19.0569 23.3189 19.0569 20.2172 20.9699 18.3042C22.883 16.3911 25.9847 16.3911 27.8977 18.3042" stroke="#218AEF" stroke-width="1.2"/>
</g>
<defs>
<clipPath id="clip0_2544_10802">
<rect width="32" height="32" fill="white"/>
</clipPath>
</defs>
</svg>
