<svg width="32" height="32" viewBox="0 0 32 32" fill="none" xmlns="http://www.w3.org/2000/svg">
<g id="Cybersecurity" clip-path="url(#clip0_2544_10682)">
<g id="Group">
<g id="Group_2">
<path id="Vector" d="M26.111 5.87482C26.991 6.75349 26.991 8.17882 26.111 9.05749C25.231 9.93615 23.8056 9.93615 22.9256 9.05749C22.0456 8.17882 22.0456 6.75349 22.9256 5.87482C23.8056 4.99615 25.231 4.99615 26.111 5.87482Z" stroke="#218AEF" stroke-width="1.2" stroke-linecap="round" stroke-linejoin="round"/>
</g>
<g id="Group_3">
<path id="Vector_2" d="M5.90805 26.1254C5.02805 25.2467 5.02805 23.8214 5.90805 22.9427C6.78805 22.064 8.21338 22.064 9.09338 22.9427C9.97338 23.8214 9.97338 25.2467 9.09338 26.1254C8.21338 27.004 6.78671 27.004 5.90805 26.1254Z" stroke="#218AEF" stroke-width="1.2" stroke-linecap="round" stroke-linejoin="round"/>
</g>
<path id="Vector_3" d="M9.25586 25.9308C13.9305 29.1068 20.3465 28.6295 24.4919 24.4881C26.8372 22.1441 28.0105 19.0721 28.0105 16.0001C28.0105 15.2908 27.9679 14.5828 27.8425 13.8828" stroke="#218AEF" stroke-width="1.2" stroke-linecap="round" stroke-linejoin="round"/>
<path id="Vector_4" d="M4.17777 18.1174C4.05243 17.4174 4.00977 16.7094 4.00977 16.0001C4.00977 12.9281 5.1831 9.85608 7.52843 7.51208C11.6724 3.37075 18.0898 2.89341 22.7644 6.06941" stroke="#218AEF" stroke-width="1.2" stroke-linecap="round" stroke-linejoin="round"/>
<path id="Vector_5" d="M16 21C16 21 20 19.0813 20 16.204V12.9053L17.0827 11.856C16.3813 11.604 15.616 11.604 14.9147 11.856L12 12.9053V16.204C12 19.0813 16 21 16 21Z" stroke="#218AEF" stroke-width="1.2" stroke-linecap="round" stroke-linejoin="round"/>
</g>
</g>
<defs>
<clipPath id="clip0_2544_10682">
<rect width="32" height="32" fill="white"/>
</clipPath>
</defs>
</svg>
