<svg width="32" height="32" viewBox="0 0 32 32" fill="none" xmlns="http://www.w3.org/2000/svg">
<g clip-path="url(#clip0_2544_10816)">
<path d="M17.2528 14.7466L7.82617 24.1732" stroke="#434396" stroke-width="1.2" stroke-linecap="round" stroke-linejoin="round"/>
<path d="M8.84394 17.332L4.2266 16.2414C3.7186 16.1214 3.53994 15.4907 3.90794 15.1214L7.57994 11.4494C7.8266 11.2027 8.16127 11.0614 8.51194 11.0587L12.6519 11.0227" stroke="#434396" stroke-width="1.2" stroke-linecap="round" stroke-linejoin="round"/>
<path d="M26.5061 11.9667L27.5834 6.78274C27.8767 5.37207 26.6287 4.12407 25.2181 4.41741L20.0341 5.49474C18.5074 5.81207 17.1074 6.56807 16.0061 7.67074L11.7527 11.9227C10.1301 13.5454 9.07408 15.6494 8.74075 17.9201L8.72608 18.0174C8.51541 19.4667 9.00075 20.9294 10.0354 21.9654C11.0701 23.0001 12.5341 23.4854 13.9834 23.2734L14.0807 23.2587C16.3514 22.9267 18.4554 21.8694 20.0781 20.2467L24.3301 15.9947C25.4327 14.8934 26.1887 13.4934 26.5061 11.9667V11.9667Z" stroke="#434396" stroke-width="1.2" stroke-linecap="round" stroke-linejoin="round"/>
<path d="M17.8672 6.2854C20.9485 8.38673 23.6139 11.0521 25.7152 14.1334" stroke="#434396" stroke-width="1.2" stroke-linecap="round" stroke-linejoin="round"/>
<path d="M14.666 23.1559L15.7567 27.7732C15.8767 28.2812 16.5073 28.4599 16.8767 28.0919L20.5487 24.4199C20.7953 24.1732 20.9367 23.8386 20.9393 23.4879L20.9753 19.3479" stroke="#434396" stroke-width="1.2" stroke-linecap="round" stroke-linejoin="round"/>
</g>
<defs>
<clipPath id="clip0_2544_10816">
<rect width="32" height="32" fill="white"/>
</clipPath>
</defs>
</svg>
