<svg width="24" height="24" viewBox="0 0 24 24" fill="none" xmlns="http://www.w3.org/2000/svg">
<g id="server-databases-synchronize.1 1">
<path id="Vector" d="M12 19.5003V11.6074" stroke="#7D7D82" stroke-linecap="round" stroke-linejoin="round"/>
<path id="Vector_2" d="M3 11.6074V19.5003" stroke="#7D7D82" stroke-linecap="round" stroke-linejoin="round"/>
<path id="Vector_3" d="M12 11.6074C12 10.7788 9.98529 10.1074 7.5 10.1074C5.01471 10.1074 3 10.7788 3 11.6074" stroke="#7D7D82" stroke-linecap="round" stroke-linejoin="round"/>
<path id="Vector_4" d="M3 19.5C3 20.3286 5.01471 21 7.5 21C9.98529 21 12 20.3286 12 19.5" stroke="#7D7D82" stroke-linecap="round" stroke-linejoin="round"/>
<path id="Vector_5" d="M3 16C3 16.8286 5.01471 17.5 7.5 17.5C9.98529 17.5 12 16.8286 12 16" stroke="#7D7D82" stroke-linecap="round" stroke-linejoin="round"/>
<path id="Vector_6" d="M3 12.5C3 13.3286 5.01471 14 7.5 14C9.98529 14 12 13.3286 12 12.5" stroke="#7D7D82" stroke-linecap="round" stroke-linejoin="round"/>
<path id="Vector_7" d="M16 14C18.7614 14 21 13.2007 21 12.2143V3.78571C21 2.79929 18.7614 2 16 2C13.2386 2 11 2.79929 11 3.78571V7" stroke="#7D7D82" stroke-linecap="round" stroke-linejoin="round"/>
<path id="Vector_8" d="M21 8.375C21 9.36143 18.7614 10.1607 16 10.1607" stroke="#7D7D82" stroke-linecap="round" stroke-linejoin="round"/>
<path id="Vector_9" d="M21 4.625C21 5.61143 18.7614 6.41071 16 6.41071C13.2386 6.41071 11 5.61143 11 4.625" stroke="#7D7D82" stroke-linecap="round" stroke-linejoin="round"/>
<path id="Vector_10" d="M6 3L3 6" stroke="#7D7D82" stroke-linecap="round" stroke-linejoin="round"/>
<path id="Vector_11" d="M3 3H6" stroke="#7D7D82" stroke-linecap="round" stroke-linejoin="round"/>
<path id="Vector_12" d="M6 6V3" stroke="#7D7D82" stroke-linecap="round" stroke-linejoin="round"/>
<path id="Vector_13" d="M17 21L20 18" stroke="#7D7D82" stroke-linecap="round" stroke-linejoin="round"/>
<path id="Vector_14" d="M20 21H17" stroke="#7D7D82" stroke-linecap="round" stroke-linejoin="round"/>
<path id="Vector_15" d="M17 18V21" stroke="#7D7D82" stroke-linecap="round" stroke-linejoin="round"/>
</g>
</svg>
