<svg width="48" height="48" viewBox="0 0 48 48" fill="none" xmlns="http://www.w3.org/2000/svg">
<g id="Logo">
<circle id="Ellipse" opacity="0.06" cx="24" cy="24" r="24" fill="#218AEF"/>
<g id="Group">
<path id="Vector (Stroke)" fill-rule="evenodd" clip-rule="evenodd" d="M24.0001 31.5203C24.2947 31.5203 24.5335 31.759 24.5335 32.0536V35.9469C24.5335 36.2415 24.2947 36.4803 24.0001 36.4803C23.7056 36.4803 23.4668 36.2415 23.4668 35.9469V32.0536C23.4668 31.759 23.7056 31.5203 24.0001 31.5203Z" fill="#218AEF"/>
<path id="Vector (Stroke)_2" fill-rule="evenodd" clip-rule="evenodd" d="M14.1348 36.0001C14.1348 35.7056 14.3735 35.4668 14.6681 35.4668H33.3348C33.6293 35.4668 33.8681 35.7056 33.8681 36.0001C33.8681 36.2947 33.6293 36.5335 33.3348 36.5335H14.6681C14.3735 36.5335 14.1348 36.2947 14.1348 36.0001Z" fill="#218AEF"/>
<path id="Vector (Stroke)_3" fill-rule="evenodd" clip-rule="evenodd" d="M12.8008 16.0001C12.8008 13.4962 14.8302 11.4668 17.3341 11.4668H30.6674C33.1713 11.4668 35.2008 13.4962 35.2008 16.0001C35.2008 18.504 33.1713 20.5335 30.6674 20.5335H17.3341C14.8302 20.5335 12.8008 18.504 12.8008 16.0001ZM17.3341 12.5335C15.4193 12.5335 13.8674 14.0853 13.8674 16.0001C13.8674 17.9149 15.4193 19.4668 17.3341 19.4668H30.6674C32.5822 19.4668 34.1341 17.9149 34.1341 16.0001C34.1341 14.0853 32.5822 12.5335 30.6674 12.5335H17.3341Z" fill="#218AEF"/>
<path id="Vector (Stroke)_4" fill-rule="evenodd" clip-rule="evenodd" d="M12.8008 28.0001C12.8008 25.4962 14.8302 23.4668 17.3341 23.4668H30.6674C33.1713 23.4668 35.2008 25.4962 35.2008 28.0001C35.2008 30.504 33.1713 32.5335 30.6674 32.5335H17.3341C14.8302 32.5335 12.8008 30.504 12.8008 28.0001ZM17.3341 24.5335C15.4193 24.5335 13.8674 26.0853 13.8674 28.0001C13.8674 29.9149 15.4193 31.4668 17.3341 31.4668H30.6674C32.5822 31.4668 34.1341 29.9149 34.1341 28.0001C34.1341 26.0853 32.5822 24.5335 30.6674 24.5335H17.3341Z" fill="#218AEF"/>
<path id="Vector (Stroke)_5" fill-rule="evenodd" clip-rule="evenodd" d="M23.4668 16.0001C23.4668 15.7056 23.7056 15.4668 24.0001 15.4668H30.6668C30.9613 15.4668 31.2001 15.7056 31.2001 16.0001C31.2001 16.2947 30.9613 16.5335 30.6668 16.5335H24.0001C23.7056 16.5335 23.4668 16.2947 23.4668 16.0001Z" fill="#218AEF"/>
<path id="Vector" d="M17.9788 15.623C18.1871 15.8313 18.1871 16.169 17.9788 16.3773C17.7705 16.5855 17.4328 16.5855 17.2246 16.3773C17.0163 16.169 17.0163 15.8313 17.2246 15.623C17.4328 15.4147 17.7705 15.4147 17.9788 15.623Z" fill="#218AEF"/>
<path id="Vector (Stroke)_6" fill-rule="evenodd" clip-rule="evenodd" d="M23.4668 28.0001C23.4668 27.7056 23.7056 27.4668 24.0001 27.4668H30.6668C30.9613 27.4668 31.2001 27.7056 31.2001 28.0001C31.2001 28.2947 30.9613 28.5335 30.6668 28.5335H24.0001C23.7056 28.5335 23.4668 28.2947 23.4668 28.0001Z" fill="#218AEF"/>
<path id="Vector_2" d="M17.9788 27.623C18.1871 27.8313 18.1871 28.169 17.9788 28.3773C17.7705 28.5855 17.4328 28.5855 17.2246 28.3773C17.0163 28.169 17.0163 27.8313 17.2246 27.623C17.4328 27.4147 17.7705 27.4147 17.9788 27.623Z" fill="#218AEF"/>
</g>
</g>
</svg>
