<svg width="41" height="40" viewBox="0 0 41 40" fill="none" xmlns="http://www.w3.org/2000/svg">
<g id="sotial">
<g id="Share_x5F_Android">
<path id="Vector" d="M20.5098 31C17.4723 31 14.7223 29.769 12.7318 27.7785C10.7408 25.7875 9.50977 23.0375 9.50977 20C9.50977 16.963 10.7403 14.2139 12.7299 12.2234C14.7204 10.232 17.4713 9 20.5093 9C26.5842 9 31.5093 13.9246 31.5093 20C31.5093 26.0754 26.5847 31 20.5098 31Z" stroke="#F9FAFB" stroke-width="1.89753" stroke-miterlimit="10" stroke-linecap="round" stroke-linejoin="round"/>
<path id="Vector_2" d="M15.8465 22.3727C17.1565 22.3727 18.2184 21.3108 18.2184 20.0008C18.2184 18.6908 17.1565 17.6289 15.8465 17.6289C14.5366 17.6289 13.4746 18.6908 13.4746 20.0008C13.4746 21.3108 14.5366 22.3727 15.8465 22.3727Z" stroke="#F9FAFB" stroke-width="1.89753" stroke-miterlimit="10" stroke-linecap="round" stroke-linejoin="round"/>
<path id="Vector_3" d="M20.1172 15.2547C20.1172 13.945 21.1793 12.8828 22.4891 12.8828C23.7989 12.8828 24.861 13.945 24.861 15.2547C24.861 16.5645 23.7989 17.6266 22.4891 17.6266C21.7524 17.6266 21.0939 17.2908 20.6589 16.7633C20.3202 16.3534 20.1172 15.8278 20.1172 15.2547Z" stroke="#F9FAFB" stroke-width="1.89753" stroke-miterlimit="10" stroke-linecap="round" stroke-linejoin="round"/>
<path id="Vector_4" d="M22.4891 27.1149C23.7991 27.1149 24.861 26.053 24.861 24.743C24.861 23.433 23.7991 22.3711 22.4891 22.3711C21.1791 22.3711 20.1172 23.433 20.1172 24.743C20.1172 26.053 21.1791 27.1149 22.4891 27.1149Z" stroke="#F9FAFB" stroke-width="1.89753" stroke-miterlimit="10" stroke-linecap="round" stroke-linejoin="round"/>
<path id="Vector_5" d="M17.7363 18.5696L20.51 16.5625" stroke="#F9FAFB" stroke-width="1.89753" stroke-miterlimit="10" stroke-linecap="round" stroke-linejoin="round"/>
<path id="Vector_6" d="M20.5096 23.3133L18.1523 21.7227" stroke="#F9FAFB" stroke-width="1.89753" stroke-miterlimit="10" stroke-linecap="round" stroke-linejoin="round"/>
</g>
</g>
</svg>
